<?xml version="1.0" encoding="utf-8"?>
<!-- Generator: Adobe Illustrator 19.0.0, SVG Export Plug-In . SVG Version: 6.00 Build 0)  -->
<svg version="1.1" id="Layer_1" xmlns="http://www.w3.org/2000/svg" xmlns:xlink="http://www.w3.org/1999/xlink" x="0px" y="0px"
	 viewBox="-389 111 500 500" style="enable-background:new -389 111 500 500;" xml:space="preserve">
<style type="text/css">
	.st0{fill:#4891CE;}
	.st1{fill:#C7D9EA;}
	.st2{fill:#E3173E;}
	.st3{fill:#FFFFFF;}
</style>
<g>
	<path id="XMLID_10_" class="st0" d="M-118,436.2l15.8-3.9l1-0.2l0.5-1l5.1-9.5l23-5.2l1,7.8l0.1,0.7l1-0.3l14.9-3.5l1.8-0.4
		l-0.1-1.3l-3.9-30.5c-4.2,3.7-8.5,7.3-12.9,10.8c0.4,4.7,0.6,9.7,0.9,14.4c-2.9-3-6-5.7-9.1-8.5c-4.1,2.7-8.3,5.2-12.7,7.3
		c2.4-4,4.7-8,6.9-11.9c-3-2.3-6.1-4.4-9.4-6.3l14-2.2c2.7-5.1,5.1-10.2,7.4-15.3c0.1,0.7,0.1,1.5,0.1,2.4l8.7-20.8
		c-6.6,1-13.3,1.9-19.9,2.9l-0.5,0.8l-2.5,4.3l-0.4,0.7l0.6,0.4c1.3,0.7,2.1,2,2.1,3.4l-28.2,52.3l-3.9,0.9l-26.5,6.2l4.9-19.6
		l24.7-4.5l7.2-12.7l-28.9,5.2l4.6-18.3l27.2-4.6l1.4-0.2l0.3-1l3-10.7c-17,2.6-34.1,5.2-51.1,7.9l-3.4,6.4l0.7,0.3
		c1.3,0.8,2.1,2.2,2.1,3.7l-14.3,55.2c-1.1,2-2.5,3.7-4.3,5.1l-0.9,0.7l0.2,5.8c16.8-4.3,33.5-8.6,50.4-12.7L-118,436.2z
		 M-71.5,391.1c4.6-0.7,9.1-1.6,13.6-2.4l-2.4-18.9L-72,385.6C-71.8,387.5-71.7,389.3-71.5,391.1z M-188,415.3l-21.2,16.1l9.4-38.3
		l15.7-2.9c0.6-0.1,5.3-0.9,3.6,6.1l-3.1,11.9C-184.3,410.9-185.8,413.4-188,415.3z M-176.2,450.9l-0.4-1.5l-4.4-24.8
		c13.2-9.9,14.8-16.4,17-25.1l0.1-0.2l2.1-8.5c4.5-17.4-14.2-14.4-14.4-14.4c-14.3,2.4-28.6,4.8-42.8,7.4l-0.5,1l-2.4,5.1l-0.5,0.9
		l0.7,0.4c1.3,0.9,2.1,2.4,2.1,4l-14.4,60.2c-1.1,2.1-2.5,3.9-4.3,5.5l-1,0.7v0.9l0.1,4.6v1l1-0.2l2.4-0.7l14.5-4l3.2-0.9l1.4-0.4
		l1.6-6.8l1.2-5l17-13.4l2.7,18.5l0.1,0.7l0.8-0.2l14.7-3.8L-176.2,450.9z M-294.3,466.4l19.1-73.7l23.5-3.8h0.1
		c0.6-0.1,1.2,0,1.6,0.4c0.7,0.7,1,2.4,0.4,4.7l-14.4,57c-0.6,3.4-2.4,6.6-4.9,8.9c-0.6,0.5-1.3,0.9-2.1,1.3L-294.3,466.4z
		 M-267.6,475.6c0.1-0.1,18.6-3.2,23.7-25.1l4.3-18.2l0.8-3.5l9.6-38.9c4.6-18.9-14.3-15.9-14.4-15.8c-17.7,2.7-36.3,5.7-53.7,9.1
		l-3.5,7.4l0.6,0.4c1.4,1.1,2.2,2.7,2.1,4.5l-23,91.9l-0.4,1.4l1.3-0.4l50.5-12L-267.6,475.6z M20.8,403.8l1.4-0.2l0.3-1L37.1,346
		l0.4-0.9l-1.4,0.1l-3.9,0.4l-14.9,2l-0.4,0.7L-8,389l-3.9-36.9l-0.1-0.5c-7.3,1-14.7,1.6-22,2.7l-2.9,4.7l-0.5,0.7l0.7,0.4
		c1.2,0.6,2.1,1.9,2.1,3.2L-51.1,419l-0.4,1l1.4-0.3l15.8-3.6l1.3-0.4l0.4-1l8.9-30.3l2.4,28.1l0.1,0.6l1-0.1l9.9-2.2l1-0.1l0.5-0.7
		l19.1-31.4L2.2,407l-0.4,1l1.3-0.3L20.8,403.8z"/>
	<path id="XMLID_14_" class="st1" d="M-73.9,440.9c-0.3-2.9-0.6-5.8-1-8.8c-1.6,3.4-3.2,6.7-5,9.9c-3.2,0.7-6.5,1.3-9.7,1.8
		c2.2,1.2,4.4,2.4,6.6,3.8c-1.5,2.6-3.1,5.2-4.7,7.8c3-1.4,6-3.1,8.8-5c2.1,1.6,4.3,3.4,6.3,5.2c-0.1-3.1-0.4-6.1-0.7-9.2
		c3.1-2.4,6.2-4.9,9.1-7.5C-67.4,439.6-70.7,440.2-73.9,440.9z M-87.9,325.1c4.1-1.9,7.9-4.2,11.6-6.7c2.9,2.6,5.6,5.2,8.3,7.7
		c-0.1-4.4-0.4-8.8-0.7-13.3c4.2-3.2,8.3-6.6,12.2-10.2c-4.3,0.7-8.5,1.4-12.8,2.1c-0.4-4.2-0.7-8.4-1.2-12.7
		c-2.1,4.7-4.3,9.4-6.8,14.1c-4.3,0.7-8.6,1.5-12.8,2.1c3,1.7,5.9,3.6,8.6,5.7C-83.6,317.9-85.7,321.5-87.9,325.1z M-10.3,338
		c-0.2-2.6-0.5-5.2-0.7-7.8c-1.3,2.9-2.7,5.8-4.2,8.8l-8,1.3c1.9,1,3.7,2.2,5.4,3.6c-1.3,2.2-2.6,4.6-4,6.8c2.5-1.2,5-2.5,7.3-4.1
		c1.7,1.5,3.5,3.1,5.2,4.8c-0.1-2.7-0.4-5.5-0.5-8.3c2.6-2,5.1-4.1,7.7-6.3C-5,337.1-7.6,337.5-10.3,338z"/>
	<path id="XMLID_28_" class="st2" d="M-137,412.2c-0.4,1.5-3.2,13-4.1,16.4c0.9-0.1,2.6-0.6,4.7-1l2.9-11.3l25-4.6l7.2-12.7
		l-4.1-4.1l-7.3,12.9C-112.5,407.7-135.2,411.9-137,412.2z M-97,380.9l0.3-1l3-10.7l-4-3.9l-3.2,11.8l-2.2,0.4
		c0,0-24.5,4.2-26.2,4.5c-0.4,1.5-2.9,12-3.7,15.1c0.8-0.1,2.7-0.4,5.1-0.9l2.6-10.4l27.2-4.6L-97,380.9z M-251.2,393.7
		c0.2-0.7,0.3-1.4,0.4-2.1c0-1-0.1-1.2-0.2-1.2h-0.4c0,0-20.8,3.5-22.5,3.7c-0.4,1.8-17.2,66.2-18.3,70.4c1-0.2,2.9-0.7,5.2-1.1
		l17-65.4l18.6-2.9C-251.3,394.2-251.2,393.7-251.2,393.7z M-233.5,433.9l9.5-38.9c1.5-6,0.5-9.8-1.4-12.2c-0.4-0.5-1.4-1.5-2.4-2.5
		c0.4,1.4,0.5,2.8,0.5,4.2c0,1.9-0.3,3.8-0.7,5.7l-9.4,38.8l-0.8,3.6l-4.3,18.2c-5,21.6-22.8,25.8-24.8,26.2l-2,0.6l-50.5,12.2
		l-0.4,0.1l4.1,4.1l1.3-0.4l50.5-12.1l2-0.5c0.1-0.1,18.6-3.2,23.7-25.1L-233.5,433.9z M-73.9,418.3c-2.7,0.6-19.5,4.4-20.7,4.6
		c-1,2.1-4.7,8.9-4.7,8.9l-0.8,1.5l-0.7,0.1l-1,0.2l-15.9,3.9l-2.1,0.5c-15.8,3.9-32.2,8-48.8,12.3l4,4c16.8-4.3,33.5-8.5,50.3-12.7
		l1.3-0.4l15.9-3.9l1-0.2l0.5-0.9l5.1-9.6l17.1-3.9C-73.5,421.5-73.7,419.5-73.9,418.3z M-52.6,419.4L-52.6,419.4
		c0.1-0.2,0.2-0.4,0.2-0.7c0,0,0.7-2.4,1.8-6.3l-6.1-47.9l-2.6,3.5C-57,384.8-52.6,419.4-52.6,419.4L-52.6,419.4z M-176,429.8
		c13.2-9.9,14.8-16.4,17-25.1l0.1-0.2l2.2-8.4c1.4-5.3,0.5-8.8-1.3-10.9c-0.6-0.8-1.3-1.5-2.1-2.1c0.2,1,0.4,2.1,0.4,3.1
		c0,1.8-0.3,3.5-0.7,5.2l-2.2,8.8c-2.2,8.5-4.1,15.4-16.9,25.3c0.3,1.6,4.1,23.7,4.2,23.8c0.1,0.1,0.9,2.9,0.9,2.9l-18.1,4.7h-0.1
		l4,4l0.9-0.1l14.7-3.8l2.1-0.6l-0.4-1.5L-176,429.8z M-183.9,391.5c0,0-13.2,2.5-14.8,2.8c-0.4,1.5-6.6,27-8.2,33.4
		c1.6-1.3,3.8-2.9,6-4.5l6.1-25l12.7-2.4c0.2-0.7,0.3-1.5,0.4-2.2c0-0.7-0.1-1.3-0.4-1.6C-182.6,391.6-183.2,391.4-183.9,391.5z
		 M-212.4,450.6c-0.4,1.3-1.1,4.5-1.1,4.5l-1.8,7.7l-2.1,0.6l-3.2,0.9l-14.5,3.9l-2.7,0.7l4.1,4l1-0.2l2.5-0.7l14.5-3.9l3.2-1
		l1.3-0.4l0.4-1.3l2.5-10.5l11.8-9.2c-0.4-2.7-0.7-5.2-1-6.6C-200.7,441.6-211.6,450.1-212.4,450.6L-212.4,450.6z M-7.6,411
		l-0.9,1.2l-0.5,0.1l-1,0.1l-9.9,2.2l4.1,4l1-0.1l9.9-2.2l1-0.1l0.5-0.7l3.1-4.6c0.6-1.7,1.3-4,1.3-4s2.7-9.6,5.2-17.9
		C0.3,398.2-7.6,411-7.6,411L-7.6,411z M-31.1,415.4l-0.6,1.8l-2.1,0.5l-15.8,3.6l-3.7,0.9l-2.1,0.4l-14.9,3.5l-0.1,0.1l4,3.9l1-0.2
		l14.9-3.5l1.8-0.4l-0.1-1.3l-0.4-2.6l3.2,3.2l1.3-0.4l15.8-3.6l1.4-0.3l0.3-1l4.1-13.9c-0.4-4.1-0.7-9.4-1.1-13.7
		C-27,401.6-31.1,415.4-31.1,415.4z M38.6,346.4L38.6,346.4c-0.1,0.2-14.7,56.6-14.7,56.7l-0.6,1.8l-0.8,0.1l-1.4,0.2l-17.6,4
		l-0.4,0.1l4.1,4l1.3-0.3l17.6-4.1l1.4-0.2l0.3-1l14.7-56.5l0.4-0.9L38.6,346.4z M-10.3,353.6c0.5,5.3,2.7,25.4,3.2,31.3
		c0.6-1,1.5-2.5,2.7-4.5l-2.4-22.8l-0.1-0.6L-10.3,353.6z"/>
	<path id="XMLID_29_" class="st1" d="M-72,385.6l-7.3,10.2l6.8-16.3c-0.1-0.8-0.1-1.5-0.2-2.4c-2.4,5.2-4.7,10.3-7.4,15.3
		c-4.6,0.9-9.3,1.6-13.9,2.3c3.2,1.9,6.3,4.1,9.4,6.3c-2.3,4-4.6,8-6.9,11.9c4.4-2.1,8.7-4.5,12.7-7.3c3.1,2.7,6.1,5.6,9.1,8.5
		c-0.1-4.9-0.5-9.7-0.9-14.4c4.4-3.5,8.7-7.1,12.8-10.8c0.1-0.1,0.4-0.3,0.4-0.4c-0.1,0-0.3,0.1-0.4,0.1c-4.6,0.7-9.1,1.5-13.6,2.4
		C-71.7,389.3-71.8,387.5-72,385.6z"/>
	<path id="XMLID_39_" class="st2" d="M-42,261.5c0.8-0.6,1.6-1.1,2.5-1.5c5-2.1,10.2-3.3,15.5-3.8c2.7-0.4,5.5-0.4,8.3-0.2
		c2.7,0.4,4.3,1.4,5,3.1c0.2,0.5,1,2.1-1.5,4.3c-1.4,1.3-3.5,3.1-6.6,5.7c-10.7,8.8-20.6,18.9-23.5,25.5
		C-47.8,286.4-49.4,267.5-42,261.5z M-26.1,242.9c0.1-0.1,0.3-0.2,0.5-0.2c0.4-0.2,1-0.6,1.6-0.9c1-0.4,2.1-0.9,3.1-1.3
		c2.6-0.1,5.2,0.3,7.7,1.2c1.5,0.5,2.9,1.2,4.3,1.9l0.4,0.2c3,1.9,6.5,2.8,10.1,2.7c1.4,0.1,2.7-0.2,3.9-0.9
		c0.9-0.3,1.8-0.9,2.3-1.7c0-0.1,0.1-0.3,0.2-0.5c0.3-0.6,0.4-1.3,0.3-2c2.2,0.9,4.3,2,6.3,3.2c2,1.3,4,2.8,5.7,4.5
		c-0.6,0.2-1.2,0.6-1.6,1.1c-0.1,0.2-0.2,0.3-0.3,0.4c-0.3,0.4-0.5,0.9-0.6,1.4c-0.7,1.5-0.1,3.2,0.6,5.1c1.4,3.3,3.7,6,6.8,7.9
		l0.4,0.2c1.3,0.9,2.4,2,3.5,3.1c1.9,1.9,3.4,4.2,4.5,6.6c0.6,5.5,0.1,11-1.4,16.4c-0.9,3.1-2.1,6.1-3.7,9
		c0.5-4.4-0.4-11.1-3.1-18.5c-2.6-7.1-5.1-14-12-13.9c-4.8,0.1-7,2.2-8.8,7.5c-1,3-1.9,6.1-2.6,9.2c-1.5,6.1-3,11.1-4.4,15.4
		c-1.9,5.8-4.7,11.3-8.1,16.3c-13.9-2.1-24.1-10.2-26.9-13.9c-2.1,1.4-3.9,3-5.5,4.9c1.5-6,7.3-18.3,27.8-34.8
		c9.2-7.4,12.2-10.6,9.4-16.7c-2.7-6-8.8-5.8-17.8-4.9c-7.8,0.7-14.4,2.9-18.1,5.2C-38.1,250.5-31.8,246.1-26.1,242.9z M2.8,239.6
		c1,0.5,1.2,1.6,0.7,2c-0.6,0.3-1.2,0.5-1.8,0.5c-2.4,0.2-4.8-0.5-6.8-1.8l-0.7-0.4c-1-0.5-2.1-1-3.1-1.5
		C-5.1,238.3-1.1,238.7,2.8,239.6z M22.6,253.3l0.4-0.4c0.6,0,1.1,0,1.7,0.1c2.8,3.3,5,7,6.7,11c-1-0.9-2.1-1.9-3.2-2.7l-0.7-0.5
		c-2.1-1.2-3.7-3.1-4.6-5.3C22.4,254.8,22.3,254,22.6,253.3L22.6,253.3z M21.3,309.1c-6.9,5.9-14.2,7.6-22.4,8.3
		c-2.5,2.1-5.4,3.8-8.5,5c7.9-7.6,11.5-16.1,16.8-37c1.9-7.5,2.9-10.4,4-11.5c0.4-0.3,0.9-0.6,1.4-0.7c3.2-0.1,5.7,3.5,8.8,12.2
		c0.8,2.3,1.5,4.6,2.1,7C24.8,298.1,24.1,304,21.3,309.1z M-79.4,395.8l45.2-76c0.2,0.1,0.4,0.3,0.5,0.4l0.2,0.1
		c1,0.6,2,1.2,2.9,1.8c1.9,1,3.5,1.6,3.5,1.6L-55.6,363l25.1-25.3c5.2-5.4,12-8.9,19.5-9.9c25.7,1.7,47.9-17.8,49.6-43.5
		c1.7-25.7-17.8-47.9-43.5-49.6c-16.8-1.1-32.8,6.9-42,21c-9.2,14-9.3,30.6-3.2,45.2c2.9,7.8,3,16.4,0.1,24.3l-14,33.4l-8.6,20.9
		L-79.4,395.8z"/>
	<path id="XMLID_42_" class="st3" d="M-18.8,269c3.2-2.6,5.2-4.5,6.6-5.8c2.4-2.1,1.6-3.7,1.5-4.3c-0.7-1.6-2.2-2.6-5-3
		c-2.8-0.2-5.5-0.1-8.3,0.1c-5.3,0.5-10.6,1.7-15.5,3.8c-0.9,0.4-1.8,0.9-2.5,1.6c-7.3,6-5.7,24.9-0.2,32.9
		C-39.3,287.9-29.5,277.8-18.8,269z M-5.2,240.3c2,1.3,4.4,2,6.9,1.8c0.6,0,1.3-0.2,1.8-0.5s0.1-1.5-0.7-2
		c-3.9-0.9-7.8-1.3-11.8-1.2c1,0.5,2.1,1,3,1.5L-5.2,240.3z M27.4,260.8l0.7,0.5c1,0.9,2.2,1.9,3.2,2.7c-1.6-4-3.9-7.7-6.7-11
		c-0.6-0.1-1.1-0.1-1.7-0.1l-0.4,0.4c-0.1,0.7,0,1.5,0.2,2.1C23.7,257.7,25.3,259.6,27.4,260.8L27.4,260.8z"/>
	<path id="XMLID_43_" class="st1" d="M-5.7,256c2.7,6.1-0.2,9.3-9.4,16.8c-20.4,16.4-26.2,28.7-27.8,34.8c1.6-1.9,3.4-3.6,5.5-5
		c2.9,3.8,13,11.9,26.9,13.9c3.5-5,6.2-10.5,8.1-16.3c1.5-4.2,2.9-9.3,4.4-15.4c0.7-3.1,1.5-6.2,2.6-9.2c1.8-5.3,4.1-7.4,8.8-7.5
		c7-0.1,9.4,6.7,12,13.9c2.3,5.9,3.4,12.2,3.1,18.5c1.6-2.9,2.8-5.9,3.7-9.1c1.5-5.3,2-10.9,1.4-16.4c-1-2.5-2.5-4.8-4.5-6.6
		c-1.1-1.1-2.3-2.1-3.5-3.1l-0.4-0.1c-3-1.9-5.3-4.7-6.8-7.9c-0.7-1.8-1.4-3.5-0.6-5.2c0.1-0.5,0.3-1,0.6-1.4
		c0.1-0.2,0.2-0.3,0.3-0.4c0.4-0.5,1-0.9,1.6-1.1c-1.8-1.6-3.7-3.1-5.7-4.5c-2-1.2-4.1-2.3-6.3-3.2c0.1,0.7,0,1.4-0.3,2.1
		c-0.1,0.1-0.2,0.3-0.2,0.5c-0.5,0.8-1.3,1.4-2.3,1.6c-1.2,0.6-2.5,1-3.9,1c-3.6,0.1-7.1-0.8-10.1-2.7l-0.4-0.1
		c-1.4-0.8-2.9-1.4-4.3-2c-2.5-0.9-5.1-1.3-7.7-1.1c-1.1,0.3-2.1,0.7-3.1,1.3c-0.6,0.2-1.1,0.5-1.6,0.8c-0.1,0.1-0.4,0.1-0.5,0.2
		c-5.7,3.1-12,7.7-15.5,13.4c3.7-2.4,10.3-4.5,18.1-5.2C-14.5,250.3-8.5,250.2-5.7,256z"/>
	<path id="XMLID_46_" class="st3" d="M-30.6,322c-1.1-0.6-2.1-1.3-2.8-1.7l-0.2-0.1c-0.2-0.1-0.4-0.3-0.6-0.4l-45.2,76l7.3-10.1
		l11.6-16l1.2-1.8l2.6-3.5l29.7-40.7C-27,323.7-28.6,322.9-30.6,322C-30.5,322.1-30.5,322.1-30.6,322z M21.5,285.4
		c-3.2-8.7-5.6-12.3-8.8-12.2c-0.5,0.1-1,0.3-1.4,0.6c-1.1,1.2-2.1,4.1-4,11.6c-5.2,20.9-8.9,29.4-16.8,37c3.1-1.2,6-2.9,8.5-5
		c8.2-0.7,15.5-2.6,22.4-8.4c2.7-5.1,3.5-11,2.1-16.7C23.1,290.4,22.4,288,21.5,285.4L21.5,285.4z"/>
	<path id="XMLID_57_" class="st2" d="M-169,351.5c-1.5,6.4-3.1,12.8-4.7,19.4c5.5-0.9,10.9-1.8,16.4-2.6c0.4-0.9,1-1.8,1.4-2.7
		c0.1-0.3,0.3-0.5,0.5-0.7c-0.3,0.1-0.6,0.1-1,0.1l-8.8,1.3c1.6-6.5,3.2-12.9,4.8-19.4h-0.7c-0.4,0.1-0.7,0.1-1.1,0.1
		c-1.6,0.1-3.4,0.4-5,0.6c-0.4,0.1-0.6,0.1-0.9,0.1c-0.1,0-0.4,0.1-0.6,0.1l-0.2,0.4c-0.2,0.5-0.5,1-0.7,1.4l-0.2,0.4l0.4,0.1
		C-169.6,350.4-169,350.7-169,351.5z M-201.2,362.4c0.2,2.1,0.4,4,0.7,6c-1.4,0.1-2.9,0.4-4.2,0.6L-201.2,362.4z M-208.8,376.4
		c0.4-0.8,1-1.7,1.4-2.5l7.4-1.1c0,0.7,0.1,1.4,0.2,2.1c2.1-0.4,4.2-0.7,6.3-1c-0.7-7.4-1.4-14.9-2.1-22.3c0-0.1,0-0.4-0.1-0.4
		c-2.9,0.4-5.6,0.7-8.5,1c0,0.2-0.1,0.4-0.2,0.5l-0.7,1.5c0,0.2-0.1,0.3-0.2,0.4l0.4,0.1c0.4,0.2,0.6,0.6,0.7,1
		c-3.9,7.2-7.7,14.5-11.7,21.7C-213.5,377.2-211.1,376.9-208.8,376.4z M-139.8,354c0.1,1.8,0.4,3.6,0.6,5.5
		c-1.4,0.1-2.9,0.4-4.2,0.6L-139.8,354z M-147.3,366.6c0.4-0.7,0.9-1.5,1.3-2.1c2.4-0.4,4.8-0.7,7.3-1.1c0.1,0.6,0.1,1.2,0.2,1.9
		c2.1-0.4,4.2-0.7,6.3-1c-0.7-6.7-1.4-13.4-2.1-20.1c0-0.2,0-0.3-0.1-0.4c-0.1,0-0.4,0.1-0.5,0.1c-0.4,0.1-1,0.1-1.4,0.2l-4.1,0.4
		l-1.8,0.2h-0.6l-0.2,0.5c-0.2,0.4-0.4,0.9-0.7,1.4c0,0.1-0.1,0.3-0.2,0.4l0.4,0.1c0.3,0.2,0.6,0.5,0.7,0.9
		c-3.8,6.6-7.7,13.2-11.5,19.7C-152,367.4-149.6,366.9-147.3,366.6z M-190.1,354.2L-190.1,354.2c-0.1,0.3-0.1,0.5-0.1,0.7
		c0.2-0.1,0.5-0.1,0.7-0.1l4.6-0.6c-1.5,6.3-3.1,12.7-4.6,19.1c2.6-0.4,5.2-0.8,7.7-1.3c1.5-6.3,3.1-12.5,4.6-18.9l4.6-0.5
		c0.2-0.1,0.4-0.1,0.7-0.1c0.1-0.2,0.1-0.4,0.1-0.6l1-3.8c-6.3,0.7-12.7,1.5-18.9,2.4c-0.1,0.1-0.1,0.4-0.2,0.5
		c-0.2,0.5-0.5,1-0.7,1.5c-0.1,0.1-0.2,0.3-0.2,0.4l0.4,0.1C-190.4,353.4-190.2,353.8-190.1,354.2z M-100.2,342.5L-100.2,342.5
		c-0.1,0.3-0.1,0.5-0.1,0.7c0.2-0.1,0.5-0.1,0.7-0.1c1.5-0.1,3-0.4,4.5-0.6c-1.5,5.6-3.1,11.2-4.6,16.8l7.6-1.1
		c1.6-5.6,3.1-11.1,4.7-16.7c1.5-0.1,3-0.4,4.5-0.6c0.2-0.1,0.5-0.1,0.7-0.1c0.3-1,0.6-2.2,1-3.2c0-0.1,0.1-0.4,0.1-0.5
		c-0.2,0.1-0.5,0.1-0.7,0.1c-3.5,0.5-7,1-10.5,1.5c-2,0.2-4.1,0.5-6.1,0.8c-0.3,0.1-0.5,0.1-0.9,0.1h-0.7c0,0.1-0.1,0.2-0.2,0.4
		c-0.2,0.4-0.5,0.9-0.7,1.3c0,0.1-0.1,0.2-0.2,0.4l0.4,0.2C-101,341.6-100.2,341.9-100.2,342.5z M-73.4,344.3
		c0.2,1.6,0.4,3.2,0.7,4.8c-1.4,0.3-2.8,0.5-4.3,0.7C-75.9,348-74.6,346.1-73.4,344.3z M-88.2,357.4c2.4-0.4,4.6-0.7,6.9-1
		c0.5-0.8,1-1.6,1.6-2.4c2.4-0.4,4.8-0.9,7.2-1.2c0.1,0.7,0.1,1.4,0.2,2.1v0.1c2.1-0.4,4.2-0.6,6.3-1c0-0.1-0.1-0.4-0.1-0.5
		c-0.7-6.1-1.3-12.2-2.1-18.3v-0.4c-0.2,0-0.4,0.1-0.6,0.1c-0.5,0-0.9,0.1-1.4,0.1c-1.3,0.1-2.7,0.4-4.1,0.6c-0.6,0-1.2,0.1-1.8,0.2
		h-0.5c-0.1,0.1-0.2,0.3-0.2,0.4c-0.2,0.4-0.5,0.8-0.7,1.3l-0.2,0.4l0.4,0.1c0.4,0.1,0.6,0.5,0.7,0.9
		C-80.4,345.2-84.2,351.2-88.2,357.4z M-122.1,362.7c0.9-3.2,1.7-6.5,2.6-9.7c1.4,2.9,2.7,5.8,4.1,8.7c2.5-0.4,4.9-0.7,7.3-1.1
		l5.7-20.9c-0.2,0-0.5,0-0.7,0.1c-1.8,0.2-3.6,0.5-5.5,0.7c-0.2,0.1-0.5,0.1-0.7,0.1c-0.1,0.2-0.1,0.3-0.1,0.5
		c-0.9,3.4-1.8,6.6-2.7,9.9c-1.5-3.1-3-6.2-4.4-9.3l-0.1-0.2h-0.4c-0.1,0-0.4,0.1-0.4,0.1c-1.2,0.1-2.4,0.4-3.6,0.4
		c-0.4,0.1-0.9,0.1-1.4,0.2c-2.3,0.4-0.8-0.5-2.7,2.4l0.4,0.1c0.3,0.2,0.6,0.6,0.7,1c-1.5,6-3.2,12-4.8,18.1
		C-126.7,363.3-124.4,363-122.1,362.7z"/>
</g>
</svg>
