<?xml version="1.0" encoding="utf-8"?>
<!-- Generator: Adobe Illustrator 19.0.0, SVG Export Plug-In . SVG Version: 6.00 Build 0)  -->
<svg version="1.1" id="Layer_1" xmlns="http://www.w3.org/2000/svg" xmlns:xlink="http://www.w3.org/1999/xlink" x="0px" y="0px"
	 viewBox="0 0 500 500" style="enable-background:new 0 0 500 500;" xml:space="preserve">
<style type="text/css">
	.st0{fill:#FFFFFF;}
	.st1{fill:#418FDE;}
	.st2{fill:#FFCD00;}
</style>
<g id="XMLID_1_">
	<path id="XMLID_3_" class="st0" d="M409,235l-12.7,0l4.6-8.7l-11.6,0l-0.1-0.1c0.3-4,0.5-8,0.5-12c0.1-36.3-14.1-71.2-39.4-97.3
		l-0.7-0.8l2.8-2.8l-6.1-6.1c-53.2-53.2-139.4-53.2-192.5,0l0,0l-6.1,6.1l2.8,2.8l-0.7,0.8c-25.3,26-39.5,60.9-39.4,97.3
		c0,4.2,0.2,8.3,0.6,12.4l-0.1,0l-11.6,0l2.6,4.8l0,0l2.1,3.9l-0.2,0.1l-12.5,0l2.8,5.2l47.5,88.9h12.7l5,9.3h8.5l49.9,93.3
		l7.3-15.6c1.9-4,3.7-8,5.5-11.9c0.8-1.7,1.9-4.1,3.1-6.8l17,34.3l7.6-16.2c1.8-3.8,3.5-7.6,5.3-11.3c0.8-1.8,2-4.2,3.2-6.9
		l15.9,34.3l50-93.4h8.4l5-9.3h12.8l37.5-70.6h0L409,235z"/>
	<path id="XMLID_7_" d="M381,229.6c0.5-4.5,0.7-8.9,0.7-13.4c0-34.2-13.3-67.1-37.2-91.6l-1.3,1.3c24.6,28.6,34.6,66.8,27.4,103.8
		h-8.9c8.2-37.9-3.5-77.4-30.9-104.9l9.8-9.8c-50-50-131.1-50-181.1,0l9.8,9.8c-27.4,27.4-39.1,66.9-30.9,104.9h-8.9
		c-7.3-37,2.8-75.2,27.4-103.8l-1.3-1.3c-27.1,27.9-40.4,66.4-36.5,105h-9.2l54.1,103.1h8.5l0.1,0.3l0.1,0.1l0.1,0.3l44.2,82.6
		c1.9-4,3.7-8,5.5-11.9c2.6-5.7,5.2-11.3,7.8-17l-5.9-11.9c-2.6,5.7-5.1,11.3-7.7,17c-3.8-7.8-7.8-15.7-11.9-23.5
		c5.1-11.7,10.2-23.6,15.5-35.7h23.5c-3.8,7.9-7.4,15.8-11,23.5c-2.9-5.9-5.9-11.8-9-17.7c-1.8,4.1-3.6,8.2-5.4,12.2l22.1,44.6
		l9.8,19.9c1.8-3.8,3.6-7.6,5.4-11.4c2.7-5.7,5.4-11.5,8.2-17.2l-5.6-12c-2.8,5.8-5.5,11.5-8.2,17.3c-3.7-7.8-7.4-15.7-11.3-23.6
		c3.7-7.9,7.4-15.9,11.3-23.9c1.9-3.9,3.8-7.8,5.7-11.7h23.6c-4.2,7.9-8.2,15.7-12.1,23.5c-2.7-5.9-5.4-11.8-8.2-17.7
		c-2,4.1-4,8.2-6,12.2l23.5,50.6l6.7,14.4l44.3-82.9c0,0,0.1-0.2,0.2-0.4h8.3l55.3-103.1L381,229.6z M198.3,356.6
		c-4.3-7.9-8.8-15.7-13.6-23.7h23.5C204.9,340.9,201.5,348.8,198.3,356.6z M301.7,356.6c-2.5-5.8-4.9-11.7-7.4-17.7
		c-2.2,4-4.4,8.1-6.6,12.1c2.6,5.9,5.1,11.7,7.6,17.5c-4.1,7.9-8.1,15.7-11.9,23.5c-3.5-7.8-7.1-15.7-10.7-23.6
		c3.9-7.9,8-15.8,12.3-23.8c2.1-3.9,4.2-7.9,6.4-11.8h23.9C310.6,340.9,306,348.8,301.7,356.6z"/>
	<polygon id="XMLID_8_" class="st1" points="250,238.8 100.8,238.8 146.1,323.5 250,323.5 353.9,323.5 399.2,238.8 	"/>
	<path id="XMLID_9_" class="st2" d="M214.5,279.5c-2-1.7-4.2-3-6.6-4c-2.7-1-5.6-1.5-8.5-1.5h-24.7l-0.2,0c-2.3-0.1-4.1-2.1-4-4.4
		c0.1-2.2,1.9-3.9,4-4l44.3,0v-14.1H177c-2.9,0-5.8,0.4-8.6,1.4c-2.5,0.9-4.9,2.1-6.9,3.8c-2,1.6-3.6,3.6-4.8,5.9
		c-2.2,4.5-2.4,9.8-0.3,14.3c1,2.2,2.4,4.2,4.2,5.8c1.9,1.7,4.1,3,6.4,4c2.7,1,5.5,1.5,8.4,1.5h25.3c2.4,0,4.3,1.9,4.3,4.3
		s-1.9,4.3-4.3,4.3h-56l7.4,14.1h50c2.7,0,5.3-0.6,7.7-1.8c2.2-1.1,4.1-2.6,5.7-4.4c1.6-1.7,2.8-3.7,3.7-5.9c0.8-2,1.2-4.1,1.3-6.3
		c0-2.5-0.5-4.9-1.6-7.1C217.9,283.1,216.4,281.1,214.5,279.5"/>
	<polygon id="XMLID_10_" class="st2" points="264.8,251.5 241.2,274.4 241.2,251.5 224.5,251.5 224.5,310.8 241.2,310.8 
		241.2,287.9 264.8,310.8 285.2,310.8 255.5,280.9 285.3,251.5 	"/>
	<path id="XMLID_11_" class="st2" d="M341,251.5v22.4h-34.3c-1.7-0.4-3-1.9-3-3.6v-18.8h-14.2v18.6c0,1.7,0.3,3.3,0.8,4.9
		c2.3,7.7,9.4,13.1,17.5,13.1H341v4.7c0,2.1-1.7,3.7-3.7,3.7H279l14.3,14.1h43.4c2.7,0,5.4-0.6,7.7-1.8c2.2-1.1,4.2-2.7,5.8-4.5
		c1.5-1.7,2.8-3.7,3.7-5.9c0.8-2,1.3-4.1,1.3-6.2v-40.8H341z"/>
	<path id="XMLID_14_" class="st1" d="M250,105.5c-55.3,0-100.1,44.9-100.1,100.2c0,8.1,1,16.1,2.9,23.9h62.5V208l10.3-1.9v23.6
		h121.6c13.2-53.7-19.5-108-73.3-121.2C266.1,106.5,258.1,105.5,250,105.5z M236.9,195.1l-10.3,1.8v-39.6l10.3-3.6V195.1z"/>
	<path id="XMLID_15_" class="st0" d="M263.1,145.4l-5.1-1.6V111c-1.4-0.1-2.8-0.2-4.3-0.3v31.7l-3.7-1.2v97.6h24.4V197l-11.3-1.9
		L263.1,145.4z"/>
	<path id="XMLID_19_" class="st2" d="M329.8,138.2c-2-2.4-4.2-4.7-6.4-7c-40.7-40.2-106.1-40.2-146.7,0c-2.3,2.2-4.4,4.5-6.4,7
		c-15.9,18.8-24.7,42.7-24.6,67.3c0,2.6,0.1,5.3,0.3,7.9c0.3,3.6,0.7,7.2,1.3,10.7c0.3,1.9,0.7,3.7,1.1,5.5h9.8
		c-1-3.8-1.7-7.6-2.3-11.5c8.6-5.6,17.6-10.4,27.1-14.4c4.9-2.1,9.9-3.9,15-5.5c0.2,2.5,0.3,4.9,0.3,7.4c0,8.1-1,16.2-3.1,24h9.8
		c1.9-7.9,2.8-16,2.8-24c0-3.4-0.2-6.8-0.5-10.1c6.4-1.6,12.9-2.9,19.4-3.7v-9.6c-7,0.9-13.9,2.2-20.8,3.9
		c-3.3-17.6-11.2-34.1-22.8-47.8c15.8-15.8,36.7-25.4,58.9-27.2v32.8l-5.1,1.6v49.7l-11.3,1.9v41.8H250v-97.6l-3.7,1.2v-31.7
		c1.2,0,2.5-0.1,3.7-0.1c25.1-0.1,49.2,9.9,66.9,27.6c-11.6,13.7-19.4,30.2-22.8,47.8c-10.2-2.5-20.6-4.2-31-4.9v9.5
		c10,0.7,20,2.4,29.7,4.8c-0.3,3.3-0.5,6.7-0.5,10.1c0,8.1,0.9,16.2,2.8,24h9.8c-2-7.9-3.1-15.9-3.1-24c0-2.5,0.1-5,0.3-7.4
		c5.1,1.6,10.1,3.4,15,5.5c9.4,4,18.5,8.8,27.1,14.4c-0.5,3.9-1.3,7.7-2.3,11.5h9.8c0.4-1.8,0.8-3.6,1.1-5.5
		c0.6-3.5,1.1-7.1,1.4-10.7c0.2-2.6,0.3-5.2,0.3-7.9C354.5,180.9,345.7,157.1,329.8,138.2z M196.7,188.6
		c-14.6,4.5-28.6,10.8-41.6,18.8c0-0.6,0-1.2,0-1.8c-0.1-22,7.6-43.3,21.6-60.3C186.9,157.8,193.9,172.7,196.7,188.6L196.7,188.6z
		 M344.9,207.4c-13-8-27-14.3-41.6-18.8c2.9-15.9,9.8-30.8,20.1-43.3c14,17,21.6,38.3,21.6,60.3
		C344.9,206.2,344.9,206.8,344.9,207.4L344.9,207.4z"/>
	<path id="XMLID_20_" class="st0" d="M178,111.8c-1.8-2.7-0.7-4.4,1.8-6.1l3.4-2.3c4.1-2.7,5.2-2.2,6.9,0.4l-2.9,1.9l-0.2-0.3
		c-0.4-0.7-1.1-0.5-1.9,0l-3.1,2.1c-1.5,1-1.3,1.9-0.5,3.1l0.7,1c0.9,1.4,1.5,1.7,2.9,0.8l3-2.1c1.3-0.9,1.6-1.3,0.8-2.4l2.9-1.9
		l0.6,0.9c1.1,1.6,1.3,3.2-1.5,5.1l-4.6,3.1c-2.6,1.7-4.5,2.1-6.4-0.6L178,111.8z"/>
	<polygon id="XMLID_21_" class="st0" points="198.1,95 201.3,93.7 202.8,97.5 209.6,94.7 208.1,91 211.3,89.7 215.5,100.2 
		212.3,101.5 210.7,97.5 203.9,100.2 205.5,104.2 202.3,105.5 	"/>
	
		<rect id="XMLID_22_" x="223.2" y="86.4" transform="matrix(-0.9767 0.2146 -0.2146 -0.9767 464.3813 133.6182)" class="st0" width="3.4" height="11.2"/>
	<path id="XMLID_23_" class="st0" d="M236.4,88.2c-0.2-3.3,1.6-4.2,4.7-4.3l4-0.2c4.9-0.3,5.6,0.8,5.7,3.9l-3.4,0.2l0-0.3
		c0-0.8-0.6-1-1.7-1l-3.8,0.2c-1.8,0.1-2.1,1-2,2.4l0.1,1.2c0.1,1.6,0.5,2.2,2.1,2.1l3.7-0.2c1.6-0.1,2-0.3,1.9-1.7l3.4-0.2l0.1,1.1
		c0.1,1.9-0.5,3.4-4,3.6l-5.6,0.3c-3.1,0.2-5-0.5-5.2-3.8L236.4,88.2z"/>
	<path id="XMLID_26_" class="st0" d="M267.2,84.9l4.4,0.7l4.3,12.1l-3.8-0.6l-0.7-2.1l-6.9-1.1l-1.3,1.8l-3.8-0.6L267.2,84.9z
		 M266.2,91.6l4.4,0.7l-1.5-4.5L266.2,91.6z"/>
	<path id="XMLID_27_" class="st0" d="M286.3,93.1c1.2-3.1,3.2-3.1,6.1-2l4.8,1.9c3.6,1.4,3.6,2.9,2.8,5l-0.1,0.3l-3.1-1.2
		c0.4-1-0.1-1.4-1.2-1.8l-3.5-1.4c-1.6-0.6-2.2-0.4-2.9,1.4l-0.5,1.3c-0.7,1.8-0.4,2.3,1.2,3l3.4,1.3c0.8,0.3,1.7,0.5,2.1-0.5
		l0.1-0.3l-4-1.6l0.8-2.2l7.2,2.8l-1.2,3c-1.2,3-2.8,2.5-6.4,1.1l-3.9-1.5c-2.9-1.1-4.3-2.5-3.1-5.6L286.3,93.1z"/>
	<path id="XMLID_30_" class="st0" d="M309.1,103.2c1.8-2.7,3.8-2.4,6.4-0.6l4.6,3.1c2.6,1.7,3.7,3.4,1.9,6.1l-1.9,2.8
		c-1.8,2.7-3.8,2.4-6.4,0.6l-4.6-3.1c-2.6-1.7-3.7-3.4-1.9-6.1L309.1,103.2z M310.8,107.1c-0.9,1.4-1,2.1,0.4,3l3.7,2.5
		c1.4,0.9,2,0.6,2.9-0.8l0.7-1c0.8-1.2,1-2.1-0.5-3.1l-3.4-2.2c-1.5-1-2.3-0.5-3,0.7L310.8,107.1z"/>
</g>
</svg>
