<?xml version="1.0" encoding="utf-8"?>
<!-- Generator: Adobe Illustrator 19.0.0, SVG Export Plug-In . SVG Version: 6.00 Build 0)  -->
<svg version="1.1" id="Layer_1" xmlns="http://www.w3.org/2000/svg" xmlns:xlink="http://www.w3.org/1999/xlink" x="0px" y="0px"
	 viewBox="0 0 500 500" style="enable-background:new 0 0 500 500;" xml:space="preserve">
<style type="text/css">
	.st0{fill:#F3703A;}
	.st1{fill:#FDB927;}
	.st2{fill:#FFF0D8;}
	.st3{fill:#FFFFFF;}
	.st4{fill:#6F1200;}
	.st5{fill:#002D62;}
	.st6{fill:#BF2F38;}
</style>
<g id="XMLID_1_">
	<path id="XMLID_3_" class="st0" d="M406,233.1c-0.2-2-2.1-8.2-2.4-10c-0.5-3.4-3.5-9.2-5.5-12.8c-3.5-6.1-9.8-14-12-15.7
		c-3.5-2.4,3.8-5.4,4.9-7.2c2.6-3.5,7.6-9.7,8.8-13.5c1.1-3.8-0.5-2.4-3.2-0.7c-3.5,1.9-7.4,3-11.4,3.2c-3.3,0,0.9-3.3,2.4-6
		c1-1.7,1.7-3.6,2-5.5c1.3-4.8,2.9-9.6,4.8-14.2c0,0,4.1-4.1,1.6-3.5c-7,1.9-13.2,3.8-20.7,10.7c-0.9,0.9-1.9,1.7-3,2.5
		c0.3-1.8,0.4-3.6,0.4-5.4c-0.2-5.8-0.2-6.2,1.6-10.9c1.7-6.2,10.3-11.3,10.3-11.3c-4.2-2.4-11.4-0.7-15.4,1.9
		c-3.5,2.4-7.1,4.5-10.9,6.2c-3.2,1.5-4-1-4-1s1.8-6.6,3.1-11.1c1.3-4.4,0.9-5.8,1.9-9.9c0.7-3.3,1.8-6.5,3.2-9.6
		c-5.6-3.5-16.8,10-18.5,12.6c-1.6,2.6-12.5,12.1-14,13.4c-1.1-4.4-5.3-10.1-5.5-11.4c-1.8-8-2.6-17-4.8-15.3
		c-2.2,1.8-3.2,13.5-6.3,17.1c-1.8,2.1-3.4,4.3-4.6,6.8c-0.4,0.4-0.7,0.8-1.1,1.1c-2-11.2-8.3-21.1-17.6-27.6
		C277.8,97.5,275,91.5,274,89.8c-0.4-0.9-5.5-7.5-8.5-7.8c-3-0.3-1.1-2.2,0.4,8.6c1.6,10.9,1.3,9.3,3,13.3c1.2,3.7,2.1,7.5,2.7,11.4
		v3.9c-4.2-3-8.6-5.9-13.1-8.4c-1-0.4-9.2-8-12.3-6.9c0.9,3,2.8,6.3,3.8,11.1c1.1,4.7,6.8,12.3,6.8,12.3s2.4,5.1,3.1,5.5
		c0.5,0.3,1.6,5.7,2.4,8c-2.9-0.7-4.2-1.1-4.2-1.1l-7.6-2.5l-6.9-3c0,0-14-5.9-26.5-6.6c-6.2-0.5-12.4-0.5-18.6,0
		c0,0-18.5,1.9-18.8,2.4c-0.4,0.4,6.8,3,6.8,3s7.7,2.6,12.3,3.7c4.7,1.1,9,6.2,9.3,6.2c0.4,0,8,7.8,8,7.8s10,5.9,10.2,11.1
		c-2.9,2.5-6.6,3.8-10.4,3.8c-1.2,0-19.4-6.1-36.1-6.6c-35.4-0.8-28.3,1.8-28.3,1.8s6.9,6.2,21,12.8c5.1,2.4,9.9,5.2,14.3,8.6
		l10.7,9.2l-0.2,3.7l1.6,5.1l0.4,1.1l-14.8-0.4l-29.2,8.6c0,0-10.7,7-14.3,8.9c-3.7,2-10.7,5.8-10.7,5.8s-6.3,4.1-8.9,6.2
		c-10,8.6-25.5,12.6-28.2,13.2c-3.8,1-26.1,8.4-25.7,9.6c0.4,1.5,14.8,1.9,14.8,1.9c12.8-0.4,26.2-0.1,28.6-0.9
		c2.3-0.9,20.1-2,20.1-2s7.8-1.6,9.9-1.8c2-0.1,3.2-0.7,9.3-1.5c1.9,0.2,3.8,0.1,5.8-0.1c4.8-1,5.5,0,8-1.8c2.5-1.6,14-5.1,17.1-5.5
		l16.1,5.9c-2.7,0.8-10.8,10.4-10.8,10.4l-16.2,16.2c0,0-14.4,10.9-16.2,11.7c-1.9,0.8-58.5,36.1-59.8,37c-1.6,1.1-2.1,4.9,5.3,2.4
		c23.1-8.1,92.9-34,114.4-41l-3.2,2.3l-4.6,4.6l-3.8,4.9c0,0-11.1,12.1-14.5,16.3c-3.4,4.2-9.6,16.9-17.6,24.9
		c-5.4,5.5-10.5,11.4-15.2,17.6c0,0-11.9,14.8-12.3,16.3C142.4,372.7,130,390,130,390s-11,25.1-12.9,26.4c-1.9,1.1-0.6,2.9,7.6-3
		l40.4-40.9c0,0,19.2-15.3,27.8-24.2c0.9-0.8,35-25.5,35-25.5l6.5-4.1l1.6-2.2c-2.3,3.1-3.9,6.6-4.9,10.3c-0.4,1.8-2.4,4.1-4.4,9
		c-1.6,4-3.2,5.3-5,8.2c-2.3,3.8-4.4,6.7-6.1,9.4c-1.9,3.1-4.6,7.5-4.6,7.5c2.1-1,4-2.3,5.7-3.8c3.8-3.1,4.6-4.2,6.5-5.8
		c0.7-0.7,3.5-2.7,6.6-4.9c1.5-0.8,15.7-9.3,17.3-10.3c2.6-1.6,3-3,7.6-7.6c4.6-4.6,10.3-14,10.3-14s-1.1,6.5-2.3,10.6
		c-1.1,4.1-3.6,15.3-13,34.3c-15.1,21.2-14.4,33.1-14.4,34.3c-0.4,6.7-0.1,13.4,0.8,20c0.7,4.9,2.1,4.7,2.1,4.7s0.4-9.5,8.6-24.9
		c1.6-3,5.4-6.1,6.9-8c1.6-1.9,10-8.8,14-14c4.2-5.4,3-4.6,5.7-7.6c2.7-3.1,4.8-6.6,6.5-10.3c1.6-3.4,9.5-22,12.9-26.9
		c1.9-2.8,4.7-4.9,7.8-6.1c0.9,2.8,1.7,11.2-1.3,36.1l-4.6,17.6c0,0,7.3-5.4,8-6.9c0.7-1.6,0.7-0.8,2.3-3.8c1.6-3,8.4-18.6,8.4-18.6
		c2.6-5.3,5.6-10.4,9.1-15.1c2.7-3.5,11.1-13.7,12.1-15.9c0.9-1.8,6.3-13.5,8.9-19c1.1,1.7,2.1,3.5,3,5.3c0.7,1.9,1.9,11.3,1.9,18.5
		c0,1.7,0.4,7.3,4.5,10.3c2.9,2,5.4,4.6,7.3,7.6c1.7,3.1,3.2,6.4,4.6,9.7c0,0,2.8-9.7,1.1-16.1c-1.6-5.9-1.6-17.4-0.7-20.5
		c0.7-3,1.1-14.4,2.3-18.2c0.9-3.6,1.3-7.3,1.1-11c0-4.1,0-12.3-0.3-14c1-0.6,2.2-0.8,3.4-0.5c6.9,2.1,11,7.6,13.8,10.1
		c2.8,2.4,1.2-15.3,1.2-15.3c0.5-3.8,0.6-7.7,0.2-11.5c-0.7-3.8-1-7.6-0.7-11.4c0.4-1.3,1-7.8,1.2-9.2c2.8,1.5,5.8,2.8,8.8,3.8
		c4.8,1.7,11.6,11.4,11.6,11.4C409.5,246.7,406.1,234.9,406,233.1z"/>
	<path id="XMLID_4_" class="st1" d="M376.2,216.8c-4.4-3-15.7-5.4-12.6-3c2,1.7,3.8,3.6,5.5,5.7c1.3,1.9,6.7,8.6,8.4,30.6
		c0.1,1.6,2.9,10.5,2.9,12c0,0.1-0.4,0.2-0.4,0.3c-0.3,0.2,0.3,4.9-0.8,3.5c-1.1-1.5-10-12.4-10.9-12.8l-8.7-10.6
		c-3.2-4.2-7-7.9-11.2-11.1c-2.3-1.7-4.7-3.1-7.3-4.2c0,0,5.7,9.3,7.2,10.9c1.6,1.5,10.3,17.1,10.3,18.6c0,1.6,0.9,3.2,0.4,7
		c-0.3,2.8-1.2,5.5-2.7,8c-0.7,1.1-1.6,1.9,0.7,2.4c2.3,0.4,5.7-2.7,6.4,1.1c0.7,3.8,0.8,5.7-0.3,7.6c-1.1,1.9-1.8,4.4-3.4,10.8
		c-1.5,6.5-0.8,7.1-1.6,12.8c-2.3,15.7,1.3,22.3,1.3,22.3c-3.3-3.1-5.4-7.1-6.1-11.6c-0.6-5.5,0.4-12.9-3-17.8c-1.6-2-3-4.2-4.1-6.5
		c-0.4-0.8-0.8-1.6-1.3-2.3c-0.2-1.8,0.2-3.7,1.1-5.2c1.9-2.7,2.7-8.2,1-9.6c-7.2-6.1-5.8-18.8-7.3-16.5c-1.6,2.3-0.7,7.4-0.7,7.4
		l0.8,11.4l-4.5,13.5c0,0-9.2,14.8-10.3,16.3c-1.1,1.5-3.3,2.7-4.1,5.2c-0.7,2.7-8.3,12.3-9.5,18.1c-0.4,2.6-1.8,4.9-3.9,6.4
		c1.1-4.1,2.1-8.3,2.7-12.6c0.2-6,1.7-11.8,4.5-17.1c2.1-3.5,1.9-5.7,2.7-6.9c0.8-1.1,2.8-12,2.8-12s-1.5,2.6-3,5.5
		c0.1-4.2,0.2-12.7-0.4-11.4c-3,6.5-6.3,12.7-10.1,18.8c0,0-16.7,17.8-18.2,19.4c-6.1,6.7-17,27.4-18.6,31.2
		c-5.2,11.8-12.9,17.4-15.1,22c-2.3,4.6-9.5,12.1-9.5,11.1c-0.1-2.2,0.3-4.4,1.1-6.5c1.2-3.2,6.5-12.9,7.2-14.4
		c0.8-1.2,1.4-2.5,1.9-3.8c0.8-2.3,9.5-16.7,11-20.2c1.2-2.6,2.6-5.2,4.2-7.6c3.8-6.2,11.7-30.7,12.1-33.7c0.4-3,0.3-6.1,4.1-14.7
		c3.8-8.8,7.1-18.8,7.1-18.8l3.8-11.6c0,0-3.2,5.2-5.5,8.3c-2.3,3-4.3,9-5.4,9.7c-1.9,1.2-7.6,12.3-8.3,14c0.1-0.2,0.2-0.4,0,0
		c-0.5,0.8-2.9,4.2-11.1,14.7l-3.4,4.8l-11.5,11.7c0,0-16.5,19-16.1,16.8c0.4-2.3,4.7-12,5.5-13.6c0.7-1.5,3.8-8.7,6.1-11.4
		c1.5-2,2.8-4.2,3.8-6.5l2.7-4.9l7.6-10l0.7-5.3c2.7-2.7,3.2-4.7,4.3-6.3c1.2-1.5,4.8-6.2,4.8-6.2s1.6-4.2-0.8-2.4
		c-2.3,1.9-5.7,5.4-5.7,5.4s-1.8,2.6-4.6,6.5c-0.7,1-8.3,11-10.3,12.1c-1.9,1.1-8.7,8.3-8.7,8.3l-7.6,6.1l-6.1,4.9l-19,14l-10.5,8.1
		c0,0-16.8,10.9-19.6,14c-3.9,4.4-36.6,33.7-26.6,23.2c1.1-1.2,27.8-34,29.7-35.1c1.9-1.1,12-16.5,16.2-20.7
		c4.2-4.1,14.5-18.2,16.8-20.5c2.3-2.2,9.7-6.1,14.6-10c4.9-3.8,16.2-9,17.8-11c4.9-6.6,7.6-7.6,7.6-7.6l11.9-14.5l2.3-2l0.7-3.5
		l-3,1.3L255,259.1l-4.3,3l-3.5,4.4c0,0-20.3,10.1-21.8,10.1h-0.2l2.3-3.3l-1.2-2.3l1.8-4.1c0,0,10.3-6.2-21.7,11.1
		c-3.4,1.8-10.5,8.1-11.7,7.9c-1.9-0.4,1.3-4.1,1.3-4.1s16.2-15.1,15-16.2c-1.3-1.3-11.3,6.5-11.3,6.5s-11.7,11.7-21.5,14
		c-18.8,4.4-32.2,15.4-33.8,15.8c-1.3,0.3,0-2.1,0-2.1c28.6-19.2,25.1-16.7,29.2-18.3c12.6-5,34.5-25,34.5-25l13-8.5
		c6.1-4.3,24.4-10.9-5.2-3.5c-14.8,3.8-15.9,2.8-18.5,3.6c-1.6,0.4-4.7,3.6-7.3,6.4l-10.7-3l-8.1-2.4l-5.8-2.2
		c5.1-2.2,10.4-3.7,15.8-4.7c3.1-0.4,13.9-3.2,16.7-4.8c2.8-1.6,18.9-8.2,11.1-7.8c-16.5,1-22.1,3.2-22.1,3.2s-12.6,5.8-14,6.1
		c-1.5,0.3-8.3,2.6-12.4,3c-4.2,0.4-16.5,4.1-24,4.5c-7.5,0.4-23.6,3.1-24.4,3.2c-0.9,0.2-18.2,2-17.6,0.9c0.7-1.2,14-5.5,18-4.2
		c4.3,1.2,19.9-9.4,20.3-9.8c0.4-0.5,14-9.7,15.5-10.4c1.5-0.7,10.5-6.1,11-6.1c0.5,0,26.4-8.2,27.2-8.9c2.5-1.9,5.4-3.2,8.5-3.8
		c4.7-0.8,15-1.8,16.2-2.6c0,0,10.3,0.7,14.2,0.9c25.2,0.7,37.8,2.4,37.8,2.4c-5.9-4.5-12.2-8.6-18.8-12.1c-6.1-3-10.3-8-19.5-11.1
		c-19.7-6.9-29.9-5.8-34.2-9.7c-4.5-4.3-5.4-3.1-15.4-8.3c0,0,21.6,1.8,23.9,2.1c4.4,0.4,17.5,5.6,22.3,6.6c4.8,1,10,2.7,11.6,3
		c4.9,0.7,17.3,2.3,15.9,1.2c-6.6-5-15.8-13.1-15.8-13.1l-0.5-1c5.2,1.3,11.6,2.3,12.1,2.4c0.9,0.1,15,6.1,15.7,5.9
		c0.7-0.2-15.9-12.8-17-13.8c-6.9-5.6-9.9-4.7-12.3-6.4c-3.6-2.7-5-8.9-5.2-9.2c-3.5-4.8-17.5-9.2-15.7-10c1.8-0.8,9.9-2.7,23.9,2.8
		c0.9,0.4,8,6,12.6,6.9c4.6,0.8,5.5,0.1,9.7,0.7c4.3,0.5,9.5,1.5,11.3,1.1c1.8-0.4,10.6,6.1,10.6,6.1s7.3,3.1,8,3.5
		c0.2,0.1-0.1-0.4-0.8-1.1l0.1,0.1c0,0-5.7-6.9-6.9-8.1c-10.3-9.4-9.3-15.3-16.2-22.8c-4.2-4.7,7.3,2.8,7.3,2.8l4.4,3.8l10.5,5.2
		l7.6,5.8l-2.4-5.9c0,0-2.8-4.5-3.5-5.3c-0.7-0.7-4.7-7.4-4.7-7.4s-2.8-6.3-3-6.9c-0.1-0.5-0.3-2.7-0.3-2.7s15.1,6.5,17.4,6.9
		c2.4,0.4,5.4,7.1,6.6,9.2c1,3,1.6,6.2,1.7,9.4c-0.4,2.1-0.4,4.3-0.1,6.4c0.3,2.9,0.7,8.1,0.7,8.1c6.2-6.6-0.4-10,9.7-21.6
		c6.1-6.9,5.4,1,5.4,1l-0.4,7.1l1.6,17.3c0,3.3,1.2-6.8,1.8-7.9c1-1.9,2.3-3.7,3.8-5.2c0.3-0.3,0.6-0.6,0.9-0.9c3.1-4,10-5.5,10-5.5
		s4.9-3.1,5.8-6.6c0.8-3.5,8.6-10.8,8.6-10.8s3.7-5.1,0.5,5.8c-1.4,4.2-3.2,8.2-5.4,12.1c-1.7,3.8-0.4,8.3,0.9,12
		c1.6,5.1-6.1,19.2-6.1,19.2l1.4-0.7c0,0,10.4-8.9,12.1-11.9c5.3-9.2,12-12.1,12-12.1s-1.9,7.4-0.7,12.3c0.7,2.5,1.1,5,1.3,7.5
		c-7.2,5.5-15,10.5-15,10.5s23.6-4,26.1-11.5c1-3.3,6.4-4.8,6.4-4.8l-3.4,13.1c0,0-1.8,4.9-5.1,6.6c-1.6,0.9-7.2,5.2-4.1,4.4
		c3.4-0.9,3.1-1.5,8-1.6c10.7-0.4,8.4,0.8,8.4,0.8l-4.2,4c0,0-2.8,5.3-5.8,4.7c-1.3-0.3-2-0.9-4.7-1.6c-3.4-0.8-6.8-1-10.3-0.7
		c-7.8,0.4,1.2,1.8,6.6,4c2.1,1,4.2,2.2,6.1,3.5l3.4,4.5l2.7,4.2l1.9,2.3l3.8,1.1l3.8,5l6.3,15.4
		C399.6,227.7,400.5,233.4,376.2,216.8z"/>
	<path id="XMLID_5_" class="st2" d="M307.7,156.7c1.6-1.6,2.6-3.6,2.9-5.8c0.4-3,4.9-10,4.9-10s0.7-2.2,0.4,8.3
		c-0.1,5,0.7,3.9,2,6.9c1.2,3,2,2.3,3.2,3c1.5,0.9,3.3,1.3,5,1.2c3.2,0,4.3-1.5,5.5-4.3c1.4-3.1,0.7-4.7,1.6-6.9
		c2.2-5.7,8.9-11.1,8.3-9.4c-1.6,3.4-1.9,7.3-1,10.9c1.3,6.6,1.3,8,0.5,9.6c-1.2,2.4-2.1,10.6-1.2,13.5c0.7,2.7,1.6-3.1,12.6-7.7
		c3.1-1.7,6-3.7,8.7-6.1c1.3-1-2.3,5.7-4.2,7.4c-2,1.7-5.1,2.8-6.6,4.8c-2,3-3.8,6.6-3.5,8c0.2,1.3,1.5,6.9,5.8,3.5
		c13.5-10.6,19.1-10.4,19.1-10.4l7.4-4.4c-2.2,3.2-5.1,5.9-8.6,7.7c-2.9,1.6-2.6,2.4-13.1,9.7c-1.9,1.4-2.2,6.9-4.3,8.3
		c0.7-0.2,1.1-0.8,5,0.5c4.7,1.6,7.3,3.7,10.6,5.5c17.3,9.7,19.8,19,13.4,12.6c-4.4-4.4-23.8-6.1-25-8.3c-2.5-4.6-5.1,0.5-5.5-0.2
		c-0.4-0.7-3.9,2.4,0.3,7.2c4.2,4.7,4.7,6.6,8.5,9.2c3.7,2.4,6.6,4.3,7.7,8.8c0.7,3.2,1,6.5,1.1,9.7c0,0,1.2,2.4-5.3-6
		c-1.8-2.4-4.9-2.6-9.7-5.3c-4.7-2.7-4.7,1.1-6.6-2.8c-2-3.9-8.6,0-10.2,5.2c-1.5,5.2-0.7,13.4,1.6,16.1
		c2.2,2.7,11.4,12.6,12.1,17.1c0.7,4.5-1.3,16.3-0.7,18.1c0.5,1.7-9.6-5.9-12.8-10.4c-3.2-4.5-4.9-10.1-8.9-11.9
		c-4-1.7-10-11.6-10.2-12.4c-0.3-0.7-1.7-4.7-3.2-4.9c-1.5-0.3-5.8-4-5.3,0.4c0.5,4.5-5.1,8-2,12.7c2.2,3.4,3.9,7.2,4.9,11.1
		c-5.1-0.2-9.6-3.2-11.8-7.8c-4.3-7.9-5.7-12.4-5.5-15.1c0.3-2.8-1.7-5.2-4.5-5.5c-0.4,0-0.8,0-1.2,0c-3.7,0.4,1.5,12.8-0.1,14.7
		c-0.7,0.8-20.6,21.9-17.6,12.3c0,0,6.1-11.3,4.6-17.2c-1.1-4.8-0.4-9.9,1.9-14.2c1.7-3.8,9.5-2.1,4.8-6.9c-4.7-4.7-5.5,9.1-5.5,9.1
		s-14.4,6.1-16.9,7.5c-4.3,2.2-8.7,3.9-13.3,5.2c-3,0.7-8.3,5.9-9.7,7.1c-1.6,1.3-9.4,3.2-12.3,4.9c-3,1.7,7.8-6.6,10.7-12
		c4.6-8.5,16.2-13,20.8-18.2c5.1-5.7,2.4-1.6,7.8-4.9c5.5-3.2,0.4-5.5,0.4-5.5s-18.9,9.4-24.7,11.7c-3.8,1.5-24,6.8-25,6.8
		c-1,0-12.3,2-12.3,2s-0.9-0.8,9.7-4.2c4.7-2,9.2-4.5,13.4-7.5c10.6-7.8-66-5.2-11.7-12c3.8-0.4,5.5-1.6,10.4-1.9
		c-0.4-0.2,4.4,1,0.7-1.7c-3.7-2.7-11.1-9.2-11.1-9.2c4.6-1.2,9.4-1.4,14.1-0.4c0.7,0.1,1.9,0.3,2.4,0.3c4.2,0,5.8-0.6,14.2-0.6
		c8.4,0,4.6-3,10-1.6c5.5,1.6,8.6,5.5,6.9,1c-2.4-6.6-29.3-20.4-30.3-20.8c-1-0.5,19.9,2,21.4,2.3c1.6,0.3,5.5-0.5,10,0.5
		c4.4,1,6.1-0.5,5.9-5.5c-0.3-4.9,1-5.9-2.7-8.2c-3.7-2.2-6.5-6.5-10.9-8.1c-4.5-1.7-19.2-14-19.2-14s-3.3-2.4,12,4.7
		c4.2,2,8.6,2.1,14.8,5.8c4.9,3,9.7,9,15.1,6.5c1.5-0.7-1.8,5.7-0.4,5.1c1.5-0.5,2.9-0.4,1.4-4.6c-1.5-4.3-0.7-6-12.1-10
		c-11.4-3.9-19.1-10.5-15.7-9.3c3.5,1.3,22.5,6.6,27.5,5.8c4.4-0.4,8.8,0.4,12.8,2.3c4.2,1.7,5.8,8.9,4.6,1.9c-1.3-6.9-5.6-8.8-9-10
		c-1.6-0.6-10.3-9.6-10.3-9.6s3.5-1.3,19.8,7.8c6.1,3.5,1,6.9,7.1,11.1C305,156.9,307.7,156.7,307.7,156.7z"/>
	<path id="XMLID_6_" class="st3" d="M294,193.5l9.8-7.5l5.9,9.5l8.9,4.3l11.9,1.8l5.7,5.7l1.1,1.6l-9.9,10.3l-11.4,3l-0.8,0.4
		c-0.5,0.2-1,0.2-1.5,0c-0.8-0.3-13.1-14.7-13.1-14.7L294,193.5z"/>
	<path id="XMLID_11_" class="st0" d="M283.3,193c-0.3,1.1-0.9,3.5-0.9,3.5l1.6,8.1l1.2,0.3l3.1-5.4l-4.5-6.2L283.3,193z M294,193.9
		l6.3,13.2l13.4,15.6l-3.3-0.4l-10.9-1.6l-7.5-5.5l-2.9-16.5L294,193.9z M320.4,177.9l9.4-1.8l8.1,1.9v0.8l0.7,1.1l3,3.4l-0.1,18.5
		l-4.5,7.3l-3-4.6l-5.8-3.4l-11.4-1.7l-8-5l-4.1-9L320.4,177.9z M291.8,173.5l1.1-1.3l4-5.1l7.6-2l0.7,0.7l-2.6,12l1.4,8l-10,8
		L291.8,173.5z"/>
	<path id="XMLID_15_" class="st3" d="M285.6,204.9c0,0,0.3,4.8,2.2,6.1c2,1.2,2.3,1.4,2.3,1.4l-0.8-13.1L285.6,204.9z M288.7,199.3
		l5.4-6.4l-2.4-19.2l-5.2,4.8l-4,9.8L288.7,199.3z M304.6,185.5l-2.1-7.2l3.3-13.8l1.3-1l10.9,0.4l8.3,1.9l9.7,6.7l1.9,5l-9.2-1.5
		l-11.2,2.7L304.6,185.5z"/>
	<path id="XMLID_22_" class="st4" d="M288,209.4c-0.5-0.4-0.9-1-1.2-1.6l0.3-1.9l0.4-1.6c0,0-0.7-1.4-1-0.7
		c-0.3,0.5-0.6,1.1-0.9,1.6c0.2,1.8,0.7,3.6,1.5,5.2c0.4,0.4,2.4,2.1,2.4,1.7c-0.1-0.5-0.3-1-0.5-1.5
		C288.8,210.2,288.4,209.7,288,209.4z M341.7,182.4c-0.3-1.6-2.4-2.4-2.4-2.4h-1.1c0,0-0.7-0.3,0.9,1.1c0.6,0.5,1,1.2,1.2,2
		c2.9,17.8-2.3,23-2.3,23s-7.7,10.2-8.3,10.7c-0.8,0.5-2.8,2.3-3.4,2.3c-0.7,0-9.2,2-9.2,2.1c0,0.1-0.9-0.3-1.3-0.4
		c-0.4,0,0,1.3,0,1.3c0-0.2-0.4,1.2-0.4,1.2c1.2-0.2,2.3-0.6,3.2-1.3c0.7-0.4,8.1-1.6,9.7-2.4c1.3-0.7,2.6-1.6,3.8-2.5
		c0,0,0.3,1.1,7.2-10C346.3,196.2,341.9,183.9,341.7,182.4z M292.8,193.4c-1.4,1.5-2.7,3.1-3.8,4.7l-0.9-1.1l-1.8-3.2l-1.8-3
		l-0.7-2.9c0,0-0.7-3.3,6.1-12.3c0.4,0,1.1-1,1.3-1.4c0.3,6.2,0.9,12.5,2,18.6L292.8,193.4z M309.4,216.5l-6-6.9l-3.8-5.1l-3.2-7.3
		c0,0-0.4-1.2-1-3.2l4.3-3.9c0,0,1.6-1.2,4.1-2.7c1.4,5,5.1,9.2,9.9,11.2c8.9,4.3,12.7,2.1,15.4,3.9c2.3,1.5,4.5,3.1,6.6,4.9
		c0.8,1.1,0.4-3,0.4-3l-4.9-3c-2.8-0.9-5.7-1.5-8.6-1.8c-4.3-0.3-8.3-1.9-11.7-4.6c-1.6-1.3-3.4-5.5-4.8-9.4c4.4-2.7,9-5,13.8-6.9
		c11-4.3,18.6,0.4,18.6,0.4s2.6,0.3-0.1-1.6c-0.1-0.1-0.1-0.1-0.2-0.1V177c0-4.6-4.3-6.6-9.2-10c-4.8-3.5-15.6-3.8-15.6-3.8
		s-3.8-0.2-5.8-0.1c-1.6,0.1-1.3,1.6-1.1,2.3c0,0.9,0.4,0.2,0.4,0.2s0.8-1.1,1.2-1.3c0.4-0.1,3-0.2,3.8-0.3c0.7-0.1,6.6,1,9.5,1.3
		c3,0.3,6.9,3.1,8.1,3.5c1.7,1,3.4,2.1,4.9,3.2l1.8,2.4l0.7,1.8c0.1,0.3,0.1,0.5,0.2,0.7c-9.3-4.5-24.9,3.2-31.6,7
		c-0.6-1.9-1.4-3.8-2.2-5.7c0.4-3.4,1.2-6.7,2.4-10c0.6-1.1,1-2.3,1.2-3.5c-0.4-1.4-1.2-1.2-1.2-1.2s-3.2,8.3-3.5,11.4
		c-0.3,3.5,0.1,7,1,10.3c-0.3,0.2-0.7,0.4-1,0.7c0,0-4.5,3.2-7.4,5.5c-1.6-5.9-2.4-11.9-2.6-18c0-0.3,0.2-2.5-0.3-1.8
		c-0.3,0.6-0.6,1.2-0.8,1.8c-0.4,0-0.8-0.2-1.7,0.8c-1.2,1.2-9.7,10.3-6.8,16.6c3,6.3,4.3,7.6,4.3,7.6l0.7,1
		c-1.2,1.7-2.1,3.6-2.7,5.7c-0.1,1.6,0.4,0.7,0.4,0.7l0.4-0.8l2.7-3.9l0.7,1c0,0,0.4,10.4,1.6,11.9c1.5,1.8,3.1,3.3,4.9,4.7
		c2.5,1.8,5.4,3.2,8.5,3.8c2.3,0.2,4.6,0.2,6.9,0.1c1.3,0,0.8-0.4,0.8-0.4c-0.3-0.3-0.7-0.5-1.1-0.7c-1-0.2-2-0.2-3-0.1
		c-0.4,0-3.9-0.7-3.9-0.7l-2.9-1c-0.9-0.1-1.8-0.3-2.7-0.7c-0.5-0.4-1-0.8-1.4-1.3l-1.9-1.6l-1.5-1l-1-1.3l-1.9-10l-0.7-5l4.1-3.8
		c0.2,1,0.6,1.9,1,2.8c3,6.2,7.9,18.2,18,24.2c2.4,1.9,1.5-1.3,1.5-1.3L309.4,216.5z M282.7,196.5l0.4-1.5l-0.4-2.3
		c0,0-0.4-0.6-0.5,1.6c-0.3,0.8-0.5,1.7-0.7,2.6c0.2,2.7,1,5.3,2.4,7.7c0.6,0.7,0.8-1.3,0.8-1.3L282.7,196.5z M293.7,171.7l0.7-0.9
		l1.1-1.2l1.8-0.3l2.4-2.6l3.3-0.6c0,0,2.1-0.6,1.8-1.3c-0.3-0.7-2.8-1.1-8,1.8c-3.8,2.2-4,4.6-3.9,6.1c-0.1,1.3,0.2,0.5,0.2,0.5
		L293.7,171.7z"/>
	<path id="XMLID_25_" class="st5" d="M323.5,159.5c4.2,1.8,2.4,1.6,2.4,1.6c-0.1-0.1-25.4-10.8-42.7,8.6
		c-18.8,20.9-5.5,34.3-4.7,40.1c0.9,7.2-9.8-17.1-9.8-17.1l0.4,10c0,0-6.9-7.8-6.1-16.5c0.7-6.7,5.7-26.4,31.1-30.4
		C303.9,154.1,314.2,155.4,323.5,159.5z M349.3,183.4c-1-0.7-3.5-4-1.9-0.5c0,0,15.7,39.3-30.1,45.5c-25,2.4-50.5-20.4-50.5-20.4
		s-35.4-30.3-63.9-32.3c-19-3.2-42.4,1.5-50.9,6.2c2.4,2.1,19.3-8,59,2.7c7.6,2.7,26.3,10.9,27.8,14.8c0.4,1.3,1.8,6.4-1.3,8.9
		c7.8,10.8-12.3,12.4-8.2,13.6c4.2,0.3,8.3,1.7,11.9,4c13.4,10.6,36.6,26.4,61.8,31.2C352.4,261.9,398.7,217.4,349.3,183.4z"/>
	<path id="XMLID_42_" class="st3" d="M356.8,216.1l7.5,3.8l0.4,0.1l0.4-0.1l0.3,0.1l-1.1,2.1l-0.3-0.1v-0.4
		c-0.1-0.1-0.2-0.2-0.4-0.3l-7.5-3.8l-1.1,2.2c-0.1,0.1-0.1,0.2,0,0.3c0,0.1,0.1,0.2,0.3,0.3l-0.1,0.1l-2.6-1.3l0.1-0.1
		c0.1,0.1,0.3,0.1,0.4,0.1c0.1,0,0.1-0.1,0.2-0.2l3-5.9v-0.3c-0.1,0-0.1-0.2-0.4-0.3l0.1-0.1l2.6,1.3l-0.1,0.2
		c-0.1-0.1-0.3-0.1-0.4-0.1l-0.2,0.2L356.8,216.1z M352.8,221.3l4.6,4.2c0.7,0.5,1.3,1.2,1.6,2.1c0.4,1.3,0,2.7-1.1,3.5
		c-0.6,0.8-1.5,1.4-2.5,1.5c-0.5,0.1-1.1,0-1.6-0.3c-0.6-0.3-1.1-0.7-1.6-1.2l-4.7-4.2l-0.3-0.2l-0.4,0.1l-0.2-0.2l1.6-1.8l0.2,0.2
		v0.3c0,0.1,0.1,0.3,0.2,0.4l4.1,3.7c0.3,0.3,0.7,0.6,1.1,0.9c0.2,0.2,0.5,0.3,0.7,0.4c0.7,0,1.4-0.3,1.8-0.8c0.5-0.5,0.8-1.2,0.7-2
		c-0.1-0.3-0.2-0.5-0.4-0.7c-0.3-0.4-0.6-0.7-1-1l-4.1-3.7c-0.1-0.1-0.2-0.2-0.4-0.2l-0.3,0.1l-0.2-0.3l1.5-1.6l0.2,0.2v0.3
		C352.6,221.1,352.7,221.2,352.8,221.3L352.8,221.3z M348.6,234.4l2.2,1.4l-0.1,0.2c-0.2-0.1-0.2-0.1-0.3-0.1s-0.1,0.3-0.3,0.7
		c-0.2,0.6-0.5,1.3-0.8,1.8c-1.1,1.3-2.7,1.9-4.4,1.7c-0.7-0.2-1.4-0.5-1.9-1c-0.8-0.5-1.4-1.2-1.8-2c-0.7-1-1.1-2.2-1.2-3.5
		c-0.1-1.5,0.6-3,1.9-3.8c0.5-0.3,1-0.5,1.6-0.7c0.4,0,1.1,0,2,0.1c0.2,0.1,0.5,0.1,0.7,0c0-0.1,0-0.1,0.1-0.3h0.2l0.4,2.6h-0.2
		l-0.1-0.2c-0.1-0.1-0.2-0.3-0.3-0.3c-0.2-0.1-0.5-0.1-0.7-0.1c-0.8-0.1-1.5,0.1-2.2,0.4c-0.7,0.4-1.2,1.1-1.3,1.9
		c-0.1,1.1,0.2,2.1,0.7,3c0.5,0.9,1.4,1.6,2.4,1.9c0.8,0.3,1.6,0.2,2.3-0.3c0.7-0.4,1.2-1.1,1.4-1.8c0.1-0.2,0.1-0.5,0.1-0.7
		c0-0.2,0-0.4-0.1-0.4l-0.1-0.2L348.6,234.4z M338.1,243.4l-3.6-8.7c0-0.2-0.1-0.3-0.2-0.4l-0.3-0.1l-0.1-0.2l2.3-1l0.1,0.3
		c-0.1,0.1-0.2,0.2-0.2,0.4l0.1,0.4l3.6,8.7c0.1,0.1,0.1,0.3,0.3,0.4l0.3,0.1l0.1,0.2l-2.3,1l-0.1-0.3c0.1-0.1,0.2-0.2,0.2-0.4
		C338.2,243.6,338.2,243.5,338.1,243.4L338.1,243.4z M330,237.3l2.3,8c0.1,0.2,0.1,0.3,0.2,0.4l0.4,0.1v0.3l-2.3,0.7l-0.1-0.2
		l0.2-0.3v-0.4l-2.3-8l-2.4,0.7l-0.2,0.2v0.1v0.4l-0.2,0.1l-0.8-2.8h0.2c0.1,0.2,0.2,0.3,0.3,0.3l0.3,0.1l6.3-1.8
		c0.1,0,0.2,0,0.2-0.2c0.1,0,0.1-0.2,0-0.4h0.2l0.8,2.7l-0.2,0.1c-0.1-0.2-0.2-0.3-0.3-0.4l-0.3-0.1L330,237.3z M323.1,244.3
		l1.3,2.3l-0.1,0.1l-0.3-0.2c-0.2,0.1-0.4,0.2-0.5,0.4c-0.4,0.5-1,0.9-1.6,1.3c-0.5,0.3-1,0.4-1.6,0.4c-1.1,0.2-2.3-0.2-3.1-1
		c-0.5-0.5-0.9-1.1-1.3-1.7c-0.4-0.8-0.6-1.7-0.7-2.7c-0.1-1.2,0-2.4,0.5-3.5c0.6-1.4,2-2.4,3.5-2.6c0.5,0,1,0,1.6,0.1
		c0.6,0.2,1.2,0.5,1.7,0.9c0.2,0.1,0.4,0.3,0.6,0.4c0.1,0,0.1-0.1,0.3-0.3l0.1,0.1l-0.9,2.4l-0.2-0.1v-0.2c0-0.2-0.1-0.3-0.2-0.4
		c-0.1-0.2-0.3-0.3-0.5-0.4c-0.6-0.4-1.4-0.7-2.1-0.7c-0.8,0-1.6,0.4-2.1,1.1c-0.6,0.9-0.9,1.9-0.7,3c0.1,1,0.5,2,1.2,2.8
		c0.6,0.6,1.4,0.9,2.2,0.8c0.8-0.1,1.5-0.4,2-1c0.2-0.2,0.4-0.4,0.4-0.5c0.1-0.1,0.1-0.3,0.1-0.4v-0.2L323.1,244.3z M306.8,243.5
		l-0.2,3l4.9,0.4l0.2-0.1c0.1,0,0.1-0.2,0.3-0.4h0.2l-0.2,3h-0.3c0-0.2,0-0.4-0.1-0.4c-0.1,0-0.1-0.1-0.3-0.1l-6.9-0.5v-0.3
		c0.1-0.1,0.2-0.1,0.3-0.2c0.1-0.1,0.1-0.2,0.1-0.4l0.7-9.4c0-0.2,0-0.3-0.1-0.4c-0.1-0.1-0.1-0.2-0.3-0.3v-0.3l6.9,0.5l0.3-0.1
		l0.2-0.4h0.2l-0.2,3h-0.2c0-0.2,0-0.3-0.1-0.4c-0.1,0-0.1-0.1-0.3-0.1l-4.9-0.4l-0.2,2.7l3.2,0.3l0.2-0.1c0.1,0,0.1-0.2,0.2-0.4
		h0.3l-0.3,2.8h-0.2c0-0.2,0-0.3-0.1-0.4l-0.3-0.1L306.8,243.5z M295.5,238.6l-1.6,6.6v0.4l0.2,0.2v0.3l-2.3-0.5l0.1-0.2l0.4-0.1
		c0-0.1,0.1-0.3,0.2-0.4l2.1-9.2v-0.4l-0.2-0.3v-0.3l2.6,0.7v0.2c-0.2,0-0.3,0.1-0.4,0.4c-0.1,0.1,0,0.3,0.1,0.4l2.7,7.2l1.6-6.4
		v-0.4c0,0-0.1-0.2-0.3-0.2l0.1-0.3l2.2,0.5v0.2l-0.4,0.1l-0.1,0.4l-2.2,9.2v0.4c0,0.1,0.1,0.2,0.2,0.3l-0.1,0.3l-2.4-0.7l0.1-0.2
		c0.1,0,0.3-0.1,0.3-0.2v-0.1c0-0.2,0-0.4-0.1-0.7L295.5,238.6z M284.6,234.7l-2.6,6.2v0.4l0.2,0.3l-0.1,0.3l-2.1-0.8l0.1-0.3
		l0.3-0.1l0.2-0.4l3.5-8.7l0.1-0.4c0-0.1-0.1-0.2-0.2-0.4l0.1-0.3l2.4,1l-0.1,0.3c-0.2,0-0.4,0.1-0.4,0.3v0.4l1.6,7.5l2.4-6.1
		l0.1-0.4c0-0.1-0.1-0.2-0.2-0.4l0.1-0.3l2.1,0.9l-0.1,0.3h-0.4c-0.1,0.1-0.1,0.1-0.2,0.4l-3.5,8.7l-0.1,0.4c0,0.2,0.1,0.3,0.2,0.4
		l-0.1,0.3l-2.4-0.9l0.1-0.3c0.2,0,0.3-0.1,0.3-0.3c0.1-0.1,0-0.4,0-0.7L284.6,234.7z M277.4,229c-0.6-0.3-1.4-0.3-2,0
		c-1,0.4-1.8,1.1-2.2,2.1c-0.6,0.9-0.8,1.9-0.7,3c0,0.7,0.5,1.4,1.2,1.7c0.6,0.4,1.4,0.4,2,0.1c0.5-0.2,0.9-0.5,1.3-0.9
		c0.4-0.3,0.7-0.7,0.9-1.2c0.6-0.9,0.9-1.9,0.7-3C278.4,230,278,229.4,277.4,229L277.4,229z M278.3,227.4c1.2,0.6,1.9,1.7,2.1,3
		c0.2,1.5-0.2,3-1,4.3c-0.5,0.9-1.2,1.7-2,2.3c-1.3,1.1-3.2,1.3-4.7,0.4c-1.1-0.6-1.9-1.7-2-3c-0.1-0.7-0.1-1.5,0.1-2.2
		c0.2-0.7,0.5-1.4,0.8-2.1c0.5-0.9,1.2-1.7,2-2.4C274.9,226.7,276.8,226.5,278.3,227.4L278.3,227.4z M267.8,229.7l-0.4,2.6h-0.2V232
		c-0.1-0.1-0.3-0.1-0.7,0c-0.7,0.1-1.3,0.1-2,0c-0.5-0.2-1-0.4-1.5-0.7c-1-0.6-1.6-1.7-1.8-2.8c-0.1-0.7-0.1-1.4,0.1-2.1
		c0.3-0.9,0.7-1.7,1.1-2.5c0.7-1,1.6-1.9,2.7-2.4c1.4-0.8,3.1-0.7,4.4,0.3c0.5,0.3,0.9,0.7,1.2,1.1c0.4,0.6,0.6,1.2,0.7,1.8
		c0.1,0.4,0.2,0.7,0.3,0.7h0.3l0.1,0.2l-2.2,1.3v-0.2l0.1-0.2c0.1-0.1,0.1-0.3,0.1-0.4c0-0.2-0.1-0.5-0.1-0.7
		c-0.2-0.7-0.6-1.4-1.3-1.8c-0.7-0.5-1.6-0.7-2.4-0.4c-1,0.3-1.8,1-2.4,1.8c-0.6,0.8-0.9,1.9-0.8,3c0.1,0.8,0.5,1.6,1.3,2
		c0.7,0.4,1.4,0.6,2.2,0.5c0.3,0,0.5,0,0.7-0.1c0.1-0.1,0.3-0.1,0.4-0.3C267.6,230,267.6,229.9,267.8,229.7z M250.1,221.3
		c-0.5-0.3-0.4-0.4-1-0.7c-0.4-0.3-0.6-0.2-1-0.6c-0.4-0.4-0.4-0.4-0.9-0.8c-0.5-0.3-0.7-0.3-1.1-0.6c-0.4-0.4-0.7-0.1-1.1-0.5
		c-0.4-0.4-0.4-0.4-0.8-0.2l-0.3,0.6c0,0.2-0.1,0.4-0.1,0.7l0.3,1.1c0,0.2,0,0.4,0.1,0.7c0,0,0.4,0.9,0.5,1.3c0.7,0.5,1.4,1,2.2,1.4
		c0.1,0.1,0.5,0.3,0.7,0.2l1.8-0.7c0.2-0.1,0.4-0.2,0.5-0.3l1.2-1C250.7,221.7,250.4,221.5,250.1,221.3z M257.2,216
		c-0.5,0.4-0.3,0.7-0.7,1.1c-0.4,0.4-0.6,0.3-0.9,0.7c-0.3,0.3-0.5,0.7-0.7,1.1l-0.8,0.9c-0.3,0.4-0.2,0.6-0.6,1.1l-0.8,0.9
		c-0.3,0.3-0.4,0.4-0.4,0.7c0.1,0.1,0.3,0.1,0.4,0.1l1.4,0.1h0.7l1.8-0.4h0.1c0.2-0.1,0.3-0.2,0.4-0.3l-0.1,0.1v0l0.2-0.3l0.1-0.1
		c0.1-0.1,0.2-0.4,0.4-0.4l0.7-3.4c0-0.2,0-0.4-0.1-0.6l-0.1-0.1c-0.1-0.2-0.2-0.3-0.3-0.5l-0.8-0.9
		C257.2,215.9,257.2,216,257.2,216L257.2,216z M244.9,216.3c0.2-0.6,0.4-0.4,0.7-0.9c0.3-0.3,0.5-0.7,0.7-1c0.4-0.4,0.2-0.6,0.6-1
		c0.3-0.3,0.5-0.7,0.7-1c0.3-0.3,0.6-0.6,0.9-0.9c0.3-0.3,0.6-0.6,0.8-0.9l0.2-0.3c-0.1-0.1-0.3-0.3-0.4-0.4l-1.2-0.6
		c-0.2-0.1-0.4-0.1-0.7-0.1l-1.1,0.3c-0.2,0-0.5,0.1-0.7,0.1c0,0-0.8,0.4-1.3,0.5c-0.6,0.7-1,1.5-1.5,2.3c-0.1,0.1-0.3,0.4-0.2,0.6
		l0.7,1.8l0.3,0.4l0.8,1.1C244.7,216.5,244.8,216.6,244.9,216.3L244.9,216.3z M256.6,208.9l-3.9-0.7h-0.6l-0.1,0.1
		c-0.1,0.1-0.4,0.2-0.5,0.4l-1,0.8c-0.3,0.4,0,0.8,0.4,1.1c0.4,0.3,0.7,0.1,1.1,0.5c0.5,0.3,0.4,0.4,0.9,0.7l1.1,0.7
		c0.3,0.3,0.6,0.5,0.9,0.7c0.3,0.3,0.6,0.5,0.9,0.8c0.4,0.4,0.4,0.1,0.9,0.4l0.1,0.1l0.3-0.2c0.2-0.1,0.3-0.3,0.3-0.5l0.1-1.4v-0.7
		l-0.5-2.3l-0.1-0.4L256.6,208.9L256.6,208.9z"/>
	<path id="XMLID_45_" class="st4" d="M104,287.9h0.3l-0.4-0.1L104,287.9z M178.2,184.1c-6.5,0.2-13,1.1-19.4,2.7l-10.3,2
		c-10.1,2.5-19.6,6.8-28.1,12.8L114,206c0,0,1,0.6,1.6,0.8c-0.2,0.2-0.3,0.5-0.4,0.7c-3.7,2.1-6.4,5.7-7.3,9.9l-1.5,4.7
		c0,0,0.4,0.4,0.7,0.7v0.4c-0.2,0.9-0.3,1.9-0.4,2.8c0,1.3,0.3,2.7,0.8,3.9c1.5,3.3,4.7,5.5,9.7,6.9c0.4,0.2,1,0.3,1.3,0.5l-3,3
		l8,1.2l0.7,0.5c0.7,0.1,1.4,0.4,2.1,0.7c2.3,1.1,4.8,1.8,7.3,2.1c2,0.6,4.1,1,6.2,1.2c1.7,0,3.4,0.3,5.1,0.8l0.9,0.7l1.3,0.4
		c0,0,26.5,5.7,26.7,5.7c0.4,0.1,5.4,1.7,5.4,1.7h0.3c1.9,0.4,3.8,1.1,5.8,1.7c3.2,1.2,6.5,2.1,9.9,2.4l-0.4-0.1
		c6.1,1.3,11.8,3.7,17.1,7l1.1,0.7c1.2,0.5,2,1.7,1.8,3c0,0.8-0.1,1.6-0.2,2.4c-0.1,0.9-0.2,2.1-0.2,3.2c0,4,1.3,9,8.4,12.3
		c-0.6,1.1-1,2.4-1.2,3.6c-1,0.9-1.8,2-2.1,3.3c-2.4,1.7-4.4,3.9-6.1,6.3c0,0-0.5,0.7-1,1.2c-2.1,0.9-8.6,3.4-8.6,3.4
		c-9.9,4.1-26.4,10.9-33.1,11.3c-7.5-0.2-16.5-1-22.7-1.5c-3.4-1.2-7.1-2.1-10.7-3c-5.1-1.2-10.2-2.4-13.1-4.3
		c-0.1-0.6-0.2-1.1-0.4-1.6c-2.1-5-12.6-18.1-20.1-19.1c-1.9-0.4-3.9,0.2-5.3,1.6c-1.3,1.3-1.9,3.1-1.8,4.9c0.2,3.1,0.8,6.2,1.8,9.2
		c0.8,2.5,1.3,5,1.6,7.6v2.4c0,0,6.1,4.7,6.5,5.1c7.8,8.9,43.3,14.6,50.5,14.9c6.3,2.4,13.9,1.8,19.6,1.3l1.8-0.1l12.4-1.8
		c9.3-1.3,18.8-2.5,26.6-5.5c10.5-0.9,14.4-5.8,17.6-9.6c1-1.5,2.3-2.9,3.8-4l2.2-1.4V309c1.2-1.3,2.2-2.9,3-4.5
		c0.3-0.9,0.8-1.6,1.6-2.1l0.9-0.5l0.6-0.8c3.8-5.3,5.2-10,5.2-14.1c0-9.7-7.8-16.5-13-21.2c-1.6-1.3-3.2-2.8-4.6-4.4
		c-4.1-8.4-15.7-11.8-26.9-15.1c-3.5-1-6.9-1.9-10.1-3.1c0-0.7-0.1-1.4-0.2-2.1c-6-0.3-11.9-1.5-17.6-3.4l-7.1-2l0.3,0.1
		c-4.1-1.3-8.9-2.4-13.6-3.5c-7.7-1.8-15.7-3.5-20.6-6.3l-0.5-0.3l-0.7-0.1c-0.7-0.1-1.4-0.3-2.1-0.7c0-0.3,0.2-3.7,0.2-3.7
		l-0.1-0.4c0-0.4,0.4-1.5,2.4-3.4l1.5-1.5V214c0-0.7,0.1-3.5,2.7-3.8l1.5-0.2l1.1-1c5.1-4.4,17.9-7.5,34.5-8.4l0.5,0.1
		c8.3,2.1,19.3,4.9,25,8.3c-0.1,0.3-0.2,0.6-0.2,1c0,0.7,0.1,1.4,0.4,2.1c0.9,2.1,2.8,3.5,5.1,3.8l-0.2-0.1l0.6,0.1
		c4.4,1.1,10.3,2.7,15.1-0.3l5.9-3.6c0,0-1.9-1.5-3.5-2.7c1.3-1.5,2-3.5,2.1-5.5c0-1.2-0.3-2.3-0.9-3.4l-0.8-1.6l-8.8-4.1
		c-7.7-4-15.9-7-24.4-8.9c-0.2-0.1-10.5-1.6-10.5-1.6l-5.9-0.7h-0.2v0.5H178.2z"/>
	<path id="XMLID_46_" class="st6" d="M180.3,185.6c-6.3,0.3-12.7,1.2-18.8,2.7l-10.1,1.9c-9.7,2.3-18.8,6.5-26.9,12.3l-1.8,1.3
		c0,0,0.7,0.4,1.3,0.8c-0.2,0.1-0.5,0.2-0.7,0.4c-1.6,0.7-3.1,1.3-3.2,2.8v0.2l0.1,0.2c-3.6,1.5-6.2,4.6-6.9,8.4l-0.8,2.7v1
		c0.2,0.3,0.4,0.5,0.7,0.7c-0.5,1-0.8,2.2-0.8,3.3c0,0.8,0.2,1.7,0.5,2.4c1.1,2.4,3.8,4.1,8.2,5.2c0.9,0.7,1.8,1.2,2.8,1.6
		c0.7,0.3,1.4,0.6,2.1,1.1c-0.4,0.5-1.5,1.6-1.5,1.6l2.7,0.5c1,0.2,2,0.5,3,1c2,1.1,4.2,1.7,6.5,1.9c1.9,0.6,3.8,1,5.8,1.1
		c2.7,0.2,5.7,0.4,7.1,1.6l0.3,0.3l27.3,5.8l5.3,1.6c2.2,0.5,4.3,1.2,6.4,1.9c2.9,1.2,5.9,1.9,9,2.3c6.4,1.4,12.5,3.9,18,7.4
		l1.1,0.7c2.3,1.1,3.7,3.5,3.5,6c0,0.9-0.1,1.9-0.2,2.8c-0.1,0.9-0.2,1.9-0.2,3c0,3.6,1.2,7.4,8.2,9.8c0.5,0.3,0.8,0.7,0.8,1.3
		c-0.1,0.8-0.4,1.6-0.8,2.3c-0.7,1.1-1.2,2.5-1.3,3.8c0,0.1,0,0.1,0.1,0.3l-0.4,0.4c-1,0.6-1.6,1.7-1.7,2.9c0,0.1,0.1,0.3,0.1,0.4
		c-2.6,1.6-4.9,3.7-6.6,6.3c0,0-1.3,1.6-1.6,2.1c-0.7,0.3-9.3,3.7-9.3,3.7c-10.8,4.4-27.1,11.1-34.3,11.6c-7.7-0.3-17-1-23.4-1.6
		c-3.4-1.3-7.2-2.1-10.9-3c-5.8-1.4-11.9-2.8-15.2-5.5c0-0.8-0.3-1.6-0.7-2.4c-2.1-5-12-16.5-17.4-17.1c-0.8-0.2-1.8,0-2.4,0.7
		c-0.6,0.7-0.8,1.7-0.7,2.6c0.2,2.8,0.8,5.5,1.6,8.2c0.8,2.8,1.4,5.6,1.7,8.5v0.7c0,0,5.1,4.1,5.3,4.3c4.2,6.6,40.5,14.3,48.7,14
		c5.7,2.4,13.2,1.8,18.7,1.3l1.7-0.1l12.4-1.9c9.2-1.2,18.8-2.5,26.2-5.5c9.4-0.7,12.7-4.8,15.7-8.5c1.3-1.8,2.8-3.3,4.6-4.6
		l0.7-0.4v-2.9c1.4-1.1,2.6-2.6,3.3-4.3c0.5-1.5,1.6-2.8,3-3.5l0.3-0.1l0.2-0.3c3.2-4.6,4.5-8.6,4.5-12.2c0-8.1-6.6-14-11.7-18.5
		c-1.8-1.5-3.5-3.2-5.1-4.9c-3.1-7.5-14.2-10.7-25.1-13.8c-3.2-0.9-8.9-2.7-12-3.8c-0.1-0.7-0.3-1.8-0.3-1.8
		c-5.4-0.3-10.7-1.4-15.8-3.2l-6.9-1.9c-3.8-1.3-8.3-2.3-13.1-3.4c-8-1.8-16.2-3.8-21.6-6.6l-0.2-0.1l-0.2-0.1c-4-1-4.7-1.9-4.7-3.6
		c0-0.4,0.1-0.8,0.1-1.3l0.1-2.3V220c-0.1-0.2-0.1-0.3-0.1-0.5c0-0.8,0.4-3,3.5-6l0.4-0.4v-0.7c0-2.4,1.2-6.6,5.5-7.2l0.4-0.1
		l0.4-0.3c5.7-5,19.3-8.4,37.1-9.3c0.3,0.1,1.1,0.3,1.1,0.3c10.3,2.7,22.7,5.9,28.1,10.5c-0.5,0.6-0.8,1.3-0.8,2.1
		c0,0.3,0.1,0.5,0.1,0.8c0.5,1,1.5,1.6,2.7,1.7c0.2,0.1,0.3,0.1,0.5,0.1c3.9,1,8.9,2.3,12.5,0.1l1.8-1.1l-1.7-1.3
		c-0.4-0.3-0.4-0.4-0.4-0.5c0.3-0.6,0.7-1.1,1.1-1.6c1.2-1.4,3-3.5,1.7-6.3l-0.3-0.4l-7.8-3.6c-7.5-3.9-15.5-6.7-23.7-8.6l-10-1.4
		l-5.8-0.8h-0.3L180.3,185.6L180.3,185.6z"/>
	<path id="XMLID_51_" class="st4" d="M356.4,269.6c0.1,0.2,0.2,0.4,0.2,0.7c0,0.3-0.1,0.6-0.2,0.8V269.6z M338.2,260.4h-0.3
		l-0.3,0.1c-10.4,2.2-15.4,5-17.3,9.2l-1.3,3.5l5.5,3.5c0.8,0.5,1.6,0.9,2.5,1.3c1.6,1.8,1.8,4.1,1.8,6.9c0,1.2,0,2.5-0.1,3.9
		c-0.1,1.5-0.2,2.8-0.2,4.2c0,1.1,0.1,2.2,0.2,3.3l0.2,1.6l1.2,1.2c2,2.2,4.6,3.7,7.5,4.4l0.7,0.1h0.6c12.9-0.5,15.5-7.4,17.3-11.9
		c1.2-3.1,1.8-4.5,4.5-5.7l0.4-0.2c5.5-2.1,11.6-4.4,18.6-3.6c11,3.5,14.5,7.8,19,13.2c2.5,3.2,5.4,6.3,8.4,9l0.7,0.5
		c0,0,13.7,5.6,15.9,6.6c1.1,1.4,2.9,2.2,4.7,1.8l3.6-0.7l0.4-3.7c0.4-4.6-16.5-36.1-33.8-43.3c-10.7-4.4-20.9-2.1-30.9,0.1
		c-4,0.8-7.8,1.6-11.5,2v-0.4C353.8,262.7,346,259.6,338.2,260.4z M276.8,279.3l-0.3,1.6l-0.1,0.1h0
		C276.6,280.1,276.8,279.3,276.8,279.3L276.8,279.3z M299.4,264.8l-0.4,0.3l-0.5,0.4c-2.6,2.1-4.1,5.2-4.3,8.5l0.1,0.1
		c-0.7,1.3-1.2,2.8-1.2,4.3c0,1.5,0.3,2.9,0.7,4.3c0.1,0.3,0.2,0.5,0.2,0.8c-1.8,1.2-5.8,1.8-9,2.2c0,0-2.5,0.4-4,0.7l-1.8-0.5
		c-0.4-0.1-1-0.3-1.6-0.4l0.1-0.1c-0.5-0.5-1.1-1-1.6-1.5l0.1-0.4c0,0,0.3-1.3,0.4-2.5l0.7-1.1c1.4-1.7,2.2-3.7,2.4-5.8
		c0-0.7-0.1-1.5-0.3-2.2c-1.3-3.5-5-4.9-6.3-5.2l-0.7-0.2h-1.3c-1.4-2.2-3.8-3.5-6.4-3.5l-1-0.1l-1,0.3c-3.8,1.2-6,3.8-6,7.1
		c0,0.4,0,0.7,0.1,1.1c-0.3,0.9-0.7,2.1-0.7,2.1c-1.5,3.3-2.4,6.8-2.7,10.4c0,2.9,1,5.8,3,8c1,3.2,4.3,5.4,6.7,6.9l2.6,1.6l0.7,0.4
		c6.1,2.2,12.7,3,19.2,2.1c3.1,0.2,6.3-0.1,9.3-1.1c1.3-0.4,2.6-0.6,4-0.8c0.8,0.5,3.6,2.3,3.6,2.3c3.5,2.3,8.2,5.3,15.5,4.9
		c3.7,0.5,7.1-1.9,8-5.5c0.1-0.2-0.4,0.7-0.4,0.7l1.7-3.1l-1.8-3.2l-1.5-1.7c-2.2-2.3-4.1-5-5.6-7.8c0.7-1.4,1.1-3,1.1-4.6
		c-0.1-1.9-0.4-3.8-1-5.6c-0.3-1-0.5-2-0.6-3.1v-1.8c0.3-4.5-2.6-8.6-7-9.7C306.3,261.3,302.1,263.4,299.4,264.8L299.4,264.8z"/>
	<path id="XMLID_54_" class="st6" d="M340.7,261.9c-9.2,1.9-14.2,4.3-15.4,7.3l-0.7,1.3l3.5,1.6c0.8,0.4,1.7,0.8,2.7,1
		c3,2.8,3.5,6.3,3.5,10c0,1.4,0,2.8-0.2,4.1c0,1.4-0.1,2.7-0.1,4c0,0.9,0.1,1.9,0.2,2.8l0.1,0.5l0.3,0.3c1.6,1.7,3.6,2.9,5.8,3.5
		h0.4c10.7-0.4,12.6-5.4,14.3-9.7c1.2-3.1,2.2-5.8,6.4-7.6l0.5-0.2c5.6-2.1,12.6-4.7,20.5-3.8c12.3,3.8,16.3,8.7,21,14.3
		c2.4,3.1,5.1,6,8,8.6l0.2,0.1c0,0,15.5,6.4,16.3,6.7c0.4,0.8,0.9,1.4,1.8,1.2l1.2-0.2l0.1-1.1c0.2-2-15.3-32.9-31.7-39.7
		c-9.7-3.9-19.4-1.8-28.9,0.3c-4.6,1.1-9.3,1.9-14,2.3c-0.5-0.2-1-0.5-1.5-0.9l0.5-0.7l-0.3-0.7C353.6,264,347.4,261.1,340.7,261.9z
		 M302.9,265.8l-0.2,0.1l-0.1,0.1c-1.8,1.4-2.9,3.5-3.1,5.8c0,0.4,0.1,0.7,0.2,1.1c-0.8,1-1.3,2.2-1.4,3.5c0,1.1,0.3,2.2,0.7,3.2
		c0.2,0.7,0.4,1.5,0.4,2.3c0,0.8-0.4,1.5-1,1.9c-2.3,2-6.8,2.7-11.1,3.2c0,0-4,0.7-4.7,0.7c-0.8-0.3-1.7-0.6-2.5-0.7
		c-1.6-0.4-4.6-1.2-4.9-1.9l0.2-0.8l-0.7-0.7c-0.3-0.3-0.5-0.7-0.5-1.1c0.1-0.7,0.2-1.4,0.5-2.1l0.6-3.2l-0.1,0.4l1.1-1.8
		c1-1.5,2.2-3.1,1.6-4.9c-0.6-1.8-2.7-2.7-4.1-3.1l-0.2-0.1h-0.3c-2.4,0.1-2.7-0.3-2.8-0.7c-0.5-1.3-1.3-2.4-4.3-2.7h-0.7
		c-3,1-3.5,2.7-3.5,3.8c-0.1,0.5,0,0.9,0.2,1.3v0.3c-0.1,0.4-1,3-1,3c-1.3,2.8-2.1,5.9-2.3,9c0,2.4,0.9,4.7,2.6,6.4
		c0.2,2.4,3,4.1,5.5,5.7l2.6,1.6l0.2,0.1c5.8,2,11.9,2.7,17.9,1.9c2.8,0.2,5.7-0.2,8.4-1c2-0.6,4-1,6.1-1c0.4,0.2,0.7,0.3,0.9,0.4
		l-0.3,0.3l3.6,2.3c3.3,2.1,7.4,4.7,13.7,4.4c3.3,0.2,4.2-1.3,4.7-3l0.5-1.4l-0.4-1.1l-1.4-1.6c-3-3.4-5.9-6.9-6.8-10.3
		c0.9-1.3,1.3-2.8,1.4-4.3c-0.1-1.6-0.4-3.2-0.9-4.7c-0.4-1.3-0.6-2.6-0.7-3.9v-1.9c0-2.1-0.4-4.9-4.7-6.4
		C308.5,263.1,305.3,264.7,302.9,265.8L302.9,265.8z"/>
	<path id="XMLID_57_" class="st5" d="M133.4,186.6c2.6-0.2,6.1-0.7,4.9,0.3c0,0-30.7,4.4-34.9,30.8
		C96.1,208.1,108.1,188.3,133.4,186.6z M431.1,292.6c0,0,0.8,3.8-1.6-1c-2.4-5.5-11.1-24.8-30.2-29.7c0,0-5.4-1.1-0.5-1
		c4.6,0.3,9.2,1.3,13.5,2.9C421.2,267.5,428.5,274.3,431.1,292.6z"/>
</g>
</svg>
