<?xml version="1.0" encoding="utf-8"?>
<!-- Generator: Adobe Illustrator 19.0.0, SVG Export Plug-In . SVG Version: 6.00 Build 0)  -->
<svg version="1.1" id="Layer_1" xmlns="http://www.w3.org/2000/svg" xmlns:xlink="http://www.w3.org/1999/xlink" x="0px" y="0px"
	 viewBox="0 0 500 500" style="enable-background:new 0 0 500 500;" xml:space="preserve">
<style type="text/css">
	.st0{fill:#00A8E1;}
	.st1{fill:#0D2240;}
	.st2{fill:#C4D600;}
	.st3{fill:#FFFFFF;}
</style>
<g id="XMLID_1_">
	<path id="XMLID_3_" class="st0" d="M418.1,176.1l4.6-8l-8.4,3.8c-3.1,1.3-6.2,2.3-9.5,3.2c17-12.4,27.7-41,27.7-41l-6.7,4.1
		l-2.1,1.3c-24,13.9-49.3,25.7-75.5,35c-10.6,3.8-20.1,6.5-28.4,8.9c-26.1,7.5-41.9,12-40.8,36.3c0.4,9.1-1.2,15.8-4.8,19.6
		c-1,1-2.2,1.9-3.5,2.4c-0.4-0.7-0.7-1.6-0.7-2.4l-0.1-0.6v-1.1c0.1-3,2.7-9.5,3.5-11.8c0.1-0.4,0.4-1,0.7-1.7
		c4.5-11.5,2.7-19.1,2.6-19.5l-0.1-0.3l-0.2-0.3c-0.2-0.6-0.6-1.1-1-1.6c-0.9-1.3-2-2.4-3.1-3.5c1.1-1.6,2.1-3.4,2.8-5.2
		c1.9-5.3,2-11.1,0.4-16.5l-0.8-2.4l-2.4,0.3c-6.3,0.6-12.3,2.8-17.4,6.4c-0.6-0.7-1.3-1.4-2.1-1.9l-4.1-3l-0.7,4.9
		c-1.5-0.5-3.1-0.8-4.7-0.9c-4.9-3.1-10.4-5.1-16.2-5.6l-2.4-0.3l-0.7,2.4c-0.2,0.5-3.9,11.9,3.2,21.7c-1.2,1-2.2,2.2-3.1,3.5
		c-0.4,0.5-0.8,1-1,1.6l-0.1,0.3l-0.1,0.3c-0.1,0.4-2,8,2.5,19.5l0.2,0.5c1,2.7,3.8,9.8,4,13v1.8c0,0.9-0.2,1.7-0.7,2.4
		c-1.3-0.6-2.5-1.5-3.5-2.5c-3.5-3.8-5.2-10.5-4.8-19.6c1.2-24.3-14.6-28.8-40.7-36.3c-8.3-2.4-17.7-5.1-28.4-8.9
		c-26.2-9.3-51.4-21-75.5-35l-2.1-1.3l-6.7-4.1c0,0,10.7,28.6,27.7,41c-3.2-0.8-6.3-1.9-9.4-3.2l-8.5-3.8l4.7,8
		c5.1,8.4,11.7,15.6,19.6,21.4c-1.1,0-2.3,0.1-3.4,0.1c-3.3,0.1-6.7-0.1-10-0.6l-8.7-1.3l6.1,6.4c0.6,0.6,11.4,11.8,23,17.5
		c-3.5,1.1-7.2,1.9-10.9,2.4l-6.3,0.7l4.6,4.4c0.4,0.4,9.7,9.5,26.1,16.5c-7.8,2.1-12.7,3.1-12.7,3.1c3.6,4.4,8.4,10.6,14.9,18h-0.1
		l1.8,2c2,2.3,4.2,4.7,6.6,7.3v16.1c0,5.9,3,11.5,7.8,14.8c4.1,2.9,9,4.4,14,4.4h9.7v17.9h27.7c9,6.8,18.8,13.7,29.7,21
		c8.4,5.6,28.4,17.7,28.4,17.7s21.6-13.1,30.6-19.3c9.9-6.6,19-13.1,27.2-19.4h28.1v-17.9h9.5c4.8-0.1,9.5-1.6,13.4-4.4
		c4.9-3.4,7.8-8.9,7.9-14.8V275c8.4-9,16.3-18.5,23.8-28.3c0,0-1.6-0.4-4.4-1c-0.1,0-3.4-0.8-7.9-2c9.6-4,18.4-9.6,26.1-16.5
		l4.5-4.4l-6.3-0.7c-3.7-0.5-7.3-1.2-10.9-2.4c11.6-5.7,22.3-16.9,22.9-17.5l6.1-6.4l-8.7,1.3c-3.3,0.4-6.6,0.6-10,0.6
		c-1.1,0-2.3,0-3.4-0.1C406.4,191.8,413,184.5,418.1,176.1z"/>
	<path id="XMLID_4_" class="st1" d="M415.4,174.6c-9.2,4.1-24.1,6.3-24.1,6.3c20.4-11.3,31.2-32.3,34-38.7l-0.1-0.1
		c-24.2,14.1-49.6,25.9-76,35.2c-43.9,15.7-68.5,13.2-67.1,42.2c0.9,18.5-6.4,24-11.8,25.6c-3-1.6-3-4-3.2-6.2v-1.5
		c0.1-3,1.9-8.2,3.8-12.8c0.3-0.6,0.5-1.1,0.7-1.7c4.2-10.7,2.4-17.6,2.4-17.6h-0.1c-0.2-0.4-0.5-0.8-0.7-1.1
		c-1.4-1.9-3.1-3.5-5-4.7c8.9-9.1,4.7-21.3,4.7-21.3c-8.9,1-14.8,4.5-18.3,7.8c-0.8-1.5-1.9-2.7-3.2-3.8c-0.2,1.4-0.8,2.8-1.7,3.9
		c-0.8-0.9-1.8-1.5-3-1.7c0,0.8-0.1,1.7-0.2,2.5c-3.4-3.4-9.5-7.5-19.3-8.6c0,0-4.1,12.1,4.8,21.2c-2,1.3-3.7,2.9-5.1,4.8
		c-0.3,0.3-0.5,0.7-0.7,1.1c0,0-1.8,6.9,2.4,17.6l0.1,0.1l0.1,0.4c2,4.9,4.1,10.8,4.2,14c0.1,0.7,0.1,1.5,0,2.2
		c-0.2,2-0.5,4-3.2,5.5c-5.4-1.6-12.7-7.2-11.8-25.5c1.3-29-23.3-26.6-67-42.2c-26.4-9.4-51.8-21.2-76.1-35.2l-0.1,0.1
		c2.9,6.4,13.7,27.5,34,38.7c0,0-15-2.1-24.1-6.2c0,0,10.7,18.8,27.7,25.4c0,0-15.4,1.4-24.6,0c0,0,16.5,17.4,30,19.6
		c-6.3,2.5-12.9,4.3-19.6,5.3c0,0,12.3,12,33.5,19.1c-8.3,2.7-16.7,4.6-16.7,4.6c6.5,8.3,13.4,16.2,20.7,23.8v17.8
		c0.1,5,2.5,9.6,6.6,12.4c3.6,2.5,7.9,3.8,12.3,3.8h12.8v17.9h26.5c18,13.9,36.8,26.7,56.3,38.3c19.5-11.7,38.3-24.5,56.3-38.3h26.5
		v-18h12.4c4.2,0,8.3-1.3,11.7-3.8c4.1-2.8,6.5-7.4,6.6-12.3v-16.8c7.7-7.9,15-16.1,21.8-24.8c0,0-8.4-1.9-16.8-4.6
		c21.2-7,33.5-19.1,33.5-19.1c-6.8-1-13.4-2.8-19.7-5.3c13.4-2.3,30-19.6,30-19.6c-9.2,1.4-24.6,0-24.6,0
		C404.7,193.3,415.4,174.6,415.4,174.6z"/>
	<path id="XMLID_5_" class="st0" d="M398.6,163.9c-12.4,10-26.4,17.7-41.5,22.7c-24.1,7.9-27.8,9.3-43,13.4
		c-15.1,4.1-20.7,9.3-20.6,16.3c0.1,7.1,3,36-25.7,38.6c6.6-1.7,12.1-6.1,15.4-12c9.4-16.2,2.7-27,6.6-34c4.7-8.3,11-10.2,30.4-15.9
		C339.7,187.3,362.6,181.5,398.6,163.9z"/>
	<path id="XMLID_6_" class="st2" d="M383.2,185.8c0,0-9.5,8.3-30.1,14.1c-20.7,5.9-40.8,12.8-40.8,12.8s54.4-4.1,70.3-6.9
		c0,0-8,6.1-34,9.6c-26.1,3.4-41.5,4.1-41.5,4.1s50.9,6.9,70,6.6c0,0-8.8,4.3-34.1,3c-25.3-1.3-36.6-3.5-36.6-3.5
		s10.9,9.7,53.2,19.8c0,0-14.8,1.3-27.8-2.7c-9.2-2.8-18.3-6.3-27.1-10.3c5.1,7.1,10.6,13.8,16.5,20.2c0,0-8.1-1.8-18.3-12.9
		c0,0-6.4,14.4-15.5,15.2c0,0,11.2-11.5,11.2-25.8c0.1-14.3-2-18.5,17.1-24.1C334.7,199.5,365.1,190.8,383.2,185.8z"/>
	<path id="XMLID_7_" class="st0" d="M101.4,163.9c12.4,10,26.4,17.7,41.5,22.7c24.1,7.9,27.9,9.3,43,13.4
		c15.1,4.1,20.7,9.3,20.7,16.3c-0.1,7.1-3,36,25.7,38.6c-6.6-1.7-12.2-6.1-15.5-12c-9.3-16.2-2.7-27-6.6-34
		c-4.7-8.3-11-10.2-30.3-15.9C160.4,187.3,137.4,181.5,101.4,163.9L101.4,163.9z"/>
	<path id="XMLID_8_" class="st2" d="M116.8,185.8c0,0,9.5,8.3,30.1,14.1c20.7,5.9,40.8,12.8,40.8,12.8s-54.5-4.1-70.4-6.9
		c0,0,8,6.1,34.1,9.6c26.1,3.4,41.5,4.1,41.5,4.1s-51,6.9-70,6.6c0,0,8.7,4.3,34,3c25.4-1.3,36.6-3.6,36.6-3.6s-10.9,9.8-53.2,19.9
		c0,0,14.8,1.3,27.9-2.7c9.2-2.8,18.3-6.3,27.1-10.3c-5.1,7-10.7,13.8-16.5,20.2c0,0,8.1-1.8,18.4-12.9c0,0,6.4,14.4,15.4,15.2
		c0,0-11.2-11.5-11.2-25.8c-0.1-14.3,2-18.5-17.1-24.1C165.4,199.5,135,190.8,116.8,185.8z"/>
	<path id="XMLID_9_" class="st3" d="M268.9,207.1c-1.2-1.3-2.6-2.4-4.1-3.3c-1.1-1.9-2.4-3.6-4.1-5.1c5.2-2.9,8.3-8.6,7.8-14.6
		c0,0-7.5,1.9-10.9,6.1c-0.4,0.4-0.7,0.9-1,1.3c0.5,3.6-0.2,8.3-3.9,13.9c-1.7,2.2-2,5.1-0.7,7.6c0,0-3.2-0.2-5.3-4.5
		c-2.7-5.5,1.8-10-2-15.4c-0.4-0.5-0.8-1.1-1.3-1.7c-1.8-2.1-3.9-3.8-6.4-5.1c-1.8-0.9-3.7-1.6-5.6-2.1c-0.5,6,2.6,11.7,7.8,14.6
		c-1.6,1.5-3,3.2-4.1,5.1c-1.5,0.9-2.9,2-4.1,3.3c-0.1,2.2,0.3,4.3,1.2,6.4c-0.5,3.4,1,6.7,3.9,8.5c0.1,3.8,0.8,7.6,2.1,11.2
		c0.8-2.3,1.2-4.6,1.2-7c0,0,4.4,5.5,1.8,17.3c0,0-0.2,0.4-0.6,1c-0.7,1.2-1.6,2.7-2.1,3.4c-0.6,1.1,3.8,9.1,3.8,9.1
		c2.1,1.3,4.5,2,7,1.9h1c4.9-0.2,7.1-1.9,7.1-1.9s4.4-8,3.7-9.1c-0.4-0.7-1.4-2.3-2.1-3.4c-0.4-0.6-0.6-1-0.6-1
		c-2.6-11.8,1.8-17.3,1.8-17.3c0,2.4,0.4,4.7,1.1,7c1.4-3.6,2.1-7.4,2.2-11.2c2.9-1.8,4.4-5.1,3.9-8.4c0.8-2,1.2-4.2,1.1-6.4
		L268.9,207.1z"/>
	<path id="XMLID_10_" class="st2" d="M268.9,207.1c-1.2,1.2-2.5,2.3-3.9,3.4c-1.3,0.9-5,7.2-5,7.2s-2.9,0.7-2.8,2.8
		c0,2,0.6,1-0.2,4.8c-0.7,3.2-2.7,10.7,1,17.1c0.6,1.3,1.3,2.5,2.2,3.6c-2.1-9.5-0.5-15.3,0.4-17.7c0.2,1.7,0.5,3.3,1,4.9
		c3-7.3,2.1-11.1,2.1-11.2C270.1,218.1,268.9,207.1,268.9,207.1z"/>
	<path id="XMLID_11_" class="st2" d="M242,242.5c3.9-6.4,1.8-14,1.2-17.3c-0.9-3.8-0.3-2.8-0.2-4.8c0-2.1-2.9-2.8-2.9-2.8
		s-3.8-6.3-5-7.2c-1.3-1-2.6-2.1-3.8-3.3c0,0-1.3,10.9,5,14.8c0.1,0.1-0.7,3.8,2.2,11.2c0.5-1.5,0.8-3.1,1-4.7
		c1,2.4,2.5,8.2,0.4,17.6C240.7,244.9,241.4,243.7,242,242.5z"/>
	<path id="XMLID_12_" class="st2" d="M257.6,252l-2.1-2.1c-1.5,3-5.2,4.2-8.2,2.7c-1.1-0.6-2.1-1.5-2.7-2.7l-2.1,2.1
		c-1.6-0.6-3-2.9-3.7-4.1c-0.7,1.1,3.7,9.1,3.7,9.1c2.2,1.3,4.6,1.9,7.1,1.9h1c2.5,0,4.9-0.6,7-1.9c0,0,4.4-8,3.8-9.1
		C260.6,249.2,259.1,251.4,257.6,252z"/>
	<path id="XMLID_13_" class="st1" d="M247.8,252.9c0,0-1.5-4.4-3.5-5.8c0,0-4.1,2.4-2.7,4.4c0.5,0.8,1.3,1.4,2.3,1.5
		c0,0-1-1.2,0.6-2.3C245.5,251.6,246.6,252.4,247.8,252.9z"/>
	<path id="XMLID_14_" class="st1" d="M252.1,252.9c0,0,1.5-4.4,3.6-5.8c0,0,4.1,2.4,2.7,4.4c-0.5,0.8-1.3,1.4-2.3,1.5
		c0,0,1-1.2-0.7-2.3C254.5,251.7,253.3,252.4,252.1,252.9z"/>
	<path id="XMLID_15_" class="st2" d="M242.1,198.1c-0.8-6.1-7.2-11.5-10.6-14c-0.4,6,2.7,11.7,7.9,14.6c-1.7,1.4-3,3.2-4.1,5.1
		C237,201.3,239.4,199.4,242.1,198.1z"/>
	<path id="XMLID_16_" class="st2" d="M257.9,198.1c0.9-6.1,7.2-11.5,10.6-14c0.5,6-2.6,11.7-7.8,14.6c1.6,1.5,3,3.2,4.1,5.1
		C263,201.3,260.6,199.3,257.9,198.1z"/>
	<path id="XMLID_17_" class="st2" d="M255.3,260.6c-1.6,0.5-3.2,0.8-4.8,0.9h-1c-1.6-0.1-3.2-0.4-4.8-0.9l-0.7-0.3l0.5,2.1l0.1,0.1
		c1.3,0.9,2.7,1.4,4.3,1.4c0.3,0.1,0.7,0.1,1,0.1c0.3,0,0.7,0,1-0.1c1.6-0.1,3.1-0.5,4.4-1.4l0.1-0.1l0.6-2.1L255.3,260.6z"/>
	<path id="XMLID_18_" class="st1" d="M233.7,209.4c0.2,1.3,0.6,2.6,1.3,3.7c-0.7,1-0.7,2.3,0.1,3.2c0.5-0.7,1-1.3,1.6-1.9
		c-0.2,1-0.1,2.1,0.3,3c0.7,1.4,1.3,1.8,3,2.7c1,0.5,1.9,1.3,2.6,2.2c0,0,1.8-3-1.3-6.7C239.2,213.1,237.3,212.6,233.7,209.4z"/>
	<path id="XMLID_19_" class="st1" d="M266.3,209.4c-0.1,1.3-0.5,2.6-1.2,3.7c0.7,1,0.6,2.3-0.2,3.2c-0.5-0.7-1-1.3-1.6-1.9
		c0.2,1,0.1,2.1-0.2,3c-0.7,1.4-1.3,1.8-3,2.7c-1,0.5-1.9,1.3-2.6,2.2c0,0-1.8-3,1.3-6.7C260.8,213.1,262.7,212.6,266.3,209.4z"/>
	<path id="XMLID_22_" class="st2" d="M184.5,314.7h-5.2v-5.8h5.2L184.5,314.7z M185.1,306.3h-8.9v10.9h8.9c0.6,0,1.2-0.2,1.6-0.6
		c0.5-0.3,0.7-0.8,0.7-1.4v-6.9c0-0.6-0.3-1.1-0.7-1.5C186.3,306.5,185.7,306.3,185.1,306.3L185.1,306.3z"/>
	<path id="XMLID_25_" class="st2" d="M212.7,308.9v2.4h-5.2v-2.4H212.7z M215,306.9c-0.5-0.4-1.1-0.6-1.7-0.6h-6.5
		c-0.6,0-1.2,0.2-1.7,0.6c-0.4,0.4-0.7,0.9-0.7,1.5v8.9h3v-3.4h5.2v3.4h3v-8.9C215.7,307.8,215.4,307.3,215,306.9L215,306.9z"/>
	<polygon id="XMLID_26_" class="st2" points="235.7,306.3 232.8,306.3 232.8,317.2 241.5,317.2 241.5,314.6 235.7,314.6 	"/>
	<polygon id="XMLID_27_" class="st2" points="261.5,306.3 258.5,306.3 258.5,317.2 267.3,317.2 267.3,314.6 261.5,314.6 	"/>
	<path id="XMLID_30_" class="st2" d="M292.6,311.3h-5.2V309h5.2V311.3z M293.2,306.3h-6.5c-0.6,0-1.2,0.2-1.7,0.6
		c-0.4,0.3-0.7,0.9-0.7,1.4v8.9h3v-3.5h5.3v3.5h3v-8.9c0-0.6-0.3-1.1-0.7-1.5C294.4,306.5,293.8,306.3,293.2,306.3L293.2,306.3z"/>
	<path id="XMLID_31_" class="st2" d="M323.8,311l-8.3-0.8v-1.3h8.3v-2.6h-8.9c-0.6,0-1.2,0.2-1.6,0.6c-0.4,0.4-0.7,0.9-0.7,1.5v4.1
		l8.3,0.9v1.3h-8.3v2.6h8.9c0.6,0,1.2-0.2,1.7-0.6c0.4-0.3,0.7-0.9,0.7-1.4L323.8,311L323.8,311z"/>
	<path id="XMLID_32_" class="st2" d="M223.1,298.3h-13v-31.1l1,0.1c3.5,0.3,7.5,0.5,11.2,0.7l0.8,0.1V298.3z"/>
	<path id="XMLID_33_" class="st3" d="M211.8,296.6h9.6v-26.9c-3.2-0.2-6.6-0.4-9.6-0.7V296.6z"/>
	<path id="XMLID_34_" class="st2" d="M284.4,298.3c-2.5,0-5-0.6-7.2-1.8l-0.1-0.1c-2.6-1.6-3.1-3.5-3.1-4.8l0.1-16.8
		c0.1-2.1,1.3-3.9,3.2-4.9c2.2-1.3,4.7-2.1,7.2-2.2c9.1-0.7,18.1-1.6,26.8-2.7l1-0.1v8.8l-0.7,0.1c-7,0.7-20.2,1.7-23.6,2v14.4
		l10.3-0.2v-10l13.8-0.9v19.3L284.4,298.3z"/>
	<path id="XMLID_35_" class="st3" d="M310.6,266.7c-8.5,1.1-17.2,2-26,2.6c-2.3,0.1-4.5,0.8-6.5,2.1c-1.3,0.7-2.3,2-2.4,3.5v16.9
		c0.2,1.4,1,2.7,2.3,3.3c2,1.1,4.2,1.6,6.4,1.6l26-0.1v-15.8l-10.5,0.7v10l-13.7,0.3V274h0.7c0.2,0,15.4-1.1,23.6-1.9L310.6,266.7z"
		/>
	<path id="XMLID_36_" class="st2" d="M317.7,298.3v-9h0.8c8-0.3,15.8-0.7,23.4-1.1v-2.8l-24.2-2.8l0.1-11.2c0.1-2.3,1.3-4.4,3.1-5.8
		c2.1-1.7,4.6-2.9,7.3-3.3c9.1-1.6,18-3.5,26.6-5.7l1-0.3v10.7l-0.7,0.1c-7.5,1.6-15.4,2.9-23.4,4.1v2.1l24.1,2.3v13.5
		c0,2.5-1.2,4.8-3.1,6.4c-2.1,1.7-4.7,2.6-7.4,2.6c-9,0-17.9,0.1-26.9,0.1H317.7z"/>
	<path id="XMLID_37_" class="st3" d="M319.4,290.9v5.7c8.6-0.1,17.3-0.1,26-0.1c2.3,0.1,4.5-0.7,6.3-2.2c1.6-1.2,2.5-3.1,2.5-5.1
		v-12l-24.1-2.3v-5.1l0.7-0.1c8-1.2,15.8-2.5,23.4-4v-7.2c-8.3,2.1-17,3.9-25.7,5.5c-2.4,0.4-4.6,1.4-6.5,3c-1.5,1-2.4,2.6-2.5,4.4
		l-0.1,9.7l24.2,2.8v5.9l-0.8,0.1C335.3,290.3,327.4,290.6,319.4,290.9z"/>
	<path id="XMLID_38_" class="st2" d="M268,298.3h-14v-21.6h-10.3v21.6h-13.9v-29.8h0.8c0.1,0,8.9,0.2,13.3,0.3c4.5,0.1,9,0.1,13.6,0
		h0.3c2.4-0.1,4.8,0.5,7,1.6c1.9,0.8,3.1,2.6,3.2,4.7V298.3L268,298.3z"/>
	<path id="XMLID_39_" class="st3" d="M255.6,296.6h10.6v-21.6c-0.1-1.4-1-2.6-2.4-3.2c-1.9-1-4-1.5-6.2-1.4h-0.2
		c-4.6,0.1-9.1,0.1-13.7,0c-3.5-0.1-10-0.2-12.4-0.3v26.4h10.6V275h0.8c4,0.1,8,0.1,12,0h0.9L255.6,296.6z"/>
	<path id="XMLID_40_" class="st2" d="M203,298.3h-47.9c-2.7,0-5.3-0.9-7.4-2.6c-1.9-1.6-3.1-3.9-3.1-6.4v-32.9l14,3.2v28.5l8.3,0.4
		v-27.2l14,2.4v25.4l8.3,0.3V265l1,0.1l12.2,1.4l0.7,0.1V298.3z"/>
	<path id="XMLID_41_" class="st3" d="M146.3,258.5v30.8c0,2,1,3.9,2.5,5.2c1.8,1.5,4,2.2,6.4,2.1h46.2v-28.5l-10.4-1.2v24.4
		l-11.7-0.4v-25.6l-10.7-1.8v27l-11.7-0.5V261L146.3,258.5z"/>
	<path id="XMLID_42_" class="st0" d="M206.5,324.9c5,3.8,10.2,7.4,15.2,10.8c1.3-2.7,3-5.3,5.1-7.5L206.5,324.9z"/>
	<path id="XMLID_43_" class="st0" d="M293.5,324.9l-20.5,3.4c2.1,2.2,3.8,4.8,5.1,7.5C283.1,332.4,288.4,328.8,293.5,324.9z"/>
	<path id="XMLID_44_" class="st3" d="M264.4,344.6c1.9-1.3,3.8-2.6,5.8-4c-2.9-2.9-6.4-4.9-10.3-6.1
		C260.6,338.2,262.1,341.7,264.4,344.6z"/>
	<path id="XMLID_45_" class="st2" d="M251.7,333.2v19.5c3-1.8,6.3-3.9,9.9-6.3c-2.7-3.6-4.9-7.8-5.1-12.7
		C254.9,333.4,253.3,333.2,251.7,333.2z"/>
	<path id="XMLID_46_" class="st3" d="M243.5,333.7c-0.1,4.9-2.4,9.1-5,12.7c3.5,2.4,6.9,4.4,9.9,6.3v-19.5
		C246.7,333.2,245.1,333.4,243.5,333.7z"/>
	<path id="XMLID_47_" class="st2" d="M229.7,340.6c2,1.3,3.9,2.7,5.8,4c2.3-2.9,3.9-6.4,4.4-10C236.1,335.6,232.6,337.7,229.7,340.6
		z"/>
	<path id="XMLID_48_" class="st3" d="M251.7,329.8c1.6,0.1,3.3,0.2,4.9,0.4c0.3-2.2,1.3-4.3,3-5.8c0.2-0.2,0.3-0.3,0.5-0.4
		c-2.7-1.1-5.6-1.8-8.5-1.9V329.8z"/>
	<path id="XMLID_49_" class="st3" d="M240,331c-0.1-1.5-0.8-2.9-1.9-4c-0.6-0.5-1.3-0.9-2.1-1.1c-4.5,2.8-8.1,6.9-10.4,11.7l1.4,1
		C230.6,334.9,235,332.3,240,331z"/>
	<path id="XMLID_50_" class="st2" d="M264,325.9c-0.8,0.2-1.5,0.6-2.1,1.1c-1.1,1.1-1.7,2.5-1.8,4c4.9,1.3,9.4,3.9,12.9,7.6l1.4-1
		C272.2,332.7,268.6,328.7,264,325.9z"/>
	<path id="XMLID_51_" class="st2" d="M240.3,324.4c1.7,1.5,2.8,3.6,3,5.8c1.7-0.3,3.3-0.4,5-0.4V322c-2.9,0.1-5.8,0.8-8.5,1.9
		L240.3,324.4z"/>
</g>
</svg>
