<?xml version="1.0" encoding="utf-8"?>
<!-- Generator: Adobe Illustrator 19.0.0, SVG Export Plug-In . SVG Version: 6.00 Build 0)  -->
<svg version="1.1" id="Layer_1" xmlns="http://www.w3.org/2000/svg" xmlns:xlink="http://www.w3.org/1999/xlink" x="0px" y="0px"
	 viewBox="0 0 500 500" style="enable-background:new 0 0 500 500;" xml:space="preserve">
<style type="text/css">
	.st0{fill:#FFFFFF;}
	.st1{fill:#002D62;}
	.st2{fill:#FFD520;}
	.st3{fill:#E03A3E;}
</style>
<g id="XMLID_1_">
	<path id="XMLID_3_" class="st0" d="M227.3,236.2c12.9-3.9,0.2,22.7-16.5,21.2C213,248.7,218.9,238.7,227.3,236.2z"/>
	<path id="XMLID_4_" class="st1" d="M429,216.5c-2.4-5.9-8.3-9.6-14.6-9.2h-1.9c2.8-6.6,1.9-14.1-2.2-19.9
		c-2.6-3.4-6.2-5.9-10.3-7.1c-27.7-63.1-90-103.8-158.9-103.9c-95.7,0-173.5,77.9-173.5,173.6c0,19.9,3.4,39.7,10.2,58.4
		c-2.3,4.8-3.5,9.9-3.6,15.2c0.1,10,4.2,19.6,11.4,26.5c6.2,6,14,9.8,22.5,11.1c61.4,73.5,170.9,83.3,244.4,21.9
		c32.6-27.3,54.1-65.6,60.4-107.6c11.4-8.8,18.5-22,19.6-36.4c0.1-1.4,0.1-2.7,0.1-3.8C432.5,228.9,431.3,222.5,429,216.5z"/>
	<path id="XMLID_5_" class="st2" d="M390.2,244.9H401c0.1,1.7,0.1,3.5,0.1,5.2C401,338.4,329.4,410,241,410.2
		c-8.6,0-17.3-0.7-25.8-2.1c-4.1,1.2-8.4,1.7-12.7,1.7c-15.1,0-29.3-7.1-38.3-19.3c-77.6-42.4-106-139.7-63.6-217.2
		c42.4-77.6,139.7-106,217.2-63.6c36.4,19.9,63.6,53.2,76,92.8h-11.4C382.4,202.3,362.3,235.7,390.2,244.9z"/>
	<path id="XMLID_6_" class="st3" d="M383.5,239.4v-17.4h7.1C375,139.7,295.5,85.5,213.1,101.2c-82.4,15.6-136.6,95.1-120.9,177.5
		c15.6,82.4,95.1,136.6,177.5,120.9c71.8-13.6,123.7-76.4,123.6-149.5c0-3.5-0.2-7.1-0.4-10.6H383.5z"/>
	<path id="XMLID_7_" class="st1" d="M241,103.2c-81.1,0-146.8,65.8-146.8,146.9S160,396.9,241.1,396.9
		c81.1,0,146.8-65.7,146.8-146.8C387.8,169,322.1,103.3,241,103.2z"/>
	<path id="XMLID_10_" class="st3" d="M143.8,218.4c17.5-53.7,75.3-83.1,129-65.6c38.8,12.7,66.4,47.1,70.2,87.8h5.5
		c-5.3-59.3-57.6-103.1-116.9-97.8c-43.6,3.9-80.5,33.7-93.4,75.6H143.8z M241,352.3c-23.5,0-46.2-8.1-64.4-23h-8.3
		c43.8,40.2,111.8,37.3,152-6.5c10.5-11.4,18.4-25,23.2-39.8h-5.8C323.7,324.5,284.8,352.3,241,352.3L241,352.3z"/>
	<path id="XMLID_21_" class="st2" d="M335.1,175.9l-1.9,3.5l3.8,4.6l11.4-20.5l-4.1-4.8l-22.2,7.8l3.8,4.7l3.9-1.3L335.1,175.9z
		 M337.5,171.9l-3.1-3.6l6.9-2.7l0.1,0.1L337.5,171.9z M300.6,124.9l4.9,2.9l2.4,16.8l6.8-11.6l4.9,2.9l-11,19.1l-4.9-3l-2.3-16.8
		l-6.8,11.6l-4.9-2.8L300.6,124.9z M265.8,132.7l0.7,4.1l6,1l-4.4-23.1l-6.1-1.1l-12.2,20.2l6,1.1l2.1-3.5L265.8,132.7z
		 M265.1,128.1l-4.7-0.8l3.5-6.5h0.1L265.1,128.1z M231.7,134.2l-5.7,0.7l-2.3-21.9l5.7-0.6L231.7,134.2z M189.3,145.7l7.5-3
		c5.7-2.2,8.5-8.7,6.3-14.4l0,0c-2.2-5.6-8.5-8.3-14.1-6.1l-0.3,0.1l-7.5,3L189.3,145.7z M188.3,127.6l1.3-0.5
		c2.9-1.4,6.4-0.2,7.9,2.7c0.1,0.2,0.2,0.4,0.3,0.6c1.4,2.9,0.2,6.4-2.8,7.8c-0.3,0.1-0.5,0.2-0.8,0.3l-1.2,0.4L188.3,127.6z
		 M141.3,153.9l4.3-3.8l16.8,3.1l-8.9-10.1l4.3-3.8l14.6,16.5l-4.3,3.8l-16.8-3.2v0.1l8.9,10l-4.3,3.8L141.3,153.9z M122,179.9
		l3-4.9l18.7,11.6l-3,4.8L122,179.9z"/>
	<path id="XMLID_24_" class="st0" d="M154.6,253.1c-1.9,0.6-4.2,1.3-4.8,1.5c1.8-3.7,2.6-7.7,2.4-11.8c-0.3-5.2-2.3-10.1-5.6-14
		c-1.4-1.7-3.6-2.5-5.7-1.9c-2.1,0.6-3.7,2.3-4.1,4.4c-0.3,1.3-1.1,2.5-2.2,3.3c-1.1,0.8-2.5,1.2-3.8,1c-0.7,0-1.4-0.4-1.7-1.1
		c-0.6-1-0.1-3.5,2-5.5l0.2-0.2c0.1-0.1,10.5-10,41.6-11.9C166,223.8,159.3,234.9,154.6,253.1z M420.3,220.1c-0.9-2.2-3-3.6-5.4-3.5
		h-3.8c-1.4,0.2-2.7,1-3.5,2.1c-2.1,4.1-12.1,16.2-16.3,14.1c-4.6-2.4,9.2-23.3,9.2-23.3c3.3-4.1,4.3-7.5,4.3-10.3
		c0-2.2-0.6-4.4-1.9-6.2c-3.4-4.2-9.2-5.5-14.1-3.2c-2,0.5-4.1,0.6-6.1,0.1c-0.6-4.4-2.5-10.1-7.3-12.6c-1.9-1-5.7-2.2-10.8,0.6
		c-3.3,1.9-5.5,5.3-5.9,9.1c-0.1,0.5-0.1,1.1-0.1,1.6c0.1,4.3,1.8,8.3,4.9,11.3c0.2,0.2,0.4,0.3,0.5,0.5c-1.5,3.7-3.3,7.3-5.3,10.8
		c0.1-0.8,0.1-1.6,0.1-2.4c0.2-3.8-1.4-7.4-4.3-9.9c-5.6-4.7-12.9-3.9-16.5-2.7c-8.9,2.9-26.8,12.8-33.6,31.5
		c1.4-5.4,0.8-9-0.3-11.4c-0.8-1.7-2-3.1-3.6-4.1c-2.9-1.8-6.4-2.1-10.6-0.7c-9.9,3.2-13.7,15.4-13.7,15.4
		c-4.8,12.3,1.1,20.2,1.1,20.2c-0.2,0.6-4.7,7-4.7,7l-2.5-24.4c-0.2-2.8-1.6-5.4-3.9-6.9c-2.2-1.4-4.9-1.8-7.3-1l-14.1,4.6
		c-2.3,0.7-3.8,2.8-3.8,5.2v5.7c-0.5-0.6-1-1.1-1.6-1.6c-5.6-4.7-12.9-3.8-16.4-2.7c-7.1,2.4-13.6,6.1-19.3,11
		c-0.2-1-0.7-1.9-1.5-2.7c-1.5-1.5-3.6-2-5.6-1.3c0,0-8.7,2.9-16.2,5.3c3-10.6,7.8-20.2,17.1-25.5c1.7-1,2.7-2.9,2.7-4.9v-0.3
		c19.4-4.4,34.3-19.9,38-39.4c0.2-1.7-0.3-3.3-1.4-4.6c-1.2-1.2-2.8-1.9-4.4-1.8l-2.7,0.2c-1.8,0.1-3.4,1-4.4,2.5
		c-8.1,12.7-26.9,16.2-48.7,20.3c-14.3,2.7-29.1,5.5-43,11.3c-38.6,15.9-36.8,40.2-36.5,43c0.9,14,13.8,24.5,28.9,23.8
		c2.7-0.2,5.3-0.7,7.9-1.6c-1.2,4.5-0.5,9.4,2.1,13.4c1.3,2.2,4,3.3,6.5,2.5l5.5-1.7c-7.5,28.7-13.5,34.5-13.7,34.8
		c-2.6,2.4-7.4,3.8-9.7,2.4c-0.8-0.4-1.4-1.2-1.6-2.1c-0.1-1.2,0.2-2.3,1-3.2c1.3-1.4,3-2.4,4.9-2.7c2.3-0.4,4.1-2.1,4.6-4.4
		c0.5-2.3-0.5-4.6-2.4-5.8c-5-3.2-10.7-4.9-16.5-5.1c-8.4-0.4-16.6,2.7-22.7,8.4c-5.1,5-8.1,11.8-8.3,18.9
		c0,15.1,13.1,27.9,29.5,28.6c6.7,0.5,13.5-0.5,19.7-3.2c9.5-3.8,22.7-12.9,30.7-34.3c6.4-14.3,9.2-29.7,11.7-44.6l0.4-2.4
		c2.7-0.8,9.2-2.8,14.1-4.5c-1.8,4.8-2.7,9.8-2.7,14.9c0,1.3,0.1,2.7,0.2,4.2c0.1,1.3,1.6,12.6,10.6,17.8c1.2,0.7,2.4,1.2,3.8,1.6
		c-39.2,16.4-47.5,35.9-48,37.1c-0.3,0.6-0.4,1.4-0.4,2.1c0,1.5,0.6,2.9,1.6,3.9l6,6l0.4,0.4c-0.9,3.5-1.4,7.2-1.4,10.9
		c0,23.6,19.2,42.7,42.8,42.7c23.6,0,42.7-19.1,42.7-42.7c0-6-1.3-12-3.8-17.4c0.9-0.3,1.8-0.9,2.4-1.6l1.8-2.1c1.3-1.7,1.6-4,0.7-6
		c-0.3-1.5,0-3,0.8-4.3c3.2-5.5,17.6-19.8,83.3-31.3c28.6-5.5,53.2-14.9,71.3-27.5c16.1-10.5,20.3-24,21-33.5
		C423.4,232.3,422.5,226,420.3,220.1z"/>
	<path id="XMLID_27_" class="st1" d="M375,250.6c-4.9-2.3-8.6-6.6-10-11.8c-0.4-1.4-0.7-2.9-0.8-4.4c-5.4,8.2-12,15.7-19.4,22.2
		c-4,3.4-8.5,6.1-13.4,8c-9.1,3.2-15.4,1.3-18.9-1c-4-2.7-7.1-6.7-8.6-11.3c-3.3,1.4-6.8,2.4-10.3,3c-6,11.5-14.5,21.4-24.9,29.2
		c8.6-1.3,17.9-2.4,27.8-3.2c50.2-4.4,78.4-17.9,93.1-28.4c0.3-0.2,0.7-0.5,1-0.8C385.3,253.3,379.8,252.8,375,250.6z M230.5,292
		c7.1-6.1,13.2-13.2,18.3-21c0.3,3,1.2,13.8,1.4,16.4C240.2,289.6,230.5,292,230.5,292z"/>
	<path id="XMLID_34_" class="st3" d="M287,239.8c-0.6-0.8-0.9-1.7-0.9-2.7c-0.3-2.2,0-4.5,1-6.6c0.6-1.6,1.7-2.9,3.2-3.8
		c0,0,0.7-0.4,1.2-0.2c0.5,0.2,0.5,1,0.5,1C291.8,230,289.4,234.6,287,239.8z M226.7,245c13.2-4,0.1,23.4-17.1,21.9
		C211.9,257.7,218.1,247.6,226.7,245z M341.7,208.2c13.3-4,0.2,23.4-17,21.9C327,220.9,333.3,210.9,341.7,208.2z M415.2,222.2h-3.3
		c-4.9,8.4-16.2,20-24.1,15.2c-9.7-5.7,8.1-31,8.1-31c7.6-9,0.4-13.9-5-11.6c-5.5,2.4-13.4-0.7-13.4-0.7s-0.3-16.6-10-11.4
		c-5.2,2.7-3.8,9.7-0.1,13.3c1,0.9,2.1,1.6,3.4,2.1c-3.5,10.8-10.9,21.9-13.4,25.6c0,0-16.8,22.5-27.8,21.8
		c-4.3-0.2-5.9-4.7-5.5-10.5c7.4,0.8,15.1-2.4,21.3-9c2-2.2,3.8-4.7,5.2-7.4c0.5-0.7,5.8-11.1,0.5-15.4c-4.8-4-11.2-1.6-11.2-1.6
		c-9.5,3.1-24.1,12.5-29.9,27.1c-1.1,3-1.8,6.2-2,9.5c-3.2,1.7-10.6,5.6-15.4,5.5c4.2-7.7,7.6-18.5,7-23c-0.5-3.8-3.6-5-7.6-3.8
		c-4.2,1.4-7.4,4.7-9.7,9.8c-1.9,4.4-2.9,8.6-2.1,12.7c0.5,2.8,1.9,5.3,3.9,7.3c-4.3,7.7-9.5,14.8-15.5,21.2l-3.9-37.5
		c-0.4-4.3-4-3.2-4-3.2l-14.1,4.5v3.5l1.3-0.4c1.3-0.5,2.7,0.2,3.2,1.5c0.1,0.2,0.1,0.5,0.2,0.8l0.7,7.2c-2.7,5-22.4,40.8-37.4,38.3
		c-4.2-0.7-5.9-4.7-5.5-10.4c7.4,0.7,15.1-2.4,21.3-9c2-2.2,3.8-4.7,5.2-7.4c0.5-0.8,5.7-11.2,0.4-15.4c-4.7-3.9-11.1-1.7-11.1-1.7
		c-12.7,4.2-34.3,18.4-32,43.7c0,0,2.4,22.6,24.3,12.6c0,0,17.4-6.2,35.7-40.4l3.3,31.9c10.9-5.5,23.9-16.2,34-36
		c3.5,0,8.6-1,17.7-5.5c0,0.2,0,0.4,0.1,0.6c0,0,2.3,21.3,21.7,14.3c4.2-1.7,8.2-4.1,11.7-7c8.4-7.3,15.5-15.8,21-25.4
		c4.2-7.2,8.1-14.6,11.5-22.2c1.8,0.5,3.6,0.9,5.5,1.1c-6.5,10.8-16.9,32.1-1.7,39.7c0,0,11.2,6.3,27.3-6.9
		c-1,11.1-12.1,18.6-12.1,18.6c-18.4,13.1-48.9,25.3-95.8,29.3c-120.7,10.3-138.2,54.2-138.2,54.2l4.5,4.5
		c9.4-21.7,34.6-31.8,56.3-22.4c7.2,3.1,13.4,8.1,18,14.5c0.8,0.6,1.6,1.3,2.4,2.1l1.8-2.1c0,0-14.5-25.5,88.2-43.4
		c30.8-5.9,53.5-15.7,69.2-26.6C426.4,249.5,415.2,222.2,415.2,222.2z M194.8,256l3.5-10.9l-25.7,8.5c3.5-16.8,8.9-31.1,22.2-38.8
		l-0.2-3c-8.9,1-26.4,7.8-35.3,45.6l-8,2.4c0,0-18.2,5.6-10.4,18.8l2.4-0.7c-0.4-1.1-1.6-5.4,4.5-7.3l9.2-3
		c-10.2,47.4-19.2,53.5-19.2,53.5c-4.1,3.8-11.3,5.8-16,3.2c-5-2.9-6-9-2.1-13.7c2.1-2.5,5.1-4.1,8.3-4.6c-4.1-2.6-8.9-4.1-13.8-4.1
		c-13.7-0.4-25.1,9.3-25.3,21.7c-0.1,12.4,10.9,22.7,24.6,23.2c0,0,30.4,3.8,44.7-34c7-15.6,9.5-33.2,12.4-49.3L194.8,256z
		 M125.7,264.3c12.2-0.7,21.6-10.1,20.9-21.1c-0.2-4-1.7-7.8-4.3-10.9c-0.5,2.8-2.1,5.2-4.4,6.9c-4.6,3.3-10.6,2.7-13.5-1.2
		c-2.7-3.5-0.9-9.6,2.9-13c0.4-0.4,13.5-13.7,55.2-13.8c44.9-0.2,50.1-36.8,50.1-36.8l-2.7,0.2c-15.1,23.8-59,19.1-94.3,33.6
		c-36.5,15.1-33,37.4-33,37.4C103.2,256.5,113.5,264.9,125.7,264.3L125.7,264.3z"/>
	<path id="XMLID_35_" class="st1" d="M164.5,362.1c0-21,17-38,38-38c21,0,38,17,38,38c0,21-17,38-38,38
		C181.6,400.1,164.5,383.1,164.5,362.1L164.5,362.1z"/>
	<path id="XMLID_40_" class="st0" d="M181.5,353.5c0.6,6.5,1.1,12.5-1.6,17.5c1.7,1.6,3.6,3,5.6,4.3c4.5-17.6,14.3-33.4,28.1-45.2
		c-9.9-3.4-20.9-2-29.7,3.6c-1.6,2.5-2.6,5.3-2.8,8.3C180.9,345.8,181,349.7,181.5,353.5z M174.1,374.2c1.7-0.4,3.2-1.5,4.1-3
		c-4.9-5-6.6-10.4-8.6-17.5c-1.7,6.7-1.3,13.8,1.1,20.3C171.8,374.3,173,374.4,174.1,374.2z M229.6,341.7c1.7,4.4,2.3,9.2,1.6,14
		c-0.9,4.8-3.8,9-8,11.4c-3.5,2-7.2,3.7-11.1,4.9c-6.3,2.2-12.2,4.5-14.4,8.9c10.3,3.5,22.2,5.2,29.5,3.5c0.4-0.1,0.9-0.2,1.2-0.3
		c1.3-1.7,2.6-3.4,3.7-5.2C238.8,367.1,237.7,352.5,229.6,341.7L229.6,341.7z M196.4,389c-1.1-2.3-1.2-4.9-0.4-7.2
		c-3.3-1.2-6.5-2.7-9.5-4.4c-0.9,4.6-1.3,9.3-1,14c0.1,0.1,0.4,0.2,0.5,0.3c5.1,2.9,10.8,4.4,16.7,4.4
		C199.9,394.3,197.8,391.9,196.4,389z"/>
	<path id="XMLID_45_" class="st3" d="M178.9,369.9c2.1-4.6,1.7-10.3,1.1-16.4c-0.4-3.9-0.5-7.8-0.3-11.7c0.2-2.1,0.7-4.3,1.6-6.2
		c-3.4,2.7-6.3,6.1-8.4,9.9c-1,1.8-1.9,3.7-2.5,5.7l0.3,1.6C172.8,359.9,174.3,365.1,178.9,369.9z M186.8,376
		c3.1,1.8,6.3,3.3,9.6,4.6c2.4-5.1,8.7-7.3,15.2-9.8c3.8-1.3,7.4-2.9,10.9-4.8c3.8-2.4,6.5-6.2,7.4-10.6c1-5.7-0.9-12-3.2-17.1
		c-2.2-2.3-4.8-4.2-7.5-5.8c-1.3-0.7-2.7-1.4-4.1-1.9C201.1,342.4,191.1,358.3,186.8,376L186.8,376z M197.1,382.3
		c-0.6,2-0.4,4.2,0.4,6.1c1.7,3.1,4.2,5.7,7.3,7.5c8.3-0.5,16-4.1,21.8-10C219.2,387.5,207.4,385.9,197.1,382.3L197.1,382.3z
		 M185.1,376.6c-2.1-1.3-4.1-2.8-5.9-4.5c-1.1,1.7-2.9,3-4.9,3.5c-1,0.1-2,0.1-3,0c2.6,6.1,7,11.3,12.6,14.9
		C183.7,385.9,184.1,381.2,185.1,376.6L185.1,376.6z"/>
</g>
</svg>
