<?xml version="1.0" encoding="utf-8"?>
<!-- Generator: Adobe Illustrator 19.0.0, SVG Export Plug-In . SVG Version: 6.00 Build 0)  -->
<svg version="1.1" id="Layer_1" xmlns="http://www.w3.org/2000/svg" xmlns:xlink="http://www.w3.org/1999/xlink" x="0px" y="0px"
	 viewBox="0 0 500 500" style="enable-background:new 0 0 500 500;" xml:space="preserve">
<style type="text/css">
	.st0{fill:#FFFFFF;}
	.st1{fill:#00AE9B;}
	.st2{fill:#FDB927;}
	.st3{fill:#552583;}
</style>
<g id="XMLID_1_">
	<path id="XMLID_5_" class="st0" d="M384.8,236.3h0.7c0.4,0.6,1,1.2,1.6,1.6c2,1.2,4.4,2.4,6.6,3.6c-4.7-1.8-9.8-3.5-15.1-5.3
		c-0.4-1.3-0.9-2.7-1.4-4.2L384.8,236.3z M425.7,217.7c-6.1-9.4-15.1-16.6-25.6-20.4l3.5-0.3l-0.2-0.3l29-3.4L420,186
		c-11.5-6.8-19.7-9.7-39.1-10.7c0.4-0.5,0.9-1,1.3-1.6l4.1-4.8c0.6-0.6,1.2-1.3,1.7-2l3.9-4.7l-0.1-0.1c4.9-5.5,9.9-11.1,10.2-11.4
		l7.3-8l-11.4-0.1c-19.9,0-33.1,12.7-40.8,21.6c-2.1-9.5-6.6-21.7-21.7-32.8l-9.7-7.1l6.1,37.3c0,0.5,0.1,1.1,0.3,1.6
		c-8.9-4.9-18.9-7.3-29.1-7c-5.9,0.1-11.9,0.6-17.7,1.6l-2.1,0.4c-12.1-4.3-24.9-6.5-37.7-6.5c-29.7-0.1-58.2,11.7-79.1,32.8
		c-6.5,6.5-12.3,13.8-17,21.7c-9.8,0.7-25.5,5.2-32.4,25.6c-0.7,1.9-1.2,3.9-1.5,5.9c-15.6,5.3-28.3,11.1-35.6,16.4
		c-2.6,1.5-5,3.4-7.2,5.5c-2,1.7-3.4,4.1-3.8,6.8c-0.9,1.4-1.3,3-1.3,4.6c0.2,3,1.6,5.8,3.9,7.7c4.8,4.8,14,9.7,22,13.2l-12.3,19.9
		h20c2.1,0,4.6,0,6.3-2.7l0.7-1c4.4,2.5,14,7.2,23.4,7.4c4.8,0.2,9.7-0.2,14.4-1.2c28,55.1,95.3,77,150.4,49.1
		c22.4-11.4,40.3-29.9,50.8-52.7c42.7-10,71.2-23.5,79.7-31.9c2-1.7,3.4-4.1,3.8-6.7c0.9-1.4,1.3-3,1.3-4.6c-0.1-3-1.5-5.8-3.8-7.8
		c-3.7-3.6-10.5-7.8-19.3-12l0.1-6.4c0-1.2-0.3-10-11-21.4l34.6,8L425.7,217.7z"/>
	<path id="XMLID_8_" d="M428.8,267.4c-0.2-2.1-1.3-4-2.9-5.4c-6.3-6.3-24.4-15.3-49.7-23.3c-1.3-5.2-3.5-10.1-6.5-14.6
		c2.3,1.6,4.7,2.9,5.9,3.5l0.8,0.4c0.3-0.1,0.5-0.2,0.8-0.4c0.2-0.1,0.4-0.1,0.5-0.4c0.6,1.3,0.8,1.3,1.2,1.5l4,2.3l2.4,1.4l0.7,0.4
		c0.3-0.1,0.5-0.2,0.8-0.4c0.3-0.1,0.5-0.3,0.7-0.6c1,2.6,1.3,2.7,1.6,3c5.6,3.2,14.4,7.6,14.4,7.6l2.2,1.1v-2.4
		c0-0.6-0.1-13.1-20-27.8c1.8,0.4,3.2,0.8,3.5,0.9l2.2,0.5l-0.3-2.3l-0.1-0.4l2,2.7l0.4,0.4l0.5,0.1l9.1,2.1l2,0.4l-0.1-2.1v-0.3
		l1.5,2.4l0.4,0.5l0.7,0.1l14.2,3l3.7,0.9l-2.1-3.2c-11-16.7-27.1-20.7-39.9-24c-0.2-0.1-0.3-0.1-0.5-0.1l2.1-0.2l2-0.1l-0.5-1.7
		l1.4,1l0.4,0.4l0.5-0.1l6.9-0.5l2.6-0.1l-1.3-2.1l-0.1-0.3l3.6,1.8l0.4,0.1h0.4l16.6-1.9l4.6-0.4l-3.9-2.4
		c-12.2-7.2-20.5-9.8-43.8-10.5c1.2-1.5,2.7-3.7,5.2-6.8l1-1.3l-1.4-1h1.8l0.7-0.1l0.4-0.5c0.3-0.4,0.9-1.1,1.6-2
		c0.7-0.8,1.4-1.7,1.7-2.1l1.3-1.6l-1.2-0.7l1-0.1h0.7l0.4-0.5c5.5-6.3,11.9-13.3,12-13.4l2.3-2.5l-3.5-0.1
		c-21.8-0.1-35.6,16.5-42.1,24.5c-0.4,0.5-0.8,1-1.2,1.3c0-0.3,0-0.6-0.1-0.9c-1.7-10.1-4-23.9-21.6-36.8l-3-2.2l0.7,3.8l2,12
		l0.1,0.7l0.5,0.4l2.4,1.6H334l0.2,1.8l0.9,5.2l0.1,0.7l0.7,0.4l1.7,0.9h-0.4l-1.8,0.1l0.3,1.6c0.4,2.4,1,6.1,1.4,8.8l-0.2-0.1
		c-7.7-5.2-20.7-13.9-50.3-8.6l-3.1,0.5c-39.7-14.4-84.1-4.5-114,25.3c-6.8,6.7-12.6,14.3-17.3,22.6c-9.4,0.1-24.7,3.8-31.3,23.5
		c-0.9,2.3-1.4,4.8-1.7,7.2c-16.2,5.5-29.5,11.5-36.9,16.7c-2.4,1.5-4.6,3.1-6.7,5c-1.6,1.4-2.7,3.3-2.9,5.5v0.1
		c-0.8,1-1.2,2.2-1.3,3.5c0.2,2.1,1.3,4.1,2.9,5.5c3.9,3.9,12.4,8.9,24.4,14l-6.3,10.2l-2.4,3.9l-2.4,3.9h14c1.8,0,2.8,0,3.5-1.2
		l0.8-1.2c0.7-1.2,2-2.3,3.5-1.4c3.7,2.1,13.2,7.2,22.7,7.5c5.4,0.2,10.8-0.4,16.1-1.8c5.3,11.1,12.5,21.2,21.3,29.8
		c42.3,42.4,110.9,42.4,153.2,0.2c9.4-9.4,17-20.5,22.5-32.6c41-9.4,71.2-22.8,79.9-31.4c1.7-1.4,2.7-3.3,2.9-5.5v-0.1
		C428.4,269.8,428.8,268.6,428.8,267.4z M355.7,231.3l0.1-0.5v0.1l0.4,0.3l3.7,2.9c-3.4-0.9-6.9-1.8-10.6-2.7
		c-0.9-2.7-1.8-5.4-2.9-8l7.2,6.3L355.7,231.3z"/>
	<path id="XMLID_57_" class="st1" d="M153.3,308.7c9.7,19.7,25.3,35.8,44.7,46.1c-10.5-9.3-18.5-21.1-23.3-34.3
		c-1-2.8-1.8-5.7-2.5-8.6c-6.1-1.1-12.1-2.3-17.9-3.7C153.9,308.3,153.6,308.5,153.3,308.7z M199.5,356.2
		c-20.4-10.3-36.8-27-46.8-47.5l-0.1-0.3l0.3-0.1c0.4-0.1,0.9-0.4,1.3-0.5v-0.1h0.1c5.8,1.3,12,2.6,18,3.7h0.2v0.1
		c4.1,17.3,13.6,32.8,27.2,44.2L199.5,356.2z M174.7,320.4c-1-3-1.8-5.8-2.6-8.9c-6.2-1.1-12.3-2.3-18.1-3.7
		c-0.5,0.2-0.9,0.4-1.3,0.7c10,20.5,26.4,37.1,46.7,47.5C188.3,346.4,179.8,334.2,174.7,320.4z M156.9,224.4c-3-0.1-5.8,1.5-7.3,4.1
		c-0.6,1-0.9,2.2-1,3.3c5.1-1.3,10.4-2.4,15.7-3.5c-1.4-2.2-3.8-3.7-6.4-3.9C157.6,224.5,157.3,224.4,156.9,224.4z M148.1,232.6
		v-0.4c0.1-1.3,0.4-2.6,1-3.8c1.6-2.8,4.6-4.4,7.8-4.4c0.3,0,0.6,0,1,0.1c2.9,0.2,5.5,1.8,7,4.4l0.1,0.4h-0.3
		c-5.6,1.2-11.1,2.4-16.3,3.7H148.1z M157.9,224.3c-4.4-0.8-8.7,2.2-9.4,6.7c-0.1,0.4-0.1,0.9-0.1,1.3c5.2-1.3,10.7-2.5,16.4-3.6
		C163.3,226.2,160.8,224.5,157.9,224.3L157.9,224.3z M157.6,209.6c0.4,0,0.8,0.1,1.3,0.2l0.4,0.1c7.5-6.8,15.9-12.7,24.8-17.6
		c-2.5-2.5-5.8-4-9.3-4.2C168.1,194.5,162.3,201.7,157.6,209.6L157.6,209.6z M159.3,210.4L159.3,210.4c-0.3,0-0.4-0.1-0.6-0.1
		c-0.5,0-1.1-0.1-1.6-0.2l-0.4-0.1l0.2-0.4c4.8-8.1,10.7-15.5,17.6-22v-0.1h0.1c3.8,0.3,7.4,1.9,10,4.7l0.3,0.3l-0.3,0.1
		c-9.1,4.8-17.5,10.8-25.1,17.7L159.3,210.4z M159.3,210.1c7.6-6.9,16.1-12.9,25.2-17.7c-2.6-2.7-6.1-4.3-9.8-4.6
		c-6.8,6.5-12.7,13.9-17.5,22c0.6,0,1.1,0.1,1.6,0.3L159.3,210.1z M261.3,318.5l14.1,44.2c21.8-6.4,40.9-19.8,54.4-38
		c1-4.6,1.7-9.2,2.1-13.9c-2.1,0.4-4.7,0.9-7.3,1.3c-6.3,3.2-13.4,4.6-20.5,4.1h-0.2c-1-0.1-1.9-0.3-2.9-0.5
		C287.7,317.2,274.3,318.1,261.3,318.5z M274.5,363.4l-0.1-0.4l0.4-0.1l-14.3-44.7h0.4c13.2-0.4,26.6-1.3,39.9-3h0.1
		c0.9,0.2,1.9,0.4,2.9,0.6h0.2c1,0,1.8,0.1,2.9,0.1c6.1,0,12.1-1.4,17.5-4.2h0.1c2.7-0.4,5.5-1,7.6-1.4l0.4-0.1l-0.1,0.4
		c-0.4,4.8-1.2,9.6-2.2,14.3v0.1C316.4,343.5,296.8,357.1,274.5,363.4L274.5,363.4z M304.1,316h-0.3c-1-0.2-2.1-0.4-3-0.6
		c-12.8,1.6-26.3,2.6-40,3l14.3,44.7l-0.7,0.2c22.3-6.3,41.8-19.8,55.6-38.5c1-4.7,1.7-9.5,2.1-14.3c-2.5,0.4-5,1-7.6,1.4
		C318.2,315,311.1,316.4,304.1,316L304.1,316z M341.3,229.5c1.2,0.3,2.2,0.5,3.4,0.8c-0.4-1.5-1-2.9-1.6-4.3L341.3,229.5z
		 M345.3,230.9l-0.4-0.1c-1.4-0.3-2.7-0.5-4.2-0.9l-0.3-0.1l2.7-5.1l0.1,0.5c0.7,1.7,1.3,3.5,1.8,5.2L345.3,230.9z M340.9,229.6
		c1.3,0.3,2.8,0.5,4.1,0.9c-0.6-1.8-1.3-3.5-1.8-5.2L340.9,229.6z M183.9,212.7l1.3,0.1c1.3,0.1,1.6,0.7,2.7,2.6l0.7,1.3
		c0,0,0.5,0.8,1,1.6c0.5-9.2-0.4-17.6-2.4-21.8c-7.9,4.1-15.3,9.1-22.1,14.9c3,1.3,5.8,2.9,8.5,4.7l0.5,0.4c0.4,0.2,0.8,0.4,1.2,0.7
		c0.2,0.1,0.5,0.2,0.7,0.1c1.7-0.2,3.3-1,4.6-2.1c0.7-0.7,1.4-1.3,2.2-1.9L183.9,212.7z M190,220.1l-0.4-0.7c-0.5-1-1.3-2.4-1.3-2.4
		l-0.8-1.2c-1.1-1.8-1.3-2.1-2.3-2.4l-1-0.1l-0.8,0.7c0,0-1.6,1.4-2.1,1.8l-0.1,0.1c-1.4,1.2-3.1,1.9-4.9,2.1c-0.4,0-0.7,0-0.9-0.2
		c-0.4-0.2-0.8-0.5-1.2-0.8l-0.6-0.4c-2.7-1.9-5.7-3.5-8.8-4.8l-0.4-0.1l0.3-0.3c7-6,14.6-11.1,22.7-15.4l0.1-0.1l0.1,0.2
		c2.7,5.4,3,15.9,2.5,23.2L190,220.1z M164.6,211.5c3.1,1.3,6,2.9,8.8,4.8c0.6,0.4,1.2,0.8,1.8,1.2c1.2,0.7,4-0.7,5.5-2l2.3-1.8
		l0.9-0.7l1.2,0.1c1.2,0.2,1.4,0.7,2.5,2.5l0.8,1.3c0.5,0.7,0.9,1.5,1.3,2.3c0.6-8.6-0.1-18.3-2.5-23
		C179.1,200.4,171.6,205.6,164.6,211.5z M177.5,312.8c0.5,2,1.2,4,1.8,6c13.2,35.9,41.1,44.6,41.3,44.7l1,0.4
		c16,3.9,32.7,3.9,48.8,0.1l-14.5-45.3h-9.7C223.2,318.6,200.2,316.6,177.5,312.8z M246.3,367.3c-8.4,0-16.7-1-24.8-3l-1-0.4
		c-0.3-0.1-28.2-8.6-41.7-45c-0.8-2.1-1.4-4.2-1.9-6.3l-0.1-0.4l0.4,0.1c22.8,3.8,45.9,5.8,69,5.9h10l14.8,46.3h-0.3
		C262.7,366.3,254.5,367.3,246.3,367.3z M251.9,318.3h-5.7c-23.1,0-46.2-2-69-5.9c0.5,2.2,1.2,4.3,2,6.4
		c13.3,36.2,41.2,44.7,41.6,44.8l0.9,0.4c16.1,3.9,33,3.9,49.2,0.1l-14.6-45.8H251.9z M337.2,309.6c-0.1,1.4-0.3,2.7-0.4,4.2
		c0.8-1.6,1.6-3,2.4-4.6L337.2,309.6z M336.6,315.1l-0.4-0.1c0.2-2,0.4-3.8,0.7-5.6v-0.1l0.1-0.1c0.9-0.1,1.8-0.3,2.6-0.5l0.5-0.1
		l-0.3,0.4C338.8,311.1,337.7,313.1,336.6,315.1z M336.4,315c1.2-2.1,2.1-4,3.2-6.1c-0.9,0.1-1.8,0.4-2.7,0.5
		C336.8,311.5,336.6,313.2,336.4,315z M301.3,216c1,0.6,2,1.2,3,1.8c1.3-1,2.7-1.9,4.1-2.8l0.4-2.3l-2.2,2.4L301.3,216z
		 M304.2,218.4L304.2,218.4c-1.3-0.8-2.7-1.6-3.8-2.3l-0.5-0.3l6.3-1l0.4-0.4l2.9-3.2l-0.4,3.4h0.1l0.1,0.4c-1.7,0.9-3.3,2-4.9,3.2
		H304.2z M308.6,214.9l0.3-2l0.1-1l-2.4,2.6l-0.4,0.4l-0.5,0.1l-5.2,0.8c1.3,0.7,2.5,1.5,3.7,2.2c1.5-1.2,3.2-2.3,4.9-3.2
		L308.6,214.9z M247.4,219.9h5.7c15.4,0,30.9,0.9,46.2,2.6c0.3-0.4,0.7-0.7,1-1.2c-2.5-1.6-5.1-3-7.8-4.3l-18,2.9l2.5-3.5
		c1.1-1.6,2.4-3.1,3.7-4.5c-23.5-10-36.1-19.8-39.6-30.7c-7.5,0.5-15,1.7-22.3,3.5l11.4,35.7C235.7,219.9,241.6,219.9,247.4,219.9z
		 M299.6,223.1h-0.1c-15.3-1.8-30.8-2.7-46.2-2.7h-5.7c-5.8,0-11.8,0.1-17.7,0.4h-0.2L218,184.4l0.3-0.1c7.5-1.8,15.2-3,22.9-3.5
		h0.2v0.1c3.5,10.9,16.1,20.7,39.9,30.8l0.3,0.1l-0.2,0.3c-1.4,1.5-2.7,3-3.9,4.7l-1.8,2.5l3-0.4l14-2.3l0.1,0.1
		c2.8,1.4,5.6,2.9,8.2,4.7l0.3,0.1l-0.1,0.1c-0.5,0.5-0.9,1-1.3,1.6L299.6,223.1z M247.4,220.1h5.7c15.5,0,30.9,0.9,46.3,2.7
		c0.5-0.5,0.9-1,1.3-1.6c-2.7-1.6-5.4-3.1-8.2-4.5l-14,2.1l-3.7,0.6l2.1-3c1.2-1.7,2.5-3.3,3.9-4.7c-23.7-10-36.5-20-39.9-30.9
		c-7.7,0.5-15.4,1.7-22.9,3.5l11.5,36C235.5,220.2,241.4,220.1,247.4,220.1z M179.8,183.6c3.4,1.4,6.5,3.5,8.9,6.3
		c7.5-3.7,15.3-6.6,23.3-8.9l-4.5-14.2C197.5,171,188.1,176.7,179.8,183.6z M188.6,190.6l-0.1-0.1c-2.5-2.9-5.6-5.1-9.2-6.4
		l-0.4-0.1l0.4-0.3c8.5-7.2,18.1-13,28.5-17.1l0.3-0.1l4.7,15.1l-0.2,0.1c-8.2,2.2-16.1,5.2-23.7,9L188.6,190.6z M188.7,190.3
		c7.6-3.8,15.5-6.8,23.7-9l-4.7-14.6c-10.3,4.1-20,9.9-28.5,17.1C182.9,185.1,186.2,187.4,188.7,190.3L188.7,190.3z M191.6,194.2
		c2.9,6.1,3.8,18.3,2.6,29.2c10.2-1.3,20.4-2.2,30.5-2.9l-11-34.5C206.1,188.1,198.7,190.8,191.6,194.2L191.6,194.2z M193.7,224
		v-0.4c1.3-11.1,0.2-23.5-2.6-29.5l-0.1-0.1l0.1-0.1c7.2-3.5,14.8-6.4,22.5-8.6h0.3l11.4,35.7h-0.3c-10.3,0.5-20.7,1.6-31.1,2.9
		L193.7,224z M224.9,220.8l-11.2-35.1c-7.7,2.1-15.2,5-22.4,8.4c3,6.3,3.8,19.2,2.7,29.6C203.9,222.4,214.3,221.3,224.9,220.8z
		 M246.2,180.9c3.8,9.2,16.4,18.2,38.4,27.3c9.3-7.7,20.4-10.2,29.2-11.5l-0.1-0.1c-6.3-1-12.1-1.8-16.2-2.7
		c-0.7-0.1-1.2-0.5-1.4-1.2c-0.1-0.2-0.1-0.5-0.1-0.7c-1.2,0.6-2.5,1-3.8,1.2l-0.4-0.1c-1.4-0.3-2.6-0.4-3.8-0.6
		c-1-0.1-2.4-0.3-3.8-0.5c-1-0.2-1-0.2-1.1-0.3l-0.1-0.1l-0.3-0.9v-0.1c-0.7,0.3-1.4,0.5-2.1,0.7l-0.4-0.1
		c-2.5-0.4-10.1-1.6-13.1-1.8c-0.4-0.1-0.8-0.1-1.2-0.1l-6.4-0.9l5.9-2.6c2.7-1.1,5.2-2.1,7.8-3c-7.5-1.3-15-1.9-22.6-1.9
		C249.1,180.8,247.6,180.8,246.2,180.9z M284.7,208.7L284.7,208.7c-22.6-9.4-35.4-18.5-39-28l-0.1-0.3h0.4c1.3-0.1,3-0.1,4.8-0.1
		c7.9,0,15.8,0.7,23.6,2.1l0.1,0.4c-2.9,0.9-5.8,2-8.6,3.3l-4.3,1.8l4.7,0.7c0.1,0,0.5,0.1,1.3,0.1c2.9,0.4,10.5,1.4,13.1,1.8
		l0.2,0.1c0.8-0.1,1.6-0.4,2.3-0.7l0.3-0.1l0.1,0.3l0.1,0.3l0.3,0.9c0.1,0,0.5,0.1,0.8,0.1c1.3,0.3,2.6,0.4,3.7,0.6h0.1
		c1.2,0.1,2.3,0.3,3.7,0.5h0.3c1.4-0.2,2.7-0.6,3.9-1.3l0.4-0.1v0.4c-0.1,0.3,0,0.6,0.1,0.9c0.1,0.5,0.6,0.8,1,0.8
		c4,0.8,9.8,1.7,16.2,2.7l0.4,0.1l0.5,0.3l0.7,0.4l-0.8,0.1c-8.8,1.3-20.2,3.7-29.7,11.5L284.7,208.7z M274.2,182.6
		c-7.8-1.4-15.6-2.1-23.5-2.1c-1.7,0-3.2,0.1-4.8,0.1c3.7,9.3,16.5,18.5,38.8,27.8c9.4-7.8,20.9-10.4,29.9-11.6
		c-0.3-0.1-0.5-0.4-0.8-0.5c-5.7-0.8-11.7-1.8-16.2-2.6c-0.5-0.2-1-0.5-1.3-1c-0.1-0.3-0.1-0.7-0.1-1c-3.5,1.4-4,1.3-4.4,1.3
		c-1.3-0.3-2.6-0.4-3.8-0.6s-2.3-0.3-3.7-0.5c-0.3,0-0.6-0.1-1-0.2l-0.3-0.9l-0.1-0.4c-1.8,0.8-2.3,0.8-2.6,0.7
		c-3.2-0.6-14.2-2.1-14.2-2.1l-5.5-0.7l5.1-2.2C268.4,184.7,271.3,183.6,274.2,182.6z M212.2,165.3l4.7,14.5
		c7.5-1.8,15.2-3,22.9-3.6c-0.1-5.9,1.6-11.8,5-16.7C233.8,159.6,222.7,161.6,212.2,165.3z M216.7,180.4l-0.1-0.1l-4.9-15.4l0.3-0.1
		c10.8-3.7,22-5.7,33.4-5.8h0.5l-0.3,0.4c-2.1,3.3-5.7,9.7-5.2,17.1v0.2h-0.3c-7.8,0.6-15.6,1.9-23.3,3.8H216.7z M240.1,176.4
		c-0.2-6.1,1.7-12.1,5.2-17.1c-11.3,0.1-22.6,2-33.3,5.8l4.7,15.1C224.4,178.2,232.3,177,240.1,176.4z M250.7,175.7
		c11.2,0,22.3,1.3,33.1,3.9c7-1.5,14.1-2.2,21.3-2c-15.8-10.9-34.3-17.2-53.4-18.1c-2.7,3.5-6.9,10.3-6.6,16.2
		C246.6,175.8,248.6,175.7,250.7,175.7z M283.8,180.2c-10.8-2.7-22-4-33.1-4c-2.1,0-4.3,0.1-5.9,0.1h-0.3v-0.3
		c-0.4-6.3,4.1-13.3,6.8-17l0.1-0.1h0.1c19.6,0.9,38.5,7.4,54.5,18.7l0.7,0.5l-0.8-0.1C298.5,177.9,291.1,178.6,283.8,180.2z
		 M244.7,176.1c2-0.1,3.9-0.1,6-0.1c11.2,0,22.3,1.3,33.1,4c7.3-1.6,14.7-2.3,22.1-2c-16-11.3-34.9-17.7-54.5-18.6
		C249,162.7,244.3,169.9,244.7,176.1z M319.7,225.3c2.6,0.4,5.4,1,8.6,1.6l2.7-4.4l-7.3,2.3v-0.7l-0.1,0.2L319.7,225.3z
		 M328.6,227.5h-0.1c-3.8-0.7-7-1.3-10-1.7v-0.5l4.7-1.3l1-1.6l0.1,1.8l8-2.5L328.6,227.5z M331.6,222l-5.7,1.8l-2.1,0.7v-1.3
		l-0.3,0.4l-0.3,0.5l-0.7,0.2l-4.3,1.1c3.4,0.5,6.8,1.1,10,1.7L331.6,222z"/>
	<path id="XMLID_70_" class="st2" d="M253.1,346.8l-6.1,19.7l10.1-17.4l7.3,16.1l-5.6-18.6l13.5,13l-11.7-14.5l19.3-2.5l-19.9-0.7
		l16.2-10.6l-17,7.7l-0.3-20.1l-3.9,19.9l-12.8-14.2l9.3,14.4l-19.2-2.2l18.8,4.7l-22.5,6.8l23.1-3.5L238.4,358L253.1,346.8z
		 M265.6,368.9l-8.5-18.7l-10.7,18.5l-0.4-0.2l6.1-20.3l-16.4,12.7l-0.4-0.4l14.8-14.8l-25.1,3.8l-0.1-0.4l24.1-7.2l-20.7-5.2
		l0.1-0.5l21.8,2.6L240,322.4l0.4-0.4l14.3,15.8l4.1-21.4l0.5,0.1l0.3,21.7l19.3-8.6l0.3,0.4l-17.6,11.5l21.3,0.7v0.5l-21.5,2.9
		l13.9,16.9l-0.4,0.4l-15-14.5l6.2,20.4L265.6,368.9z M261,345.3l21.9-2.9l-22.1-0.7l18.2-12l-19.6,8.9l-0.4-22.1l-4.2,21.8
		l-14.7-16.1l10.7,16.5l-22.4-2.5l21.6,5.4l-25,7.5l25.9-3.8l-15.4,15.4l17.1-13.1l-6.3,21l11-18.8l8.6,19l-6.4-21.3l15.7,15.2
		L261,345.3z M193.8,336.4l6.3,13.5l-3-14.2l11.3,4.9l-11.8-7.1l13.1,0.4l-12.7-2l8.9-10.6l-10.8,9.3l3.4-13.4l-5.3,12.2l-9.8-10.6
		l7.6,12.5l-13.7-1.3l11.7,3.1l-10.8,7.8l12-6.4l-7.6,12.8l9.5-11.4l-0.7,13.1L193.8,336.4z M191.3,353.1l-0.5-0.1l0.7-15.4
		l-10.6,12.5l-0.4-0.2l8.2-14l-13.8,7.4l-0.3-0.4l13.1-9.4l-13.6-3.6v-0.5l15.6,1.5l-8.3-13.7l0.4-0.3l11,11.7l6.3-14.3l0.4,0.2
		l-3.8,14.9l12-10.2l0.3,0.4l-10.3,12.3l15.9,2.4l-0.1,0.5l-15.3-0.4l13.4,8l-0.2,0.5l-13.8-6L201,352l-0.4,0.1l-6.6-14L191.3,353.1
		z M197.5,331.9l10.6-12.6L195.5,330l4-15.6l-6.3,14.6l-11.2-12l8.6,14.2l-16.1-1.5l14.1,3.8l-13.6,9.7l14.5-7.8l-8.6,14.8l11-13.1
		L191,353l2.9-15.7l6.9,14.8l-3.3-15.9l14.2,6.1l-14.2-8.5l16.3,0.5L197.5,331.9z M256.2,203l1,8.7l1-8.4l4.7,4.3l-4.8-5.7l6.4,2.5
		l-5.9-3l6.6-3.9l-7.5,2.9l4.3-6.3l-4.8,5.2l-3.3-7.5l1.7,8.2l-6.8-3.1l5.5,3.7l-6.8,2.1l7.2-1.2l-7.2,6.1l8-4.9l-2.6,6.5L256.2,203
		z M257.3,213.9h-0.5l-1-9.3l-4.5,8l-0.4-0.1l3.4-8.6l-9.6,6l-0.3-0.4l8.6-7.2l-9.3,1.5l-0.1-0.4l9.5-2.8l-7.1-4.8l0.2-0.4l8.7,4
		l-2.1-9.6l0.4-0.1l3.9,9l6.5-6.9l0.4,0.3l-5.1,7.8l8.8-3.4l0.2,0.4l-8.4,4.9l8.7,4.7l-0.2,0.4l-8.5-3.2l6,7.2l-0.4,0.3l-6.8-6.2
		L257.3,213.9z M259.3,201.3l8.8-5.2l-9.5,3.8l5.5-8.4l-6.7,7.2l-4.1-9.3l2.1,10l-9.2-4.2l7.5,5.1l-10,3l10.2-1.6l-9.3,7.7l10.3-6.3
		l-3.8,9.4l4.8-8.7l1.2,10.1l1.2-10l7.2,6.4l-6.6-7.8l9.4,3.5L259.3,201.3z M210.8,195.5l1.3,15l0.7-16.6l7.2,14.2l-5.5-14.8
		l16.4,3.4l-15.9-6.2l16.2-4.1l-16,1.4l5.5-16.5l-8.9,15.2l-6.4-15.2l3.4,14.3l-14.8-7.2l14,9.1l-20.3-0.9l19.9,3.8l-14.4,6.9
		l15-4.9l-10.5,14.5L210.8,195.5z M212,214.3l-1.6-17.7l-14.1,12l-0.4-0.3l10.9-14.8l-17.1,5.6l-0.2-0.4l16.5-8l-21.7-4.1V186
		l21.8,0.9l-15.4-10.1l0.3-0.4l17.3,8.3l-3.8-16.2l0.4-0.1l7.2,17.1l9.5-16.5l0.4,0.1l-6,18l18.3-1.6l0.1,0.5l-17.7,4.5l17.3,6.7
		l-0.1,0.4l-18.5-3.8l6.6,17.9l-0.5,0.1l-8.2-16.2l-0.7,18.5L212,214.3z M215.1,193.5l18.8,3.8l-18-6.9l18.5-4.6l-18.7,1.6l6.1-18.4
		l-9.8,16.9l-7.5-17.5l4,16.7l-17.8-8.6l16.3,10.7l-22.9-1l22.5,4.2l-17.1,8.3l17.9-5.9L196,208.4l14.4-12.3l1.8,18.2l0.7-19.4
		l8.6,17.1L215.1,193.5z"/>
	<path id="XMLID_98_" class="st3" d="M284.2,253.1l-7.1,13.1c1.2-0.1,2.3-0.5,3.3-1.2c3.4-2.2,5.6-5.7,6.1-9.7
		c0-0.6-0.1-1.3-0.5-1.8C285.5,253.3,284.8,253.2,284.2,253.1z M276.3,266.7l7.6-14h0.1c0.8-0.1,1.6,0.1,2.2,0.7
		c0.2,0.1,0.7,0.5,0.7,2.1c-0.5,4.1-2.8,7.8-6.3,10c-1.2,0.8-2.5,1.2-3.9,1.3H276.3z M284.1,252.9l-7.3,13.6
		c1.4-0.1,2.7-0.5,3.8-1.3c3.4-2.2,5.7-5.8,6.2-9.8c0-1.3-0.4-1.8-0.7-1.8C285.5,253.1,284.8,252.8,284.1,252.9L284.1,252.9z
		 M158.4,302.2c29.3,6.4,59.2,9.7,89.2,9.7h5.7c11.6,0,23.5-0.5,35.4-1.5c-9.9-6.9-11.4-17.3-11.9-21.3l-0.1-0.3
		c0,0-1.7-11.4-1.8-12.8c-0.2-1.1-0.7-2.2-1.3-3.1c-0.6,1.1-1.4,2.5-2.2,4c-1.8,3.2-3.8,6.9-4.6,8.4c-0.3,0.4-0.3,1,0,1.4
		c0.5,0.8,1.8,1.3,3.8,1.2h0.4l-4.5,7.2h-46.6l3-7.5h0.6c1.1,0,4.9-0.2,5.6-2.6l1.2-7.5h-8.5l-6.3,8.6c-0.3,0.4-0.4,0.5-0.3,0.7
		c0.1,0.4,1.3,0.8,3.8,0.8h1.4l-2.9,7.7l-1.6-0.1h-20.8l3.7-8h1.8c1.8-0.1,3.5-0.8,4.7-2.1c25.4-31.4,29.7-36.9,29.8-37
		c1.5-2,3.8-3.3,6.3-3.5h10.9l-0.4,3.1c-1.4,9.9-5.2,38-5.5,39.6l0.3,0.3c0.1,0,0.4-0.1,0.6-0.6l18.5-33.7c0.1-0.3,0.1-0.6-0.1-0.8
		c-0.7-1-3.8-1.3-5-1.3h-0.6l5.5-6.8h19.5c8.2,0,14.5,2.3,17.1,6.4c2,3,2.1,6.9,0.5,10.1c-2.5,6.3-8,10.9-14.5,12.4
		c2.4,3.2,4.4,6.7,5.9,10.3l32.8-54c-4.9-0.9-9.4-1.6-13.8-2.2l-3.2,1c-2.5,0.7-3.1,1-3.3,1l-10.8,3.2l0.2-2.7
		c0.3-1.6,0.8-3.2,1.6-4.6c-14.7-1.6-29.4-2.4-44.2-2.4h-5.7c-20.5,0-41,1.6-61.3,4.7l-14.8,24.1l-4.9-9.8l1.3-1.4
		c1.2-1.2,1.3-5.7,0.7-9.2c0-0.2,0-0.4-0.1-0.5c-7.4,1.4-14.8,3.1-21.9,4.8c1.3,7.7,7.5,15.2,7.5,15.2c4.5,5.5,14.5,19.7,12.5,35.1
		c0.3-0.2,0.6-0.4,0.9-0.7l17.4-31.8c0.1-0.3,0.1-0.6,0-0.9c-0.6-1-2.9-1.2-4.1-1.2h-0.1l-0.1-0.1c1-2.3,2.2-4.5,3.5-6.7l0.1-0.1
		h20.4c8.2,0,14.5,2.4,17.1,6.4c1.9,3,2.1,6.9,0.5,10.1c-3.4,8-11.2,13.2-19.9,13.1h-1.6c-2.6,0.1-5.3-0.2-7.8-0.8l-1.6,2.7
		c-2,3.7-4.6,8.3-5.2,9.7c-0.1,0.3-0.1,0.7,0.1,1c0.8,0.7,1.8,1,2.9,0.9c0.3,0,0.7,0,1-0.1l0.5-0.1l-4.7,7.7h-22.2
		C162.2,297.8,160.5,300.2,158.4,302.2z M253.2,312.4h-5.7c-30.2,0-60.3-3.3-89.8-9.9l-0.4-0.1l0.4-0.4c2.3-2.1,4.2-4.6,5.6-7.4
		l0.1-0.1h22.2l4-6.6H189c-1.2,0.1-2.4-0.2-3.3-1c-0.3-0.5-0.4-1-0.1-1.6c0.7-1.4,3.2-6.1,5.2-9.8l1.7-3l0.1,0.1
		c2.6,0.6,5.3,0.9,8,0.8h0.7c8.8,0.4,16.9-4.6,20.3-12.7c1.5-3.1,1.4-6.7-0.4-9.7c-2.7-3.9-8.7-6.1-16.8-6.1h-20.2
		c-0.9,1.6-2.6,4.9-3.2,6c1,0,3.5,0.1,4.1,1.3c0.3,0.4,0.3,1,0.1,1.5l-17.5,31.8c-0.4,0.4-0.9,0.7-1.4,1l-0.4,0.3l0.1-0.5
		c2.3-15.4-7.8-29.7-12.4-35.2c0,0-6.3-7.8-7.7-15.6l-0.1-0.1l0.2-0.1c7.2-1.8,14.8-3.5,22.4-5h0.1l0.1,0.1c0.1,0.3,0.2,0.6,0.3,0.8
		c0.5,3.1,0.6,8.2-0.8,9.7l-1.2,1.2l4.4,8.8l14.5-23.7h0.1c20.4-3.1,40.9-4.6,61.5-4.7h5.7c14.9,0,29.8,0.8,44.7,2.5h0.4l-0.2,0.4
		c-0.9,1.4-1.5,3-1.7,4.7L296,232l10.3-3c0.1,0,1.6-0.5,3.2-1l3.4-1c4.5,0.7,9.2,1.5,14.2,2.4h0.4l-0.1,0.4l-33.4,55.2l-0.2-0.4
		c-1.6-3.9-3.7-7.6-6.3-10.9l-0.3-0.4l0.4-0.1c6.6-1.4,12.1-5.9,14.6-12.2c1.5-3.1,1.4-6.7-0.4-9.6c-2.7-3.9-8.7-6.1-16.8-6.1h-19.2
		l-2.4,2.9l-2.4,2.9c1.2,0.1,4.1,0.4,5,1.6c0.2,0.4,0.3,0.9,0.1,1.3l-18.6,33.7c-0.3,0.6-0.7,0.9-1,0.9c-0.2,0-0.4-0.1-0.4-0.3
		c-0.2-0.1-0.3-0.3-0.3-0.5c0.1-1,4-29.7,5.5-39.6l0.3-2.6h-10.3c-2.4,0.2-4.5,1.4-5.9,3.3c-0.1,0.1-4.5,5.5-29.9,37
		c-1.3,1.4-3.1,2.2-5,2.3h-1.3l-3.2,6.9h20l1.3,0.1l2.4-6.5h-0.7c-2.5,0-3.9-0.4-4.3-1.2c-0.1-0.4,0-0.7,0.4-1.2l6.4-8.8h9.4l-1.3,8
		c-0.8,2.8-4.8,3-6.1,3h-0.1l-2.6,6.4h45.7l3.8-6.1c-1.4,0.2-2.8-0.4-3.8-1.4c-0.3-0.6-0.3-1.3,0-1.9c0.7-1.4,2.8-5.1,4.6-8.4
		c0.9-1.6,1.8-3.2,2.3-4.4l0.2-0.3l0.2,0.3c0.9,1,1.5,2.3,1.7,3.6c0.2,1.6,1.8,12.8,1.8,12.8l0.1,0.3c0.6,4,2.1,14.6,12.3,21.3
		l0.6,0.4h-0.7C277.1,312,264.9,312.4,253.2,312.4z M276.8,289.1v-0.3c0,0-1.7-11.4-1.9-12.8c-0.2-1.3-0.8-2.5-1.6-3.5
		c-1.9,3.5-5.8,10.6-6.9,12.7c-0.7,1.6,0.5,3,4,3l-1.8,3l-1.6,2.4l-0.7,1.2h-46.1l2.8-6.9c0,0,5.3,0.3,6.1-2.8l1.3-7.8h-8.9
		l-6.3,8.6c-1.8,2.2,4.8,1.8,4.8,1.8l-2.7,7.1l-1.5-0.1h-20.4l1.7-3.7l1.1-2.4l0.7-1.5h1.6c1.8-0.1,3.6-0.9,4.9-2.1
		c25.7-31.9,29.8-37,29.8-37c1.4-2,3.6-3.2,6.1-3.5h10.6l-0.4,3c-1.6,10.7-5.4,38.7-5.5,39.6c0,0.1,0.4,1.2,1.3-0.3l18.5-33.7
		c0.9-2.4-5.3-2.4-5.3-2.4l2.7-3.2l1.7-2.1l0.8-1h19.3c8,0,14.2,2.3,16.9,6.3c1.9,2.9,2.1,6.7,0.5,9.8c-2.6,6.3-8.1,10.9-14.8,12.3
		c2.6,3.4,4.7,7.1,6.3,11.1l33.2-54.8c-4.7-0.9-9.4-1.6-14.2-2.4c-2.2,0.7-6.6,2.1-6.6,2.1l-3.1,0.9l-5.2,1.5l-2.1,0.7l0.1-2.3
		c0.3-1.7,0.9-3.3,1.8-4.7c-14.8-1.6-29.7-2.5-44.7-2.5h-5.7c-20.6,0-41.1,1.6-61.4,4.7l-12.3,20l-2.4,3.8l-2.1-4.1l-1.8-3.7
		l-0.7-1.6l1.2-1.3c1.3-1.3,1.3-6.3,0.8-9.4c-0.1-0.3-0.2-0.6-0.3-0.8c-7.8,1.6-15.3,3.2-22.3,5c1.3,7.7,7.3,15.2,7.7,15.6
		c4.7,5.7,14.6,19.9,12.4,35.4c0.5-0.3,0.9-0.6,1.3-1l17.5-31.8c1.1-2.5-4.4-2.4-4.4-2.4l3.5-6.4h20.4c8,0,14.2,2.2,16.9,6.3
		c1.9,3,2.1,6.7,0.5,9.9c-3.5,8.1-11.6,13.2-20.4,12.9c-3,0.1-5.9-0.2-8.8-0.9c-2.1,3.9-6,10.9-6.9,12.7c-0.9,2.8,4.4,2.2,4.4,2.2
		l-2.1,3.4l-1.6,2.5l-0.7,1.2h-22.2c-1.4,2.9-3.3,5.4-5.7,7.5c29.5,6.5,59.5,9.8,89.7,9.9h5.8c12.4,0,24.5-0.6,36.1-1.6
		C279,303.9,277.5,293.3,276.8,289.1z M372.1,252.9c-1.7,0-3.2,0.7-4.2,2.1c-1.8,3.1,2,8.5,3.4,10.1c3,3.4,9.5,12.2,6.6,21.4
		c-1,3.3-3.1,6.1-6,7.9c32.3-10,53.7-21.8,53.7-27c0-4.7-18.3-15.6-48.9-25.5c0.1,1.3,0.3,1.9,0.3,2l0.1,2.5
		c1.3,0.6,2.6,1.3,3.8,2.1h0.1c0.3,0.2,0.6,0.3,0.9,0.4c0.7,0.4,2.4-0.4,3.1-1l2.2-1.6h0.1c0.1,0,0.1,0,1.7,2.4l2,3.2l-11.3,17.1
		l-4.2-7.7l1.4-1.5c0.2-1.1,0.3-2.2,0.1-3.3c-0.7-2-2.4-3.4-4.5-3.6C372.5,252.9,372.3,252.9,372.1,252.9z M369.2,295.8l-0.1-0.4
		c4.1-1.5,7.2-4.8,8.5-9c2.9-9-3.7-17.6-6.6-20.9c-1.6-1.8-5.5-7.2-3.5-10.6c1.9-2.6,5.5-3.1,8.1-1.2c1,0.7,1.7,1.7,2.1,2.9
		c0.2,1.3,0.1,2.5-0.1,3.8l-1.3,1.3l3.7,6.7l10.7-16.2l-1.8-2.9c-0.5-0.7-1-1.6-1.4-2.1l-1.9,1.5c-0.9,0.7-1.9,1.1-3,1.2
		c-0.3,0-0.6-0.1-0.8-0.1c-0.2-0.2-0.5-0.4-0.8-0.5l-0.1-0.1c-1.2-0.8-2.5-1.5-3.8-2.1l-0.1-0.1l-0.1-2.9c-0.1-0.7-0.2-1.5-0.4-2.2
		v-0.4l0.4,0.1c28.3,9.1,49.7,20.3,49.7,26.1C426.2,272.9,404.4,285.3,369.2,295.8z M376.4,241.6c0.2,0.8,0.3,1.5,0.4,2.3l0.1,2.6
		c1.4,0.6,2.7,1.3,3.9,2.1c0.3,0.2,0.6,0.3,1,0.5c0.9,0.5,2.7-0.4,3.5-1l2.1-1.6l1.5,2.3l1,1.6l0.9,1.4l-0.9,1.3l-7.8,11.8l-2.4,3.5
		l-2-3.7l-1-1.8l-0.9-1.7l1.3-1.3c0.3-1.2,0.4-2.4,0.1-3.5c-1-2.9-4.1-4.5-7-3.5c-1.1,0.4-2,1-2.7,1.9c-1.8,3.3,1.8,8.6,3.5,10.4
		c3,3.3,9.4,12,6.6,21.1c-1.2,4.3-4.5,7.6-8.6,9.1c34.9-10.3,56.8-22.7,56.8-28C425.9,262.4,407,251.5,376.4,241.6z M227.5,270.1
		h4.1l1.2-6.6L227.5,270.1z M232.1,270.7h-5.6l6.6-8l0.4,0.1L232.1,270.7z M233.3,262.7l-6.3,7.8h4.9L233.3,262.7z M203.6,253.1
		l-7.1,13.1c1.2-0.2,2.3-0.6,3.3-1.3c3.4-2.2,5.6-5.7,6.1-9.7c0.1-0.6-0.1-1.2-0.5-1.7C204.8,253.2,204.2,253.1,203.6,253.1z
		 M195.6,266.7l7.7-14h0.1c0.8-0.1,1.6,0.2,2.2,0.7c0.5,0.6,0.8,1.3,0.7,2.1c-0.5,4.1-2.8,7.8-6.3,10c-1.2,0.8-2.6,1.2-4,1.3H195.6z
		 M206.2,255.4c0-1.4-0.4-1.8-0.7-2c-0.6-0.4-1.3-0.5-2.1-0.5l-7.4,13.5c1.4,0,2.7-0.5,3.8-1.3C203.4,263,205.7,259.4,206.2,255.4z
		 M298.4,295.1c2.1,5.6,5,10.9,12.6,11.4h0.3c0.1,0,0.7,0.1,1.4,0.1c3.4,0,12.3-1.2,21-11.6h-9.8c-2.7,0-5.1-2-5.7-4.7
		c0-0.1-0.9-4.1-1.8-8.3l-0.9-3.8l-4.3,7.5c-0.2,0.4-0.1,0.8,0.1,1.2c0.4,0.5,1.4,0.8,3,0.8h1.6l0.1,0.1c0.1,0.1,0.1,0.1-1.8,3.5
		l-2.4,3.8L298.4,295.1z M312.6,307.2h-1.7c-8-0.7-11.1-6.3-13.2-12.3l-0.1-0.3h13.7l2.2-3.5c0.5-0.9,1.3-2.1,1.6-2.7h-1
		c-1.2,0.2-2.5-0.2-3.4-1c-0.3-0.5-0.4-1.2-0.1-1.7l5-8.7l1.1,5c1.8,8.4,1.8,8.4,1.8,8.5c0.6,2.4,2.7,4.1,5.2,4.1h10.9l-0.3,0.3
		C325.3,306,316.2,307.2,312.6,307.2L312.6,307.2z M312.3,293.7l-0.7,1.2H298c2.1,5.6,5,11.4,13,12h0.3c0.5,0.1,11.8,1.5,23-12
		h-10.3c-2.6,0-4.9-1.9-5.5-4.4c0,0-1.7-7.2-2.9-12.7l-4.7,8c-1,3,4.7,2.3,4.7,2.3l-1.9,3.1L312.3,293.7z M346.8,276h8.3l-2.1,4
		c-1.6,3.2-2,5.9-1.2,7.6c0.5,1,1.3,1.7,2.4,2.1l0.4,0.1c0.7,0.1,1.4,0.2,2.1,0.2c2.1,0.1,4-1.1,4.8-3c1-1.8,1-5.2-4-11l-0.1-0.1
		l-0.4-0.4l-0.1-0.1c-2.1-2.1-8.4-8.6-4.9-18.2c3.2-8.5,12.1-13.5,21-11.7c0.4,0,0.7,0.1,1.1,0.1l-9.4-7.1
		c-8.1-2.3-16.5-4.4-25.1-6.2l-15.1,28.9l12.2-9.2c0.2-0.2,0.3-0.5,0.3-0.7c-0.3-0.5-0.7-0.8-1.2-1l-0.3-0.1l2.4-5.6h20.1l-3.5,7.6
		h-1.8c-2,0-4,0.7-5.6,1.9c-0.8,0.5-4.3,3.2-8.2,6.3l-7.8,6l3.9,20.7c0.1,0.5,1,0.7,1.3,0.7h2.6L346.8,276z M356.7,290.4
		c-0.7,0-1.4-0.1-2.1-0.1l-0.4-0.1c-1.2-0.4-2.1-1.2-2.7-2.3c-0.9-2-0.5-4.7,1.2-8l1.7-3.3h-7.2l-0.7,1l-7.3,10.7h-2.9
		c0,0-1.5-0.1-1.7-1.1l-3.9-21.1l8-6.1c4-3.1,7.5-5.8,8.3-6.3c1.7-1.2,3.8-1.9,5.9-2h1.4l3.1-6.6h-18.8l-2.1,4.9
		c0.6,0.2,1,0.7,1.3,1.3c0,0.4-0.1,0.8-0.4,1.1l-13.1,10l-0.4-0.4l15.8-30.3l0.2,0.1c8.6,1.8,17.1,3.9,25.3,6.2l0.1,0.1l10.3,7.8
		l-0.1,0.4c-0.8-0.1-1.5-0.3-2.1-0.4c-1.1-0.2-2.3-0.4-3.5-0.4c-7.6-0.3-14.5,4.5-17.1,11.7c-3.3,9.4,2.7,15.6,4.7,17.7l0.2,0.2
		l0.3,0.3l0.1,0.1c5.2,6.1,5,9.7,4,11.6C361,289.2,358.9,290.5,356.7,290.4z M323.9,262l13-10c1.2-1.3-1-2.1-1-2.1l2.3-5.2h19.5
		l-1.7,3.7l-1,2l-0.7,1.6h-1.5c-2.1,0-4.1,0.7-5.7,2c-1,0.7-5.1,3.8-9.5,7.2l-6.6,5.1l3.9,21c0.1,0.8,1.4,0.9,1.4,0.9h2.7l7.2-10.6
		l0.8-1.1h7.8l-1.8,3.7c-1.6,3.2-2.1,6-1.2,7.8c0.5,1,1.4,1.8,2.5,2.2c0.1,0,0.3,0.1,0.5,0.1c2.4,0.4,5.2,0.4,7.1-3
		c1-1.8,1.1-5.4-4-11.4l-0.1-0.1l-0.5-0.5c-2.1-2.1-8.3-8.4-4.8-17.9c4.1-11.5,15.3-12.6,20.7-11.5c0.8,0.1,1.5,0.2,2.2,0.4l-1-0.7
		l-9.3-7.1c-7.8-2.2-16.4-4.4-25.4-6.3L323.9,262z M116.7,290.5c6.3,2.2,13.2,4.4,20.4,6.3c0.9-1,1.6-2.2,2.2-3.4
		c2.1-4.4,2.6-12.3-7.5-25.2l-0.1-0.2c-0.1-0.1-0.4-0.5-0.8-0.9l-0.3-0.3c-3.1-3.4-10.5-11.5-10-23.8c-28.6,9.5-45.7,19.9-45.7,24.4
		c0,3.2,9,10.1,28.9,18.2l7.8-12.6h10.2l-1.8,4C117.7,281.1,116.6,285.8,116.7,290.5z M137.3,297.4h-0.1c-7.2-2.1-14.2-4.2-20.7-6.5
		l-0.1-0.1v-0.1c-0.4-3.9,0.7-8.6,3.1-14l1.6-3.2h-9l-0.7,1.1l-7.2,11.6l-0.1-0.1c-17.9-7.2-29.5-14.6-29.5-18.7
		c0-5.5,20-16.2,46.4-25l0.4-0.1v0.4c-0.6,12.3,6.7,20.4,9.9,23.8l0.3,0.3c0.4,0.4,0.7,0.7,0.8,1l0.2,0.2
		c10.2,13.1,9.7,21.2,7.5,25.6c-0.7,1.3-1.5,2.5-2.4,3.7L137.3,297.4z M131.8,267.9c-0.3-0.4-0.6-0.8-1-1.2
		c-3.2-3.5-10.6-11.7-10-24.1c-28.7,9.5-46.2,19.9-46.2,24.7c0,3.8,10.8,11,29.3,18.5l7.1-11.4l0.7-1.2h9.6l-1.6,3.6
		c-2.3,4.2-3.4,8.9-3.2,13.7c6.3,2.2,13.2,4.4,20.7,6.5c0.9-1.1,1.7-2.3,2.3-3.5c2.2-4.4,2.7-12.4-7.5-25.5L131.8,267.9z
		 M344.6,293.6c-0.1,0.2-0.3,0.3-0.4,0.5l-0.6,0.9c-2.1,3-4.5,5.8-7.2,8.4c8.9-1.8,17.5-3.8,25.8-6.2c-1.3,0.1-2.5,0.1-3.9,0.1
		c-4.3-0.3-8.6-1.6-12.3-3.8c-0.3-0.2-0.6-0.3-0.9-0.3C345,293.3,344.7,293.4,344.6,293.6z M334.9,304.3l0.7-0.6
		c2.9-2.7,5.4-5.7,7.7-8.9l0.5-0.9l0.4-0.6v-0.1c0.3-0.2,0.7-0.4,1-0.4c0.4,0,0.8,0.1,1,0.4c3.7,2.1,7.8,3.3,12,3.7
		c2.5,0.1,5-0.1,7.5-0.6l0.1,0.4c-9.7,2.8-19.9,5.2-30.3,7.4L334.9,304.3z M358.4,297.1c-4.3-0.3-8.5-1.6-12.3-3.7
		c-0.5-0.4-1.2-0.4-1.7,0.1c-0.3,0.2-0.5,0.5-0.6,0.8l-0.4,0.7c-2.3,3.3-4.9,6.3-7.8,9c10.9-2.2,21-4.7,30.2-7.4
		C363.4,297,360.9,297.2,358.4,297.1L358.4,297.1z"/>
	<path id="XMLID_101_" class="st2" d="M204.3,247.2h-18.5l-1.2,2.1c0,0,5.5,0.3,3.5,3.7c-1.9,3.5-18.7,33.9-18.7,33.9
		c-1.7,2-4.2,3.1-6.8,3l0.1-0.4c4.9-16.7-7.7-33-11.1-37.1c-3.4-4.1-11.9-16.9-6.9-26.4c5-9.4,21.8-10.4,26.4,4.5
		c0,0,1.6,8.8-1.4,11.8l1.8,3.7l14.2-23.3l-1.8-3.2c0,0-6.4,5.4-11.4,2.3c-3.3-2.1-9-6.4-14.5-6.7c0,0-24.6-5.5-33.1,19.5
		c-6.1,18.1,6.6,28.9,8.9,31.8c2.3,2.9,13.6,16.9,8,28.3c-3.1,7.2-11.2,10.7-18.6,8.2c-2.7-0.7-15.4-6.7-5.9-27.1h-4.2l-17.1,27.6
		h4.9c0,0,4.1-6.6,10.3-3c5,3,12.9,6.5,20.3,6.7c9,0.3,24.3-0.7,30.1-14.8h22.4l1.5-2.5c-3.3-0.3-4.3-1.6-3.2-3.8
		c1.2-2.1,8.8-16.2,8.8-16.2s2.1,1.6,10,1.4c0,0,13.1,0.7,18.2-11.4C223,251.1,214.4,247.2,204.3,247.2z M192.3,268.1l9.6-17.7
		c0,0,6.8-1.4,6.8,4.8C208.7,261.6,200.5,272.1,192.3,268.1z"/>
	<path id="XMLID_113_" class="st2" d="M306.1,331.7l1,9.8l1.2-9.4l5.5,5l-5.5-6.6l7.5,2.9l-6.9-3.5l7.5-4.5l-8.5,3.3l4.9-7.3
		l-5.6,6.1l-3.8-8.5l2.1,9.3l-7.8-3.5l6.2,4.2l-7.9,2.3l8.3-1.3l-8.2,6.9l9.1-5.6l-3,7.6L306.1,331.7z M307.4,343.8h-0.5l-1.1-10.4
		l-5,8.9l-0.4-0.2l3.8-9.6l-10.7,6.6l-0.2-0.4l9.4-8l-10.3,1.6l-0.1-0.4l10.5-3.1l-7.8-5.4l0.3-0.4l9.7,4.4l-2.2-10.7l0.4-0.1
		l4.4,10l7.2-7.8l0.4,0.4l-5.8,8.4l9.9-3.8l0.1,0.5l-9.3,5.5l9.7,5.2l-0.2,0.4l-9.5-3.7l6.7,8l-0.4,0.3l-7.5-6.9L307.4,343.8z
		 M309.5,329.8l9.7-5.7l-10.6,4.1l6.1-9.3l-7.5,8l-4.6-10.3l2.4,11.1l-10.1-4.7l8.4,5.7l-11.1,3.3l11.3-1.8l-10.3,8.5l11.4-6.9
		l-4.1,10.3l5.4-9.6l1.3,11.1l1.3-11.1l8,7.2l-7.3-8.6l10.5,3.9L309.5,329.8z M192.6,268c1,0.5,2.2,0.7,3.3,0.7
		c6.7,0,12.5-8.4,12.5-13.4c0.2-2.5-1.6-4.6-4.1-4.8c-0.3,0-0.6,0-0.9,0c-0.4,0-0.9,0-1.3,0.1L192.6,268z M195.9,269.3
		c-1.3,0-2.6-0.3-3.8-0.9l-0.3-0.1l9.8-18.1h0.1c0,0,0.7-0.1,1.6-0.1c2.7-0.3,5.2,1.6,5.5,4.3c0,0.3,0,0.6,0,0.9
		C209,260.7,203,269.3,195.9,269.3z M107.8,299c1.3,0,2.6,0.4,3.8,1.1c3.3,2,12,6.5,20.2,6.8h2.1c14.5,0,23.6-4.8,27.7-14.6l0.1-0.1
		H184l1.3-2c-1.7-0.3-2.8-0.7-3.2-1.6c-0.4-0.9-0.3-1.8,0.3-2.6c1.1-2.1,8.7-16.2,8.8-16.2l0.1-0.3l0.2,0.1c0,0,2.2,1.6,9.8,1.4h0.4
		c2.1,0,13.1-0.5,17.4-11.1c1.2-2.3,1.1-5.1-0.3-7.2c-2.1-3.2-7.6-5.1-14.5-5.1h-18.3l-1,1.6c0.9,0.1,2.9,0.4,3.5,1.7
		c0.4,0.8,0.3,1.7-0.2,2.4c-1.8,3.4-18.5,33.6-18.7,33.8c-1.7,2.1-4.4,3.3-7.1,3.1h-0.4l0.1-0.3l0.1-0.2h0.1
		c4.6-15.6-6.2-31-11-36.8c-4.7-5.8-11.6-17.9-6.9-26.7c2.5-4.5,7.3-7.2,12.4-7.1c6.8,0,12.2,4.4,14.4,11.5c0.1,0.4,1.4,8.7-1.3,12
		l1.6,3l14-22.8l-1.7-2.8c-2.2,1.8-5,2.9-7.9,3.1c-1.2,0-2.5-0.3-3.5-1c-0.6-0.3-1.3-0.7-1.8-1.2c-3.4-2.2-8-5.2-12.5-5.5
		c-1.9-0.3-3.9-0.5-5.8-0.5c-7.6,0-21.1,2.6-26.9,19.9c-5.3,15.8,3.8,25.9,7.7,30.2c0.4,0.4,0.8,0.9,1.2,1.3l0.1,0.1
		c11.1,14.2,10.3,23.3,7.8,28.4c-3.7,7.5-9.4,9.1-13.7,9.1c-1.7,0-3.5-0.3-5.2-0.7c-3.6-1.2-6.6-3.9-8.2-7.3
		c-2.4-5.1-1.7-11.8,2-19.9h-3.8l-16.7,26.9h4.4C102.6,300.6,105.1,299.2,107.8,299z M133.9,307.4h-2.1c-8.3-0.3-17.1-4.8-20.4-6.9
		c-1.1-0.6-2.3-0.9-3.5-1c-3.9,0-6.4,3.9-6.5,3.9l-0.1,0.1h-5.5l17.3-28h4.7l-0.2,0.3c-3.8,8-4.5,14.7-2.1,19.9
		c1.6,3.3,4.4,5.8,7.8,6.9c1.7,0.5,3.4,0.7,5.1,0.7c4,0,9.6-1.5,13.2-8.8c2.5-5,3.2-14-7.8-27.8l-0.1-0.3c-0.4-0.5-0.8-0.9-1.2-1.3
		c-3.9-4.3-13.1-14.5-7.7-30.6c6-17.6,19.8-20.2,27.5-20.2c2,0,3.9,0.2,5.8,0.5c4.7,0.3,9.3,3.2,12.7,5.5c0.6,0.4,1.3,0.8,1.8,1.3
		c1,0.6,2.2,0.9,3.3,0.9c2.9-0.3,5.6-1.4,7.8-3.2l0.1-0.1l2.1,3.5l-14.6,23.8l-2.1-4.2l0.1-0.1c2.7-3,1.3-11.5,1.3-11.6
		c-2.1-7-7.3-11.1-14-11.1c-4.9-0.1-9.5,2.5-11.9,6.8c-4.5,8.5,2.1,20.4,6.9,26.1c4.8,6,15.6,21.6,11.1,37.3c2.4,0,4.7-1,6.3-2.9
		c0.1-0.3,16.9-30.5,18.7-33.9c0.4-0.8,0.4-1.3,0.1-1.8c-0.7-1.3-3.5-1.4-3.5-1.4h-0.4l1.6-2.6h18.6c7.2,0,12.8,1.9,14.9,5.2
		c1.5,2.3,1.6,5.3,0.3,7.7c-4.5,11-15.7,11.5-17.9,11.5h-1.2c-3.1,0.2-6.3-0.2-9.2-1.3c-1,1.8-7.6,14-8.6,16.1
		c-0.4,0.6-0.5,1.4-0.3,2.1c0.4,0.7,1.5,1.2,3.2,1.3l0.4,0.1l-1.8,2.9h-22.4C157.8,302.4,148.3,307.4,133.9,307.4z"/>
	<path id="XMLID_119_" class="st0" d="M302.3,327.1l3.8,1.8l-1-4.7l1.8,3.7l2.6-2l-1.6,2.7l2.1-0.1l-1.9,0.9l2.7,1.8l-3-1.1l1.3,2.1
		l-1.5-1l-0.5,3.9l-1-4.4l-1.3,2.3l0.7-2.4l-2.9,1.6l2.7-2.3l-2.9,0.1l2.4-0.8L302.3,327.1z M250.3,335.1l5.5,6.1l1.8-9.3l0.6,8
		l6-1.7l-4.9,3.7l4,1.5l-4.1,0.1l3.3,5.3l-4.3-4.2l0.7,4.8l-1.9-3L253,353l1.6-8.6l-4.1,3.1l3-3.8l-6.4,0.5l6.7-2.1l-5.2-2.1
		l4.9,0.4L250.3,335.1z M186.4,331.7l6.1,0.7l-3.7-6.1l4.4,4.2l2.5-3.9l-1,4.4l3-1.2l-2.3,2.1l4.5,1.3l-4.5-0.1l2.8,2.2l-2.5-0.7
		l1.2,5.6l-3.4-5.5l-0.7,3.8l-0.2-3.6l-3.3,3.5l2.7-4.5l-3.8,1.5l2.9-2.3L186.4,331.7z M252.8,199l3.4,1.6l-0.9-4.4l1.7,3.3l2.2-1.8
		l-1.4,2.4l2-0.1l-1.8,0.7l2.4,1.7l-2.6-1l1.2,1.8l-1.3-0.9l-0.4,3.5l-1-3.9l-1.2,2.1l0.7-2.1l-2.7,1.4l2.4-2.1l-2.6,0.1l2.1-0.7
		L252.8,199z M209.1,182l2.7,6.5l4.3-7.1l-1.8,6.8l5.5,0.3l-5.1,1.6l3,2.4l-3.5-1.2l1.3,5.4l-2.4-4.7l-0.8,4.1l-0.7-3l-5.1,4.3
		l3.8-6.6l-4.3,1.4l3.7-2.2l-5.5-1.4l6.1,0.1l-3.8-3.2l3.9,1.8L209.1,182z"/>
	<path id="XMLID_123_" class="st3" d="M364.7,235.3l9.7,7.4c-1.6-9-5.8-17.3-12-23.9l-0.1-0.1l0.7-0.9l4.1,2.5
		c3,1.9,6.7,4.2,8.7,5.4c0.1-0.9,0.2-2.7,0.2-4.4v-0.1l1.2-0.1v0.1c0.7,2.1,1.5,4.1,2.5,6.1l5.8,3.2c0.2-1.5,0.4-3,0.4-4.6v-0.1
		l1.2-0.1v0.1c1.3,3.7,2.5,6.9,2.7,7.5c4.5,2.5,10.8,5.8,13.2,6.9c-0.5-3.4-4-16.1-26.3-30l-0.1-0.1l0.4-1l0.1,0.1
		c0.9,0.3,7.8,2.1,10.9,2.8l0.4,0.1l-1-7.6l1.3,1.8l5.5,7.2l8.1,2l-0.4-6.8l0.4-0.1l0.7,1.2l4.6,7.3l12.4,2.8
		c-10.5-15-25.6-18.8-37.8-21.8c-3.3-0.9-6.3-1.6-9-2.5l-0.2-0.1l0.1-1.1l10.3-0.8l-1.7-5.4l1.5,1.2l5,3.5l5.7-0.4l-3.5-5.8
		l10.2,5.1l14.6-1.6c-11.4-6.7-19.8-8.9-44.2-9.4h-1.2l0.7-1c0.4-0.4,0.8-1.1,1.3-1.8l0.1-0.1c1-1.4,2.7-3.7,5.1-6.8l-4.8-3.3h1.7
		l6.3-0.4c0.3-0.4,0.8-1,1.3-1.7c0.3-0.3,0.5-0.6,0.7-0.9c0.2-0.3,0.4-0.5,0.6-0.7l-5.4-2.9l8.1-0.5c4.4-5.2,9.2-10.5,10.9-12.3
		c-20.1,0.5-32.9,16.1-39.1,23.7c-1,1.4-2.1,2.7-3.4,3.8l-0.7,0.7l-0.2-1c-0.2-1.3-0.4-2.7-0.7-4c-1.7-10-3.8-22.4-19.5-34.5
		l1.7,10.3l7.8,5.2l-6.9,0.1l0.7,4.2l7.8,4.5l-7.1,0.4c0.3,2.1,1.6,10.2,1.7,11.5l0.1,1.2l-1-0.6c-1.1-0.6-2.1-1.3-3.1-2
		c-5.8-3.9-14.6-9.9-32.2-9.9c-5,0-9.9,0.5-14.8,1.3l0.1,0.1c3,1.6,8.6,4.3,11.4,5.8c2.9-0.7,5.8-1.5,8.6-2.5l2.1-0.7l-5.2,5.9
		l3.2,1.6l10.2-2.1l-1.6,1.6c-1.1,1-2.2,2.1-3.1,3.2c1.5,0.8,3.2,1.7,4.9,2.7c1.5,1,3,1.8,4.7,2.6l0.1,0.1l-0.2,1.1h-0.2
		c-1-0.1-2.2-0.4-3.5-0.5l-0.4-0.1c-5.7-1-11.4-1.6-17.2-1.6c-11.5,0.1-22.9,2.5-33.5,6.9c3,0.4,9.7,1.3,12.1,1.8
		c2.7-1.1,5.3-2.3,7.8-3.8l0.1-0.1l0.7,0.9l-0.2-0.1c-1.3,1.3-3,3-3.7,3.9c1,0.1,1.9,0.3,2.7,0.4c1.3,0.1,2.6,0.4,3.9,0.7
		c2.5-0.8,4.9-1.8,7.2-3l1.9-0.9l-1.3,1.8c-0.6,0.9-1.2,1.9-1.6,3c8,1.6,22.4,3.7,28.6,4.4h0.1l0.1,1.1l-0.1,0.1
		c-2.2,0.5-4.5,0.9-6.7,1h-0.3c-10.9,1.3-28.9,3.5-40.4,18.4l13.7-2.2l7.8-7.2l-2,6.7l5.9-1l6.8-7.3l-0.9,6.9c2-0.3,6.9-1,8.4-1.2
		h0.1l0.3,1.1l-0.1,0.1c-16.6,5.7-20.5,13.8-21.3,16.8c1.3-0.4,4.2-1.3,4.2-1.3l3.1-0.9l7.5-2.4l4.8-6.9l-0.1,5.6l3.9-1l3.9-6.7
		l0.1,6l15.7-4.9l0.2,0.1l12.2,10.6l0.9-3.8h1.1l1.4,6.3l3.2,2.4l0.7-4.4l1.1-0.1L364.7,235.3z M375.1,243.9l-10.7-8.2l-2.2-7.4
		h-0.3l-0.8,4.9l-4-3.1l-1.4-5.9h-0.3l-1,4.3l-12.8-11.1h-0.1l-16,5l-0.1-5l-3.2,5.4l-4.7,1.3l0.1-4.7l-4,5.8l-7.7,2.4v-0.1
		c-0.4,0.1-1.1,0.4-3.1,1c0,0-3.8,1.1-4.7,1.3l-0.4,0.1l0.1-0.4c0.7-2.7,4-11.4,21.6-17.5l-0.1-0.3c-1.8,0.3-6.8,0.9-8.6,1.2
		l-0.4,0.1l0.8-5.9l-5.9,6.3l-6.7,1l1.6-5.7l-6.6,6.2l-15,2.4l0.4-0.5c11.6-15.6,30-17.8,41.1-19.1l0.3-0.1c2.2-0.2,4.3-0.5,6.4-1
		v-0.2c-6.4-0.7-20.7-2.9-28.7-4.4l-0.3-0.1l0.1-0.3c0.4-1.2,1-2.3,1.8-3.4l0.1-0.3l-0.3,0.1c-2.4,1.2-4.8,2.2-7.4,3h-0.1
		c-1.4-0.3-2.7-0.4-3.9-0.7c-1-0.1-2.1-0.4-3.1-0.5l-0.4-0.1l0.3-0.4c0.6-0.7,2.3-2.6,3.8-4.1l-0.1-0.2c-2.5,1.5-5.1,2.9-7.8,3.9
		c-2.9-0.5-11.4-1.7-13.1-1.8l-0.9-0.1l0.8-0.3c10.9-4.7,22.7-7.2,34.6-7.3c5.8,0.1,11.6,0.6,17.3,1.6l0.4,0.1
		c1.2,0.1,2.3,0.4,3.3,0.4l0.1-0.2c-1.6-0.7-3.1-1.6-4.6-2.6c-1.8-1-3.5-2.1-5.2-2.9l-0.2-0.1l0.1-0.3c1.1-1.3,2.2-2.5,3.5-3.7
		l0.2-0.2l-8.5,1.8l-4-1.8l4.6-5.1l-0.4,0.1c-3.2,1-8.1,2.4-8.8,2.4h-0.1c-3-1.4-8.5-4.4-11.5-5.8l-1.6-0.8l0.7-0.1
		c5.2-0.9,10.5-1.4,15.7-1.4c17.6,0,26.4,6,32.3,9.9c1.2,0.8,2.1,1.5,3.1,2.1l0.2,0.1v-0.1c-0.1-1.3-1.5-10.1-1.8-11.7l-0.1-0.3
		l5.9-0.3l-6.5-3.7l-0.9-5.1l5.9-0.1l-6.6-4.5l-2-11.9l0.5,0.4c16.2,12.3,18.4,24.9,20.2,35.1c0.1,1.3,0.4,2.7,0.7,4.1l0.1,0.1
		l0.1-0.1c1.2-1.1,2.3-2.4,3.3-3.8c6.3-7.6,19.4-23.6,40.1-23.8h0.5l-0.4,0.4c-1,1.2-6.4,7.1-11.3,12.7l-0.1,0.1l-6.6,0.5l4.4,2.3
		l-0.2,0.3c-0.2,0.3-0.4,0.6-0.7,0.9c-0.3,0.3-0.5,0.6-0.7,0.9c-0.6,0.7-1.2,1.4-1.4,1.8l-0.1,0.1h-0.1l-6.6,0.4l0.2,0.2l3.8,2.5
		l-0.1,0.5c-2.5,3.2-4.2,5.5-5.4,6.9v0.1c-0.6,0.8-1,1.3-1.4,1.8l-0.1,0.1h0.1c25.1,0.4,33.2,2.9,45.2,9.8l0.7,0.4l-16.3,1.8
		l-0.1-0.1l-8.6-4.3l0.1,0.2l2.9,4.7l-6.7,0.5l-5.4-3.8l1.4,4.4l-10.6,0.9v0.2c2.7,0.9,5.5,1.7,8.8,2.4c12.4,3.1,27.9,7,38.5,22.6
		l0.3,0.5l-13.9-3l-4.9-7.8l0.4,6.6l-9-2.1l-5.8-7.8l0.8,6.5l-1.2-0.3c-2.8-0.7-9.2-2.2-10.6-2.7l-0.1,0.3
		c23.5,14.7,26.1,28.1,26.4,30.7l0.1,0.4l-0.8-0.4c-2.4-1.3-8.8-4.6-13.3-7.1l-0.1-0.1c-1.1-2.4-2-4.9-2.8-7.5h-0.3
		c-0.1,1.6-0.3,3.2-0.7,4.7l-0.1,0.4l-2.5-1.3l-4-2.4c-0.4-0.5-2.1-5.1-2.4-6.1l-0.3,0.1c-0.1,1.7-0.2,3.8-0.4,4.7l-0.1,0.4
		l-0.3-0.2c-2-1.2-5.8-3.5-9-5.5l-3.8-2.4l-0.1,0.2c6.4,6.8,10.6,15.4,12.2,24.6L375.1,243.9z M382.5,197.5
		c-3.2-0.8-6.3-1.6-8.9-2.5l0.1-0.7l10.4-0.8l-1.2-3.8l-0.4-1l0.9,0.7l5,3.7l6.3-0.4l-2.7-4.4l-0.7-1l1.1,0.5l8.4,4.2l15.5-1.7
		c-12-7-20.2-9.4-45.1-9.7h-0.7l0.4-0.6c0.4-0.4,0.9-1.1,1.5-1.8c1.1-1.6,2.7-3.8,5.4-7.1l-3.5-2.4l-0.9-0.6h1l6.3-0.4
		c0.5-0.6,1-1.1,1.4-1.8c0.5-0.7,1.2-1.3,1.6-1.8l-3.8-2l-1-0.6l1.2-0.1l6.1-0.4c4.6-5.2,9.7-10.9,11.4-12.7
		c-20.5,0.1-33.6,16.1-39.9,23.8c-1,1.3-2.1,2.6-3.3,3.8L354,176l-0.1-0.6c-0.3-1.3-0.4-2.6-0.7-4c-1.8-10.2-3.9-22.8-20.1-35
		l1.8,11l6.3,4.3l0.9,0.7h-1.1l-5.2,0.1l0.7,4.7l6.2,3.5l1,0.5l-1.3,0.1l-5.2,0.3c0.3,2,1.6,10.5,1.8,11.8l0.1,0.7l-0.6-0.3
		c-1-0.6-2-1.3-3.1-2.1c-7.4-4.9-19.6-13.1-47.9-8.5c2.5,1.3,9.1,4.7,12.3,6.3c3-0.6,5.9-1.4,8.8-2.4l1.3-0.4l-0.9,1l-4,4.6l3.7,1.7
		l8-1.8l1.3-0.2l-1,0.8c-1.2,1-2.3,2.2-3.3,3.5c1.6,0.8,3.3,1.8,5.2,2.9c1.5,1,3.1,1.9,4.7,2.6l-0.1,0.7c-1.2-0.1-2.6-0.4-3.9-0.6
		c-17.4-3.5-35.5-1.5-51.7,5.7c3,0.4,10.5,1.4,13.1,1.8c2.8-1.1,5.4-2.4,8-3.9l0.4,0.5c-1.4,1.3-2.7,2.7-3.9,4.2
		c1.1,0.1,2.2,0.4,3.2,0.5c1.2,0.1,2.4,0.4,3.8,0.7c2.5-0.7,5-1.7,7.3-3l1.2-0.5l-0.7,1c-0.7,1-1.4,2.1-1.8,3.3
		c8.2,1.6,22.7,3.7,28.9,4.4l0.1,0.7c-2.3,0.5-4.6,0.9-6.9,1.1c-11,1.3-29.4,3.5-40.9,19l14.3-2.3l6.3-5.9l0.9-0.8l-0.4,1.3l-1.5,5
		l6.3-1l5.6-6.1l0.7-0.8l-0.1,1.2l-0.7,5.3c1.6-0.1,7.1-0.9,8.8-1.2l0.1,0.7c-17.9,6.1-21.1,15.1-21.6,17.4c0.9-0.3,4.7-1.3,4.7-1.3
		l3.1-1l7.6-2.4l3.8-5.5l0.7-1v1.2l-0.1,4l4.4-1.2l2.9-5l0.7-1v1.3l0.1,4.2l15.7-4.9l0.1-0.1l0.1,0.1l12.4,10.8l1-4.1h0.7l1.3,6.1
		l3.5,2.7l0.8-4.7h0.7l2.2,7.5l10.3,7.8c-1.5-9.2-5.8-17.8-12.2-24.6l0.4-0.5l2.4,1.6c3.3,2.1,8.2,5.1,10.5,6.4
		c0.2-1.6,0.4-3.2,0.4-4.8l0.7-0.1c0.7,2.1,1.6,4.2,2.5,6.2l4,2.2c0,0,1.7,1,2.1,1.3c0.2-0.7,0.4-3,0.7-5l0.7-0.1
		c0.8,2.6,1.8,5.1,2.9,7.6c4.7,2.7,11.7,6.3,13.7,7.3c-0.4-2.9-3-16.1-26.5-30.7l0.4-0.7c1,0.3,9.4,2.4,11.6,3l-0.8-5.8l-0.1-1.3
		l0.8,1l5.5,7.3l8.5,2.1l-0.5-6.1l-0.1-1.3l0.7,1.2l4.7,7.4l13.1,2.9C410.3,204.4,394.9,200.6,382.5,197.5L382.5,197.5z"/>
	<path id="XMLID_127_" class="st2" d="M386.9,250.3c0,0-3.5,2.7-6.3,1.2c-1.8-1-4.9-3.2-7.9-3.4c0,0-13.5-2.8-18,9.9
		c-3.3,9.1,3.6,14.5,4.8,16c1.3,1.5,7.5,8.6,4.4,14.4c-3,5.7-8.6,4.4-10.1,4.1c-1.6-0.1-8.5-3.4-3.3-13.7h-2.2l-8,11.7h-4.1
		c-1.8,0-3.5-1.2-3.9-3l-4.2-22.5c6.5-5,15.9-12.3,17.4-13.4c2.1-1.6,4.6-2.4,7.2-2.4l1-2h-13.7l-0.9,2c4,1.3-0.7,4.9-0.7,4.9
		l-21.9,16.5l4.3,19.4c0.4,1.4,1.6,2.4,3,2.4h11.7v-0.1h3.7c-13.3,19.6-28.5,17.1-28.5,17.1c-11.6-1-14.4-11.4-15.9-15.6
		c-0.1-0.5-0.3-1-0.4-1.5H310l1.5-2.4c0,0-5.4-0.3-3.5-3.9l38.2-71.7l1.2-1.6l13.9,11.6c-1.7-4.5-6-17.3-6-17.3l23.4,11l-16.8-12.7
		l25.3-1.8l-27.5-4.3l25-14.5l-26.6,7.6l11.7-23.3l-16.8,17.8c0,0-4.6-15.4-7.2-24.7l0.9,26.4l-23.3-17.5c0,0,11.5,13.4,16.8,20.7
		l-24.3-4.9l23,13l-24.3,4.9l21.6,2.3l-14,8.4l18.7-3.5c0,0.3-0.1,0.5-0.1,0.7l-45.6,75c-0.5,0.7-1.1,1.2-1.8,1.6
		c-2.2-5.5-6.3-14.5-11.4-17.8c0,0,13.1,0.7,18.2-11.4c3.7-8.8-5-12.7-15.1-12.7H267l-1.8,2.1c0,0,5.6,0.2,3.8,3.7
		c-1.8,3.4-19.6,35.8-19.6,35.8c-0.9,0.8-2,1.3-3.2,1.3c-1.5-0.3-2.6-1.6-2.5-3.2c0.1-1.1,5.5-39.7,5.5-39.7h-7.6
		c-1.7,0.2-3.3,1.1-4.3,2.5l-29.9,37.1c-1.8,1.9-4.2,3-6.8,3l-1.1,2.4h16.5l0.8-2.4c-1.8,0-5.5-1.6-4.4-3.8
		c0.8-1.5,7.8-11.4,7.8-11.4h13.1l-1.8,10.9c-1,2.9-3.8,3.8-6.9,4.4l-0.7,2.1h19.7c0.7,0.1,18.7,0,21.3,0l1.5-2.4
		c-3.3-0.8-4.3-1.6-3.1-3.8c1.1-2.2,8.8-16.2,8.8-16.2s3.6-1.6,5.5,5.7c0,0,1.2,7.6,1.9,12.8c0.7,5.2,2.7,21.6,24.8,25
		c20.4,1.4,33.1-14,38-21.5c1.3-1.5,3.4-1.8,5.1-0.8c3.4,2,7.1,3.1,11,3.5c5.2,0.1,14.3-0.4,17-8.9c2.7-8.4-4.3-16.6-6.1-18.7
		c-1.8-2.1-6.4-8.6-3.8-13.3c2.6-3.7,7.6-4.6,11.3-2.1c1.5,1,2.6,2.5,3.1,4.3c0,0,0.8,4.4-0.7,6l1,1.8l7.8-11.8L386.9,250.3z
		 M233.9,272.9h-12.3l15.7-19.6L233.9,272.9z M272.9,268.2l9.6-17.7c0,0,6.9-1.4,6.9,4.8C289.4,261.7,281,272.1,272.9,268.2z"/>
	<path id="XMLID_152_" class="st2" d="M273.2,268.1c1.1,0.4,2.2,0.7,3.3,0.7c6.7,0,12.5-8.3,12.5-13.4c0.2-2.5-1.7-4.6-4.1-4.8
		c-0.3,0-0.6,0-1,0c-0.4,0-0.9,0-1.3,0.1L273.2,268.1z M276.5,269.3c-1.3,0-2.6-0.3-3.8-0.8l-0.2-0.1l9.7-18h0.1
		c0,0,0.7-0.1,1.5-0.1c2.7-0.3,5.2,1.6,5.6,4.3c0,0.3,0,0.6,0,0.9C289.6,260.7,283.6,269.3,276.5,269.3z M222.2,272.6h11.6l3.3-18.4
		L222.2,272.6z M234.2,273.2h-13l16.1-20l0.4,0.1L234.2,273.2z M294.8,292.5l0.4,1.2c0.1,0.3,0.2,0.6,0.4,1
		c1.6,4.7,4.7,13.7,15.3,14.5c0,0,0.7,0.1,1.7,0.1c4.5,0,15.9-1.6,26.3-16.7h-14.8c-1.5-0.1-2.8-1.1-3.2-2.6l-4.3-19.2l-8.2,15.4
		c-0.4,0.6-0.4,1.4-0.1,2.1c0.7,1.3,3.5,1.5,3.5,1.5h0.4l-1.8,3L294.8,292.5z M272.8,269.4c1.3,0,3.5,0.8,5,6.1c0,0,1.2,7.8,1.8,13
		v0.3c0.9,5.8,3.1,21,24.7,24.5c0.8,0.1,1.6,0.1,2.5,0.1c18.4,0,30-13.4,35.2-21.6c0.8-0.9,1.9-1.4,3.1-1.5c0.8,0,1.6,0.2,2.3,0.7
		c3.4,1.9,7.1,3,11,3.4h1.2c8.6,0,13.7-2.9,15.6-8.7c2.3-7.5-2.7-14.8-6.1-18.4c-2.6-3-6.3-9.1-3.8-13.7c1.5-2.3,4.2-3.7,6.9-3.6
		c3.7,0,6.9,2.4,8,5.9c0.1,0.1,0.8,4.4-0.7,6.1l0.7,1.3l7.5-11.4l-0.8-1.2c-1.3,0.9-2.7,1.5-4.3,1.6c-0.7,0-1.4-0.2-2.1-0.5
		c-0.3-0.1-0.7-0.4-1-0.6c-2-1.4-4.3-2.4-6.8-2.7c-1-0.2-2.1-0.3-3.1-0.3c-6.5-0.3-12.4,3.7-14.5,9.9c-2.9,8,2.1,13,4.2,15.1
		c0.3,0.3,0.4,0.5,0.7,0.7l0.1,0.1c6.1,7.2,5.7,11.8,4.2,14.5c-1.4,2.9-4.3,4.7-7.5,4.7c-0.8,0-1.6-0.1-2.4-0.3l-0.4-0.1
		c-1.9-0.5-3.6-1.7-4.5-3.5c-1.4-2.7-1.2-6.1,0.9-10.2h-1.8l-8.1,11.7h-4.2c-1.9,0-3.6-1.3-4.1-3.2l-4.3-22.7h0.1
		c2.6-2,5.5-4.3,8.4-6.4c4.4-3.4,8.1-6.3,9.2-7c2.1-1.6,4.6-2.5,7.2-2.5l0.7-1.6h-13.2l-0.7,1.6c0.7,0.2,1.3,0.8,1.6,1.6
		c0.4,1.7-2.2,3.6-2.3,3.7l-21.8,16.3l4.3,19.3c0.3,1.2,1.4,2.1,2.7,2.1h11.5l0.1-0.1l4.1,0.1l-0.3,0.4
		c-10.6,15.4-22.4,17.1-27,17.1c-1.1,0-1.8-0.1-1.8-0.1c-10.9-0.9-14.2-10.3-15.7-14.8c-0.1-0.3-0.2-0.7-0.3-1
		c-0.1-0.3-0.3-0.8-0.5-1.5l-0.1-0.4h15.8l1.3-2c-1.3,0-2.6-0.7-3.5-1.7c-0.4-0.8-0.4-1.8,0-2.6l38.2-71.7l1.3-1.8l13.3,11.2
		c-1.8-5.1-5.6-16.3-5.6-16.5l-0.2-0.6l21.8,10.3L361,204.9l23.8-1.7l-26-4l23.8-13.9l-25.2,7.2l11.2-22.4l-15.9,17l-6.7-23.3
		l0.8,24.9l-22.1-16.4c3.3,3.8,11.4,13.3,15.4,19l0.4,0.5l-23.3-4.7l22.2,12.5l-23.3,4.7l20.7,2.2l-13.3,8.1l17.8-3.3l-0.3,0.4
		l-0.1,0.6v0.1l-45.6,75c-0.5,0.7-1.2,1.3-2,1.8l-0.3,0.1l-0.1-0.3c-2.5-6.3-6.4-14.5-11.1-17.7l-0.8-0.5l0.9,0.1h0.4
		c2.1,0,13.1-0.5,17.3-11.2c1.2-2.3,1.1-5.1-0.3-7.2c-2.1-3.2-7.6-5.1-14.5-5.1h-18l-1.4,1.6c1,0.1,3,0.5,3.8,1.8
		c0.4,0.7,0.3,1.6-0.1,2.3c-1.9,3.5-19.7,35.8-19.7,35.8c-0.9,0.9-2.1,1.4-3.4,1.4h-0.1c-1.6-0.3-2.8-1.7-2.7-3.4
		c0.1-1,4.9-35.7,5.5-39.5h-7.2c-1.6,0.2-3.1,1-4.1,2.3v0.1c-0.5,0.7-29.7,36.7-30,37.1c-1.8,1.9-4.3,3-6.9,3.1l-0.9,2h16.1l0.7-2
		c-1.6-0.1-3.2-0.9-4.2-2.1c-0.4-0.6-0.4-1.3,0-1.8c0.7-1.6,7.6-11.1,7.8-11.4v-0.1h13.7l-1.8,11.4c-1,3-4.1,4-7,4.6l-0.5,1.7h40.5
		l1.3-2c-2.1-0.5-3-1-3.3-1.8c-0.3-0.7-0.2-1.6,0.3-2.2c1.1-2.1,8.7-16.2,8.8-16.4h0.1l0.1-0.1C271.9,269.5,272.2,269.4,272.8,269.4
		z M306.9,313.8c-0.9,0-1.8,0-2.6-0.1c-22-3.4-24.4-19.6-25.1-24.9v-0.3c-0.8-5.2-1.9-12.8-1.9-12.8c-1.6-6.3-4.6-5.7-5.1-5.6
		c-0.7,1.2-7.8,14.2-8.8,16.2c-0.3,0.6-0.5,1.2-0.4,1.8c0.4,0.7,1.3,1.1,3.3,1.6l0.4,0.1l-1.8,2.9h-41.5l0.9-2.6h0.1
		c3-0.5,5.8-1.4,6.8-4.3l1.7-10.6h-12.8c-0.8,1-6.9,9.8-7.8,11.3c-0.2,0.4-0.2,1,0.1,1.4c1,1.3,2.5,2,4.1,2h0.4l-1,3h-17.1l1.4-3
		h0.1c2.5-0.1,4.9-1.1,6.6-3c29.9-37.1,29.9-37.1,29.9-37.1c1.1-1.4,2.7-2.3,4.5-2.5h7.8v0.2c-0.1,0.4-5.4,38.7-5.5,39.7
		c-0.1,1.4,0.8,2.6,2.1,2.9c1.1-0.1,2.2-0.6,3.1-1.3c0,0,17.8-32.3,19.6-35.7c0.4-0.5,0.4-1.2,0.1-1.8c-0.8-1.3-3.8-1.5-3.8-1.5
		h-0.5l2.1-2.6h18.2c7.3,0,12.8,1.9,15,5.2c1.4,2.3,1.6,5.2,0.3,7.7c-4.3,10.5-14.6,11.4-17.5,11.5c4.5,3.4,8.2,11.1,10.6,17.1
		c0.6-0.3,1.1-0.8,1.6-1.4l45.8-75v-0.4l-18.3,3.5l-0.2-0.5l13.3-8l-20.8-2.1v-0.5l23.6-4.8l-22.4-12.7l0.1-0.4l23.5,4.8
		c-5.3-7.3-16.2-20-16.4-20.1l0.3-0.4l23,17.1l-0.9-25.8l0.5-0.1l7.2,24.4l16.5-17.6l0.4,0.3l-11.5,23l26.1-7.5l0.2,0.4l-24.4,14.1
		L387,203v0.5l-24.7,1.8l16.2,12.3l-0.2,0.4l-22.9-10.7c0.8,2.5,4.3,12.8,5.8,16.8l0.3,0.9l-14.3-12l-1,1.4L316.7,270l21.6-16.2
		c0.7-0.5,2.4-2.1,2.1-3.2c0-0.5-0.5-0.9-1.4-1.2l-0.3-0.1l1-2.4h14.4l-1.2,2.5h-0.3c-2.5,0-5,0.8-7,2.3c-1,0.7-4.7,3.5-9.1,6.9
		c-2.7,2.1-5.7,4.4-8.2,6.3l4.1,22.3c0.5,1.7,2,2.8,3.8,2.9h3.9l8-11.8h2.8l-0.2,0.4c-2.1,4.1-2.4,7.6-1,10.1
		c0.8,1.6,2.3,2.8,4.1,3.2l0.4,0.1c0.8,0.1,1.6,0.1,2.4,0.1c3,0.1,5.8-1.6,7.1-4.3c1.3-2.4,1.7-6.9-4.2-13.9l-0.1-0.1
		c-0.1-0.1-0.3-0.4-0.5-0.7c-4.6-3.8-6.3-10-4.4-15.6c2.2-6.4,8.4-10.6,15.1-10.3c1.1,0,2.1,0.1,3.2,0.3c2.5,0.4,4.9,1.4,7,2.8
		c0.4,0.2,0.7,0.4,1,0.6c0.5,0.3,1.1,0.5,1.8,0.4c1.5-0.1,3-0.7,4.2-1.6l0.1-0.1l1.3,1.9l-0.1,0.1l-8,12l-1.3-2.3l0.1-0.1
		c1.4-1.4,0.7-5.7,0.7-5.7c-1-3.3-4.1-5.6-7.5-5.5c-2.6-0.1-5,1.2-6.4,3.4c-3,5.4,3.5,12.8,3.8,13.1c3.3,3.8,8.6,11.2,6.1,19
		c-1.8,6.1-7.2,9.1-16,9.1h-1.2c-3.9-0.3-7.7-1.4-11.1-3.4c-0.6-0.4-1.3-0.6-2.1-0.6c-1,0-2,0.5-2.7,1.3
		C337.1,300.1,325.5,313.8,306.9,313.8z"/>
	<polygon id="XMLID_153_" class="st0" points="351.6,191.2 358.5,185.5 353.2,195.4 365.4,193.2 352.8,199.2 364.7,202.8 
		357.3,203.3 361.3,207.4 351.5,203.7 355.2,214.5 348.5,208.2 339.4,220.3 343.3,208.4 333.8,210.1 341.9,205.4 331.6,203.9 
		343.9,200.2 330.3,191.8 345,195 338.7,185.5 349,192.6 348.5,180.9 	"/>
	<path id="XMLID_168_" class="st2" d="M236.2,235.5h1.5l0.7,5.8h-1.7l-0.1-1.3h-4.2l-1.4,1.3h-1.6L236.2,235.5z M236.5,238.9
		l-0.1-2.3l-2.7,2.3H236.5z M211.7,239.9c-0.4,0.6-0.4,0.8-0.3,0.8c0.1,0.1,0.3,0.2,0.9,0.2h4.1c0.9,0.1,1.8-0.4,2.1-1.3l0.4-0.8
		c0.4-0.5,0.3-0.8,0.3-0.8c-0.1-0.1-0.3-0.2-0.9-0.2h-4.6l1-1.7h4.9l-0.4,0.5l0.8-0.1c0.3-0.5,0.3-0.7,0.2-0.7
		c-0.3-0.1-0.6-0.2-1-0.1h-3.7c-0.9-0.1-1.8,0.4-2.1,1.3l-0.3,0.7c-0.4,0.5-0.3,0.8-0.3,0.8c0,0.1,0.3,0.2,0.9,0.2h4.6l-1,1.8h-5.2
		l0.3-0.6L211.7,239.9z M216.4,241.5h-4.1c-0.5,0-1.2-0.1-1.3-0.4c-0.1-0.4,0-0.9,0.3-1.3l0.1-0.3l2.1-0.4l-0.4,0.8h4.1l0.4-0.9
		h-3.7c-0.7,0-1.2,0-1.4-0.4c-0.1-0.4,0-0.9,0.3-1.3l0.4-0.7c0.4-1,1.5-1.6,2.6-1.5h3.7c0.6,0,1.2,0.1,1.4,0.4
		c0.1,0.4,0,0.9-0.2,1.3l-0.1,0.1l-2.1,0.4l0.4-0.7h-3.7l-0.4,0.8h3.8c0.7,0,1.2,0.1,1.3,0.4c0.1,0.5,0,1-0.3,1.3L219,240
		C218.5,241,217.5,241.6,216.4,241.5L216.4,241.5z M214.8,236.5l-0.7,1.2h4.1c1.3,0,1.6,0.3,0.9,1.4l-0.4,0.7
		c-0.3,1-1.3,1.6-2.4,1.4h-4.1c-1.3,0-1.6-0.3-1-1.4l0.1-0.1l1.6-0.3l-0.4,0.7h4.7l0.7-1.3h-4.1c-1.2,0-1.5-0.3-0.9-1.4l0.4-0.7
		c0.3-0.9,1.3-1.5,2.3-1.3h3.7c1.2,0,1.6,0.3,1,1.3v0.1l-1.6,0.3l0.4-0.7H214.8z M199.8,239.9h4.5l1.7-3.2h-4.4L199.8,239.9z
		 M204.6,240.5H199l2.2-4.2h5.6L204.6,240.5z M202,235.7c-0.9-0.1-1.8,0.4-2.1,1.3l-1.6,3c-0.4,0.6-0.4,0.8-0.3,0.9
		c0.1,0.1,0.3,0.1,0.9,0.1h4.9c0.9,0.1,1.8-0.4,2.1-1.3l1.6-3c0.2-0.2,0.3-0.5,0.3-0.8c-0.1-0.1-0.3-0.2-1-0.2H202z M203.7,241.5
		h-4.8c-0.5,0.1-1-0.1-1.4-0.4c-0.1-0.5,0-1,0.3-1.3l1.6-3c0.5-1,1.5-1.6,2.7-1.5h4.8c0.7,0,1.2,0,1.3,0.4c0.2,0.4,0,0.8-0.2,1.3
		l-1.7,3.1C205.8,241.1,204.8,241.7,203.7,241.5L203.7,241.5z M202,235.5h4.8c1.3,0,1.6,0.2,1,1.3l-1.7,3c-0.4,0.9-1.3,1.5-2.3,1.3
		H199c-1.3,0-1.6-0.2-1-1.3l1.6-3C200,235.9,201,235.3,202,235.5z M204.4,240.2l2-3.7h-5.1l-2,3.7H204.4z M186.9,241h5.9l0.3-0.5
		h-4.9l2.5-4.7h-1L186.9,241z M193,241.5H186l3.4-6.3h2.1l-2.5,4.7h4.9L193,241.5z M189.5,235.5h1.6l-2.6,4.7h4.9l-0.6,1.1h-6.4
		L189.5,235.5z"/>
	<path id="XMLID_191_" class="st2" d="M304.9,239.9c-0.1,0.2-0.3,0.5-0.3,0.8c0.1,0.1,0.3,0.2,1,0.2h4.1c0.9,0.1,1.8-0.4,2.1-1.3
		l0.4-0.8c0.4-0.5,0.3-0.8,0.3-0.8c-0.1-0.1-0.3-0.2-0.9-0.2H307l1-1.7h4.9l-0.4,0.5l0.9-0.1c0.3-0.5,0.3-0.7,0.2-0.7
		c-0.3-0.1-0.6-0.2-1-0.1h-3.5c-0.9-0.1-1.8,0.4-2.1,1.3l-0.4,0.7c-0.4,0.5-0.3,0.8-0.3,0.8c0.1,0.1,0.3,0.2,0.9,0.2h4.6l-1,1.8
		h-5.2l0.4-0.6L304.9,239.9z M309.6,241.5h-4.1c-0.6,0-1.2-0.1-1.4-0.4c-0.1-0.4,0-0.9,0.3-1.3l0.1-0.3l2.1-0.4l-0.4,0.8h4.1
		l0.4-0.9h-3.7c-0.7,0-1.2,0-1.3-0.4c-0.2-0.4,0-0.8,0.2-1.3l0.4-0.7c0.4-1,1.5-1.6,2.6-1.5h3.7c0.6,0,1.2,0.1,1.4,0.4
		c0.1,0.4,0,0.9-0.2,1.3l-0.1,0.1l-2.1,0.4l0.4-0.7h-3.8l-0.4,0.8h3.7c0.7,0,1.2,0.1,1.4,0.4c0.1,0.5,0,1-0.3,1.3l-0.4,0.8
		C311.8,241.1,310.7,241.7,309.6,241.5z M308.1,236.5l-0.7,1.2h4.1c1.3,0,1.6,0.3,0.9,1.4l-0.4,0.7c-0.5,1.2-1.2,1.4-2.4,1.4h-4.1
		c-1.3,0-1.6-0.3-0.9-1.4v-0.1l1.6-0.3l-0.4,0.7h4.7l0.7-1.3H307c-1.3,0-1.5-0.3-0.9-1.4l0.4-0.7c0.3-0.9,1.3-1.5,2.3-1.3h3.7
		c1.2,0,1.6,0.3,1,1.3l-0.1,0.1l-1.5,0.3l0.4-0.7H308.1z M292.6,241h6.3l0.3-0.5H294l1-2h3l0.3-0.5h-3l1-1.7h5.2l0.3-0.5h-6.1
		L292.6,241z M299.2,241.5h-7.3l3.4-6.3h7.2l-0.8,1.5h-5.2l-0.4,0.8h3l-0.7,1.6h-3l-0.5,0.9h5.2L299.2,241.5z M295.4,235.5h6.8
		l-0.6,1h-5.2l-0.7,1.3h3l-0.5,1h-3l-0.7,1.4h5.3l-0.7,1.1h-6.8L295.4,235.5z M281.7,241h5.9l0.4-0.5h-5l2.6-4.7h-1L281.7,241z
		 M287.8,241.5h-7l3.4-6.3h2.1l-2.5,4.7h4.9L287.8,241.5z M284.4,235.5h1.5l-2.5,4.7h4.9l-0.6,1.1h-6.4L284.4,235.5z M269.8,241h6.3
		l0.3-0.5h-5.2l1-2h3l0.3-0.5h-3l1-1.7h5.2l0.3-0.5h-6.1L269.8,241z M276.3,241.5H269l3.3-6.3h7.3l-0.8,1.5h-5.2l-0.4,0.8h3
		l-0.8,1.6h-3l-0.5,0.9h5.2L276.3,241.5z M272.5,235.5h6.7l-0.5,1h-5.2l-0.7,1.3h3l-0.5,1h-3l-0.8,1.4h5.2l-0.6,1.1h-6.8
		L272.5,235.5z M260.7,235.7c-0.9-0.1-1.8,0.4-2.1,1.3l-1.6,3c-0.4,0.6-0.4,0.8-0.3,0.9c0.1,0.1,0.3,0.1,0.9,0.1h4.6
		c0.9,0.1,1.8-0.4,2.1-1.3l0.9-1.6h-3.4l-0.3,0.4h2.5l-1,1.8h-5.4l2.3-4.2h5.3l-0.3,0.6l1-0.1c0.2-0.4,0.2-0.7,0.1-0.7
		c-0.1-0.1-0.3-0.2-0.9-0.2H260.7L260.7,235.7z M262.2,241.5h-4.6c-0.5,0-1.2-0.1-1.3-0.4c-0.1-0.5,0-1,0.3-1.3l1.6-3
		c0.4-1,1.5-1.6,2.6-1.5h4.6c0.5,0,1.2,0,1.3,0.4c0.1,0.4,0,0.9-0.1,1.3l-0.1,0.1l-0.1,0.1l-2.2,0.3l0.4-0.7h-4.2l-1.7,3.2h4.2
		l0.4-0.8h-2.5l0.8-1.5h4.6l-1.3,2.3C264.5,240.9,263.4,241.6,262.2,241.5L262.2,241.5z M260.1,236.5l-2.1,3.7h4.8l0.7-1.3h-2.5
		l0.5-1h4l-1.2,2.1c-0.5,1.1-1.1,1.3-2.4,1.3h-4.6c-1.3,0-1.6-0.3-0.9-1.3l1.6-3c0.5-1.2,1.2-1.4,2.4-1.4h4.5c1.2,0,1.6,0.3,1,1.3
		l-0.1,0.1h0l-1.6,0.3l0.3-0.7L260.1,236.5L260.1,236.5z M249.6,241h0.8l2.9-5.2h-0.8l-1.5,3c-0.2,0.3-0.3,0.6-0.4,1l-0.3,0.5
		l-0.2-0.5c0-0.1-0.2-0.4-0.4-0.6l-2.7-3.3h-0.7l-2.9,5.2h0.8l1.6-3c0.1-0.3,0.3-0.6,0.4-0.9l0.1-0.5l0.3,0.5
		c0.1,0.1,0.1,0.3,0.3,0.4L249.6,241z M250.7,241.5h-1.3l-3-3.6l-0.1-0.1c-0.1,0.2-0.2,0.4-0.3,0.5l-1.8,3.2h-1.9l3.3-6.3h1.3
		l2.9,3.5c0.1,0.1,0.1,0.1,0.1,0.3c0.1-0.3,0.1-0.4,0.3-0.6l1.7-3.2h2L250.7,241.5z M246,235.5h1l2.8,3.3c0.2,0.2,0.3,0.5,0.4,0.7
		c0.1-0.3,0.3-0.7,0.4-1l1.6-3.1h1.3l-3.1,5.8h-1l-3-3.5l-0.3-0.4c-0.1,0.3-0.2,0.6-0.4,0.9l-1.7,3.1h-1.3L246,235.5z M234.3,238.6
		h1.9l-0.1-1.6L234.3,238.6z M236.8,239.2h-3.8l3.7-3.1L236.8,239.2z M236.9,241h1.2l-0.5-5.2h-1.2l-6.3,5.2h0.8l1.4-1.2h4.5
		L236.9,241z M238.6,241.5h-2.1l-0.1-1.3h-3.8l-1.4,1.3h-2.3l7.5-6.3h1.8L238.6,241.5z"/>
</g>
</svg>
