<?xml version="1.0" encoding="utf-8"?>
<!-- Generator: Adobe Illustrator 19.0.0, SVG Export Plug-In . SVG Version: 6.00 Build 0)  -->
<svg version="1.1" id="Layer_1" xmlns="http://www.w3.org/2000/svg" xmlns:xlink="http://www.w3.org/1999/xlink" x="0px" y="0px"
	 viewBox="0 0 500 500" style="enable-background:new 0 0 500 500;" xml:space="preserve">
<style type="text/css">
	.st0{fill:#FF671B;}
	.st1{fill:#003DA6;}
	.st2{fill:#2E2A25;}
	.st3{fill:#FFFFFF;}
	.st4{fill:#6ECDB2;}
</style>
<g id="XMLID_1_">
	<path id="XMLID_3_" class="st0" d="M88.9,221.4c-3.2,2-6.6,4.1-10,6.3c-1.2,0.8-2.4,1.6-3.6,2.4l-2.5,1.7v0.1l-0.1,0.1l0.1,0.1
		l1.6,2.7c0.3,0.4,27,46.9,56.4,81.6l2.3,2.7l2.7-2.2c0.1-0.1,2.5-2.1,6.9-5.4l0.3,0.3c13.7,16.6,28.4,32.4,44.1,47.1
		c18.8,17.8,38.9,34.2,60.2,48.9l3.4,2.3l0.6-0.2l0.1-0.1l3.5-1.8c1.2-0.5,28.5-14,62.5-42.1c29.5-24.2,55.3-52.7,76.4-84.5
		c1.1-1.6,2.1-3.2,3.1-4.8c1.2,0.7,2.7,1.5,3.5,2c1,0.5,1.8,1,2.4,1.3l2.5,1.3l0.7-0.1l1.7-3c0.2-0.4,20.2-35.1,23.2-40.1l1.6-2.6
		l-2.4-2l-0.1-0.1v0l-0.1-0.1c-0.9-0.7-4.4-3.5-10.3-7.4l4.9-12.3l2.1-5.2l-4.7-2.9l-7.8-4.8c0.1-0.5,0.3-1,0.4-1.5l1.6-5.4
		l-4.7-3.2c-39.1-26.3-98.8-43.6-159.7-46.2c-65.6-3.2-121.9,8-158.9,31.2l-4.7,2.9c0,0,2.4,11.1,3.5,14.1l-6.4,4.5l-4.5,3.2l2,5
		l6.1,15.4L88.9,221.4z"/>
	<path id="XMLID_9_" class="st1" d="M410.5,206.5l-4.3,10.3c2.7,1.6,5.2,3.1,7.4,4.5l4.2-10.3L410.5,206.5z M89.7,203.2l5.5,13.9
		c2-1.2,4.1-2.3,6-3.4L95.6,199L89.7,203.2z M254.5,392.6l-2.1,1.1l-1.9-1.3c-0.5-0.4-48.7-32.6-88.4-82c-1.3,1-3.9,2.7-5,3.5
		c26.9,30.8,57,58.7,89.8,83.2c2.4,1.8,4.1,2.9,4.7,3.2c0.6-0.2,2.1-1.1,4.7-2.5c3.2-1.8,7.8-4.4,13.4-8
		c15.5-9.8,30.3-20.6,44.4-32.3c23.8-19.8,50.6-46.4,73.3-79.9c-1.1-0.4-4.7-2.1-6.9-3.1C338.1,347,255.3,392.1,254.5,392.6
		L254.5,392.6z M285.6,252.9c-45.8,1.9-93.2,26.9-117.5,41.7c-2.1,1.3-4.1,2.4-5.9,3.6c35.7,46.8,80.8,79.6,90.7,86.5
		c13.1-7.5,86.3-51.6,123.2-118c-17.9-7.1-44.1-14-79.3-14C293.1,252.7,289.3,252.7,285.6,252.9L285.6,252.9z M251.4,152.3
		c-6.7-0.4-13.3-0.4-19.8-0.4c-56.6,0-103.4,11.2-134.4,30.6c1.9,7.4,4.3,14.6,7.2,21.7c1,2.4,1.8,4.5,2.7,6.3
		c51.7-27.8,97.7-36.2,138.8-36.2c19.5,0.1,39,1.8,58.2,5c40.2,6.3,74,21.8,96.6,34.6c2.4-6.1,4.5-12,6-16.7
		C370.9,173.1,314.5,155.1,251.4,152.3z"/>
	<path id="XMLID_13_" class="st2" d="M157.1,313.9c1.1-0.7,3.6-2.5,5-3.5c-2.1-2.7-4.2-5.2-6.3-8c-1.9,1.3-3.6,2.5-5.2,3.7
		C152.6,308.8,154.8,311.4,157.1,313.9z M387.3,277.7c1.1-1.6,2.1-3.1,3.1-4.7c-2.1-1-4.5-2.2-7.2-3.4c-1,1.6-1.9,3.2-2.8,4.8
		C382.7,275.5,387.3,277.7,387.3,277.7z M402.7,279.7c-0.7-0.3-1.5-0.7-2.4-1.3c-0.9-0.5-2.4-1.3-3.5-2c-1.1,1.6-2.1,3.2-3.1,4.8
		l1.7,1.3l9.8-1.5L402.7,279.7z"/>
	<path id="XMLID_27_" class="st2" d="M385.6,202.3c0.5-1.5,1.1-2.8,1.6-4.3l0.1-0.4v-0.1l0.4-0.8c0.7-1.6,1.2-3,1.8-4.5
		c-1.1-0.6-2.1-1.2-3.2-1.8c-0.1,0.3-0.2,0.5-0.3,0.7c0.3,0.1,0.7,0.4,1,0.6l0.4,0.1l-0.1,0.4c-1.1,2.7-1.9,5.1-3.1,7.8l-0.1,0.4
		l-0.4-0.2c-0.4-0.2-0.6-0.4-0.9-0.5c-0.1,0.3-0.2,0.5-0.3,0.7C383.6,201.3,384.6,201.8,385.6,202.3z M393.8,206.8
		c0.1-0.3,0.2-0.5,0.3-0.7c-0.3-0.2-0.6-0.3-0.9-0.4l-0.4-0.2l0.1-0.4c0.4-0.9,0.8-1.7,1.1-2.7c0.1-0.2,0.1-0.5,0.1-0.7
		c0-0.7-0.5-1.5-1.9-2.3c-0.5-0.3-1.1-0.6-1.6-0.9l-0.8-0.4l0.9-0.3c1.6-0.5,2.9-1,4.4-1.6l0.1-0.1l0.1,0.1c0.5,0.3,1,0.5,1.5,0.8
		c0.1-0.3,0.2-0.5,0.4-0.7c-1-0.5-1.8-1-2.7-1.5c-2.1,0.9-3.9,1.6-6.1,2.4l-0.7,0.3l0.3,0.2c1.3,0.7,2.1,1.2,3.3,1.8
		c0.5,0.4,1,0.7,1,1.3c0,0.3-0.1,0.5-0.1,0.7c-0.4,1.2-0.8,2.3-1.3,3.5C391.8,205.7,392.8,206.3,393.8,206.8z M370.7,188.4
		c-0.3,0-0.5-0.1-0.8-0.1c-1.3-0.6-2.4-1.1-3.6-1.6l-0.4-0.1l0.1-0.4c0.3-1.3,0.6-2.3,1-3.5l0.1-0.4l0.4,0.1
		c1.3,0.6,2.4,1.1,3.6,1.6c0.7,0.2,1.1,0.8,1.2,1.5c0,0.2,0,0.4-0.1,0.5c-0.1,0.5-0.2,1-0.4,1.6
		C371.8,188.1,371.3,188.4,370.7,188.4L370.7,188.4z M373.3,196.6c0.1-0.4,0.2-0.6,0.3-0.9c-0.4-0.1-0.7-0.4-1.1-0.4l-0.4-0.1
		l0.2-0.4c0.3-0.7,0.4-1.3,0.7-2.2c0.1-0.3,0.1-0.5,0.1-0.8c0-0.7-0.3-1.2-1.6-2.1l0.3-0.8c0.5,0.1,1,0.2,1.5,0.3
		c0.5-0.1,0.7-0.1,0.8-0.7c0.1-0.7,0.4-1.3,0.5-1.9v-0.4c0-1-0.5-1.9-2.2-2.6c-3-1.3-5.6-2.4-8.5-3.8c-0.1,0.3-0.1,0.6-0.1,0.9
		c0.4,0.1,0.8,0.3,1.3,0.5l0.3,0.1v0.4c-0.9,3-1.6,5.6-2.4,8.6l-0.1,0.4l-0.4-0.1l-1.1-0.4c0,0.3-0.1,0.5-0.1,0.8
		c1.3,0.5,2.4,1,3.5,1.6c0.5-1.6,0.8-3.1,1.3-4.8l0.1-0.4l0.4,0.1c1.3,0.6,2.4,1,3.8,1.6c0.5,0.3,1.1,0.7,1.1,1.3
		c0,0.2-0.1,0.4-0.1,0.6c-0.4,1.3-0.7,2.5-1,3.9C371.1,195.5,372.2,196.1,373.3,196.6z M348.4,185.9c-0.2,0-0.5,0-0.7-0.1
		c-1.3-0.4-2.4-0.8-3.6-1.3c-0.8-0.3-1.3-0.8-1.2-1.6v-0.4l0.4,0.1l-0.4-0.1c0.5-2.5,0.8-4.8,1.3-7.3c0.1-0.5,0.4-1.2,1.1-1.2
		c0.3,0,0.5,0.1,0.8,0.1c1.3,0.4,2.4,0.7,3.6,1.3c0.7,0.2,1.2,0.8,1.2,1.6v0.3c-0.5,2.5-0.8,4.7-1.3,7.4
		C349.6,185.4,349.1,185.9,348.4,185.9L348.4,185.9L348.4,185.9z M340.5,182.3v0.3c0,1.2,0.9,2.1,2.7,2.8c1.9,0.7,3.5,1.2,5.4,1.8
		c0.5,0.1,1.1,0.2,1.6,0.3c1-0.1,1.4-0.4,1.6-1.3c0.5-2.9,1-5.5,1.6-8.3v-0.4c0-1.2-0.7-2-2.7-2.7c-1.9-0.7-3.5-1.2-5.5-1.9
		c-0.5-0.2-1.1-0.2-1.6-0.3c-0.8,0-1.4,0.5-1.6,1.3C341.6,176.8,341,179.3,340.5,182.3z M326.6,181.1c0-0.4,0.1-0.7,0.1-1.1
		c-0.5-0.1-0.9-0.2-1.3-0.4l-0.4-0.1v-0.3c0.1-1.6,0.1-2.8,0.3-4.3v-0.1l0.1-0.1c1.6-1.6,3-2.9,4.7-4.4l0.1-0.1l0.3,0.1
		c0.4,0.1,0.8,0.2,1.1,0.4c0-0.4,0.1-0.7,0.1-1.1c-0.7-0.1-1.3-0.2-1.9-0.4c-1.6,1.6-3.3,2.9-5.2,4.1l-0.4,0.2l-0.1-0.4
		c-1.2-2.2-2.1-4.2-3.3-6.4l-3.2-0.8c0,0.3-0.1,0.7-0.1,1c0.4,0.1,0.9,0.3,1.3,0.4h0.1l0.1,0.1c1.3,2.4,2.6,4.4,4,6.9l0.1,0.1v0.1
		c-0.1,1.6-0.2,2.7-0.2,4.2v0.6l-0.5-0.1c-0.4-0.1-0.7-0.2-1.2-0.4v1C322.9,180.1,324.6,180.6,326.6,181.1z M288.3,173.7
		c0.5-4,1.3-7.5,1.8-11.5l0.1-0.4l0.4,0.1c0.4,0,0.8,0,1.2,0.1c-0.1-0.4-0.1-0.7-0.1-1.1c-1.1-0.1-2.1-0.3-3.2-0.4
		c-0.4,3.4-0.7,6.4-1.2,10l-0.1,1.5l-0.6-1.3c-1.6-3.8-3-7.2-4.7-10.9c-0.8-0.1-1.6-0.2-2.5-0.4c-0.8,3.5-1.3,6.4-2.1,9.9l-0.4,1.6
		l-0.5-1.5c-1.3-3.8-2.2-7-3.6-10.8c-1.1-0.1-2.3-0.2-3.5-0.4c0.1,0.4,0.1,0.7,0.1,1.1c0.4,0.1,0.8,0.1,1.3,0.1l0.2,0.1v0.1
		c1.7,4.4,3.1,8.2,4.7,12.5c0.7,0.1,1.4,0.2,2.1,0.3c0.7-3.7,1.6-6.9,2.4-10.7l0.3-1.3l0.5,1.2c1.8,4.1,3.5,7.7,5.2,11.8
		C286.8,173.6,287.5,173.7,288.3,173.7L288.3,173.7z M260.6,171c-0.1-1.3-0.5-2.4-0.8-3.8h-1.6c0,0.7,0.2,1.4,0.4,2.1l0.1,0.5h-0.4
		c-2,0-3.7-0.1-5.7-0.1h-0.3l-0.1-0.4c-0.3-1.6-0.5-2.9-0.9-4.4l-0.1-0.5h0.5c1.8,0,3.5,0,5.3,0.1c-0.1-0.4-0.2-0.7-0.3-1.1
		c-1.9-0.1-3.5-0.1-5.5-0.1h-0.4v-0.4c-0.3-1.3-0.5-2.7-0.8-4l-0.1-0.5h0.5c2,0.1,3.6,0.1,5.5,0.1h0.4v0.3c0.1,0.7,0.4,1.4,0.4,2.1
		h1.7c-0.3-1.3-0.5-2.4-0.7-3.6c-4.1-0.1-7.6-0.1-11.7-0.3c0.1,0.4,0.2,0.8,0.3,1.2h1.5l0.1,0.4c0.7,3.6,1.3,6.7,2.1,10.4l0.1,0.5
		h-1.5c0.1,0.4,0.2,0.8,0.3,1.2C252.9,170.9,256.5,170.9,260.6,171L260.6,171z M221.1,171.4c1.2,0,2.3-0.1,3.2-0.1
		c-0.7-3-1.2-5.5-1.9-8.5l0.4-0.1l0.4-0.1l-0.4,0.1l-0.4,0.1c-0.1-0.8-0.4-1.5-0.7-2.2l0.7-0.4c3.3,3.9,6.2,7.2,9.5,11h0.1
		c0.7,0,1.3,0,2-0.1c-1-4.3-1.8-8-2.8-12.5l-0.1-0.5h1.6c-0.1-0.4-0.2-0.8-0.3-1.3c-1,0-2,0.1-3.1,0.1H229c0.7,2.9,1.3,5.5,1.8,8.4
		c0.1,0.8,0.4,1.5,0.7,2.2l-0.7,0.5c-3.2-3.9-6.1-7.2-9.2-11c-1.4,0.1-2.6,0.1-3.9,0.1c0.1,0.4,0.2,0.8,0.3,1.3h1.6l0.1,0.4
		c0.8,3.8,1.6,7.2,2.5,10.9l0.1,0.5h-1.5C221.1,170.5,221.1,170.9,221.1,171.4z M186.9,358.7c-15.7-14.7-30.4-30.5-44.1-47.1
		c-0.1-0.1-0.1-0.1-0.3-0.4c-4.4,3.3-6.9,5.3-6.9,5.5l-2.7,2.2l-2.3-2.7c-29.4-34.6-56.2-81-56.4-81.5l-1.6-2.7l-0.1-0.1l-5.1,12.7
		c0,0,28.6,53.1,63.1,88.3c0,0,7.7-5.5,10.3-7.5c32.6,43.1,94.6,89.3,95,89.6l14.6-5.2l-3.5-2.2
		C245.9,406.8,219.4,389.3,186.9,358.7z M303,187c-18.8-3.1-37.8-4.7-56.8-4.9c-47.3,0-101.5,11.4-163.5,52.2
		c6.3,10.6,27.8,45.8,51.2,74.2c9.6-7.5,19.7-14.4,30.2-20.7c24.8-15.1,73.6-40.9,121.3-42.8c3.8-0.1,7.5-0.3,11.2-0.3
		c39.5,0,75.3,8.7,106.5,26.1c4.4-7.6,14.8-25.9,19.5-33.8C411.1,228.6,364.7,196.6,303,187z M82.7,205.6l-2-5l4.5-3.2l6.4-4.5
		c-1.1-3.2-3.5-14.1-3.5-14.1l-13.7,38.5c1.1,3.7,2.6,7.2,4.4,10.6c3.3-2.2,6.7-4.3,10-6.3L82.7,205.6z"/>
	<path id="XMLID_28_" class="st1" d="M199.4,201.9l2.9-2.1l0.4-0.4l18,49c3.2-0.9,27.4-7.5,39.6-8.3l0.7-0.1l-1.3,3.2h-0.2
		c-9.7,1.1-19.4,3.2-28.7,6.1c-4,1.2-7.9,2.7-11.7,4.3l-0.4,0.1L199.4,201.9z"/>
	<path id="XMLID_29_" class="st3" d="M165,256.5c0,0-8.9,5.6-12,7.3c-9.8-15.7-19.2-30.8-29.1-46.6c-4.7,2.1-13,7.2-17.8,9.7
		c-2.2,1.2-4.3,2.2-6.5,3.5c2,2.9,3.9,5.6,6,8.5c1.9-1.1,3.9-2.1,5.9-3.2c10.7,15.8,21,30.8,31.5,46.7c9.7-6.3,28.4-17.5,44.7-26
		l-11.5-20.7c0.6,0.4-10.4,3.4-18,8.3C159.8,246.5,163.6,254.1,165,256.5z"/>
	<path id="XMLID_32_" class="st4" d="M170,254.1c-1.5-2.5-4.3-7.4-5.7-10c-0.7,0.4-1.3,0.7-2.1,1.1c1.3,2.1,4.7,7.7,5.9,9.8
		L170,254.1z M111.9,230.9c10.8,16,21,31.5,31.8,47.6c0.7-0.3,1.4-0.7,2-1.2c-10.6-16.2-20.7-31.5-31.3-47.7
		C113.6,230.1,112.8,230.5,111.9,230.9z"/>
	<polygon id="XMLID_33_" class="st1" points="109.7,248.3 104.6,251 96.5,239.6 96.9,234.1 97,232.9 105.7,244.8 110.6,242.2 
		141.7,289.4 183.6,263.6 186.6,267.1 140.3,295.8 	"/>
	<path id="XMLID_37_" class="st3" d="M243.3,211.1c1.5-1.3,3.2-2.5,4.9-3.6c-1.9-6.4-3.6-12.6-5.5-19c-2.9,0-5.8,0.3-8.9,0.4
		c-10.4,0.7-25.4,1.7-36.2,3.7c1.2,2.8,2.1,5.5,3.2,8.1c1.9-0.3,3.6-0.7,5.5-1c5.8,14.8,11.4,29.2,17.1,44.1
		c11.3-3.2,26.4-5.1,37.3-6.7c-2-7.2-3.9-14.2-5.9-21.6C250.9,214.2,247.3,212.6,243.3,211.1z M236.3,196.6c1.5,4.6,2.8,9,4.3,13.5
		c-4.4-1.7-9-3.2-13.8-4.7c-1-2.6-1.8-5-2.7-7.6C228.3,197.4,232.2,197,236.3,196.6z M242.7,216.9c1.6,4.9,3,9.5,4.5,14.4
		c-3.7,0.5-7.2,1.2-10.8,2c-2.5-7.2-4.9-14-7.5-21C233.8,213.8,238.2,215.3,242.7,216.9z"/>
	<path id="XMLID_41_" class="st4" d="M240,195.1c1.3,4.1,2.5,8.1,3.8,12.3c-0.7,0.5-1.1,0.9-1.8,1.3c-1.3-4.3-2.5-8.3-3.8-12.4
		C238.9,196.1,239.5,195.7,240,195.1z M251,230.8c-1.3-4.2-2.5-8.3-3.8-12.5c-0.9-0.3-1.6-0.6-2.4-0.8c1.5,4.6,2.8,9,4.3,13.6
		C249.7,231.1,250.3,231,251,230.8L251,230.8z M206.8,195.9c5.8,15.2,11.4,29.8,17.2,45c0.7-0.1,1.3-0.3,2-0.5
		c-5.7-15.1-11.1-29.7-16.8-44.7C208.4,195.7,207.6,195.7,206.8,195.9z"/>
	<path id="XMLID_42_" class="st3" d="M252.8,188.3c0.7,2.4,1.3,4.9,2,7.5c1.6,0,3.2-0.1,5.1,0c3.4,13.7,6.7,26.7,10,40.5
		c9.3-1,18.6-1.5,28-1.3c-0.4-3.1-0.9-6.1-1.3-9.2c-2.5-1.3-5.2-2.5-7.8-3.8c0.4,2.1,0.7,4.1,1.1,6.1c-3.8-0.1-7.2,0-11,0.1
		c-0.7-3.4-1.4-6.6-2.1-10c1.7-1.6,3.5-3.1,5.4-4.5c-0.4-2.3-0.9-4.5-1.3-6.7c-1.8,1.5-3.7,2.8-5.6,4.4c-1.1-5.2-2.1-10-3.2-15.2
		c4.2,0.2,8.1,0.4,12.4,1c0.5,3,1,5.9,1.6,8.9c2.3-1.3,4.8-2.4,7.1-3.5c-0.5-3.8-1.1-7.5-1.6-11.2
		C278.8,189.2,265.8,188.3,252.8,188.3z"/>
	<path id="XMLID_45_" class="st4" d="M293.6,230.1c-0.3-1.6-0.4-3-0.7-4.5c-0.4-0.1-0.7-0.3-1.1-0.4l-0.9-0.5c0.3,1.6,0.4,3,0.7,4.5
		c0.3,0.1,0.6,0.3,0.9,0.4C292.9,229.7,293.3,229.8,293.6,230.1z M260.9,192.6c3.4,13.9,6.6,27.1,10,41c0.6,0,1.2-0.1,1.8-0.2
		c-3.2-13.8-6.4-27-9.7-40.8L260.9,192.6z"/>
	<path id="XMLID_46_" class="st1" d="M255.4,202.3l-4.9,0.1l-3-10.5l1.6-3.3l0.4-1l3.3,11.4l4.9-0.1l10,40.2c2.7-0.2,19-2,26.9-2
		c1.5,0,2.6,0.1,3.3,0.1l0.7,0.1l-2.4,2.1h-0.1c-5.1,0.1-12.6,0.7-18.9,1.3c-6.3,0.6-11.4,1.2-11.4,1.2l-0.4,0.1L255.4,202.3z"/>
	<path id="XMLID_49_" class="st3" d="M328.3,215.7c1.6-0.6,3.3-1,5-1.6c0-4.8,0-9.4,0.1-14.2c-2.4-0.7-4.8-1.6-7.5-2.1
		c-8.9-2.4-17.9-4.4-27-5.8c0.2,2.2,0.4,4.4,0.8,6.6c1.6,0.1,3.2,0.5,4.7,0.7c1.3,12,2.7,23.6,3.9,35.7c3.3,0.1,6.6,0.4,9.7,0.7
		c-0.5-7.7-1-15.1-1.6-22.7c3.5,2.4,6.8,4.4,10,6.7c0.1,5.7,0.3,11.2,0.4,17c3.2,0.4,6.1,0.7,9.2,1.3c0.1-5.5,0.2-10.8,0.4-16.2
		C333.9,219.7,331.1,217.7,328.3,215.7z M316.2,207.5c-0.1-2.1-0.3-4.1-0.4-6.1c3.6,0.8,6.9,1.5,10.3,2.4c0.1,3.5,0.1,6.9,0.3,10.5
		C323.1,212.1,319.8,209.9,316.2,207.5z"/>
	<path id="XMLID_52_" class="st4" d="M328.1,220.7c0,4.8,0.1,9.4,0.3,14.2c0.5,0.1,1,0.2,1.6,0.2c-0.1-4.5-0.1-8.8-0.1-13.2
		C329.3,221.6,328.7,221.1,328.1,220.7z M305.9,196.8c1.3,12.2,2.5,23.9,3.7,36.2c0.6,0,1.3,0.1,1.7,0.1c-1.2-12.3-2.3-23.8-3.5-36
		C307.2,197.1,306.5,197,305.9,196.8L305.9,196.8z"/>
	<path id="XMLID_55_" class="st1" d="M322.6,240.2l-0.7-17.2l1.6-1.6l0.7-0.7l0.7,17.4l12,1.9l-2.7,2.1L322.6,240.2z M304,239
		l-4-35.1l-4.9-0.5l-1.3-9.4l1.8-2.1l0.6-0.7l1.5,9.6l4.7,0.8l4,35.1l11.4,0.7l-2.4,2.1L304,239z"/>
	<path id="XMLID_56_" class="st3" d="M372.5,225.6c0.8-3.6,1.6-7.1,2.4-10.7c-10.5-4.7-21.2-8.8-32.2-12.3
		c-0.1,4.4-0.4,8.5-0.4,12.8c2.3-0.6,4.7-1.1,7.1-1.5c0.1-1.2,0.1-2.4,0.3-3.6c1.3,0.4,2.5,0.8,3.9,1.3c-1,9.8-2.7,19.9-3.6,29.7
		c2.9,0.5,6.6,2,9.3,2.7c1.6-9.2,2.8-19.6,4.4-28.7c1.3,0.4,2.5,1,3.7,1.4c-0.1,1.2-0.4,2.1-0.5,3.2
		C368.9,222,370.7,223.6,372.5,225.6z"/>
	<path id="XMLID_57_" class="st4" d="M355.6,212.4c-0.8,7.8-2.1,17.1-3.1,26.9c0.5,0.1,0.9,0.2,1.5,0.4c1.2-9.8,2.4-19,3.5-26.7
		L355.6,212.4z"/>
	<path id="XMLID_60_" class="st1" d="M365.5,223.9l0.4-1.6l0.1-0.8l6.7,6.6l-2.7,0.5L365.5,223.9z M344.9,244.1l3.8-26l-11,2
		l0.3-16.8l1.8-1.6l0.7-0.6l-0.1,16.8l11-2.1l-3.9,26.7l12.6,3.8l-3.2,1.2L344.9,244.1z"/>
	<path id="XMLID_61_" class="st3" d="M403.6,231.5c-1.3,2.7-2.4,5.2-3.6,7.8c-2.7-0.5-5.2-1-7.9-1.3l3.2-11.6
		c-2.8-1.4-10.7-6.4-12.1-7.1l-1.3,5.6c1,0.7,2.1,1.4,3.2,2l-3.2,14.1c5.5,0.3,10.9,0.9,16.3,1.8c-1.5,3.2-2.7,5.6-4.2,8.7
		c-4.4-1.8-8.9-3.5-13.8-5.2c-0.4,1.5-1.1,4.3-1.1,4.3c6.9,2.4,19.6,8.4,19.6,8.4c4.4-7.5,8.9-15.3,13.4-22.7
		C409.3,234.7,406.6,233.2,403.6,231.5z"/>
	<path id="XMLID_62_" class="st4" d="M387.3,226.7c-1.3,4.5-1.9,8.9-3.2,13.3c0.5,0.1,1.1,0.1,1.6,0.1c1.3-4.3,1.9-8.3,3.2-12.7
		C388.4,227.2,387.8,227,387.3,226.7z"/>
	<path id="XMLID_65_" class="st1" d="M374.3,253.1l1.8-6.5l2-0.3l0.6-0.1l-1.6,5.9l21.1,8.8l-2.4,1.2L374.3,253.1z M380.2,229.3
		l-3.3-1.6l2.3-9.4l2-0.9l0.8-0.4l-2.3,9.4l3.2,2.1l-3.2,13.7l-2.4,0.4L380.2,229.3z"/>
	<path id="XMLID_75_" class="st4" d="M394.6,206.6c-1.4-0.7-2.6-1.5-3.9-2.1l-0.4-0.1l0.1-0.4c0.5-1.3,1-2.4,1.6-3.8v-0.4
		c0-0.1,0-0.3-0.5-0.5c-1-0.6-1.8-1.1-2.9-1.6c-0.5,1.5-1.1,2.8-1.6,4.3l-0.1,0.4l-0.4-0.2c-1.3-0.8-2.5-1.4-3.9-2.1l-0.4-0.2
		l0.3-0.4c0.3-0.5,0.4-1,0.5-1.5l0.1-0.5l0.5,0.3c0.3,0.2,0.6,0.3,0.9,0.5c1-2.4,1.7-4.7,2.7-7.1c-0.3-0.2-0.7-0.4-1-0.6l-0.3-0.1
		l0.1-0.4c0.2-0.5,0.4-1,0.6-1.5l0.1-0.5l0.4,0.3c1.3,0.7,2.5,1.4,3.9,2.1l0.4,0.1l-0.1,0.3c-0.6,1.4-1,2.7-1.6,4.1
		c1.8-0.7,3.4-1.4,5.2-2.1l0.2-0.1l0.1,0.1c1,0.6,2.1,1.2,3.2,1.8l0.3,0.1l-0.1,0.4c-0.2,0.6-0.4,1-0.7,1.6l-0.2,0.4l-0.4-0.2
		c-0.6-0.3-1.1-0.6-1.7-0.9c-1.1,0.4-2.1,0.8-3.2,1.1c0.3,0.1,0.5,0.3,0.7,0.4c1.5,0.8,2.4,1.7,2.4,3c0,0.3-0.1,0.6-0.1,1
		c-0.3,0.8-0.6,1.5-1,2.3c0.4,0.2,0.8,0.4,1.1,0.6l0.3,0.1l-0.1,0.4l-0.6,1.6l-0.1,0.4L394.6,206.6z M371.1,186.4l-0.1,0.4
		L371.1,186.4c0.1,0,0.4,0.1,0.4,0.1c0.1,0,0.1,0,0.3-0.4v-0.1c0.2-0.4,0.4-0.9,0.4-1.3l0.1-0.4c0-0.2-0.1-0.4-0.6-0.7
		c-1.1-0.4-2.1-0.9-3.2-1.5c-0.2,1-0.4,1.7-0.7,2.7C368.8,185.4,369.9,185.9,371.1,186.4z M374.3,196.3c-1.5-0.7-2.8-1.2-4.4-1.8
		l-0.3-0.1l0.1-0.4c0.5-1.4,0.7-2.7,1.2-4.3l0.1-0.4c0-0.1-0.1-0.3-0.5-0.6c-1.2-0.4-2.1-0.9-3.3-1.4c-0.4,1.6-0.7,3.1-1.3,4.8
		l-0.1,0.4l-0.4-0.1c-1.5-0.7-2.7-1.3-4.4-1.9l-0.4-0.1l0.1-0.4c0.2-0.5,0.4-1.1,0.4-1.6l0.1-0.4l0.4,0.1c0.3,0.2,0.7,0.4,1.1,0.4
		c0.7-2.7,1.3-5.2,2.1-7.8l-1.2-0.5l-0.4-0.1l0.1-0.3c0.1-0.6,0.3-1.2,0.5-1.8l0.1-0.4l0.4,0.1c3.1,1.3,5.8,2.5,8.9,3.9
		c1.6,0.4,2.7,1.8,2.8,3.4c0,0.2,0,0.4-0.1,0.5v0.1c-0.2,0.6-0.4,1.3-0.6,1.9c-0.2,0.7-0.9,1.2-1.6,1.2c0.5,0.4,0.7,1.1,0.7,1.7
		c0,0.3-0.1,0.5-0.1,1c-0.2,0.7-0.3,1.2-0.5,1.9c0.4,0.2,0.7,0.4,1.1,0.5l0.3,0.1l-0.1,0.3c-0.1,0.6-0.4,1.1-0.4,1.6l-0.1,0.5
		L374.3,196.3z M344.5,181.6v0.3c0,0.4,0,0.4,0.7,0.7c1.2,0.4,2.3,0.8,3.5,1.3c0.2,0.1,0.3,0.1,0.5,0.1c0.1-0.1,0.1,0,0.3-0.4
		c0.5-2.5,0.8-4.8,1.3-7.4V176c0-0.4,0-0.5-0.7-0.7c-1.3-0.4-2.4-0.9-3.6-1.3c-0.2-0.1-0.3-0.1-0.5-0.1c-0.1,0-0.1,0-0.4,0.4
		C345.2,176.8,345,179.1,344.5,181.6L344.5,181.6z M350.9,187.1c-0.7,0-1.3-0.1-1.9-0.3c-1.9-0.7-3.5-1.2-5.5-1.9
		c-1.8-0.7-3.1-2-3.1-3.5v-0.4c0.5-3,1-5.5,1.5-8.4c0.2-1.2,1.3-2,2.4-1.8c0.7,0,1.3,0.1,1.9,0.3c1.9,0.7,3.5,1.3,5.5,1.9
		c2,0.7,3.2,2,3.2,3.5v0.5l-0.4-0.1l0.4,0.1c-0.6,2.8-1.1,5.5-1.6,8.3C353.1,186.4,352.1,187.2,350.9,187.1L350.9,187.1z
		 M327.7,180.9c-2.4-0.6-4.3-1.2-6.4-1.7l-0.4-0.1v-0.4c0-0.6,0.1-1.2,0.1-1.8v-0.5l0.4,0.1c0.4,0.1,0.8,0.2,1.3,0.4
		c0.1-1.3,0.2-2.4,0.2-3.5c-1.3-2.3-2.6-4.3-3.9-6.6c-0.4-0.1-0.9-0.2-1.5-0.4l-0.4-0.1v-0.3c0-0.6,0.1-1.3,0.1-1.9v-0.5l0.5,0.1
		c1.3,0.3,2.7,0.7,3.9,1l0.1,0.1l0.1,0.1c1.2,2.1,2.1,4,3.2,6.1c1.3-1.4,2.3-2.7,3.7-4.1l0.2-0.1h0.2c1.3,0.4,2.4,0.6,3.6,1l0.4,0.1
		v0.4c-0.1,0.7-0.1,1.3-0.1,1.9v0.5l-0.4-0.1c-0.5-0.1-1-0.3-1.5-0.4c-1.6,1.5-2.8,2.7-4.3,4.1c0,1.3-0.1,2.5-0.2,3.8
		c0.5,0.1,0.9,0.2,1.4,0.3l0.3,0.1v0.4c0,0.6,0,1.3-0.1,1.9v0.4L327.7,180.9z M289.3,173.4c-0.9-0.1-1.9-0.2-2.8-0.4h-0.3l-0.1-0.1
		c-1.6-3.8-3.1-7.1-4.7-10.8c-0.8,3.3-1.6,6.3-2.3,9.8l-0.1,0.4l-0.4-0.1c-1-0.1-1.7-0.2-2.8-0.4h-0.3l-0.1-0.3
		c-1.6-4.3-3-8.2-4.7-12.5c-0.4-0.1-0.9-0.1-1.4-0.1h-0.3v-0.4c-0.1-0.7-0.1-1.3-0.1-2v-0.5l0.4,0.1c1.4,0.1,2.8,0.3,4.1,0.4h0.3
		l0.1,0.2c1.3,3.3,2.1,6.3,3.2,9.6c0.6-2.9,1.1-5.7,1.9-8.8l0.1-0.4l0.4,0.1c1.2,0.1,2.1,0.2,3.2,0.4l0.3,0.1l0.1,0.1
		c1.5,3.5,2.7,6.3,4.1,9.7c0.4-3,0.7-5.8,1-8.9l0.1-0.4l0.4,0.1c1.4,0.1,2.7,0.3,4.1,0.5h0.4v0.4l0.1,2l0.1,0.5l-0.5-0.1
		c-0.4-0.1-0.8-0.1-1.2-0.1c-0.5,4-1.3,7.5-1.8,11.5l-0.1,0.4L289.3,173.4z M261.8,170.7c-4.4-0.1-8.3-0.1-12.7-0.2h-0.3v-0.3
		c-0.1-0.7-0.3-1.3-0.4-2.1v-0.5h1.6c-0.7-3.3-1.3-6.3-2-9.6h-1.6v-0.4c-0.1-0.7-0.2-1.3-0.4-2l-0.2-0.5h0.6c4.4,0.1,8,0.1,12.6,0.3
		h0.4v0.3c0.3,1.6,0.5,2.9,0.9,4.5l0.1,0.5l-0.5-0.1c-0.9-0.1-1.6,0-2.6-0.1h-0.4v-0.4c-0.1-0.7-0.3-1.4-0.4-2.1
		c-1.6-0.1-3.1-0.1-4.7-0.1c0.1,1,0.4,2,0.7,3.1c1.9,0,3.6,0.1,5.5,0.1h0.4v0.4c0.1,0.6,0.3,1.2,0.4,1.9v0.5h-0.4
		c-1.9-0.1-3.5-0.1-5.3-0.1c0.3,1.3,0.5,2.4,0.7,3.7c1.6,0,3.1,0.1,4.7,0.1c-0.1-0.7-0.2-1.4-0.4-2.1l0.4-0.1l-0.4,0.1l-0.1-0.5h0.6
		c0.8,0,1.7,0,2.6,0.1h0.4l0.1,0.4c0.4,1.5,0.7,3.1,0.9,4.7l0.1,0.4L261.8,170.7z M221.1,170.7c-0.1-0.7-0.3-1.4-0.4-2.1l-0.1-0.5
		h1.6c-0.8-3.5-1.6-6.6-2.3-10c-0.4,0-0.8,0-1.2,0.1h-0.4l-0.1-0.4c-0.2-0.7-0.4-1.4-0.5-2.1l-0.1-0.5h0.5c1.6-0.1,3-0.1,4.7-0.1
		h0.1l0.1,0.1c2.8,3.3,5.2,6.3,8,9.4c0-0.1-0.1-0.1-0.1-0.3c-0.7-3.1-1.3-5.8-2-8.9l-0.1-0.5h1.3c1.2,0,2.3,0,3.5-0.1h0.3l0.1,0.4
		c0.1,0.7,0.3,1.3,0.4,2.1l0.1,0.5h-1.6c1,4.3,1.8,8.1,2.8,12.4l0.1,0.5h-0.5c-0.8,0-1.6,0.1-2.4,0.1h-0.4l-0.1-0.1
		c-2.9-3.3-5.5-6.2-8.2-9.4c0,0.1,0.1,0.2,0.1,0.4c0.7,3.1,1.3,5.8,2,8.9l0.1,0.5h-0.5c-1.4,0.1-2.7,0.1-4.3,0.1h-0.4V170.7z"/>
	<path id="XMLID_76_" class="st1" d="M192.3,272.4c0,0-11-11.1-11.7-13.6c-0.7-2.5-3.7-22.7-3.7-22.7s-10.5-3.2-11.6-5.4
		c-0.6-1.2-0.7-2.7-0.3-4c0,0-4.8-1.9-5.6-4.1c-0.8-2.1,0.3-5.9,0.3-5.9s-6.1-1.4-8.3-3.2c-3-2.7-1-8.3-1-8.3s-4.4-1.6-5.1-3.7
		c-0.2-0.6-0.2-1.3,0-1.9c-0.6,0-1.3-0.1-1.9-0.2c-0.4,1.9-0.9,4.4-0.5,5.1c0.7,2.1,5.1,3.7,5.1,3.7s-1.6,5.6,1.1,8.3
		c1.8,2,7.4,3.2,7.4,3.2s-1,3.7-0.2,5.9c0.7,2.1,5.5,4,5.5,4c-0.4,1.3-0.3,2.7,0.4,3.9c1.1,2.1,10.9,5.2,10.9,5.2s3.6,20.5,4.4,23
		c0.7,2.5,11.9,13.1,11.9,13.1c4.9,16.7,9.3,20.5,9.3,20.5l0.3-0.2c-1.5-3.3-2.7-6.9-3.9-10.4C194,281.2,193.1,276.8,192.3,272.4z"
		/>
	<path id="XMLID_79_" class="st2" d="M236.1,277.8c-0.8-0.2-1.7-0.3-2.5-0.4c-1.1-1.9-2.4-3.6-3.9-5.2l8.4,2.9
		C237.3,275.8,236.6,276.7,236.1,277.8z M317.5,276.5l44.6,2.1l-38.7-8.5c0.2-0.2,0.4-0.5,0.7-0.7c0.4-0.4,0.7-0.8,1-1.2l42.3-5.5
		l-39.4-1.9c-0.1-0.7-0.3-1.4-0.5-2c-0.2-0.4-0.5-0.8-0.7-1.1l39.3-19.2l-50,14c-1.8-0.3-3.6-0.5-5.5-0.5l19.2-29.9l-19,16.8
		l-16.5,13.7c-1,0.1-2.1,0.3-3.2,0.4l-9.8-36.7l-3.1,23.3l-2.4,16.7c-0.5,0.1-1.1,0.3-1.6,0.4l-12.9-6.5l-30-15.3l25.1,28.1
		c-0.4,0.1-0.8,0.3-1.1,0.4l-30.9-1.9c0-3.8,0-15-0.4-17.6c-0.7-5.4-16.2-24-16.2-24c2-5.6,3.2-11.5,3.5-17.4
		c0.1-3.8-2.1-15.7-2.6-16.2c-1.1-1.1-6-3.9-7.9-4.1c-0.8-0.1-1.6-0.1-2.4-0.1c7.2-5.8,8.6-11.1,8.9-13.2c0.5-3-0.6-6-3-7.9
		c-1-0.6-2.1-1-3.2-1c-0.6-7.3-0.7-13.7-0.9-20.7l-0.7-12.5l-3.8,2.3l-16,10.8L117.6,157l-5.6,0.3c4.6,5.3,10.3,12.6,14.2,16.8
		c3,3.5,6.1,6.9,9.6,10.9c-0.7,1.1-1.3,2.3-1.6,3.5c-0.7,3.1,1,5.9,3.1,7.8c2.3,2,5.2,3.1,8.2,3.2c-0.1,0.6-0.1,1.2,0,1.8
		c0.8,2.1,5.1,3.8,5.1,3.8s-1.9,5.7,1.1,8.3c2,1.7,8.2,3.2,8.2,3.2c-0.6,1.9-0.7,3.9-0.3,5.9c0.8,2.1,5.6,4.1,5.6,4.1
		c-0.4,1.3-0.3,2.7,0.3,3.9c1.1,2.2,11.6,5.5,11.6,5.5s3,20.2,3.7,22.6c0.7,2.5,11.8,13.7,11.8,13.7c0.7,4.4,1.6,8.7,2.6,12.3
		c4.7,15.1,14.1,30.6,14.1,30.6c-4.8-6.3-8.9-13.1-12.2-20.2c-3.4,4.9-6,10.3-7.6,16c-1.4,5.8-1.7,11.9-0.9,17.8
		c19.6,20.6,41.2,39.3,64.5,55.8c30.6-18,58.7-39.9,83.5-65.3c-4.9-1.7-10-3.2-15.1-4.3c0.2-1.8,0.1-3.5-0.4-5.2l-14.1-0.9
		c1.2-3.2,2.3-6.4,3-9.7c0.1-2.7-0.3-5.3-1.1-7.9c1.5-0.8,2.6-2.2,3-3.9l-0.4-3.6C312.8,282.8,316.7,279.8,317.5,276.5z"/>
	<path id="XMLID_80_" class="st0" d="M132.1,166.3c-4.3-2.5-8.7-4.7-13.2-6.6l-0.1-0.1l-1-1.3l0.4-0.3l-0.4,0.2
		c-1.9-3.2-3.5-6.6-4.9-10.1c-3.2-7.5-8.1-8.5-12.6-9.6c-4.2-1-6.6-4.8-8.2-8.3c-0.9-2.1-1.6-4.4-2-6.7l-0.1-1.5l0.9,1.1
		c3.8,4.5,8.3,6.7,12,6.7c0.3,0,0.5,0,0.8-0.1h0.8c4.6,0,7.8,3.6,8.8,4.9c0.5-0.8,0.8-1.8,0.8-2.7c0-0.9-0.1-1.9-0.4-2.7
		c-0.1-0.4-0.2-0.8-0.4-1.2c-2.1-5.6-5.2-6.1-9-6.4c-3.7-0.4-8-0.7-11.4-6c-1.9-2.7-3-6-3-9.4c0.1-4.1,1.5-8,4.2-11.1l0.4-0.4
		l0.3,0.5c3.2,6.9,6.1,8.7,9.4,8.7c4,0,8.7-2.8,14.3-2.8c1,0,2,0.1,3,0.3c3.7,0.9,7.4,2.3,10.8,4.1c-2.5-3.2-3.9-7.1-4-11.2
		c0-3.1,0.8-6.1,2.4-8.8l0.3-0.4l0.4,0.4c6.3,6.5,17.9,7.8,28.7,8.7c11.1,0.9,21.5,7.2,28.5,17c4.4,6.2,7,13.5,7.5,21.1v0.1
		l-4.3,14.3l-0.4-0.1c-2.8-1.3-10-4.7-11.8-5.6l-5.5,16.2l-0.4-0.1c-3.2-1.7-11.4-6.1-13.4-7c-0.7,2-4.3,10.7-5.5,13.8l-0.1,0.4
		l-0.4-0.1c-3.6-2-13.3-7.3-15.2-8.5l-6.4,11.2L132.1,166.3z"/>
	<path id="XMLID_81_" class="st2" d="M170.5,129.7l-0.7,0.1l-0.1-0.4l-0.1-0.4c-0.7-2.5-1.7-4.9-2.9-7.2l-0.4-0.8l0.4-0.1l0.4-0.1
		c3.4-1.4,7.1-2.1,10.8-2.1c2.5-0.1,5,0.5,7.2,1.6c0.5,0.3,1,0.6,1.5,0.9c-0.5-0.7-1.2-1.3-1.9-1.8c-2.1-1.3-4.6-1.8-7.1-1.7
		c-3.7,0.1-7.4,0.8-10.9,2.2l-0.6,0.1l-0.1-0.3l-0.1-0.3c-0.9-1.5-2-2.8-3.1-4.1l-1-1l-0.7-0.8l0.5-0.3l0.4-0.1
		c2.5-1.1,4.6-2.7,6.3-4.7c-2.1,1.9-4.6,3.4-7.2,4.5l-0.5,0.3l-0.3-0.4c-2.3-2.4-4.9-4.5-7.8-6.1c2.5,1.7,4.7,3.8,6.7,6.1l0.7,0.8
		l-0.5,0.1l-0.4,0.1l-0.3,0.1c-0.2,0.1-0.3,0.1-0.5,0.1c-4.6,1.8-9.4,2.7-14.3,2.8h-0.8c0.9,0,1.8,0.1,2.7,0.1
		c3.7-0.1,7.3-0.6,10.9-1.7c1-0.4,2.1-0.7,3.1-1.2l0.5-0.3l0.1,0.3l0.1,0.2c1.4,1.7,2.6,3.5,3.7,5.5l0.4,0.8l-0.4,0.1L164,121
		c-0.7,0.3-1.6,0.7-2.5,1.1c-11,5.5-20.3,14-26.7,24.6c6.3-9.4,14.8-17.2,24.8-22.5c1.6-0.9,3.2-1.7,4.9-2.4l0.7-0.2l0.1,0.3
		l0.1,0.4c1.2,2.4,2.2,4.8,3.1,7.2l0.2,0.7l-0.4,0.1l-0.3,0.1c-4.7,1.7-8.8,5-11.4,9.2c-0.4,0.7-0.8,1.3-1.2,1.9l1.1-1.6
		c3-4,7-7.1,11.6-8.9l0.8-0.3l0.1,0.4l0.1,0.4c1.2,3.7,2.1,7.4,2.7,11.2c-0.1-3.9-0.7-7.8-1.7-11.6l-0.2-0.7l0.4-0.1h0.3
		c2-0.6,4-0.9,6.1-1c3.2-0.1,6.4,0.9,9,2.7c-0.4-0.4-0.8-0.8-1.3-1.1c-2.4-1.5-5.2-2.3-8-2.1C174.4,128.9,172.4,129.2,170.5,129.7z"
		/>
	<path id="XMLID_84_" class="st1" d="M146.6,188c-2.5-0.2-4.8-1.2-6.7-2.8c-1.3-0.5-6.3,8.5,6.6,10.5v-0.2
		C143.4,191.8,145.4,189.2,146.6,188z M136.3,173.7l6.1-9.9l-2.3-4.8l-6.3,11l-13.1-6.4l17.9,19.2c1.7,1.2,3.6,2.1,5.6,2.4
		L136.3,173.7z"/>
	<path id="XMLID_114_" class="st4" d="M315,273.6c0.2,0.4,0.3,0.8,0.3,1.3c-0.2,1.8-1.1,3.4-2.6,4.4c-0.7,0.7-1.6,1.2-2.4,1.7
		l-0.1,0.1h-0.1c-0.6-0.1-1.1-0.1-1.7-0.1l-1.1-0.2l1-0.5c0.7-0.4,1.2-1.2,1.1-2.1c0-0.4,0-0.8-0.1-1.3c-0.5,1.7-2.1,2.7-3.8,2.5
		c-1.4,0-2.8-0.4-4.1-1l-0.5-0.3l0.5-0.4c0.8-0.7,1.2-2.7,1.2-4.4c0-1.2-0.1-2.5-0.4-3.7L302,269h0.5c1.9,0.1,3.8,0.4,5.6,0.8
		C311,270.4,314.2,271.4,315,273.6z M251.9,380c0,0-1.1-0.7-2.7-1.8l-0.7-0.4l0.7-0.3c4.5-1.9,8.3-5.3,10.7-9.7
		c-4.1,2.5-8.9,3.8-13.7,3.8c-2.5,0-4.9-0.3-7.3-0.9h-0.1v-0.1c-3.5-2.5-6.8-5.4-9.8-8.5l-0.6-0.7h0.9c1,0,1.9-0.1,2.9-0.3
		c3-0.4,5.9-1.1,8.8-1.9c3.6-1.1,6.9-2.7,10-4.9c1.3-1,2.6-2,3.8-3.1l0.4-0.4l0.2,0.4c0,0,0.4,0.7,1.2,1.7c1.1,1.4,2.3,2.7,3.6,3.9
		c4.1,3.6,9.3,5.6,14.8,5.5c1.3,0,2.6-0.1,3.9-0.4l1.5-0.2l-1.2,1c0,0-13.2,11.1-26.9,17.1l-0.1,0.1L251.9,380z M292.1,299.2
		l2.1,1.2l-0.3-8l0.4-1.3l-1.6,0.7l-12-2.4l-5.7,3l3.3,0.7l-1.9,1.9l11.5,2.2l3.6-1.6L292.1,299.2z M296.1,310.8l2.9-3l-3,0.1
		l-1.5-1.1l-1.8,1.1h-0.9L296.1,310.8z M289.6,314.6l6.5,0.7l3.2-1.3c-0.4-0.2-0.9-0.3-1.3-0.4l-1.7,1l-1.3-0.8l-1.3-0.2
		L289.6,314.6z M293,318.9l0.4,0.9l3.3-0.4l0.2-0.8L293,318.9z M283.5,326.3c-5.8-2.5-12.6-8.2-14.7-12.3v-0.1c0,0-0.4-5.7-0.4-11.2
		v-1.2l-4.2-5.2l0.1-0.1c0,0,1.3-4.3,2.4-8.1l0.1-0.1l0.6-0.4h0.1c1.8-0.1,3.4-0.8,4.7-2l0.1-0.1h0.2c0.8,0.1,1.6,0.2,2.4,0.2
		c4.7,0,6.9-2.1,7.5-3.2l0.1-0.3l0.2,0.1c1,0.1,1.9,0.2,2.9,0.1c4.4-0.2,8.7-1.1,12.8-2.7h0.1l0.2,0.1c3.1,2.1,6.7,3.5,10.5,4
		l0.3,0.1v0.4c0.1,0.7,0.1,1.5,0.1,2.1c0,0.5,0,1.1-0.1,1.6l-0.4-0.1l0.1,0.4c-2.6,1.6-5.4,2.9-8.3,3.8h-0.1l-1.7-0.5
		c0.4,1.5,0.7,3,0.9,4.6l2.4,0.7c0.6-0.3,3-1.3,4.2-1.7l0.4-0.1l0.1,0.4c0.3,1.2,0.4,2.3,0.4,3.5v1.2c-1,3.6-2.4,7.1-4.1,10.4
		c0,0-1,2.1-1.9,4.4c-0.8,1.8-1.5,3.7-1.9,5.6c-0.2,4.1-2,5.5-2.1,5.6c-2.4,1.1-5.1,1.7-7.8,1.6
		C287.6,327.6,285.5,327.1,283.5,326.3L283.5,326.3z M222.5,321.3c-10-14.2-18.4-40.1-18.5-40.1l-0.3-0.8l0.8,0.3
		c0,0,0.3,0.1,0.7,0.1c0.4,0.1,0.8,0.2,1.3,0.2c0.2,0,0.5,0,0.7-0.1c0.1-0.1,0.1-0.1,0.1-0.4v-0.3c-0.7-3.4-2.7-10-3.1-11.1
		c-0.3-0.1-1.3-0.9-2.4-1.6c-1.3-0.8-2.8-1.4-4.3-1.7h-0.1l-0.1-0.1c-2.5-3.9-4.6-8-6.3-12.3c-0.5-1.4-0.7-2.9-0.7-4.4
		c0-0.8,0.1-1.6,0.1-2.4l0.1-0.7l0.6,0.4l0.1,0.1c0.2,0.1,0.4,0.2,0.5,0.3c0.6,0.4,1.3,0.6,2.1,0.6h0.1l4.1,7.1l-0.1,0.2
		c-0.5,0.9-0.7,1.8-0.7,2.8c0.1,3.5,2.9,6.4,6.4,6.4c1.7,0,3.3-0.7,4.5-1.9c1.2-1.2,1.9-2.8,1.9-4.5c0-1.7-0.7-3.3-1.9-4.5
		c-0.5-0.5-1.2-0.9-1.8-1.3l-0.1-0.1l-1.8-9.6l0.1-0.1c0.1-0.4,0.4-0.6,0.5-1c0.5-1.3,0.7-2.6,0.7-4c0.1-2.4-1.3-4.5-3.5-5.3
		l-0.2-0.1l-5.5-23.6l0.1-0.1c0,0,0.8-1.7,1.7-4.2c0.9-2.3,1.5-4.7,2-7.1c-2,2-4.7,3.1-7.5,3.3h-0.1c-3.5-0.1-6.6-2.4-7.3-4.1
		c-0.1-0.2-0.1-0.5-0.1-0.7c0-0.6,0.3-1.1,0.7-1.4c0.5-0.3,1.1-0.5,1.6-0.7c1.5-0.4,2.8-1,4.1-1.9c2.2-1.2,4.2-2.5,6.2-3.9
		c0.2-0.2,0.5-0.3,0.8-0.3c2,0,6.1,2.3,6.1,2.3l0.1,0.1v0.1c0.6,1.4,1,2.8,1.2,4.4c0.3,1.5,0.5,3,0.5,4.6v0.4c0,0.2,0.1,1.7,0.1,3.9
		c0,4.7-0.4,12-3.5,16.8c1.6,2.2,14,19.3,16.4,26v0.1c0,0,0.3,7.6,0.3,13.2c0,1.8,0,3.6-0.1,5.4l2.3,6.8l3.2,3.2v0.1
		c3.6,5.4,6.6,11.2,8.9,17.2c0.9,2,1.4,4.2,1.3,6.3c-0.1,4-0.8,7.9-2,11.7c-3.1,10.4-10.6,11.9-10.7,11.9h-0.3L222.5,321.3z
		 M181.3,229v-0.3l0.3-0.1c1.6-0.7,5-2.3,5.5-2.4c1.3-1,2-1.5,2.7-1.5c0.2,0,0.5,0.1,0.7,0.2c0.1,0.2,0.2,0.4,0.1,0.6
		c-0.1,1.1-0.6,2.2-1.3,3c-0.9,1.1-2,2-3.2,2.7c-1.1,0.7-2.3,1.1-3.5,1.3c-0.3,0-0.5-0.1-0.7-0.1c-0.2-0.2-0.3-0.5-0.4-0.7v-0.1
		L181.3,229z M188.1,217c-0.3-0.2-0.7-0.3-1-0.3h-0.5c0,0-1.7,0.7-3.5,1.5c-1.4,0.6-2.9,1-4.4,1.3c-1.3,0-3,0.1-8.3,0.1H169l1.1,0.8
		c1.9,1,4.1,1.5,6.3,1.6h0.8c0.7,0,1.4,0,2.1-0.1l0.1,1.1l0.3,1.5l0.4-0.1c0,0,1.3-0.5,2.7-1.1c1.2-0.5,2.4-1.1,3.5-1.8
		c1.2-0.9,2-2.1,2.3-3.5C188.6,217.5,188.4,217.2,188.1,217L188.1,217z M168.1,207.3c-0.8-0.5-1.4-1.4-1.6-2.4
		c-0.2-0.9-0.3-1.9-0.3-2.8c-3.2-0.7-6.3-1.5-9.4-2.7c-0.3,0-0.6-0.2-0.8-0.4l0.4-0.2L156,199l-0.7-0.8l1.1,0.1
		c4,0.7,8.1,1.1,12.2,1.3h0.1l0.1,0.1c0.1,0,0.3,0,0.4,0.1c0.4,0.1,0.9,0.2,1.3,0.2c0.9,0,1.7-0.2,2.5-0.5c1.3-0.5,2.7-0.9,4.1-1.1
		h0.1c0.5,0.2,1,0.5,1.5,0.7c0.9,0.4,1.5,1.3,1.6,2.3c0,1.3-1.1,2.5-4.2,4.1c-2.5,0.9-5.1,1.6-7.7,1.8H168.1z M157.9,209l0.1-0.4
		L157.9,209z M174.5,215.4c-0.2-0.1-0.4-0.3-0.4-0.5l-0.3-1.6c-5.4-0.8-10.8-2.2-15.9-4.3l0.3-0.7c4.4,1.2,9,2,13.5,2.4
		c2.3-0.3,4.6-0.9,6.7-1.9c1.5-0.6,3-1.3,4.4-2.1v-0.1h0.1c0.7,0,1.5,0.2,2.1,0.5c0.4,0.3,0.7,0.8,0.7,1.3c-0.2,1.2-0.8,2.3-1.7,3.1
		l-0.1,0.1c-0.4,0.3-0.8,0.6-1.3,0.9c-0.7,0.4-1.6,0.9-2.5,1.3c-1.6,0.8-3.3,1.4-5.1,1.7C175,215.6,174.7,215.5,174.5,215.4
		L174.5,215.4z M238.2,286.2l0.3-0.3L238.2,286.2z M212.9,346c-1.1,0-2.2-0.1-3.2-0.5h-0.1l-16.8-16.1v-0.1c-0.5-3-0.8-6-0.8-9
		c-0.1-2.3,0.2-4.6,0.7-6.9c0.9-3.3,2.2-6.5,3.8-9.4l0.4-0.7l3.5,6.7l-0.1,0.1c-0.1,0.1-0.2,0.2-0.2,0.4l-0.5,1.2
		c-0.7,1.8-1.2,3.6-1.4,5.5c-0.1,1.1-0.1,2.1-0.1,3.2c0,2,0.2,4.1,0.7,6.1l0.2,0.7c0.3-1.6,0.7-3.9,1.3-5.9c0.8-3.2,2.4-7.9,2.4-7.9
		l0.4-1l3.4,6.9v0.1c-0.4,2.1-0.5,4.3-0.5,6.4c0,4.1,0.8,8.6,3.5,10.6c0.8,0.6,1.8,0.9,2.9,0.9c6.6,0.1,18.1-9.9,23.4-19.4
		c4.1-7.2,4.9-19.4,4.9-24.4c0-0.6,0-1.3-0.1-1.9c-0.3-1.2-0.7-2.4-1.2-3.5c-0.5-1.2-1-2.2-1-2.2l0.7-0.4l4.9,4.4
		c1.3,2.7,2.1,5.7,2.2,8.8c0.1,1.2,0.1,2.7,0.1,4.4c0,7.8-1.9,21-14.8,33.1C222.6,344.4,216.4,346,212.9,346L212.9,346z
		 M223.6,353.1l-0.1-0.9c11.7-3.2,18-11.7,21.5-18.6c1.7-3.8,3.1-7.8,4.1-11.8c1-3.8,1.6-6.7,1.6-6.7h0.8c0.6,2.8,0.9,5.6,0.9,8.4
		c0,13.2-6.8,23.6-11.4,26.4c-4.9,2.9-14.5,3-16.8,3.1L223.6,353.1L223.6,353.1z M266.4,349.5c-3.1-3.4-4.7-7.8-4.5-12.4
		c0-3.2,0.5-6.4,1.6-9.4h0.8c0.3,2.2,0.8,4.3,1.6,6.4c1.2,3.4,3.2,7.2,6.3,9c2.7,1.7,5.9,2.5,9.1,2.5c3.9-0.1,7.8-1,11.4-2.5
		l0.7-0.4l-0.3,0.8c0,0.1-2.8,9.3-10.8,12.4h-0.1c-0.6,0.1-1.1,0.2-1.7,0.1C277.5,356.2,272,355.4,266.4,349.5L266.4,349.5z
		 M282.8,341.9c-4.1-0.2-8-1.7-11.1-4.4l0.3-0.4l0.1,0.4l-0.1-0.4l-0.3,0.4l-0.4-0.4l11.9-7.3l0.1,0.1c1.9,0.7,3.8,1.1,5.8,1.1
		c1,0,2.1-0.1,3-0.4l0.1-0.1l1-0.5l-3.6,9.9l-0.1,0.1C287.5,341.2,285.1,341.9,282.8,341.9L282.8,341.9z M314.8,334l0.7-0.9
		c0.7-0.8,1.2-1.8,1.6-2.7c1.8-3.6,3-7.5,3.6-11.5l0.1-0.4l0.4,0.1c0,0,1.7,0.4,3.5,0.7c1.5,0.2,3,0.6,4.4,1.3l0.4,0.3l-14.2,13.7
		L314.8,334z M293.4,351.7c0,0,2-4.1,4.1-9.4c2.1-5.4,4.4-12,4.8-16.8v-5.1h0.4l0.4,0.1l-0.4-0.1h-0.4v-0.1c0.6-2.4,1.5-4.7,2.8-6.8
		l0.1-0.1h0.2c0,0,1.1-0.1,2.8-0.1c2.8,0,5.7,0.2,8.5,0.7l0.3,0.1v1.3c0,3.2-0.8,14.3-11.2,26.8l-0.7-0.4c0.5-1,0.8-2.1,1.1-3.2
		c0.7-2.4,1.1-4.9,1.1-7.4c-2.1,4.3-8.3,15.9-13.2,21.3L293.4,351.7z M254.7,298.9l-0.4-0.1L254.7,298.9z M260.3,301.5
		c-0.8-0.8-1.6-1.5-2.6-2.1c-0.7-0.3-1.4-0.4-2.1-0.4c-0.4,0-0.8,0-1.2,0.1l-0.9,0.1l0.5-0.8c0,0,0.4-0.5,0.9-1.2
		c0.5-0.6,1.2-1.1,2-1.2c0.6,0.1,1.1,0.3,1.5,0.7c0.6,0.5,1.2,1,1.6,1.6c1.2,1.3,2,2.8,2.5,4.4l-0.7,0.4
		C261.8,303.2,261.1,302.5,260.3,301.5L260.3,301.5z M262,283c-0.2-0.5-0.3-1.1-0.3-1.7c0-1.2,0.3-2.5,1-3.5l0.4-1.1l0.3,1.2
		c0.4,1.9,1.8,5.7,5.8,6.7l0.4,0.1c0.2,0.1,0.3,0.2,0.3,0.4l0.1,0.4l-0.4,0.1c-0.7,0.1-1.3,0.1-2,0.1C265.3,286,263.1,284.9,262,283
		L262,283z M255.4,288.2c-1.3-0.8-2.1-2.2-2.3-3.7V284l0.1-0.4h0.7v0.4v-0.4h0.1l0.1,0.1c1.7,2.4,4.3,3.9,7.2,4.1h0.8l-0.6,0.7
		c-0.6,0.7-1.4,1.2-2.4,1.3h-0.2C257.7,289.7,256.4,289.1,255.4,288.2L255.4,288.2z M323.2,262.6c0.7,0.4,1.2,1.2,1.2,2.1
		c-0.1,2.4-3.2,5.2-6.1,6.5l-0.4,0.2l-0.1-0.5c-0.1-0.5-0.3-0.9-0.6-1.3c-0.4-0.7-0.9-1.3-1.5-1.2h-0.1l-0.1-0.1l-1-0.3l0.9-0.5
		c1.2-0.4,2.4-1.1,3-1.3c1-0.4,2-1,2.7-1.8l-0.3-0.1c-0.3-0.1-0.6-0.1-0.9-0.1c-1.9,0.2-3.7,0.7-5.4,1.5c-0.5,0.3-1.7,0.8-2.8,1.3
		l-0.1,0.1h-0.1c-0.7-0.1-1.3-0.3-2.1-0.4l-1.2-0.1l1-0.6c1.1-0.7,2.4-1.6,2.9-1.8c0.4-0.2,0.8-0.5,1.1-0.9c0.3-0.3,0.4-0.7,0.5-1.1
		c0-0.1,0-0.1-0.7-0.3h-0.4c-2.1,0-4.9,1.9-5.8,2.4c-0.5,0.4-2,1.3-3.1,2h-3.5l0.8-0.7c0.7-0.7,1.5-1.4,2.3-2.1
		c0.3-0.4,0.6-0.9,0.7-1.4c0-0.1,0-0.3-0.1-0.4c-0.3-0.1-0.6-0.2-1-0.1h-0.1c-2.1,0.2-4.1,1.3-5.5,2.9c-0.4,0.4-1.6,1.6-2.4,2.3
		l-0.1,0.1h-0.1c-0.6,0-1.3,0.1-1.9,0.2l-0.8,0.1l0.4-0.7c0.4-0.7,0.8-1.8,1.1-2.2c0.1-0.2,0.1-0.3,0.1-0.5c-0.1-0.5-0.1-1-1.5-1.1
		c-0.3,0-0.5,0-0.8,0.1c-1.8,0.3-3.5,1.4-4.4,3c-0.1,0.4-0.8,1.6-1.1,2.4l-0.1,0.1l-0.2,0.1l-1.9,0.4l-0.4,0.1v-0.4
		c-0.1-0.5-0.4-1.6-0.4-2c0-0.3-0.4-1.3-2.1-1.3c-0.5,0-0.9,0.1-1.3,0.2c-2.7,0.7-3.1,2.2-3.1,2.7v0.1c0.1,0.3,0.3,1.4,0.4,1.9
		l0.1,0.4l-0.4,0.1c-0.7,0.1-1.3,0.4-1.9,0.5l-0.1,0.1l-0.2-0.1c-0.5-0.4-1.5-1.3-1.8-1.6c-0.8-0.7-1.8-1.1-2.9-1.1
		c-0.7,0-1.3,0.2-1.9,0.4c-1.7,0.6-2,1.3-2,1.8c0,0.3,0.1,0.7,0.3,0.7c0.3,0.3,1.2,1,1.7,1.5l0.5,0.4l-0.7,0.3
		c-0.7,0.3-1.3,0.4-1.8,0.7l-0.1,0.1l-0.1-0.1c-1-0.3-2-0.6-3-0.9c-1-0.4-2.1-0.6-3.2-0.6c-0.9,0-1.8,0.2-2.6,0.6
		c-1,0.4-1.2,0.9-1.2,1.1c-0.1,0.4,0.7,1,1,1.1c1,0.2,1.9,0.5,2.8,0.9l1,0.3l-1,0.5c-0.5,0.2-1,0.5-1.6,0.8l-0.1,0.1H257
		c-1.3-0.1-3.2-0.3-3.8-0.4c-0.3,0-0.5-0.1-1-0.1c-1.8-0.1-3.6,0.3-5.2,1.2c-0.2,0.2-0.4,0.4-0.4,0.4l-0.1,0.1l0.1,0.1
		c0.1,0.1,0.3,0.2,0.4,0.3c0.5,0.1,0.9,0.2,1.4,0.3c0.7,0,2.7,0.3,3.9,0.4l1.1,0.1l-0.9,0.7c-0.6,0.5-1.1,0.9-1.6,1.5l-0.1,0.1h-0.2
		c0,0-1.5-0.1-3.2-0.3c-1.6-0.2-3.1-0.5-4.5-1.2c-0.3-0.2-0.5-0.5-0.5-0.8c0-0.1,0.1-0.4,0.1-0.4c2.7-4,11.5-8.4,22.4-12.3
		c11.3-4,23-6.6,34.8-7.9c1.8-0.1,3.7-0.3,5.5-0.3C313.3,259.5,320.7,261.1,323.2,262.6z"/>
	<path id="XMLID_125_" class="st4" d="M153.2,170l5.6,2.3l4.8-13.6l-1.9-5.1c-1.9,4.9-5.8,14.2-5.8,14.2l-15.9-8.8l8,16.6L153.2,170
		z M249.8,266.2l-24.4-1.7l19.9,4.4C246.7,268,248.2,267.1,249.8,266.2z M319,254.1l3.5,1l29-10.6L319,254.1z M289,254.1l-3.7,0.5
		l-3.7-30.3L289,254.1z M321.2,271.9c-0.7,0.6-1.6,1.3-2.4,1.8l25.2,2.1L321.2,271.9z M327.7,263.3c-0.2,0.8-0.4,1.6-0.8,2.4
		l26.2-2.4H327.7z M270.7,257.9L247,245.7l18.4,13.9C267.1,259,268.9,258.4,270.7,257.9z M303.7,252.1l16.5-19.6l-21.9,19.9
		C300.2,252.4,302,252.2,303.7,252.1z M255.2,270.3c-0.9-0.2-1.6-1-1.7-1.9v-0.1l0.1-0.2h0.2c9.2-4.4,20.6-8.9,39.6-11.7
		c4-0.6,8.1-0.9,12.1-0.9c4.8-0.1,9.6,0.5,14.2,1.8c1.1,0.3,2.1,0.9,3,1.6c0.6,0.5,1.1,1,1.5,1.7l0.3,1.1l-1-0.6
		c-4-1.8-8.3-2.7-12.6-2.7h-1.9c-7.6-0.1-15.2,0.6-22.6,2.1c-10.6,2-21,5.3-30.8,9.8h-0.1L255.2,270.3z M275.6,283.5
		c-0.8,0-1.6-0.2-2.4-0.4c-2.8-0.9-4.7-3.4-4.8-6.3c0-0.6,0.1-1.2,0.1-1.8l0.1-0.1l0.1-0.1c2.6-1,5.5-2,8.7-2.9
		c6.9-1.6,13.9-2.5,20.9-2.8h0.3l0.1,0.2c0.7,1.2,1.1,2.6,1.1,4c0,1.7-0.6,3.3-1.7,4.6v0.1h-0.1c-1.8,0.7-3.5,1.1-5.1,1.6H293
		c-2.4-0.4-4.5-2.1-5.5-4.4l-0.1,0.4c-0.4,0.8-0.6,1.7-0.7,2.7c0,0.5,0.1,1,0.4,1.5l0.6,0.7h-0.9c-4.8,0-8-2-9.3-5.5v0.1
		c-0.3,0.9-0.5,1.8-0.5,2.8c-0.1,1.5,0.7,3,2.1,3.6l0.5,0.3l-0.4,0.4C278.3,283.1,277,283.6,275.6,283.5z"/>
	<path id="XMLID_155_" class="st3" d="M198.8,243.1c-2.9,1.2-9,0.1-8.4-3.1c2.3,1.1,4.9,1.1,7.2,0.1c2.4-0.7,4.2-2.5,5-4.8
		c0.9,1.2,1,2.7,0.4,4.1C202,241.1,200.6,242.4,198.8,243.1z M205,256.4c-0.2-0.3-0.5-0.4-0.9-0.4c-0.6-3.1-1.4-6.1-2.3-9.1
		l-3.8,1.5l4.1,8.3c-0.2,0.3-0.3,0.6-0.3,0.9c0,0.5,0.2,1,0.5,1.3c0.4,0.4,0.8,0.5,1.3,0.5c1,0,1.8-0.8,1.8-1.8
		C205.5,257.2,205.3,256.7,205,256.4z M187.8,213.6c0,0,5.2-6.1-0.7-10c1.9,1.2,4,1.8,6.2,1.7l6.9,28.2c-0.2,0.8-0.6,1.5-1.2,2.1
		c-0.8,0.8-1.8,1.5-2.9,1.9c-2.6,1.1-6.1-0.2-6.1-0.2l-1.9-4c2.1-1.2,3.8-3.1,4.7-5.3c2.8-5.9-2.8-6.6-2.8-6.6
		S193.7,214.5,187.8,213.6z M216,245.2c-4.1-7.6-8.7-15.1-13.6-22.2l-0.9,3.3C201.6,226.4,212.5,240.1,216,245.2z M316.6,256.9
		c-1-0.2-2.1-0.4-3.2-0.4l0.1,1.7c1.1,0.1,2.1,0.2,3.2,0.4L316.6,256.9z M294.7,321.6l2.4-0.4c0.6,1.5-0.2,3.2-1.7,3.7
		c-0.3,0.1-0.6,0.2-0.9,0.2c1-0.7,1.3-2.1,0.6-3.1C294.9,321.9,294.8,321.7,294.7,321.6L294.7,321.6z M311.5,316.1h3.5
		c-0.6,5-2.1,9.8-4.5,14.2C310.4,330.3,313.9,323.2,311.5,316.1z M306,297.2l0.1,2.3l-3.8,0.4l1-2.5L306,297.2z M298.4,291.5
		l2.3,14.3l-2.8,0.4L298.4,291.5z M220.3,273.9c4.5,5.4,8.2,11.5,10.9,18c0,0,1.2,6.1,0,9.8C231.2,301.8,223.1,278.9,220.3,273.9
		L220.3,273.9z M163.5,158.6l1.6,4.6l4.4,12.1l4.9-12.2l4.2,1.6l5-16.2l3.7,15.1l5.1-9.5l3.2,2.7l-0.1-0.4l1.3-5.3
		c-0.1-3.9-0.3-7.6-0.3-11.6l-3.2,10.6c0,0-8.3-3.7-12.4-5.7l-0.1,0.4l-5.2,15.8c0,0-9.3-4.8-14-7.3v0.1L163.5,158.6z M197.9,164.1
		c0,0-4.7,13.5-24.7,20c0,0-2.3,4.9,2.1,6.6C210,178.5,206.1,159,197.9,164.1L197.9,164.1z"/>
	<path id="XMLID_158_" class="st4" d="M196.6,236.9l-3.7-9.9c-0.1,0.2-0.2,0.5-0.3,0.7c-0.6,1.3-1.4,2.5-2.3,3.5l2.4,6.4
		c1.1,0.1,2.2,0,3.2-0.4C196.2,237.2,196.4,237.1,196.6,236.9z M157.9,187.5c-3.5,3.2-1.7,6.3,0.1,7.9c6.7-0.8,18.8-5.2,18.8-5.2
		c-4.3-1.7-2.7-6.3-2.7-6.3C168.8,185.6,163.4,186.8,157.9,187.5z"/>
</g>
</svg>
