<?xml version="1.0" encoding="utf-8"?>
<!-- Generator: Adobe Illustrator 19.0.0, SVG Export Plug-In . SVG Version: 6.00 Build 0)  -->
<svg version="1.1" id="Layer_1" xmlns="http://www.w3.org/2000/svg" xmlns:xlink="http://www.w3.org/1999/xlink" x="0px" y="0px"
	 viewBox="0 0 500 500" style="enable-background:new 0 0 500 500;" xml:space="preserve">
<style type="text/css">
	.st0{clip-path:url(#XMLID_57_);fill:#FFFFFF;}
	.st1{fill:#3C5239;}
	.st2{fill:#FFFFFF;}
	.st3{fill:#A4A8AB;}
	.st4{fill:#F6DF3D;}
</style>
<g id="XMLID_1_">
	<g id="XMLID_5_">
		<defs>
			<rect id="XMLID_4_" x="67.5" y="131.6" width="365" height="236.8"/>
		</defs>
		<clipPath id="XMLID_57_">
			<use xlink:href="#XMLID_4_"  style="overflow:visible;"/>
		</clipPath>
		<path id="XMLID_6_" class="st0" d="M431.5,248.1c-1.5-10-11.2-18.5-28-24.6l8.5-13.8l-12.9-27.3L376,198.2
			c-4.1-7-11.7-11.2-19.8-11c-5.8,0-11.5,2.2-15.7,6.2c-1.6-2.8-4.6-4.6-7.8-4.5c-1.4,0-2.8,0.3-4,0.9c-0.4-3.1-1.7-6-3.8-8.3
			c-4-4.4-9.9-6.7-15.8-6.1c-0.3-2.5-1.3-4.9-3-6.8c-5.2-6.2-16.5-10.1-30.4-10.6c-1.2-5.4-2-10.9-2.4-16.5c-0.6-7.4-4.9-10-8.8-9.9
			c-5.1,0-10.1,4.3-11.9,10.3c-3.8,11.3-7.6,16.4-8.7,17.8c-19.9,3.5-31.6,9-34.6,16.5c-0.9,2.2-0.9,4.7-0.1,7
			c-6.1,2.5-10.3,5.4-12.9,9c-11.1,0.5-18.8,8-20.7,15.7c-3.1-1.3-6.5-1.9-9.9-1.8c-10.2,0.1-21.9,6-24.7,19
			c-3.8-1-7.8,0.3-10.3,3.3c-1.4,1.7-2.2,3.7-2.4,5.9c-0.8-0.1-1.5-0.1-2.3-0.1c-6.5,0.3-12.6,3.5-16.6,8.8
			c-4,5.3-5.3,12.1-3.6,18.5c-26.3,14.6-39.1,29.7-36.9,43.5c1.3,8,7.4,14.9,18.4,20.5c-9,6.5-17,12.7-17.1,12.8l-2.2,1.6l2.5,1.3
			c11.3,5.4,33.1,11.2,34,11.4l0.5,0.1l0.6-0.2c0.1-0.1,11.3-5.2,24.6-12.4c3.2,5.8,9.3,9.4,16,9.2c2.8,0,5.5-0.6,8-1.8
			c3.2,4.3,8.4,6.9,13.8,6.8c-4.9,6.7-8.1,10.4-8.2,10.4l-2.1,2.5l3.3,0.3c7.8,0.6,16.4,0.9,25.5,0.8c8.2-0.1,13.8-0.4,13.9-0.4
			l1-0.1l8.8-17.9l25.4-2c0.1,2.4,0.3,7.1,0.7,15.8l0.1,1.7l1.8-0.1c11-1,34-4.7,34.2-4.8l1.8-0.3l-0.5-1.8
			c-1.7-6.7-3.1-13.5-4.1-20.2c5,1.8,10.3,2.6,15.7,2.6c15.5,0,30.5-5.5,42.4-15.5c3.9,3.7,9.2,5.8,14.6,5.7
			c5.2,0.1,10.3-1.9,14.1-5.6c1.8-1.7,2.9-4,3.4-6.4c1.3,0.3,2.6,0.4,3.9,0.4c6.1,0,12-2.8,15.8-7.6c3-4,4-9.2,2.9-14.1
			C416.5,281.6,434,263.9,431.5,248.1z"/>
	</g>
	<path id="XMLID_3_" class="st1" d="M429.8,248.4c-1.5-10.2-11.9-18.2-28.8-24l9.1-14.7L398.5,185l-23.1,15.7
		c-7.7-15.5-28.3-14.4-35.6-3.8c-0.4-5.3-7.1-8.8-12.9-3.9c1.3-9.4-8.8-17.8-19.7-15.7c1.3-9-11.9-17.1-32.8-17.6
		c-1.6-3.4-2.9-18-2.9-18c-1-12.7-14.2-9.9-17.4,0.8c-4.7,14.1-9.4,18.8-9.4,18.8c-44.3,7.7-33.3,22.9-33.3,22.9
		c-6.2,2.3-11.6,5.4-14.3,9.7c-12.2,0.2-19.6,9.3-20.2,16.6c-12-6.8-32.2-0.9-34.7,17c-6-3.5-13.3,2.1-12.1,9
		c-8.8-3.5-27.7,6.4-22.3,25.8c-25.2,13.8-39.4,28.8-37.2,42.4c1.3,8.2,8.4,15.1,20,20.5c-9.9,7.3-19.3,14.4-19.3,14.4
		c11.3,5.4,33.7,11.3,33.7,11.3s12-5.5,26.1-13.2c2.7,8,13.9,13.1,23.8,7.5c3.5,5.7,10.3,8.5,16.8,6.9c-6.3,8.8-10.4,13.6-10.4,13.6
		c13,1,26.1,1.1,39.1,0.4l8.8-17.8l28.1-2.2l0.8,17.5c11.1-1,34.1-4.8,34.1-4.8c-2.1-7.7-3.6-15.5-4.6-23.3
		c5.6,2.4,11.7,3.7,17.8,3.7c15.6,0,30.7-5.8,42.4-16.2c11.2,12.2,30.9,5,30.5-6.2c9.1,3.8,26.6-3.5,22.2-19.9
		C413.1,281.6,432.3,264.1,429.8,248.4z"/>
	<path id="XMLID_7_" class="st2" d="M246.7,168.8c1-0.1,1.9-0.3,2.8-0.4c3-0.4,6-0.5,9-0.5c2.6-0.2,3.4-1,3.1-2.2
		c-0.4-1.7-3.2-3.3-7.9-3.7c2.5-5.4,4.7-11,6.5-16.7c1.4-4.4,4.2-2,4,0.1c0,0-0.1,16.4,3.7,21.9c31.9,0.7,31.3,9.7,30.5,12.9
		c-0.4,1.8-2.8,4-5.9,5.4c4.9,1.8,7.7,4,7.6,6.5c-0.4,5-12.7,9.7-29.6,11.8c0,0,9.8-3.4,8.2-8.2c-4-11.4-72.2-3.5-55,8.9
		c1.9,1.3,2.6,0.9,4.9,1.8c-18.3,2.3-39.1-7.4-10.7-17.4c7.4-2.6,19.8-6,40.2-7c7.1-0.4,14.3-0.1,21.4,0.8c4.6-3.9-7.6-8.5-26.4-7.6
		c-25.3,1.3-33.3,7.4-33.4,6.8c-0.3-1.6-2.9-8.5,26.7-13.2l0.1-0.1L246.7,168.8z"/>
	<path id="XMLID_8_" class="st2" d="M252.7,321.7c-2.4,0.4-5.2,0.7-8.3,1.2c0.2,2.4,0.4,4.7,0.6,6.8c-19.4,2.4-37.3,3-37.3,3
		c1.3-2.1,2.5-4.3,3.7-6.4c-4.8,0.4-9.8,0.7-15.1,1c-6.5,11.3-13.7,22.1-21.6,32.4l18,0.1l10.7-19.5c28-1.6,41.9-3.8,41.9-3.8
		l1.9,18.9l14.3-2.1c-2-8.7-3.5-17.2-4.6-25.5C255.2,326,253.8,323.9,252.7,321.7z"/>
	<path id="XMLID_9_" class="st2" d="M231.6,225.2l32.6-10.2c2.1-7.4,4-12.9,5.4-16.6l-7.7,0.8c-3.1,7.8-7.9,17.8-14.5,18.1
		c-4.4,0.3-7.9-8.2-8.9-15.5l-7.3,0.8C232.6,209.8,233,219.5,231.6,225.2z"/>
	<path id="XMLID_12_" class="st2" d="M231.3,239.5l-3.2,1.1l3.2-6L231.3,239.5z M225.8,245.5l1-2.1l4.3-1.4l-0.1,1.7l4.4-1.4
		l-0.7-12l-4.9,1.5l-8.2,14.9L225.8,245.5z"/>
	<polygon id="XMLID_13_" class="st2" points="259.7,225.4 262.5,224.5 259.2,234.7 263.5,233.2 267,223 269.8,222.1 271,218.5 
		260.8,221.9 	"/>
	<polygon id="XMLID_14_" class="st2" points="283.6,226.7 284.7,223.4 280.3,224.8 283.7,214.4 279.2,215.8 274.7,229.6 	"/>
	<polygon id="XMLID_15_" class="st2" points="299.4,221.6 300.5,218.3 295.4,219.9 296.2,217.5 300.4,216.2 301.2,213.6 
		297.1,214.9 297.9,212.7 302.7,211.1 303.7,207.9 294.6,210.8 290,224.7 	"/>
	<path id="XMLID_16_" class="st2" d="M201.2,245c0.7-2.4,0-4-3.2-3c-2.9,0.9-5.3,3.1-6.5,5.9c-1.7,4,5,2,4.2,4.1
		c-0.2,0.7-1,1.1-1.9,1.5c-0.4,0.2-0.9,0.3-1.4,0.1c-0.4-0.2-0.3-0.7-0.2-1.2l-2.9,1c-0.9,2.6,0.2,4.1,3.2,3.2
		c3.3-0.8,5.9-3.2,7.1-6.3c1.2-4-5.3-1.6-4.5-3.7c0.2-0.9,1-1.6,1.9-1.7c0.3-0.1,0.6-0.1,0.9,0.1c0.3,0.3,0.4,0.8,0.2,1.3L201.2,245
		z"/>
	<polygon id="XMLID_17_" class="st2" points="214.4,249.2 215.4,246 210.4,247.6 211.2,245.2 215.3,243.9 216.1,241.3 212.1,242.6 
		212.8,240.3 217.6,238.8 218.7,235.5 209.5,238.5 204.9,252.3 	"/>
	<polygon id="XMLID_18_" class="st2" points="242.6,231 245.5,230 242.2,240.2 246.5,238.8 249.9,228.6 252.8,227.6 253.9,224.1 
		243.8,227.4 	"/>
	<path id="XMLID_19_" class="st3" d="M421.8,248.2c-1.3-7.9-9.3-14.9-23.1-20c-0.2-0.1-0.4,0-0.5,0.1l-1.5,2.6
		c-0.1,0.1-0.1,0.2-0.1,0.4c0,0.1,0.1,0.1,0.2,0.2c9.3,4.5,14.5,9.9,15.5,16.2c1.7,10.5-9.2,22.9-30.5,34.7
		c-2.7,1.5-8.4,4.5-16.5,8.1c-0.1,0.1-0.2,0.1-0.2,0.3l0.1,0.3c2.8,4.6,2,8.1,0.7,10.3c-2,3.7-6.5,6-11.5,6.1
		c-3.4,0-6.7-1.2-9.3-3.3c-0.1-0.1-0.4-0.1-0.5,0c-0.1,0.1-0.1,0.4,0,0.5l0,0c3.1,3.2,4.4,8.2,0.6,12.2c-2.1,1.9-4.9,3-7.7,2.9
		c-1.9,0-3.8-0.4-5.6-1.1c-0.2-0.1-0.4,0-0.5,0.1c-0.1,0.2,0,0.4,0.1,0.5c2.9,2.6,6.7,4.2,10.6,4.3c1.7,0,3.4-0.3,4.9-1
		c2.9-1.1,5.3-3.4,6.4-6.3c0.8-2.2,0.7-4.6-0.1-6.7c2.4,1.2,5.1,1.9,7.9,1.8c2.7,0,5.3-0.7,7.7-2c6.1-3.3,8.4-10.9,5.3-17.1
		c1.7-0.8,9.3-4.3,15.1-7.7l0.2-0.1C412.2,271.7,423.5,259.1,421.8,248.2z"/>
	<path id="XMLID_20_" class="st3" d="M331.7,212.9c-0.1,0.2,0,0.4,0.2,0.4h0.1c0.1,0,0.2-0.1,0.3-0.2c3.1-7,10-11.5,17.6-11.6
		c5.5-0.3,10.7,2.5,13.5,7.3l0.3,0.1l0.3-0.1l5.7-3.9c0.1-0.1,0.2-0.3,0.1-0.5c-3.2-5.7-9.3-9.2-15.9-9.1c-6.5,0-12.5,3.1-16.3,8.4
		c-0.7-4.2-4.4-7.2-8.7-7.1c-2.5,0-4.9,1-6.5,2.9c0.9-3.6,0.2-7.4-2-10.4c-2.8-4-7.5-6.3-12.4-6.1c-1.7,0-3.3,0.3-4.9,0.8l-0.1,0.1
		l-0.1,0.1l-0.2,0.2l-0.1,0.3c0,0.1,0.1,0.3,0.2,0.3c2.5,1.2,4.3,3.3,5.2,5.9c0,0.2,0.2,0.3,0.4,0.3h0.3c3.5-0.1,6.9,1.6,8.8,4.6
		c1.8,3.3,1.7,7.3-0.3,10.4l-0.1,0.1c-0.1,0.1-0.1,0.3,0,0.4l0.1,0.1c0.1,0.1,0.4,0.1,0.5-0.1l0.1-0.1c1.3-2.4,3.8-4,6.5-4
		c2.3,0,4.6,1,6,2.9C332,207.5,332.5,210.3,331.7,212.9z"/>
	<path id="XMLID_21_" class="st3" d="M195.2,201.6v-1.3l-0.1-0.3l-0.3-0.1c-4.3,1-14.1,4.6-15,18.4c-3.7-3.1-8.5-4.8-13.3-4.7
		c-8.3,0.1-18.4,5.3-19.8,19.8c-1.4-1.3-3.2-2-5.1-1.9c-2.6,0-5,1.2-6.6,3.2c-1.7,2.3-2.3,5.3-1.6,8.1c-1.7-0.8-3.6-1.2-5.5-1.2
		c-5.3,0.2-10,3.1-12.7,7.7c-2.6,4.1-2.9,9.2-0.7,13.5c-24.6,13.1-37.2,26.9-35.2,38.8c1.1,7.4,7.4,13.6,18.6,18.5h0.4l1.5-1
		c2-1.4,4-2.9,6.2-4.3l0.1-0.3c-0.1-0.1-0.1-0.3-0.2-0.3c-9.1-4.5-14.2-9.9-15.2-16.1c-1.7-10.9,9.9-23.6,32.6-35.8
		c0.2-0.1,0.2-0.3,0.1-0.5c-1.9-3.6-1.8-7.9,0.3-11.4c2.1-3.4,5.9-5.6,9.9-5.7c2.2-0.1,4.4,0.8,6,2.4c0.1,0.1,0.3,0.2,0.4,0.1
		c0.2-0.1,0.2-0.3,0.1-0.5c-1.1-2.4-0.9-5.1,0.4-7.4c1.5-2.3,4-3.7,6.7-3.8c2.4,0,4.6,1.2,5.9,3.2c0.1,0.1,0.3,0.2,0.4,0.1
		c0.2-0.1,0.3-0.3,0.2-0.4c-1.2-4.3-0.2-8.9,2.6-12.4c6.2-8.5,18.1-10.2,26.6-4c0.7,0.5,1.3,1.1,2,1.7c0.1,0.1,0.2,0.1,0.4,0.1
		c0.1-0.1,0.2-0.2,0.2-0.4c0.1-7.2,4.9-13.4,11.8-15.5c0.1-0.1,0.2-0.1,0.2-0.3l0-0.3l-0.1,0C196.1,205.5,195.4,203.6,195.2,201.6z"
		/>
	<path id="XMLID_22_" class="st3" d="M183.2,336.5c-1.3,2.4-4.4,3.8-8.1,3.8c-3.5,0-6.8-1.3-8.3-3.6c-1.4-2.1-1.5-4.9-0.2-8.1v-0.1
		c0.1-0.2,0-0.4-0.2-0.4l0,0c-0.2-0.1-0.4,0-0.5,0.1v0.1c-1.7,4.1-5.8,6.8-10.2,6.6c-4,0-8.5-2.1-8.8-5.9c-0.1-0.1-0.1-0.3-0.2-0.3
		h-0.4c-2.6,1.5-5.5,3.2-8.5,4.9c-0.2,0.1-0.2,0.3-0.2,0.4c0.7,5,6.4,7.3,11.6,7.2c4.5-0.1,8.3-1.6,10.2-4.1
		c1.1,5.8,6.6,8.8,11.8,8.8c5.7,0,10.8-3.7,12.7-9.1c0-0.2-0.1-0.3-0.2-0.4C183.5,336.3,183.3,336.4,183.2,336.5z"/>
	<path id="XMLID_23_" class="st4" d="M326.7,280.9l-0.3-0.3l-0.3,0.4c-1,1.4-3.1,2.2-6,2.4l-0.5,0.1l0.2,0.4c1,2.4,1.7,4.9,2,7.4
		v0.3l0.2,0.1c2.8,0.5,5.5,1.7,7.9,3.4c0.9,0.7,1.8,1.6,2.5,2.5l0.6,0.9l0.1-1C333.5,291.2,331.2,285.2,326.7,280.9z"/>
	<path id="XMLID_24_" class="st4" d="M304,279.2l2.6,0.7c3,0.8,6,1.3,9.1,1.7l0.8,0.1l-0.5-0.7c-2.3-3.1-5.1-5.7-8.3-7.7l-0.1-0.1
		h-0.1c-0.7,0-1.4-0.1-2.1-0.1c-5.9,0-11.7,1-17.2,3.1l0.1,0.7C293.7,276.9,299,277.6,304,279.2z"/>
	<path id="XMLID_25_" class="st4" d="M319.1,300l0.4,0.1l0.1-0.4c0.1-0.6,0.2-1.3,0.4-1.9c0.2-1.5,0.3-2.9,0.2-4.4v-0.3l-0.3-0.1
		c-2.9-0.4-5.8-0.7-8.8-0.7c-12.2,0.1-28.8,3.4-49.4,9.9h-0.1l-0.1,0.2c-1.9,6-1.1,12.5,2.2,17.8l0.1,0.1l0.7,0.3
		c2,0.8,4.2,1.2,6.4,1.1c5.3,0,14.1-2,26.3-11C306.1,302.7,313.5,299,319.1,300z"/>
	<path id="XMLID_26_" class="st4" d="M321.1,302.6l-0.4-0.2l-0.1,0.4c-3,10.3-10.4,20-16.3,25.6l0.4,0.7c8-2.8,15.1-7.7,20.7-14.1
		l0.1-0.1l0.1-0.2c1-1.7,0.8-7.9-2.9-11.2C322.2,303.2,321.7,302.8,321.1,302.6z"/>
	<path id="XMLID_27_" class="st2" d="M324.6,279.5c-3.5-2.6-7.6-4.4-11.9-5.2c2.4,2,4.5,4.3,6.2,7
		C322.8,281.3,324.1,280.2,324.6,279.5z"/>
	<path id="XMLID_28_" class="st2" d="M319.6,290.8c-0.3-2.4-1.1-4.8-2.3-7c-3.8-0.3-7.5-0.9-11.2-1.8l-2.6-0.7
		c-7.1-1.8-12.3-3.2-22.5-1.2c-8.3,4.8-15.1,11.7-18.2,19.6C292,290.6,309.3,289.3,319.6,290.8z"/>
	<path id="XMLID_29_" class="st2" d="M328.5,296.6c-1.9-1.3-4-2.2-6.3-2.7c0,1.4-0.1,2.8-0.3,4.2c-0.1,0.8-0.3,1.5-0.4,2.3
		c0.9,0.4,1.7,1,2.4,1.6c2.4,2.3,3.9,5.5,4,8.8c1.6-2.4,2.8-5,3.7-7.8c0.1-0.3,0.1-0.6,0.2-1C331.9,301.5,331.7,299,328.5,296.6z"/>
	<path id="XMLID_30_" class="st2" d="M318.6,302.1c-4.9-0.7-11.8,2.8-20.1,10.2l-0.1,0.1c-16,11.8-26.7,12.1-31.7,11.1
		c4.8,4.9,12.2,7.9,21.3,8c3.6,0,7.1-0.4,10.6-1.2C303.5,327.4,314.9,315.4,318.6,302.1z"/>
	<path id="XMLID_36_" class="st4" d="M296.9,265.8l-6.9-7.2c4.6-1.7,8.4-4.8,11-9c0.6-0.9,3.5,0.2,3.5,0.2L296.9,265.8z
		 M284.3,248.8c-1.2,2-3.1,3.5-5.4,4.1c-2.9,0.7-5.9,1.3-7.8,1.7l3.3-7.9l2.8-0.8c4.8-1.5,6.6-1.9,7.3-0.4c0.2,0.4,0.3,0.8,0.3,1.3
		C284.8,247.4,284.6,248.1,284.3,248.8L284.3,248.8z M224.1,272.9c-1.9,1.2-4.1,1.7-6.3,1.2c-0.7-0.2-1.2-0.7-1.4-1.4
		c-0.1-0.3-0.1-0.6-0.1-0.9c0-2.4,2.4-5.6,5.7-7.6c1.9-1.2,4.1-1.7,6.3-1.2c0.7,0.2,1.2,0.7,1.4,1.4
		C230.5,266.9,227.9,270.7,224.1,272.9L224.1,272.9z M114.7,298.4c-3.8-2.8-5.8-6-6-9.6c-0.3-4.7,2.6-10.1,8.6-16
		c-0.2,1.1-0.2,2.3-0.1,3.5c0.5,3.9,3.7,9.2,15.7,12.1l0.6,0.2C128.3,291.4,121.7,294.8,114.7,298.4z M395.6,194.6L356,221h-3.5
		c-8.9,0-17.8,0.6-26.6,1.8l-0.7,0.1l1.4,1.3h0.2c7.5,0,15.1,0.4,22.6,1.3L332,237l-11.6-19.6l-0.2-0.4l-0.4,0.3
		c-0.9,1.2-1.6,2.5-2.2,3.8l-9.6,20.2l-3.4,1.3c0.3-1.3,0.4-2.6,0.4-4c0.1-2.6-0.8-5.1-2.6-7.1c-2.1-2-4.9-3.1-7.8-2.9
		c-2.5,0.1-5,0.5-7.4,1.4c-0.1,0-22.4,6.6-27.4,8.2l-0.6,0.2l-5.4,13.6c-2.3,0.9-4.6,1.8-6.9,2.6c-1.2-2.8-3.4-4.9-6.3-6
		c-2-0.7-4.2-1.1-6.3-1c-5.7,0.2-11.2,1.9-16,4.9c-5.2,3-9.7,7-13.2,11.8c0.7-2.1,1.5-4.4,2.2-6.3l1-2.6l-2.8,0.8l-39.7,14.1l-3.5,9
		l-2.1,1c-0.5-0.6-1-1.2-1.5-1.7c-1.8-1.5-5.2-2.8-7.7-3.7l-1.2-0.4c-4.3-1.6-6.5-3.2-6.7-5.2c-0.7-6,15.7-18.4,50.6-42.2
		c0.6-0.4,0.8-1.2,0.5-1.8l0,0c-0.4-0.6-1.2-0.9-1.8-0.6c-25.9,11.8-35.1,16.8-51.8,25.9c-11.1,6-18.6,12.3-21.7,18.2
		c-15,10.2-22.1,19.2-21.3,26.8c0.6,5.6,5.6,10.4,14.7,14.1l0.2,0.1l0.1-0.1c3.5-2.6,6.5-4.8,9-6.8l0.5-0.4l-0.6-0.3
		c-0.8-0.4-1.6-0.7-2.4-1.1c4.7-1.6,14.2-4.9,18.5-6.3c-1.8,3.5-6.8,8-15.1,13.7L86.1,336c-0.6,0.5-0.7,1.3-0.4,1.9
		c0.4,0.6,1.2,0.9,1.8,0.5c22.1-9.7,43.4-20.9,63.9-33.5c7.5-4.6,11.6-9.6,12.1-14.8c0.1-1.7-0.1-3.4-0.7-5c3-1,6.1-1.8,9.2-2.4
		l-6.1,20.8l2.8-1.2c1.8-0.7,5.1-1.8,8.1-2.7l7.8-2.6l6.5-21.8c3.1-0.9,6.2-1.6,9.4-2.2c-1,3-1.2,6.2-0.4,9.3c1,3.2,3.4,5.8,6.6,7
		c2,0.7,4.2,1.1,6.3,1c5.6-0.2,11.1-1.9,15.9-4.9c10.5-6,18.2-16.3,18.7-24.9c0.3-0.1,0.6-0.1,0.9-0.1c0.6,0,1.2,0,1.8,0.1
		l-8.5,21.3l19.9-3.9l4.1-9.9l13.5,3.8c8.7-4.3,18.2-6.5,27.9-6.5c3,0,5.9,0.3,8.8,0.9l6-11.8l3.8,7.7l14.6-11.8l-10.7,19.9l2.6-0.2
		c2.3-0.1,4.6-0.3,7.2-0.3c2.4,0,4.6,0,6.8,0.1l6.8,0.1l0.4-0.7c39.8-69.7,42.1-73.9,42.2-73.9L395.6,194.6z"/>
	<path id="XMLID_40_" class="st2" d="M286.2,249.7c-1.4,2.6-3.9,4.5-6.8,5.2c-0.1,0-9.6,2.1-10.1,2.1l-1.5-0.1l4.9-11.5l0.2-0.5
		l3.7-1.1c4.7-1.4,8.4-2.6,9.9,0.7C287.2,246.3,287,248.2,286.2,249.7z M225.2,274.8c-2.9,1.6-6,2.2-8.2,1.3
		c-1.3-0.5-2.2-1.5-2.6-2.8c-1.1-3.4,1.8-8.2,6.5-10.9c2.9-1.7,6-2.2,8.2-1.3c1.3,0.5,2.2,1.5,2.6,2.8
		C232.8,267.3,230,272,225.2,274.8z M327,258.2c1.9-1.5,21.6-17.4,21.6-17.4l-14.1,26.6c4.5-0.3,8.5-0.2,12.3-0.1l5.3,0.1
		c3.1-5.4,29.6-51.7,37.6-65.7l-58.5,39.1L320,221.8c-1.5,3.3-4.9,10.5-8.9,18.9c7.7-2.7,13-4.6,13-4.6l-3.8,8
		c0,0-29.7,5.2-30.5,5.3h-0.4c-0.4-0.1-0.7-0.9,0.1-1.3c4-1.3,8-2.7,11.8-4c0.1-0.1,0.1-0.4,0.2-0.5c0.6-1.6,0.9-3.2,0.9-4.9
		c0.1-2-0.6-3.9-1.9-5.4c-2.4-2.4-6.8-2.7-12.6-0.8c-0.2,0.1-21.2,6.3-26.9,8.1c-0.1,0.3-2,4.9-4.3,10.9c5.8-2.2,10.4-3.9,10.4-3.9
		l-2.8,7.1l-27.2,6.4l-2.6,0.7c-0.6,0.2-1.3-0.8-0.2-1.3c2.5-1.1,6.3-2.7,10.4-4.3c-0.8-2.3-2.6-4.1-4.9-4.9
		c-5.1-2-12.8-0.6-20.2,3.7c-4.3,2.5-8.1,5.6-11.3,9.4c1.4-0.4,5.7-2,5.7-2l-2.6,5.6c0,0-10.2,3-22.7,6.7l-0.4,0.1l-3.3,1h-0.2
		l-0.2-0.1c-0.4-0.2-0.5-0.7,0.2-1.1c5.4-2.6,11.6-5.2,16.7-7.3c0.4-1.3,1.2-3.7,2.6-7.8l-36.5,13l-2.4,6.1
		c8.5-3.9,15.9-7.1,15.9-7.1l-2.2,6.1H179l-19.3,6.4l-2.8,1l-7.4,2.6l-0.8,0.2c-0.6,0.3-1.3-0.7-0.3-1.2c2.9-1.5,6.3-3.2,9.9-4.8
		c-0.4-0.4-0.8-0.9-1.2-1.3c-1.4-1.3-4.7-2.4-6.9-3.2l-1.1-0.4c-5.4-2-7.9-4.2-8.3-7.1c-0.1-0.2-0.1-0.4-0.1-0.7
		c-0.1-6.6,11.3-16.1,41.3-36.8c-17.6,8.2-26.3,12.9-40.2,20.5c-14.1,7.7-22.1,15.7-22.1,22.1c0,0.3,0.1,0.6,0.1,1
		c0.6,4.5,5.4,7.9,13.8,10.1c1.2,0.3,2.3,0.7,3.5,1.2c4.9-2.6,8.1-4.2,8.1-4.2l-2.4,7c0,0-23,8.4-36.3,14.3
		c10.9-1.8,24.2-5.2,33-7.5c-2.4,3.8-7.4,8.3-15.3,13.7l-28.7,21.5c18.8-8.7,37.1-18.5,54.7-29.4c6.8-4.1,10.4-8.5,10.9-12.9
		c0-0.3,0-0.6,0-0.9c0-0.9-0.1-1.8-0.4-2.6c4.9-0.7,9.9-1.5,13.5-2l-4.4,15c1.8-0.6,4-1.3,6.3-2.1l6.5-2.1c0.2-0.8,4-13.2,5.7-18.8
		l14.3-1.2c-0.6,2.1-0.6,4.4,0,6.5c0.8,2.5,2.7,4.5,5.2,5.4c5.1,2,12.8,0.6,20.2-3.6c9.3-5.4,16.1-14.1,17.2-21.4l7.5,0.1
		c-3.2,7.8-6.1,15.1-6.6,16.6l14.1-2.7l4.4-10.7l18.6,5c3.7-1.6,7.6-2.7,11.6-3.5l-8.8-9l1.8-0.4c3.8-1,7.2-3.2,9.6-6.3l8.8,0.1
		l-7,14.9c2.8-0.4,5.5-0.5,8.3-0.5c2.1,0,4.1,0.1,6.2,0.4l8.7-17.1L327,258.2z"/>
	<path id="XMLID_41_" class="st4" d="M342.1,294.7v-2.2l0.2-0.1c31-14.1,47.4-26,48.9-35.5c0.6-3.5-0.8-6.7-4.2-9.8l-0.2-0.2
		l6.8-10.9l0.3,0.1c7.4,3.8,11.3,9.6,10.9,16c-0.7,9.9-12.1,25.4-62.1,42.5L342.1,294.7z"/>
	<path id="XMLID_42_" class="st4" d="M182.6,318.7c-6.7,0-13.2-0.1-19.5-0.4l-1-0.1l0.9-0.6c2.3-1.7,4.6-3.6,6.7-5.6l0.1-0.1h0.1
		c11.4,0.8,23.9,1.3,37.2,1.2c14.4-0.1,29.4-0.8,43.1-2.1h0.4v0.4c0,0.5,0,1,0.1,1.5v0.4h-0.3C228,316.7,205.3,318.5,182.6,318.7z"
		/>
</g>
</svg>
