<?xml version="1.0" encoding="utf-8"?>
<!-- Generator: Adobe Illustrator 19.0.0, SVG Export Plug-In . SVG Version: 6.00 Build 0)  -->
<svg version="1.1" id="Layer_1" xmlns="http://www.w3.org/2000/svg" xmlns:xlink="http://www.w3.org/1999/xlink" x="0px" y="0px"
	 viewBox="0 0 500 500" style="enable-background:new 0 0 500 500;" xml:space="preserve">
<style type="text/css">
	.st0{fill:#00040B;}
	.st1{fill:#BD955B;}
	.st2{fill:#FFFFFF;}
	.st3{fill:#C22032;}
</style>
<g id="XMLID_1_">
	<path id="XMLID_3_" class="st0" d="M338.1,223.5h-9.1c-57.7-64.7-74.3-141.6-74.3-141.6s-16.8,77.9-75.3,142.9h-19.8l-0.5,1.4
		c-8.2,19.6-33.8,63.3-33.8,63.3h64c0.8,1,1.9,2,1.9,2c45.4,51.6,63.7,128,63.7,128s18.3-76.4,63.8-128c0.7-1,1.7-2.1,1.7-2.1h16.4
		c35.1,0,36.4-17.4,36.4-23.3c-0.1-5.8-2.6-11.3-7-15l9.9-19.4l-2.3-1.4C373.2,230.1,362.2,223.5,338.1,223.5z"/>
	<path id="XMLID_6_" class="st1" d="M366.1,251.1c4.4,3.8,6.9,9.3,7,15c0,5.8-1.3,23.3-36.4,23.3h-16.3c0,0-1,1.1-1.8,2.1
		c-45.4,51.6-63.8,128-63.8,128s-18.3-76.4-63.8-128c0,0-1-1.1-1.8-2.1h-64c0,0,25.6-43.6,33.8-63.3l0.6-1.4h19.8
		c58.6-65,75.3-142.9,75.3-142.9s16.5,76.9,74.3,141.7c4.9-0.1,8.1-0.1,9.1-0.1c24,0,35.1,6.6,35.5,6.9l2.4,1.4L366.1,251.1z
		 M380,230.6c-4.5-2.9-9.4-5.2-14.5-6.7c-8.9-2.4-18.1-3.5-27.4-3.4h-7.7c-13-14.8-24.6-30.9-34.6-47.9
		c-8.6-14.5-16.2-29.6-22.7-45.2c-6.4-15-11.5-30.4-15.4-46.2l-2.9-13.7l-3,13.7c0,0.2-4.3,19.7-15.6,46.8
		c-6.6,15.7-14.3,31-23,45.6c-10.2,17.1-22,33.3-35.2,48.2h-20.4l-1.4,3.2c-8,19.2-33.4,62.6-33.6,62.9l-2.7,4.6h67.9l0.9,1.1
		c11,12.7,20.7,26.5,28.8,41.2c7.4,13.3,14,27.1,19.6,41.2c5.9,14.4,10.8,29.2,14.7,44.2l2.9,12.2l3-12.2
		c3.9-15.1,8.8-29.9,14.7-44.4c5.6-14.1,12.2-27.9,19.6-41.2c8.1-14.7,17.7-28.5,28.7-41.2l0.9-1h15c15.9,0,27.2-3.5,33.6-10.4
		c8-9.1,7.8-22.8-0.5-31.6L380,230.6z"/>
	<path id="XMLID_7_" class="st2" d="M254.8,155.2c8.9,19,19.6,37.1,32,54h17.3c0,0-32.5-37.6-49.3-92.9
		c-16.8,55.3-49.3,92.9-49.3,92.9h17.3C235.3,192.4,246.1,174.3,254.8,155.2z"/>
	<path id="XMLID_8_" class="st3" d="M245.7,191.3c4.9,1.9,8,6,9.1,15c1.1-9.1,4.3-13.2,9.1-15c-4.8-1.9-7.9-5.9-9.1-15
		C253.7,185.4,250.5,189.5,245.7,191.3z"/>
	<polygon id="XMLID_9_" class="st1" points="197.2,224.8 197.2,216.5 199.3,216.5 199.3,223 206.8,223 206.8,224.8 	"/>
	<path id="XMLID_12_" class="st1" d="M215.7,218l-1.9,3.3h3.8L215.7,218z M219.5,224.8l-1-1.6h-5.9l-0.9,1.6h-2.2l4.8-8.3h2.7
		l4.8,8.3H219.5z"/>
	<path id="XMLID_13_" class="st1" d="M234.5,222.1c0,0.4-0.1,0.8-0.3,1.1c-0.3,0.4-0.6,0.7-1,1c-0.5,0.3-1.1,0.5-1.7,0.7
		c-0.8,0.1-1.6,0.2-2.5,0.2c-0.5,0-1-0.1-1.5-0.1c-0.5-0.1-1-0.2-1.4-0.3c-0.5-0.1-1.1-0.3-1.6-0.5l0.7-1.6c0.4,0.2,0.9,0.3,1.3,0.4
		c0.4,0.1,0.8,0.2,1.2,0.3c0.4,0.1,0.8,0.1,1.2,0.1c0.9,0.1,1.8,0,2.7-0.3c0.5-0.2,0.8-0.4,0.8-0.8c0.1-0.2-0.1-0.4-0.2-0.5
		c-0.3-0.1-0.6-0.1-0.9-0.1h-0.4l-0.9-0.1l-1.1-0.1h-1.3c-0.4,0-0.9-0.1-1.3-0.2c-0.4-0.1-0.7-0.2-1-0.4c-0.3-0.2-0.5-0.4-0.6-0.7
		c-0.2-0.3-0.3-0.7-0.3-1c0-0.4,0.1-0.7,0.4-1c0.3-0.4,0.7-0.7,1.1-0.9c0.6-0.2,1.1-0.4,1.7-0.6c1.7-0.3,3.4-0.2,5.1,0.2
		c0.5,0.1,1.1,0.3,1.6,0.5l-0.6,1.6c-0.3-0.1-0.6-0.2-0.9-0.3c-0.3-0.1-0.6-0.2-1-0.3c-0.3-0.1-0.7-0.1-1-0.1c-0.4,0-0.7-0.1-1-0.1
		c-0.4,0-0.9,0.1-1.3,0.1l-1.1,0.2c-0.2,0.1-0.5,0.2-0.7,0.3c-0.2,0.1-0.3,0.3-0.3,0.4c0,0.2,0.1,0.4,0.3,0.4
		c0.2,0.1,0.5,0.2,0.7,0.1l1.6,0.1l2.5,0.1c0.4,0,0.9,0.1,1.3,0.1c0.3,0.1,0.7,0.2,1,0.4c0.2,0.2,0.4,0.5,0.6,0.7
		C234.5,221.5,234.5,221.8,234.5,222.1z"/>
	<polygon id="XMLID_14_" class="st1" points="252.2,224.8 249.6,224.8 245.2,216.5 247.5,216.5 250.9,223.1 254.3,216.5 
		256.6,216.5 	"/>
	<polygon id="XMLID_15_" class="st1" points="259.7,224.8 259.7,216.5 269.7,216.5 269.7,218.3 261.7,218.3 261.7,219.8 
		268.7,219.8 268.7,221.3 261.7,221.3 261.7,223 270,223 270,224.8 	"/>
	<path id="XMLID_16_" class="st1" d="M284.7,220.7c0,0.6-0.1,1.2-0.4,1.7c-0.3,0.5-0.7,1-1.2,1.3c-0.5,0.5-1.1,0.8-1.8,1
		c-1.6,0.5-3.3,0.5-4.9,0c-0.7-0.2-1.3-0.5-1.8-1c-0.5-0.4-0.9-0.8-1.1-1.3c-0.5-1.1-0.5-2.4,0-3.4c0.2-0.6,0.6-1.1,1.1-1.4
		c0.5-0.4,1.1-0.8,1.8-1c1.4-0.4,2.8-0.5,4.2-0.2c0.5,0.1,1,0.3,1.4,0.5c0.4,0.2,0.8,0.4,1.1,0.7c0.3,0.3,0.6,0.6,0.8,0.9l-1.9,1
		c-0.3-0.4-0.7-0.8-1.2-1c-0.6-0.3-1.3-0.5-2-0.4c-0.5,0-1.1,0.1-1.6,0.2c-0.4,0.1-0.8,0.3-1.1,0.6c-0.3,0.2-0.5,0.5-0.7,0.8
		c-0.4,0.6-0.4,1.4,0,2c0.2,0.3,0.4,0.6,0.7,0.8c0.3,0.3,0.7,0.5,1.1,0.6c0.5,0.1,1,0.2,1.6,0.2c0.8,0,1.5-0.1,2.2-0.4
		c0.5-0.3,0.9-0.7,1.2-1.2h-4.3v-1.6h6.6l0.1,0.3L284.7,220.7z"/>
	<path id="XMLID_19_" class="st1" d="M293.5,218l-1.9,3.3h3.8L293.5,218z M297.4,224.8l-1-1.6h-5.8l-1,1.6h-2.2l4.8-8.3h2.7l4.8,8.3
		H297.4z"/>
	<path id="XMLID_20_" class="st1" d="M312.3,222.1c0,0.4-0.1,0.8-0.3,1.1c-0.3,0.4-0.6,0.8-1,1c-0.5,0.3-1.1,0.5-1.7,0.7
		c-0.8,0.2-1.6,0.2-2.5,0.2c-0.5,0-1-0.1-1.4-0.1c-0.5-0.1-1-0.2-1.5-0.3c-0.5-0.1-1-0.3-1.5-0.5l0.7-1.6c0.4,0.2,0.9,0.3,1.3,0.4
		c0.4,0.1,0.8,0.2,1.2,0.3c0.4,0.1,0.8,0.1,1.2,0.1c0.9,0.1,1.8,0,2.7-0.3c0.6-0.2,0.9-0.4,0.9-0.8c0-0.2-0.1-0.4-0.3-0.5
		c-0.3-0.1-0.5-0.1-0.8-0.1h-0.5l-0.9-0.1l-1.1-0.1h-1.3c-0.4,0-0.9-0.1-1.3-0.2c-0.4-0.1-0.7-0.2-1-0.4c-0.3-0.1-0.5-0.4-0.7-0.7
		c-0.2-0.3-0.2-0.7-0.2-1c0-0.4,0.1-0.8,0.4-1c0.3-0.4,0.6-0.7,1-0.9c0.6-0.2,1.1-0.4,1.7-0.6c1.2-0.2,2.4-0.2,3.7-0.1
		c0.5,0.1,1,0.2,1.5,0.3c0.5,0.1,1,0.3,1.5,0.5l-0.6,1.6c-0.3-0.1-0.5-0.2-0.8-0.3c-0.3-0.1-0.6-0.2-1-0.3c-0.4-0.1-0.7-0.1-1-0.1
		c-0.3,0-0.7-0.1-1-0.1c-0.4,0-0.9,0.1-1.3,0.1c-0.4,0.1-0.7,0.1-1,0.2c-0.3,0.1-0.5,0.2-0.7,0.3c-0.2,0.1-0.2,0.3-0.2,0.4
		c0,0.2,0.1,0.3,0.2,0.4c0.3,0.1,0.5,0.2,0.8,0.1l1.6,0.1l2.5,0.1c0.4,0,0.9,0.1,1.3,0.1c0.4,0.1,0.7,0.2,1,0.4
		c0.3,0.2,0.5,0.5,0.6,0.7C312.3,221.5,312.4,221.8,312.3,222.1z"/>
	<path id="XMLID_21_" class="st3" d="M262,331c-2.2,4.3-4.9,9.1-7.3,14.1c-8.9-19-19.6-37.1-32-54c-1.2-1.6-1.1-1.6-1.1-1.6h-17.7
		c0,0,27.9,31.3,50.9,95c0,0,7.6-20.1,15.6-37.5L262,331z"/>
	<path id="XMLID_22_" class="st3" d="M274.5,338.5c-8.8-17.3-19.3-33.7-31.4-49h17.6c4.7,6.4,9.2,12.5,13.8,19.8
		c4.6-7.3,8.5-13.3,13.2-19.8h18C305.8,289.5,290.2,307.8,274.5,338.5z"/>
	<path id="XMLID_25_" class="st2" d="M166.3,262.3c2.2-4.3,4.3-8.8,6.1-12.9c1.9,4.2,4,8.7,6.1,12.9H166.3z M187.7,278.9h13.5
		c-8.7-13.8-16.2-28.4-22.4-43.5H166c-6.2,15.1-13.7,29.6-22.3,43.5h13.5c1.3-2.2,2.8-4.6,4.3-7.3h22.1
		C185,274.3,186.4,276.7,187.7,278.9z"/>
	<path id="XMLID_26_" class="st2" d="M337.2,279.9c-7.7,0.2-15.5-0.8-22.9-3.1l4.9-11.2c4.3,3.4,10.8,5.2,18,5.2
		c7.3,0,11.5-1.6,11.5-4.3c0-2.6-4.2-3.7-11.8-5.5l-2.7-0.6c-12.1-3-18-5.8-18-13.5c0-10.9,14.1-12.6,22.4-12.6
		c9.6,0,15.8,0.9,22.6,3.4l-5.2,10.3c-4.3-3.4-9.5-4.8-17.4-4.8c-5.6,0-9,1.2-9,3.3c0,2.4,4.1,3.4,13.2,5.6l2.8,0.7
		c10.6,2.6,16.7,5.8,16.7,13.3C362.3,277.7,348.7,279.9,337.2,279.9z"/>
	<path id="XMLID_27_" class="st2" d="M230.5,279.9c-15.9,0-27.9-9.7-27.9-22.6c0-12.9,12-22.7,27.9-22.7c7.3-0.2,14.5,1.4,21.1,4.6
		l-5.3,10.8c-4.1-3.9-9.6-6-15.3-5.8c-10.3,0-15.6,6.6-15.6,13.1c0,6.5,5.3,13.2,15.6,13.2c5.7,0.2,11.2-2,15.3-5.9l5.3,10.8
		C245,278.5,237.8,280.1,230.5,279.9z"/>
	<path id="XMLID_28_" class="st2" d="M261.9,278.9c0.9-2.9,1.3-5.8,1.3-8.8v-25.8c0.1-3-0.4-6-1.3-8.8h46.5l-3.3,10.7
		c-2.8-1.4-5.8-2.2-8.9-2.2H275v8.7h23.9v8.5H275v8.8h21.3c3-0.1,5.9-0.8,8.6-2.1v11.1L261.9,278.9z"/>
</g>
</svg>
