<?xml version="1.0" encoding="utf-8"?>
<!-- Generator: Adobe Illustrator 19.0.0, SVG Export Plug-In . SVG Version: 6.00 Build 0)  -->
<svg version="1.1" id="Layer_1" xmlns="http://www.w3.org/2000/svg" xmlns:xlink="http://www.w3.org/1999/xlink" x="0px" y="0px"
	 viewBox="0 0 500 500" style="enable-background:new 0 0 500 500;" xml:space="preserve">
<style type="text/css">
	.st0{fill:#9EA2A2;}
	.st1{fill:#152A46;}
	.st2{fill:#236192;}
	.st3{fill:#FFFFFF;}
	.st4{fill:#0C233F;}
	.st5{fill:#78BE20;}
</style>
<g id="XMLID_1_">
	<path id="XMLID_3_" class="st0" d="M401.4,199l-1.7-5c-1.1-3.2-2.4-6.4-3.7-9.6c8-11.8,19.9-28.2,36.5-54.2c0,0-7.3,6.8-26,16.6
		c1.2-3.7,2.1-7.7,2.7-12c0,0-9.8,10.3-27.3,22.8c-30.9-48.1-84.7-78.4-143.6-78.4c-19,0-37.9,3.2-56,9.5
		C93.3,119.5,46.1,217,77,306c23.9,68.7,88.7,114.8,161.3,114.8c19,0,37.9-3.2,56-9.5C381.6,381,428.7,286.6,401.4,199L401.4,199
		L401.4,199"/>
	<path id="XMLID_4_" class="st1" d="M238.3,85.2L238.3,85.2c-18.4,0-36.5,3.1-54,9.2C98.4,124.1,52.8,218.2,82.6,304.1
		c23,66.3,85.6,110.8,155.7,110.8c18.4,0,36.6-3.1,54.1-9.2c84.2-29.2,129.6-120.3,103.2-204.8l0.1-0.1l0,0l-1.7-4.8
		c-1.5-4.2-3.1-8.4-4.9-12.4c9.3-15.5,24.5-33.1,24.5-33.1c-4.5,3.7-10.9,6.9-18.1,9.8c2-3.6,3.9-7.4,5.7-11.5c0,0-7.5,7.3-21.1,17
		l-0.1,0C350.7,116.6,297.2,85.2,238.3,85.2"/>
	<path id="XMLID_11_" class="st0" d="M238.3,127c-13.7,0-27.3,2.3-40.3,6.8c-64.1,22.2-98.1,92.5-75.9,156.6
		c14.8,42.7,51.6,73.2,95.1,80.8c-3.1-1.8-5.8-4.2-8-7.2c-37.7-9.6-69-37.5-82.2-75.4c-21.3-61.3,11.3-128.5,72.6-149.7
		c12.5-4.3,25.5-6.5,38.6-6.5c22.1,0,43.2,6.2,61.3,17.3c0.7-1.7,1.5-3.3,2.2-5.1C282.9,133.3,261.1,127,238.3,127z M303,145.4
		c-0.1,1.8-0.1,4,0,6.5c12.7,8.4,23.7,19.2,32.3,31.9c1.5-0.8,3.1-1.6,4.5-2.5l0.3-0.2h0C330.4,166.6,317.7,154.5,303,145.4z
		 M298.6,164.9c-15.3,27.1-32.1,41-32.1,41s22.8-6.2,30.2-7.6c7.4-1.4,17.5-5.5,17.5-5.5C300.8,183.3,298.6,164.9,298.6,164.9z
		 M379.8,173.4c0,0-37.9,15.2-52.2,21c-14.3,5.8-20.6,7.5-34.4,10.9c-13.8,3.4-35.5,7.8-53.2,17.9c-17.7,10.1-18.7,19.3-18.7,19.3
		c-4.5-7-2.6-13.3-2.6-13.3c-4.4,2.5-18,8.2-17.6,15c0.6,9.5,14.8,8.8,14.8,8.8c-4.3,8.5-10.8,10.3-10.8,10.3
		c-3.2,5.1-6.1,5.1-6.1,5.1c-0.3-0.8-1-2.9-1-2.9c-16.2,11.9-17.5,19.9-17.5,19.9c2.8,1.5,4.8,3.5,4.8,3.5c-1.1,0.1-5.3,0.4-5.3,0.4
		c-0.3,1.6,0,4.8,0,4.8c5.4,1.7,6.7,3.5,6.7,3.5c-1.2-0.1-5.9,0.1-5.9,0.1s1.2,4.9,6.7,5.2c5.5,0.2,9.3-5.2,9.3-5.2
		c-4.6-5.3-7.3-12.8-7.3-12.8l6.4-9.6c-0.7,2.4-2.3,8.9-2.3,8.9c5.3-1.6,15-1.9,15-1.9c8.1-5.3,17.8-10.8,17.8-10.8
		c-16.8,14.7-18.6,26.3-18.6,26.3c12.7,9.4,26.7-1.1,31.5-3.5c0,0,16.3-6.5,23.9-9c7.6-2.5,29.2-7.4,29.2-7.4
		c-38.2-0.9-67.5,14.7-67.5,14.7s16.6-19.8,66.8-19.8c55,0,86.8,33.8,86.8,33.8c-9.7-23.5-43.3-41-82-41c-42.4,0-73.7,17-73.7,17
		s24.2-22.8,71.8-22.8c58.5,0,82.4,30.1,82.4,30.1c-6.9-24.3-20.6-32.2-30.9-45.6c-11.2-14.5-11.2-29.9,0.8-44.8
		C359.1,184.8,379.8,173.4,379.8,173.4L379.8,173.4z"/>
	<path id="XMLID_21_" class="st2" d="M237.8,140.9c-14.6-0.1-23.6,2.6-23.6,2.6c-3.6,12.9,5.6,17.4,5.6,17.4
		c30.2-13,49.4-15.6,49.4-15.6C257.2,142.1,246.5,141,237.8,140.9z M206.5,145.5c-25.5,7.5-42.1,23.9-42.1,23.9
		c12.4-0.7,35.1,0.2,35.1,0.2c2.8-1.3,12.7-5.5,12.7-5.5C204,156.1,206.5,145.5,206.5,145.5z M284.2,151.1
		c-27.1,0.5-53.1,14.2-53.1,14.2c19,5.8,19.6-0.3,54.5,9.1c3.5-5.1,6.9-10.8,10.2-17.1C288.8,153,284.2,151.1,284.2,151.1z
		 M303.9,163c0.3,2.1,0.6,4.1,1.1,6.1c2.1,8.5,7.9,15,12.9,19.1c1.1,0.7,2.1,1.4,3.1,2.1c2.5-1,4.7-1.9,6.6-2.7
		C320.1,176.9,311.4,168.8,303.9,163z M225,170.6c0,0-4.7,5.6-5.7,7.6c0,0,9.3,9.8,11.4,12.1c0,0,10.3,5.4,24.7,16.3
		c7.7-6,16.9-14.6,25.9-26.4C257.2,174.1,239.8,177.2,225,170.6z M163.3,176.4c-3.7-0.1-6.1,0.3-6.1,0.3c-11.2,10.3-21.3,35-21.3,35
		c25.8-26.6,46.3-20.1,46.3-20.1c1-1.7,4.3-7.6,4.3-7.6C179,177.8,169.4,176.5,163.3,176.4z M204.1,191.6c-1.3,0.5-9.4,4.9-9.4,4.9
		c9.9,7.8,16.4,17.2,20.7,27.9c7.8-3.9,18.4-8.1,32.9-12.7c0.3-0.2,0.6-0.4,0.8-0.6c-13.4-10-23-15.3-23-15.3
		C218.8,193.6,204.1,191.6,204.1,191.6z M176.3,197.8c-24.1-0.5-45.1,30.3-45.1,30.3c-12.4,62.2,31.2,100.5,31.2,100.5
		c-24.8-72.9,12.3-123.5,12.3-123.5c0.5-1.1,3.9-7.2,3.9-7.2C177.9,197.9,177.1,197.8,176.3,197.8z M188.1,200.7
		c-1.3,0.9-4.4,3.7-4.4,3.7c-4.8,7.4-21.7,32.4-22.8,72.1c-1.2,39.7,12.5,61.3,12.5,61.3c11.2,7.7,21.9,12.7,31.3,15.9
		c-1-3.1-1.8-6.5-2.2-10.5c0,0-3.6-6.8-3.2-14.6c0,0-11.4-6.1-15-18.6c0,0-10.7-5.4-10.7-18.2c0-12.9,9.9-20.6,12.5-23
		c2.6-2.4,6.5-6.2,7.4-8.5c0.1-0.4,0.1-1-0.1-1.7c-0.5-1.3-0.8-2.6-1-3.8c-0.6-2.9-1-6.7,0.9-10.9c1.9-4.2,5.2-9.7,16.2-16.2
		C200.5,206.3,188.1,200.7,188.1,200.7L188.1,200.7z"/>
	<path id="XMLID_42_" class="st3" d="M249.3,95.8l5.8,14.1l-1.1,8.2l5.7,0.8l1.2-8.4l9.2-11.9l-6-0.8l-5.3,7.2l-3.1-8.4L249.3,95.8z
		 M228.1,96.1l-5.8,0.4l1.3,21.5l14.9-0.9l-0.3-4.8l-9.2,0.5L228.1,96.1z M286.5,102.5l-0.2,0.2l-8,20.3l5.1,2l3.9-10l8.5,15.3
		c0.2,0.4,0.3,0.3,0.4,0.1l8-20.4l-5-2l-4,10.1l-8.6-15.3C286.7,102.6,286.6,102.5,286.5,102.5z M174.4,109l-0.1,0.2l-0.5,24.3
		l5.2-2.3l-0.3-12.3l9.2,8.3l5.4-2.5l-18.6-15.7L174.4,109z M320.4,118.7l-0.6,11.8l-12.8,5.1l4.9,3.5l7.8-3.4l-0.7,8.5l5.2,3.7
		l0.8-13.9l10.7-4.3l-4.9-3.5l-5.8,2.6l0.6-6.3L320.4,118.7z M153.7,120.8L139.8,131l2.9,3.9l4.6-3.4l9.9,13.4l4.6-3.4l-9.9-13.4
		l4.6-3.4L153.7,120.8z M128.9,146c-3.2,0.1-6.4,1.6-8.7,4.3c-4,4.7-4.1,11.7,0.9,16c4.9,4.2,11.9,3.1,15.9-1.6c4-4.7,4-11.8-0.9-16
		C134,146.7,131.4,145.9,128.9,146z M128.1,151.4c1.5,0,2.9,0.6,4.2,1.7c2.6,2.2,3.3,5.5,0.9,8.2c-2.3,2.7-5.7,2.6-8.3,0.4
		c-2.6-2.2-3.2-5.5-0.9-8.2C125.2,152.1,126.6,151.4,128.1,151.4z M387.6,173.7c-7.6,3.7-31.1,21-38.4,36.2c-7.4,15.2,0,26,0,26
		c6.9-3.7,10.3-15,10.3-15c2,7.8,1.9,16.3,2,22.6c0.1,6.3,6.1,12.6,6.1,12.6c13.6-19.3,7.6-44.7,10.3-59.9
		C380.7,181,387.6,173.7,387.6,173.7L387.6,173.7z M105.9,175.3c-1.9,0.5-4.2,1.9-5.9,5.3c-1.7,3.4-1.4,7.5,2.4,9.5
		c3.2,1.6,5.9,0.5,8.2-1.8l1.9-1.9c1.1-1.1,1.8-1.5,2.6-1.1c1.1,0.5,1.1,1.7,0.3,3.2c-1,1.9-2.5,2.6-4.1,2.9l0.9,5.2
		c2.2-0.4,5.4-1.8,7.6-6.2c2.6-5.1,1.2-8.6-2.4-10.4c-2.7-1.4-5.2-1-8.4,2.2l-2.1,2.1c-0.8,0.8-1.4,1-2.1,0.6
		c-0.8-0.4-1-1.3-0.4-2.5c0.8-1.5,1.9-2.3,3.1-2.6L105.9,175.3z M90.5,204.1l-3.8,14.6l20.8,5.4l3.9-15.1l-4.7-1.2l-2.5,9.5
		l-3.6-0.9l2-7.6l-4.4-1.2l-2,7.5l-3.4-0.9l2.4-9.1L90.5,204.1z M83.7,237.6l-0.1,5.4l10.8,0.2l-11.5,13.3c-0.3,0.3-0.1,0.4,0.1,0.4
		l21.8,0.5l0.1-5.4l-10.7-0.2l11.4-13.3c0.3-0.3,0.2-0.4-0.1-0.4L83.7,237.6L83.7,237.6z M106.5,271.3l-21.3,4.9l1.2,5.3l10.5-2.4
		l-7.8,15.7c-0.2,0.4,0,0.5,0.2,0.4l21.3-4.9l-1.2-5.3l-10.5,2.4l7.8-15.7C106.9,271.3,106.8,271.3,106.5,271.3z M292.9,278
		c-27.7-0.5-55.2,17.1-55.2,17.1c39.8-18.6,68.6-5.8,68.6-5.8c-40.8-3.2-56.1,8.6-56.1,8.6c14.2,26.5-13.8,44.1-13.8,44.1
		c-12.3-0.3-26.1,3.8-26.1,3.8c4.6,26.6,28.8,21.4,28.8,21.4s-7.7-5.9,8-20.1c16-14.6,33.2-13.2,33.2-13.2c-3.5,2.3-7.1,6-7.1,6
		c41,3,42.7,43.7,42.7,43.7c48-47.5,3.8-76.1,3.8-76.1c33.8,1.8,36.1,31.1,36.1,31.1c3.8-12.7,3.4-29.1-5.2-40.2
		c-7.6-9.8-20.4-18.3-54.9-20.4C294.7,278.1,293.8,278,292.9,278z M115.8,303.7l-19.6,9l2.4,5.2l19.6-9L115.8,303.7z M216.2,307.4
		c2.6,6.9,9.6,10.2,9.6,10.2c-1.9-4-2.1-10.1-2.1-10.1C219.8,307.9,216.2,307.4,216.2,307.4z M197.7,308.6c0,0-4.2,1.5-6.9,1.1
		c0,0,2,6.5,9,9.4C199.8,319.1,197.5,312.6,197.7,308.6z M124.5,321.4l-16.7,14.1c-0.2,0.2-0.1,0.2,0.2,0.2l15.4,1.2l-3.1,15.2
		c-0.1,0.2,0,0.3,0.2,0.2l18.2-12l-3.4-4.5l-7.7,5.1l1.6-8.2l-0.2-0.2l-8.2-0.6l7.1-5.9L124.5,321.4z M223.6,328.6
		c0,0-0.9,3.9,0.9,8.3c0,0,3.2-0.6,6.2-0.3C230.7,336.6,226.9,333.8,223.6,328.6z M208.5,330.6c0,0-1.8,4.6,0.6,8.9
		c0,0,3.8-1.3,5.5-1.5C214.6,337.9,210.4,334.5,208.5,330.6z"/>
	<path id="XMLID_43_" class="st4" d="M245,248.1c8.4-6.8,24.5-14.5,35.9-17c0,0-10.2,9.2-13.8,17.2c-0.4,0.8-1,1.8-1.7,2.8
		c3.4-0.6,7.5-1.6,7.5-1.6c-6.1,7.2-22.9,12.9-22.9,12.9c0.3-0.1,0.7-0.3,1.1-0.5c-3.7,1.3-7.8,1.6-11.8,0.3
		c-2.2,1.7-2.9,4.4-2.9,4.4c-2.3-2.3-4.3-7.7-4.8-9.3c-1.6-1.5-3.1-3.3-4.6-5.5C227,251.8,236.6,254.8,245,248.1"/>
	<path id="XMLID_48_" class="st5" d="M216,168.5l-15.1,7.7c0,0-10.8-0.8-16.5-0.9c5.2,3.3,9.8,7.1,9.8,7.1l-6.6,11.2l14.2-7.9
		c0,0,9,1.4,17.2,3c-4.7-5.3-10.5-9.2-10.5-9.2L216,168.5z M262.7,243.2c0,0-7.7,3.9-11.6,7.2c-3.9,3.3-12.4,5.7-12.4,5.7
		C255.7,264.1,262.7,243.2,262.7,243.2z M198.1,250.4c-1.8,15.9,10.3,6.7,10.3,6.7C201.6,257.8,198.1,250.4,198.1,250.4z
		 M207.4,286.4c-2.9,0-9.2,0.2-13.2,1.2c0,0,0.9,1.9,1.3,2.2c0,0,7.4-0.8,12.1-0.9l1.4-2.5C209,286.4,208.4,286.4,207.4,286.4z"/>
</g>
</svg>
