<?xml version="1.0" encoding="utf-8"?>
<!-- Generator: Adobe Illustrator 19.0.0, SVG Export Plug-In . SVG Version: 6.00 Build 0)  -->
<svg version="1.1" id="Layer_1" xmlns="http://www.w3.org/2000/svg" xmlns:xlink="http://www.w3.org/1999/xlink" x="0px" y="0px"
	 viewBox="0 0 500 500" style="enable-background:new 0 0 500 500;" xml:space="preserve">
<style type="text/css">
	.st0{fill:#211646;}
	.st1{fill:#B3B2B1;}
	.st2{fill:#FFFFFF;}
	.st3{fill:#D35E13;}
</style>
<g id="XMLID_1_">
	<path id="XMLID_5_" class="st0" d="M113.5,271c-9.8-10.3-16.3-23.3-18.7-37.4c-7-39.9,19.7-77.9,59.5-84.8l0.1,0
		c4.2-0.8,8.5-1.1,12.8-1.1c-5.8-0.4-11.6,0-17.3,1c-41.7,7.3-69.6,47.1-62.3,88.8c2.3,13,7.9,25.2,16.2,35.5
		c4.5-0.8,7.8-1.5,7.8-1.5C112.3,271.2,112.9,271.1,113.5,271z M412.8,258.3l-2.8,0.7l-3.8,0.6c-1.8,5.2-5.5,8.8-5.7,15.2
		c-4.3,4.7-9.8,8.1-15.9,9.8c-6.4,1.6-10.6-0.1-12.9-1.9c-3.3-2.7-5.1-6.8-4.9-11v-1.4l-10.3,2.8c-6.3,1.7-8.4,0.1-9.9-1.6
		c-2.6,4.4-7.8,6.3-11.5,7.2l-20.6,5.5c-2.2,0.7-4.5,0.8-6.7,0.3c-2,1.4-4.2,2.5-6.6,3.2l-71.8,18.8c-4.9,1.4-8,0.4-10.2-1.5
		c-2.5,4.3-7.9,6.3-13.2,7.6l-58.3,15.4c-2,0.6-7.7,2.4-11.7-1.9l-1.5,2.1c-3.5,4.9-8.1,6.5-13.1,7.2c-3.6,0.8-7.4-0.5-9.8-3.3
		c-0.3-0.4-1.4,1.3-1.4,1.3c-3.1,3.8-7.4,6.5-12.2,7.8l-7.5,1.9l-11.9,3.3l3.8-11.8L95.7,292l-18.3-11.6l-5.5,6.6l17.7,11.1
		L76,340.8l-3.8,11.7l11.9-3.1l7.5-2c5.3-1.6,10.2-4.5,14.1-8.4c2.5,2.4,5.9,3.4,9.3,2.7c5.1-0.7,12.2-3.6,15.8-8.5
		c3.9,2.5,8.8,1.6,10.6,1.1l58.2-15.3c5.2-1.4,12.6-2.4,15.1-6.5v-0.1c3.5,1.4,4.7,1,8.3,0.4l71.8-18.9c2.4-0.6,4.6-1.7,6.6-3.2
		c2.2,0.6,4.6,0.5,6.7-0.3l20.6-5.4c3.8-1,9.7-1.9,12.3-6.3c2.3,1,3.9,1.7,9.1,0.6l10.4-2.8c0,0-0.1,0.9-0.1,1.4
		c-0.2,4.3,1.6,8.3,4.9,11c2.4,1.8,6.4,3.3,12.9,1.8c12.3-2.7,22.3-11.6,28-23.8l0.5-0.9l1.2-2c6.8-2.3,16.8-7.6,20.2-18.5
		C426.6,250.5,420.8,256.2,412.8,258.3z"/>
	<path id="XMLID_8_" class="st1" d="M428.1,245.5L428.1,245.5L428.1,245.5z M77.4,280.4L77.4,280.4l2.6-3.1L77.4,280.4z"/>
	<path id="XMLID_9_" class="st1" d="M375.1,279.9c-3.3-2.7-5.1-6.8-4.9-11c0-0.5,0-0.9,0.1-1.4l-10.4,2.8c-6.2,1.6-9.5-0.4-11-2.1
		c-2.3,3.9-6.1,6.6-10.4,7.8l-20.6,5.4c-2.2,0.8-4.5,0.9-6.7,0.3c-2,1.5-4.2,2.6-6.6,3.2l-71.8,18.9c-6.3,1.6-9.8-0.9-11.4-2.5
		c-2.7,4.4-7.1,7.5-12.1,8.7L151,325.5c-2,0.5-8.4,1.6-12.4-2.7l-1.6,2.1c-0.4,0.5-0.7,1-1.1,1.5c4,4.3,9.6,2.4,11.7,1.9l58.3-15.3
		c5.2-1.5,10.6-3.5,13.2-7.6c2.1,1.8,5.2,2.8,10.2,1.4l71.8-18.8c2.4-0.7,4.6-1.8,6.6-3.2c2.2,0.5,4.5,0.4,6.7-0.3L335,279
		c3.8-1,8.9-3,11.5-7.3c1.6,1.6,3.8,3.2,9.9,1.6l10.3-2.8c-0.1,0.5-0.1,0.9-0.1,1.4c-0.2,4.3,1.7,8.4,5,11c2.4,1.8,6.4,3.5,12.9,1.9
		c6.2-1.6,11.7-5,15.9-9.8v-0.1c-3.4,3.4-7.7,5.9-12.3,7C381.7,283.4,377.5,281.7,375.1,279.9z"/>
	<path id="XMLID_10_" class="st1" d="M416.3,255.5l-5.6,1.4l-0.1,0.7l-0.5,1.3l2.7-0.7c8-2.1,13.9-7.8,15.4-12.8
		C425.8,250.4,421.5,254,416.3,255.5z"/>
	<path id="XMLID_11_" class="st1" d="M124.7,332.6c-5.5,0.9-8.4-1.6-9.7-3.3c-0.4-0.4-0.7-0.9-0.9-1.4l-1.9,2.8
		c-0.2,0.5-0.6,1-1,1.4l0.2,0.1c1.3,1.6,4.3,4.1,9.7,3.3c5.1-0.7,9.5-2.4,13.1-7.2l1-1.4C132.6,330.1,128.8,332.2,124.7,332.6z"/>
	<path id="XMLID_12_" class="st1" d="M93.8,340.5l-11.9,3.1l3.8-11.8l13.6-42.6l-19.3-12l-2.5,3.1L95.8,292l-13.7,42.6l-3.8,11.7
		l11.9-3.1l7.5-2c4.8-1.2,9-3.9,12.2-7.7l0.1-0.1c-2.4,2.5-5.4,4.2-8.7,5L93.8,340.5z"/>
	<path id="XMLID_13_" class="st1" d="M98.4,233.4c-7-39.8,19.6-77.8,59.4-84.8l0.2,0c2.2-0.4,4.3-0.7,6.5-0.9
		c-3.4,0.1-6.7,0.5-10,1.1c-39.9,7-66.6,44.9-59.6,84.8c2.3,13.3,8.3,25.7,17.2,35.9c1-0.2,2-0.5,3-0.8
		C106.5,258.6,100.7,246.4,98.4,233.4z"/>
	<path id="XMLID_14_" d="M417.6,235.1l6.9-21.1L370,228.4l-8.5,2.3l3-9.9l-11.8,3.1l-6,1.6c-2.9,0.8-5.8,2-8.3,3.5l3.9-9.5
		l-102.9,27.1c4.7-12.3,5.9-25.6,3.6-38.6c-7.1-39.9-45.2-66.4-85.1-59.3c-39.9,7.1-66.4,45.2-59.3,85.1c2.3,12.9,8,24.9,16.5,34.9
		c-2,0.5-35,8.6-35,8.6l19.3,12L85.7,332L82,343.8l11.9-3.1l7.5-2c4.5-1.1,8.3-3.8,10.9-7.7l1.9-2.8c0.2,0.5,0.5,1,0.8,1.4
		c1.3,1.6,4.3,4.1,9.8,3.3c5.1-0.7,8.8-3.1,12.3-7.9l1.6-2.1c4,4.3,10.4,3.2,12.4,2.6l58.3-15.3c5-1.2,9.4-4.4,12.1-8.7
		c1.6,1.7,5.1,4.1,11.3,2.5l71.8-18.9c2.4-0.6,4.6-1.7,6.6-3.2c2.2,0.6,4.6,0.5,6.7-0.3l20.6-5.4c4.4-1.1,8.1-3.9,10.4-7.8
		c1.6,1.6,4.9,3.6,11.1,2.1l10.3-2.8v1.4c-0.2,4.2,1.7,8.3,4.9,11c2.4,1.8,6.4,3.5,12.9,1.9c12.5-3.3,18.5-13.4,22.5-24.2l0.1-0.7
		l5.6-1.5c6.2-1.8,11.1-6.6,13-12.8l3.1-11.4L417.6,235.1z"/>
	<path id="XMLID_25_" class="st1" d="M334,233.2l-3.5,1l-1.9,2l-0.9-1.2l-4.4,1.2l2.4,3.1l-2.9,3l-5.2,1.3l2.1-6.5l-3.9,1l-1.9,6.1
		l-0.1,0.4l-4.2,1l1.5-4.5c0.4-1.6-0.1-2.1-0.9-1.9c-1.1,0.3-2.2,1-3,1.8l-3.3,3.8l1.3-4l-3.9,1l-2.1,6.6l-7.5,2
		c-0.7,0.1-1.6,0.3-1.3-1l0.1-0.4l5.4-1.3c0.7-0.6,1.1-1.5,1.1-2.4c-0.1-1.8-2.4-1.6-3.8-1.2l-14.8,3.9c-2.7,0.5-4.9,2.6-5.5,5.2
		c-0.1,0.7,0,1.4,0.3,2.1l-4.2,1.1c0.4-1,1.5-4.5,1.5-4.5c0.7-2.1-0.7-2-0.9-1.9c-1.1,0.3-2.2,1-2.9,1.9l-3.1,3.8L267,245l-3.8,1
		l-4.9,15.1l2.3-0.6c0.6-0.2,1.1-0.6,1.6-1.1l4.1-4.7l-0.9,2.7c-0.4,1.3-0.1,1.8,1,1.6l4.6-1.2c1.2-0.4,2.1-1.2,2.5-2.4
		c0.7,1,2.1,1.4,4.6,0.7c2.8-0.8,4.9-2.8,5.1-5.5c0-0.7-0.2-1.4-0.7-1.9c0,0,4.7-1.3,4.8-1.3c-0.6,0.8-1,1.8-1,2.9
		c-0.1,3,3,2.6,5.2,2l7.2-2l2-0.5c0.8-0.3,1.5-0.8,2.1-1.5l3.8-4.4l-0.9,2.7c-0.4,1.3-0.1,1.8,1.3,1.5l8-2l0.4-0.1l5.5-1.4
		c0.1-0.1,0.4-0.1,0.5-0.1l2.7-0.7l2.9-3l1.3,1.8l4.4-1.1l-2.7-3.8L334,233.2z M291.4,246.3l2.3-0.6l-0.8,1.8l-2,0.5L291.4,246.3z
		 M278.7,254.1c0,0-2.5,1-2-0.9l1-3.2l2.5-0.6L278.7,254.1z M334,233.2l-3.5,1l-1.9,2l-0.9-1.2l-4.4,1.2l2.4,3.1l-2.9,3l-5.2,1.3
		l2.1-6.5l-3.9,1l-1.9,6.1l-0.1,0.4l-4.2,1l1.5-4.5c0.4-1.6-0.1-2.1-0.9-1.9c-1.1,0.3-2.2,1-3,1.8l-3.3,3.8l1.3-4l-3.9,1l-2.1,6.6
		l-7.5,2c-0.7,0.1-1.6,0.3-1.3-1l0.1-0.4l5.4-1.3c0.7-0.6,1.1-1.5,1.1-2.4c-0.1-1.8-2.4-1.6-3.8-1.2l-14.8,3.9
		c-2.7,0.5-4.9,2.6-5.5,5.2c-0.1,0.7,0,1.4,0.3,2.1l-4.2,1.1c0.4-1,1.5-4.5,1.5-4.5c0.7-2.1-0.7-2-0.9-1.9c-1.1,0.3-2.2,1-2.9,1.9
		l-3.1,3.8L267,245l-3.8,1l-4.9,15.1l2.3-0.6c0.6-0.2,1.1-0.6,1.6-1.1l4.1-4.7l-0.9,2.7c-0.4,1.3-0.1,1.8,1,1.6l4.6-1.2
		c1.2-0.4,2.1-1.2,2.5-2.4c0.7,1,2.1,1.4,4.6,0.7c2.8-0.8,4.9-2.8,5.1-5.5c0-0.7-0.2-1.4-0.7-1.9c0,0,4.7-1.3,4.8-1.3
		c-0.6,0.8-1,1.8-1,2.9c-0.1,3,3,2.6,5.2,2l7.2-2l2-0.5c0.8-0.3,1.5-0.8,2.1-1.5l3.8-4.4l-0.9,2.7c-0.4,1.3-0.1,1.8,1.3,1.5l8-2
		l0.4-0.1l5.5-1.4c0.1-0.1,0.4-0.1,0.5-0.1l2.7-0.7l2.9-3l1.3,1.8l4.4-1.1l-2.7-3.8L334,233.2z M291.4,246.3l2.3-0.6l-0.8,1.8
		l-2,0.5L291.4,246.3z M278.7,254.1c0,0-2.5,1-2-0.9l1-3.2l2.5-0.6L278.7,254.1z M251.1,249.4l1.1-0.3c0.5-0.1,1-0.2,1.6-0.3
		c0.4,0,0.7,0,0.9,0.3c0.3,0.3,0.5,0.7,0.4,1.1v0.3c-0.2,3.3-4.3,5.9-6.2,6.9l-0.4,0.2L251.1,249.4z M254.1,246l-10.2,2.7l3.6,1.6
		l-4.6,14.5l3.5-1l1.4-4.4l0.1-0.1c3.4-1.6,11.3-6.3,11.4-11.3v-0.1c0-1.9-1-2.4-2.5-2.4C255.9,245.6,255,245.8,254.1,246L254.1,246
		z M318.5,235.4c1.6-0.5,2.7-1.8,2.9-3.5c0-1.6-1.2-2.4-2.9-2.1c-1.6,0.5-2.7,1.9-2.9,3.5c0,1.2,1,2.1,2.2,2.1
		C318,235.5,318.2,235.4,318.5,235.4z M318.5,235.4c1.6-0.5,2.7-1.8,2.9-3.5c0-1.6-1.2-2.4-2.9-2.1c-1.6,0.5-2.7,1.9-2.9,3.5
		c0,1.2,1,2.1,2.2,2.1C318,235.5,318.2,235.4,318.5,235.4z"/>
	<path id="XMLID_28_" class="st2" d="M169.9,307.4l-11.3,3l8.9-25.7c2.9-8.3-3.4-7.8-4.3-7.6c-4.7,1.1-5.5,2.6-9,6.9l-14.3,18.2
		l7.3-20.6c2.9-8.3-3-7.8-3.8-7.5c-6.4,1.7-8.5,4.7-11.7,9.4l-16,22.3l7.9-25.1c2.1-6.7-0.8-7-4.4-6.1l-20.6,5.1l10.9,6.4
		l-15.2,47.3l7.5-2c2.7-0.6,5.1-2.3,6.7-4.6l22.9-33.7l-9.1,26.1c-1.3,3.5-1,7.1,3.5,6.4c3.1-0.4,5.4-1.8,7.9-5.3l18.4-25.1
		l-6.2,17.7c-1.5,4.2-1.6,7.3,5.5,5.5l35-9.2l1.6-0.4l21.7-5.8c3.9-1,8.1-4.1,9.3-8.4l5.2-14.8l7.8-2.1l-4.2,13.2
		c-1.4,4.4,0.4,7.1,5.2,5.8l33.6-8.9l4.9-1.3l26.7-7l2.3-0.5l4.3-1.2c3.1-0.9,5.9-2.8,7.8-5.5c0,2.4,2.5,2.8,5.5,2l20.7-5.4
		c3.8-1.1,6.8-4.2,7.8-8.1l4.7-14.6l7.8-2.1l-4.2,13.1c-1.3,4.5,0.4,7.1,5.2,5.9l20.6-5.5l2.8-0.7c-2.9,3-4.6,7-4.7,11.2
		c0,4.6,2.8,8.1,9.4,6.4c10.9-2.9,15.7-13.5,19.1-24l9.1-2.4c3.9-1.2,7-4.2,8.2-8.1l-15.4,4.1l6.9-21.1l-13.4,3.5l-6.9,21.1l-3,0.7
		l-4.6,1.2l6.9-21.1l-13.5,3.5l-5.9,17.4c-0.3,1.2,0.5,2.5,1.7,2.8c0.2,0,0.4,0.1,0.6,0.1l-11.4,3.1l6.8-21.1l-20.5,5.5l3.1-9.9
		l-6,1.6c-5.2,1.5-11.9,5.5-11.9,11.7c-0.2,2.6,1.8,4.9,4.5,5.1c0.2,0,0.5,0,0.7,0l-4.9,14.7l-12.4,3.2l6.7-21.1l-13.3,3.5l-6.9,21
		l-3.3,0.9l-4.3,1.1l6.9-21.1l-13.4,3.5l-6.3,18.8c-0.3,0.8-0.5,1.6-0.5,2.4l-12.3,3.2l-10.2,2.7c-4,1-6.1,0-4.8-3.9l2.9-8.9
		l4.5-1.1v0.9c-0.1,3.9,3.3,6.2,7.5,5c4.2-1,7.6-5.1,7.6-9c0-3.8-3.5-6-7.6-4.9l-9.4,2.5c-8.9,2.4-18.6,9.2-19.7,18.8
		c-0.3,1.9,0.1,3.8,1.1,5.4l-11.8,3.1l6.7-21.2l-20.5,5.5l3.1-9.9l-6,1.6c-5.1,1.4-11.9,5.4-11.9,11.6c-0.2,2.6,1.8,4.9,4.4,5.1
		c0.2,0,0.5,0,0.7,0l-4.8,14.7l-13.3,3.5l-10.9,2.8c-2.3,0.6-5.8,0.9-4.6-3.1l3.7-9.9l7.8-2l-3.3,7.2l-6.6,1.6l-0.6,1.8l13-3.3V295
		l5.8-1.6c2.3-1.8,3.7-4.6,3.8-7.6c-0.4-5.8-8.6-5-13.3-3.8l-5.4,1.5c-8.6,2.3-18.8,9.2-18.8,19.3C168.5,304.4,169,306,169.9,307.4z
		 M391.4,268.2c-1.3-0.6-2.2-1.9-2.1-3.4c0-3.5,3.2-9.2,6.6-10L391.4,268.2z"/>
	<path id="XMLID_29_" class="st3" d="M133.2,270.5c1.9-1.1,3.9-1.9,6.1-2.4c3.7-0.9,7.7,0.2,10.4,3c1,1,1.7,2.3,2.1,3.6
		c2.1-1.9,4.7-3.2,7.5-3.6c3.9-0.9,8,0.2,10.8,3c2,2.2,3,5.1,2.7,8.1c3.3-2.2,6.9-3.7,10.7-4.7l5.4-1.4c3.8-1,7.8-1.2,11.7-0.7
		l2.5-1.6c1.6-7.8,9-12.8,16.5-14.7l6-1.6l0.9-0.1c3.9-5.4,7-11.3,9.1-17.6c11.7-34.3-6.7-71.5-41-83.2c-34.3-11.7-71.5,6.7-83.2,41
		C102.3,224.1,111.1,253.4,133.2,270.5L133.2,270.5z"/>
	<path id="XMLID_30_" class="st1" d="M260.6,167.8l6-6.9C135.8,176.9,69.9,229,69.9,229l0.5-0.4C75.8,224.7,138.9,178.9,260.6,167.8
		z"/>
	<path id="XMLID_33_" d="M242.2,213.9c1.8,3,1.7,4.1,1.7,4.1l0.4-0.1l24.2-27.5c-134.4,12.3-201.1,64.6-201.1,64.6
		s32.4-15.9,53.3-22.3C164.8,218.9,237,204.9,242.2,213.9z M237.3,190.4c1.6,2.6,1.4,2.9,1.4,2.9h0.1l21.8-25.5
		C133.3,179.4,70,229,70,229s30.7-15.1,50.4-21.2C163.1,194.7,232.7,182.8,237.3,190.4z"/>
	<path id="XMLID_34_" class="st1" d="M273.3,208.3c-99,11.9-158.7,40.9-184.6,56.2c25.6-14.7,83.2-40.9,178.7-49.6L273.3,208.3z"/>
	<path id="XMLID_35_" d="M240.1,238.5l-1.1,7.8l0.1-0.1l28.3-31.5C132.3,227.1,73,274.7,73,274.7s25.5-13.3,46.2-19.6
		C163.4,241.6,234.9,229.6,240.1,238.5z"/>
	<path id="XMLID_36_" class="st1" d="M274.3,183.8c-136.4,16-206.7,71.1-206.7,71.1s66.8-52.4,201-64.6L274.3,183.8z"/>
</g>
</svg>
